<svg xmlns="http://www.w3.org/2000/svg" width="30.7451mm" height="37.5887mm" viewBox="0 0 87.1514 106.5506"><defs><style>.aa232ba2-7c27-41eb-85dc-4b6a4589eb46{fill:#114a38;}.fd915b6e-d2a8-4814-a293-06d849616f8d{fill:#134b38;}.bb3f3ceb-e54f-460f-94d4-b98f072a943c{fill:#ebaa25;}.b5516d0d-67b8-4082-9138-4cccb750b636{fill:#de5c28;}.b929e88c-eaa3-4881-84ff-1cb9975b0697{fill:#ecab27;}.a34111a9-aec3-409f-8577-c7a2101a56c3{fill:#ebaa26;}.a3aa650e-3014-430e-9977-6ba33d33a508{fill:#eaaa25;}.a22c5c28-9dd8-499d-8337-6ca17c4f2886{fill:#020604;}.b262eafa-eaf5-42ab-bfef-4dcbcf1216ec{fill:#010603;}.afe5e643-b11f-4457-a108-e4078e979eee{fill:#000b06;}.ad9ad39f-1b4d-40b8-8340-877598d1fd5f{fill:#000c07;}.a82c15a8-020a-4f3d-a1a3-2fd6ab962447{fill:#000c06;}.a7a40ef9-e9b1-4507-862c-1b2fe9d96de0{fill:#f7e7c0;}.abce85ec-ac16-452b-be76-72d389b75df6{fill:#f6e7c0;}</style></defs><g id="ec46f5cb-8bcd-4c7b-aad1-c6c0185bec6a" data-name="Calque 2"><g id="a1a35eac-4676-49a0-aa1d-dd83197955dd" data-name="Calque 3"><path class="aa232ba2-7c27-41eb-85dc-4b6a4589eb46" d="M12.162,69.5929c.2517.0968.5085.1824.7541.2927.519.2333,1.028.4891,1.549.7177.558.2448,1.1255.468,1.688.7025.2361.0984.47.2026.7053.3023a1.2757,1.2757,0,0,0,.2.07,1.5146,1.5146,0,0,0,.2119.015.7192.7192,0,0,0-.1127-.1446c-.45-.3-.91-.5876-1.3533-.8974q-.9288-.6484-1.8382-1.3245c-.4232-.3148-.8348-.6458-1.2434-.98a35.0971,35.0971,0,0,1-3.9583-3.7212c-.6293-.7015-1.2575-1.4037-1.8318-2.1505-.4516-.5874-.88-1.1931-1.309-1.7974-.4624-.6513-.8878-1.3274-1.286-2.02a28.9,28.9,0,0,1-1.3663-2.612c-.18-.4028-.3811-.7966-.5485-1.2044-.1832-.4465-.3387-.9044-.5058-1.3575-.1081-.2932-.2231-.5841-.321-.8807-.1067-.323-.2-.6505-.2942-.9776-.11-.3825-.2154-.7662-.32-1.15-.0335-.1233-.0566-.2494-.0858-.3739-.0423-.18-.0875-.3595-.1281-.54-.0312-.1387-.0584-.2783-.0855-.4178-.0406-.2094-.0808-.419-.119-.6289-.0279-.1534-.056-.307-.0776-.4614-.0357-.2542-.0474-.5134-.104-.7626a5.64,5.64,0,0,1-.1173-.8893,15.357,15.357,0,0,0-.1569-1.79,7.8885,7.8885,0,0,1-.1062-1.5747,1.8762,1.8762,0,0,1,.0343-.3831,10.68,10.68,0,0,0,.2179-1.869,5.3377,5.3377,0,0,1,.16-1.3137A.1558.1558,0,0,0,.4213,39.43c.0134-.6019.2125-1.1756.27-1.7712a2.4179,2.4179,0,0,1,.0782-.3326q.0607-.2488.122-.4976c.0409-.1653.0805-.3309.1244-.4954.0917-.3434.1809-.6876.28-1.0288q.16-.5513.3381-1.0972c.0788-.243.1761-.48.2558-.7225A26.4966,26.4966,0,0,1,3.4362,29.88c.3642-.7249.7867-1.4208,1.1933-2.1238.2211-.3823.4593-.7549.6983-1.1264a.4994.4994,0,0,0,.0563-.4851c-.1375-.3583-.266-.72-.3952-1.0813q-.1578-.4414-.308-.8855c-.0957-.2829-.1866-.5674-.28-.8511q-.1863-.5667-.3732-1.133c-.1025-.31-.2117-.6184-.3073-.9307-.1081-.3533-.2071-.71-.3051-1.0658-.09-.3289-.1636-.6629-.2636-.9888-.1461-.4759-.2747-.9548-.3768-1.4425-.0873-.4174-.2134-.8265-.319-1.24-.0316-.1239-.0507-.251-.0774-.3762-.0325-.1532-.0669-.306-.1006-.4589s-.0683-.3053-.101-.4583c-.0475-.2228-.0934-.446-.14-.6689-.0059-.0279-.0158-.0551-.0207-.0831q-.1273-.7363-.2536-1.4729c-.0433-.253-.085-.5062-.1276-.7593-.0024-.0141-.0072-.0278-.009-.0419-.0917-.7214-.1895-1.4421-.2725-2.1645-.0553-.482-.1024-.9656-.13-1.45-.0388-.6839-.0687-1.3688-.0785-2.0537-.0082-.5708.0149-1.1421.0308-1.7131.0051-.185.03-.37.0482-.5543.04-.412.0792-.8241.1231-1.2356.0166-.1555.0421-.31.069-.4643.0367-.21.0856-.4184.117-.6293A1.3642,1.3642,0,0,1,2.243.883,3.7468,3.7468,0,0,1,3.7382.41,14.22,14.22,0,0,1,6.0057.4348q.299.021.5981.0418c.057.0038.1147.0015.1711.0093q1.1012.1528,2.202.3088c.0988.014.196.0391.2943.0566.491.0873.9847.1613,1.4723.2645.4457.0943.8827.229,1.3274.3286.3336.0748.6662.1484.9944.2464.4635.1383.9325.2582,1.4.3839.3577.0963.7168.1873,1.0741.2848q.453.1236.9034.2571c.423.125.8468.2479,1.2666.383.5284.17,1.0529.3525,1.58.5277.5134.1707,1.0294.3339,1.541.51.4979.171.992.3533,1.4875.5313.4289.1541.8592.3044,1.2857.4648.4932.1855.9833.379,1.4739.571.61.2387,1.2211.4739,1.8275.7208.5539.2254,1.1063.4555,1.6523.7.8582.3837,1.7122.7773,2.5647,1.1736.5295.2461,1.0521.507,1.58.7575a1.3242,1.3242,0,0,0,.9513.1332c.1626-.0448.3441-.0177.509-.057.5706-.1359,1.1536-.1851,1.7308-.2743a9.5834,9.5834,0,0,1,1.1009-.1409c.2984-.0114.595-.068.8925-.1029.2406-.0282.4809-.0638.7224-.0792.7408-.0471,1.4829-.0772,2.2233-.13a28.3923,28.3923,0,0,1,4.4932.025c.64.0555,1.2833.0661,1.9247.105.2557.0156.51.0524.7651.08.3546.0381.7093.0746,1.0636.1153q.3814.0438.7619.0975c.1693.0241.3363.0711.5061.0837a4.8921,4.8921,0,0,1,1.0974.172,1.4523,1.4523,0,0,0,.38.0567,2.15,2.15,0,0,1,.6709.1219.54.54,0,0,0,.082.0247q.7338.14,1.4678.2788c.042.008.0862.0059.1273.0166.4131.1065.825.2174,1.2386.3218.3861.0975.7752.1829,1.16.2842.33.0869.661.1758.983.2884a.6529.6529,0,0,0,.5746-.0368c.3095-.1763.6232-.3462.926-.5333,1.2736-.7871,2.5825-1.5124,3.9039-2.2144q1.5466-.8217,3.1182-1.5964c.83-.4078,1.6769-.7827,2.521-1.1618.7272-.3265,1.4552-.6522,2.1933-.9529.8035-.3273,1.6182-.6271,2.4294-.9354.6648-.2527,1.3278-.5108,1.9986-.7465.5231-.1838,1.0573-.3356,1.5858-.504.3249-.1036.6464-.2183.9731-.3157.3542-.1057.7128-.1969,1.07-.2947.2467-.0676.4929-.1369.74-.2033.4258-.1145.8517-.2287,1.2784-.34.11-.0286.2233-.0436.3346-.0669.1673-.0351.3336-.0751.5014-.1075C82.3016.25,82.9006.1219,83.51.06c.2271-.0231.456-.0292.6833-.0512a1.4119,1.4119,0,0,1,1.4308.7431A3.5291,3.5291,0,0,1,86.05,1.8173c.1028.4582.2245.9121.3381,1.3679.0069.0277.0164.055.0208.0831.0828.5206.1666,1.041.2466,1.5621.0412.2679.0754.537.1131.8055.0039.0282.0123.0559.0151.0843.0913.9372.2109,1.8728.2658,2.8122.065,1.1114.0961,2.2259.1013,3.3392.0055,1.1991-.0353,2.3984-.0578,3.5976q-.0063.3426-.0269.6848-.0455.7477-.099,1.4949c-.03.4128-.0588.8259-.1015,1.2375-.0588.5678-.1352,1.1338-.1945,1.7015a10.1306,10.1306,0,0,1-.166,1.2292c-.057.2484-.0428.5123-.0843.7653-.1064.6472-.2283,1.2919-.34,1.9383-.0919.5337-.1682,1.07-.2682,1.6024s-.223,1.06-.3317,1.59c-.0372.1814-.052.3676-.0943.5476-.1076.4575-.2278.912-.3377,1.3689-.1.4154-.188.8336-.29,1.2482-.0988.4-.2066.7985-.3155,1.1963-.0864.3155-.1967.6254-.2672.9443a2.06,2.06,0,0,0,.0952,1.218A6.3089,6.3089,0,0,1,84.6,35.2912c.0521.2643.1446.5206.2128.7821q.1665.6392.3236,1.2807c.0337.1381.05.28.0772.42.0413.21.0881.418.128.6278.0292.1534.0554.3076.0754.4624a5.1742,5.1742,0,0,0,.0695.5941,6.3843,6.3843,0,0,1,.1469,1.1866c.0434.7266.1137,1.4516.167,2.1777a14.0666,14.0666,0,0,1-.0613,2.1815c-.0443.5406-.0581,1.085-.13,1.6217-.0889.662-.1594,1.328-.3026,1.9822-.0274.1252-.06.25-.075.3771a3.0263,3.0263,0,0,1-.1595.7512,2.2733,2.2733,0,0,0-.0684.3345q-.05.2285-.1076.4554c-.0211.0826-.057.1618-.0742.245a10.249,10.249,0,0,1-.3827,1.3515c-.1041.2944-.1813.5983-.2788.8951-.0885.27-.1845.5369-.2839.8027-.1094.2928-.22.5857-.3417.8733-.1613.38-.3353.7538-.5025,1.131a29.3159,29.3159,0,0,1-1.3891,2.6969c-.3682.6421-.7736,1.2642-1.1865,1.8791-.4211.6272-.8611,1.2424-1.3126,1.8482-.3408.4573-.6964.906-1.0739,1.3335a35.6166,35.6166,0,0,1-3.6339,3.6885c-.6209.5251-1.2205,1.0766-1.8582,1.58s-1.3012.9743-1.97,1.4359c-.7153.4939-1.437.9808-2.179,1.4328-.7657.4665-1.552.9007-2.3435,1.3224a4.4954,4.4954,0,0,0-1.0378.7454l-.0908.079.0155-.01a1.4519,1.4519,0,0,0-.2433.0616c-.3132.1384-.6239.2828-.9341.4279-1.164.5446-2.3552,1.0239-3.5641,1.4577a49.3275,49.3275,0,0,1-6.916,1.9369c-.9363.1889-1.8737.37-2.8222.4882-.4808.06-.963.1107-1.4414.1855a14.3027,14.3027,0,0,1-1.5735.1619c-.1137.0051-.2275.0169-.34.0333a14.7191,14.7191,0,0,1-2.1707.1857c-.9565-.0036-1.9131.0066-2.87.0034a19.4,19.4,0,0,1-2.9461-.1383c-.8024-.1254-1.6191-.1243-2.4231-.2544-.7313-.1183-1.4728-.1748-2.2026-.3-1.3067-.2246-2.6084-.4788-3.8953-.8019a50.2843,50.2843,0,0,1-4.873-1.4693,46.865,46.865,0,0,1-4.5761-1.92c-.4876-.2374-.9685-.4886-1.4551-.7283-.0687-.0338-.14-.1095-.2482-.0282a1.32,1.32,0,0,0,.0776.1858A7.1984,7.1984,0,0,0,20.4,74.4721a10.7611,10.7611,0,0,0,2.1655,1.8018,21.6914,21.6914,0,0,0,4.3824,2.1193,36.9719,36.9719,0,0,0,5.61,1.52c.2229.0426.44.1162.66.1755-.3721.2638-.7509.5187-1.1151.793A8.9858,8.9858,0,0,0,29.4993,83.96a14.2409,14.2409,0,0,0-1.1774,3.25,9.6361,9.6361,0,0,0-.2095,1.134c-.056.4811-.0728.9667-.1081,1.45a15.1836,15.1836,0,0,0,.1033,2.2641c.0171.2246.1065.4426.1434.6669a8.4243,8.4243,0,0,0,.7684,2.3044,7.9232,7.9232,0,0,0,2.6715,3.06,10.7846,10.7846,0,0,0,2.1156,1.1139c.5939.2428,1.1962.4657,1.7852.72a4.5854,4.5854,0,0,0,.97.3194,5.6072,5.6072,0,0,1-2.2142,1.696,18.0472,18.0472,0,0,1-2.398.88,21.4483,21.4483,0,0,1-2.15.5306,12.1466,12.1466,0,0,1-1.728.2663c-.6107.03-1.2177.1376-1.8285.1668a12.0343,12.0343,0,0,1-2.6844-.1139c-.2239-.04-.4543-.0422-.6788-.0793-.1663-.0275-.328-.0835-.4913-.1266.1015-.1544.204-.3082.3035-.4638a6.9631,6.9631,0,0,0,.9867-2.1672,5.0919,5.0919,0,0,0-.0723-2.8278,5.47,5.47,0,0,0-3.0943-3.4058,3.0269,3.0269,0,0,0-2.0429-.201,1.6411,1.6411,0,0,1-.2542.0283c-.219-.4949-.4548-.9832-.6524-1.4865a10.97,10.97,0,0,1-.5446-1.7065c-.0955-.4455-.2073-.8876-.3117-1.3313a.6963.6963,0,0,1-.0177-.0837c-.0734-.6948-.2347-1.3784-.2566-2.08-.0133-.4279-.0262-.8566-.0644-1.2827a19.018,19.018,0,0,1,.0887-3.0783,5.0759,5.0759,0,0,1,.0933-.5047,1.7014,1.7014,0,0,0,.0385-.2955c0-.1921-.0842-.28-.2788-.3167a.4446.4446,0,0,0-.0849-.01A6.1234,6.1234,0,0,1,15,82.07a14.12,14.12,0,0,1-1.4815-.4022,14.487,14.487,0,0,1-2.088-.8684A18.6645,18.6645,0,0,1,7.5759,78.277a.5147.5147,0,0,1-.0847-.1447A5.6765,5.6765,0,0,0,8.7543,77.52a6.7239,6.7239,0,0,0,1.6874-1.49,7.9694,7.9694,0,0,0,1.2908-2.1982,6.979,6.979,0,0,0,.4523-1.8587,7.4461,7.4461,0,0,0-.0063-1.8277A4.3619,4.3619,0,0,1,12.162,69.5929Zm28.7061-8.22a.5067.5067,0,0,1-.1321.3056,1.0651,1.0651,0,0,0-.1992.3689c-.0556.2477-.0625.5058-.1062.7567a4.4191,4.4191,0,0,1-.1682.743,1.9074,1.9074,0,0,1-.8336.9388.4659.4659,0,0,1-.4858.0437c-.14-.0687-.2877-.1217-.433-.1793a4.2533,4.2533,0,0,0-.439-.1642.6256.6256,0,0,0-.2943-.0112.9388.9388,0,0,0-.6286.9861,1.3338,1.3338,0,0,0,.5549.8282,1.289,1.289,0,0,0,.6926.3067,2.8963,2.8963,0,0,0,1.1377-.1215,2.24,2.24,0,0,0,.6089-.2941,3.2459,3.2459,0,0,0,.74-.813,1.049,1.049,0,0,1,.153-.1391,1.0447,1.0447,0,0,1,.3455.4507,1.6879,1.6879,0,0,0,.426.5287,1.7928,1.7928,0,0,0,.8078.461,2.4821,2.4821,0,0,0,1.443-.26.6306.6306,0,0,0,.1655-.1332,1.9439,1.9439,0,0,0,.5741-1.5472A1.041,1.041,0,0,0,44.7,64.06a.3322.3322,0,0,0-.5818-.114c-.1469.135-.2737.2932-.428.4182a1.4123,1.4123,0,0,1-.4653.2873.9806.9806,0,0,1-1.0181-.4606,2.5353,2.5353,0,0,1-.3083-1.2672,4.009,4.009,0,0,0-.1007-.801,3.8193,3.8193,0,0,0-.2555-.8008c.0733-.0408.144-.0875.22-.1213a2.7041,2.7041,0,0,0,1.0568-.7749c.2827-.3563.5506-.7248.8117-1.0972a1.2423,1.2423,0,0,0,.1673-.3884.44.44,0,0,0-.2328-.576,1.1137,1.1137,0,0,0-.2763-.1082c-.2062-.0552-.4129-.1123-.6229-.1479a4.5492,4.5492,0,0,0-1.8176-.1159.7978.7978,0,0,1-.17.0112,6.4132,6.4132,0,0,0-1.6619.3642.6485.6485,0,0,0-.1175.051.5.5,0,0,0-.2774.6379,1.1281,1.1281,0,0,0,.11.277,4.7243,4.7243,0,0,0,1.3673,1.5034C40.3592,61.0092,40.6119,61.1937,40.8681,61.3729ZM80.3644,25.8093a1.6006,1.6006,0,0,0,.1393-.2525c.05-.1777.0934-.3578.1311-.5387.1362-.6551.2793-1.309.4006-1.9668.1446-.7841.27-1.5718.4022-2.3581.0165-.0982.0224-.1982.0363-.2968.036-.2537.0723-.5074.1113-.7606a2.8265,2.8265,0,0,0,.0547-.2935c.0347-.7709.2255-1.521.2961-2.2889.0507-.5507.1521-1.1.1946-1.6537.0414-.54.0811-1.0795.1136-1.62a14.65,14.65,0,0,0-.0744-1.5359,9.6468,9.6468,0,0,0-.2186-1.9084,2.1724,2.1724,0,0,1-.0409-.3391,5.6994,5.6994,0,0,0-.3564-1.27.42.42,0,0,0-.1132-.1788.5613.5613,0,0,0-.247-.1549A2.4907,2.4907,0,0,0,80.09,8.416c-.4757.1438-.9377.3328-1.4061.5009-.2946.1058-.5918.2042-.8848.3143-.4664.1753-.94.3365-1.3933.541a23.74,23.74,0,0,0-3.0183,1.6947c-.6736.431-1.3068.9166-1.9336,1.4107a12.8907,12.8907,0,0,0-1.7562,1.6855.4339.4339,0,0,0-.1561.3955c.3688.2684.7523.5388,1.1262.822.3634.2754.72.5605,1.0741.8475.3654.2957.7289.5942,1.0859.9s.71.6162,1.0548.9358c.3347.3105.6551.6364.9838.9534.3388.3267.6866.6444,1.0185.9779.3218.3235.6327.6581.9405.995.3172.3474.6316.6978.9348,1.0574s.5932.73.884,1.0991q.423.5373.8357,1.0827C79.7624,25.0017,80.0408,25.3774,80.3644,25.8093ZM8.7885,23.4679c.1247-.1.2037-.1578.2762-.2226.2764-.2472.5428-.5061.8273-.7435q1.149-.9588,2.31-1.9027c.9839-.8021,1.9978-1.5661,3.0548-2.268,1.4138-.9388,2.8463-1.85,4.273-2.7691.3382-.218.3484-.3.0031-.535-1.12-.7621-2.2361-1.53-3.3694-2.2723q-1.8972-1.242-3.8766-2.3518A27.7525,27.7525,0,0,0,8.88,8.7118a4.2211,4.2211,0,0,0-1.9151-.3563.764.764,0,0,1-.0856.0021,1.8211,1.8211,0,0,0-.707.1488.7067.7067,0,0,0-.5045.7145c0,.4-.0167.8-.003,1.1988.0107.3124.0533.6239.088.9351.0205.1837.051.3664.0809.5489.1127.6888.2119,1.38.3447,2.0651.1573.8108.3414,1.6165.52,2.4231.0922.4173.189.834.2974,1.2474.2567.9786.5234,1.9545.7828,2.9324.2342.8829.5291,1.7462.8336,2.6064A1.8486,1.8486,0,0,0,8.7885,23.4679ZM24.4943,54.7443h.0017c0,.1854-.01.3715.003.5561a2.5052,2.5052,0,0,0,.0746.4594c.05.1925.1151.3818.1834.5689a3.6522,3.6522,0,0,0,.6255,1.1114,4.479,4.479,0,0,0,1.8331,1.3545,4.3307,4.3307,0,0,0,5.072-1.4464,4.4381,4.4381,0,0,0,.8554-2.2434A4.2119,4.2119,0,0,0,32.88,53.261a3.9883,3.9883,0,0,0-.7364-1.2884,4.8775,4.8775,0,0,0-1.1009-.9389,3.5938,3.5938,0,0,0-1.5522-.5663,4.0225,4.0225,0,0,0-2.0637.182c-.0516.0234-.1084.035-.1616.0552a3.3452,3.3452,0,0,0-1.0479.5566,5.9466,5.9466,0,0,0-.7658.7338,5.4853,5.4853,0,0,0-.6.9275c-.1023.1988-.13.4345-.2131.6452a2.0578,2.0578,0,0,0-.1455.877C24.4989,54.5443,24.4943,54.6444,24.4943,54.7443Zm24.9535.1027a1.3029,1.3029,0,0,0,.01.4726,5.75,5.75,0,0,0,.3012,1.02c.0915.159.1669.3276.246.4936a3.8578,3.8578,0,0,0,1.2622,1.4188,4.5178,4.5178,0,0,0,1.8783.7629,2.374,2.374,0,0,0,.8462.0728,7.5734,7.5734,0,0,0,.9546-.2191,4.4284,4.4284,0,0,0,1.9386-1.19,6.3555,6.3555,0,0,0,.4282-.5839A3.9936,3.9936,0,0,0,57.9,55.8283a6.4088,6.4088,0,0,0,.1409-.6666,1.9355,1.9355,0,0,0,.0418-.3372,5.9317,5.9317,0,0,0-.2872-1.5024,3.0057,3.0057,0,0,0-.2384-.5377,4.2587,4.2587,0,0,0-.9429-1.2053,4.7284,4.7284,0,0,0-1.2518-.8,5.8056,5.8056,0,0,0-.9821-.2726,2.4349,2.4349,0,0,0-1.1448-.036,4.8364,4.8364,0,0,0-1.2565.368,4.3018,4.3018,0,0,0-1.4133,1.0158,4.4187,4.4187,0,0,0-1.0113,1.9429A2.9871,2.9871,0,0,0,49.4478,54.847Zm-31.3813-1.6a2.8988,2.8988,0,0,0-.2517-.2253,2.0292,2.0292,0,0,0-.3309-.1942c-.245-.1122-.4913-.2241-.7446-.3151a4.664,4.664,0,0,0-.5367-.13,1.1712,1.1712,0,0,0-.2494-.0487,2.7189,2.7189,0,0,1-.59-.0773c-.2343-.0523-.4794-.0561-.7141-.1069-.2522-.0545-.511-.0471-.76-.0945A8.3489,8.3489,0,0,0,12.1954,51.9c-.7133.0106-1.4275.0212-2.14-.0037a7.6605,7.6605,0,0,0-1.5614.1887.7842.7842,0,0,0-.4832.332A.5924.5924,0,0,0,8,53.17a.8911.8911,0,0,0,.9091.3393,3.2465,3.2465,0,0,1,.419-.0635c.7705-.0074,1.5412-.0166,2.3115-.0032a16.8126,16.8126,0,0,1,2.3035.0732c.4174.0645.8479.0226,1.2743.0846a11.0531,11.0531,0,0,1,1.2731.0955.3.3,0,0,0,.0426.0013,6.38,6.38,0,0,0,1.1014-.1049A.5246.5246,0,0,0,18.0665,53.2468ZM74.1546,51.13v.0029c.3139,0,.6288-.0161.9413.0051a.9112.9112,0,0,0,.6252-.2228.1988.1988,0,0,0,.047-.2992,1.2492,1.2492,0,0,0-.5316-.4163c-.4421-.1626-.908-.23-1.3612-.3475a3.2527,3.2527,0,0,0-.5889-.0853,13.9153,13.9153,0,0,0-2.0447.089.99.99,0,0,0-.2038.0611A1.1956,1.1956,0,0,1,70.7518,50a5.1311,5.1311,0,0,0-1.198.2934,11.93,11.93,0,0,0-2.0972.83,10.2471,10.2471,0,0,0-.9521.5676,1.2824,1.2824,0,0,0-.3043.298.5185.5185,0,0,0,.16.8309.4.4,0,0,0,.3209.087,4.6678,4.6678,0,0,0,.4486-.1321c.3158-.1224.628-.2545.94-.3871.1443-.0613.2791-.1481.4269-.197.62-.205,1.237-.4253,1.8679-.5911a4.9729,4.9729,0,0,1,1.6276-.3022.63.63,0,0,0,.1695-.018,6.1772,6.1772,0,0,1,1.4793-.1511C73.812,51.135,73.9834,51.13,74.1546,51.13ZM10.0423,58.8405a1.7825,1.7825,0,0,0,.9245-.2347c.6566-.2367,1.329-.4163,1.992-.6283.3129-.1.6394-.1322.95-.2281.4759-.1468.98-.1736,1.4473-.3523a.5434.5434,0,0,1,.1272-.0113,3.6256,3.6256,0,0,0,.98-.2753,2.4921,2.4921,0,0,1,.7672-.2452.6115.6115,0,0,0,.4078-.2129.31.31,0,0,0-.0028-.4252.4321.4321,0,0,0-.39-.1284,3.772,3.772,0,0,1-1.1811-.1359,1.4112,1.4112,0,0,0-.6344.0011,5.4154,5.4154,0,0,1-.7963.1283,3.8756,3.8756,0,0,0-.7158.0988c-.1241.0294-.25.0525-.3734.0842-.6051.155-1.2171.2885-1.8123.4753-.5143.1615-1.0129.3761-1.5116.5835a1.856,1.856,0,0,0-.6886.4945A.7205.7205,0,0,0,9.56,58.69.534.534,0,0,0,10.0423,58.8405Zm58.5728-3.77V55.07c-.228,0-.4566.011-.6838-.0028a1.0228,1.0228,0,0,0-.7123.2292c-.1189.0908-.2278.1678-.22.3353.0085.1951-.0329.39.1309.5614a.978.978,0,0,0,.6655.2374,5.9864,5.9864,0,0,1,1.1431.0957,6.6121,6.6121,0,0,1,1.4294.1978,5.9611,5.9611,0,0,1,.6227.1264c.66.1665,1.3154.3506,1.9781.5045.2735.0635.5657.0307.84.1157a.1377.1377,0,0,0,.0425,0,.2358.2358,0,0,0,.2371-.1482.2006.2006,0,0,0-.0639-.232,10.722,10.722,0,0,0-.8409-.7182,5.6963,5.6963,0,0,0-1.5731-.7474,15.16,15.16,0,0,0-1.8075-.477,3.424,3.424,0,0,0-.6742-.077C68.9571,55.0717,68.7861,55.0705,68.6151,55.0705Z"/><path class="fd915b6e-d2a8-4814-a293-06d849616f8d" d="M63.2646,75.94a6.5222,6.5222,0,0,1,.7615,1.2829c.2749.5628.5414,1.1322.7667,1.7162a13.55,13.55,0,0,1,.5341,1.7555c.122.5154.184,1.0388.2882,1.5557a4.3911,4.3911,0,0,1,.0871.8074c.0113.9133.0053,1.8268.0073,2.74a3.5377,3.5377,0,0,0,.0159.3827.145.145,0,0,0,.2032.0932.9946.9946,0,0,0,.1741-.119,13.0761,13.0761,0,0,0,2.889-3.4676,14.7628,14.7628,0,0,0,1.0959-2.3114c.3466-.9338.6832-1.8716,1.0468-2.7987A12.0192,12.0192,0,0,1,72.16,75.42a4.9237,4.9237,0,0,1,1.3908-1.4906,3.6179,3.6179,0,0,1,1.93-.605,4.3444,4.3444,0,0,1,2.8808,1.0193,7.567,7.567,0,0,1,2.3744,3.088,10.4119,10.4119,0,0,1,.522,1.7126A12.8306,12.8306,0,0,1,81.4,82.5958a.9776.9776,0,0,1-.02.17c-.1337.5979-.2381,1.2046-.4128,1.79a12.4955,12.4955,0,0,1-.6413,1.72,16.2732,16.2732,0,0,1-3.29,4.7138,14.6983,14.6983,0,0,1-4.0914,2.9187,21.7919,21.7919,0,0,1-2.3364.9377,13.9878,13.9878,0,0,1-1.9845.51,8.9208,8.9208,0,0,1-1.1084.0661.2815.2815,0,0,0-.0459-.07,7.0707,7.0707,0,0,0-1.9372-1.1489,3.3756,3.3756,0,0,0-2.5373.01,3.8783,3.8783,0,0,0-1.0991.6472,4.44,4.44,0,0,0-1.65,2.8984,5.1241,5.1241,0,0,0,.4336,2.7517,7.0706,7.0706,0,0,0,1.0357,1.6106,2.9506,2.9506,0,0,1-1.0808.2228c-.34.0271-.68.0619-1.0192.1a12.9688,12.9688,0,0,1-3.2809-.031c-.183-.0261-.3671-.0481-.5515-.06a5.2508,5.2508,0,0,1-1.0978-.1549,1.0733,1.0733,0,0,0-.2525-.0419,7.3731,7.3731,0,0,1-1.2955-.2576,6.38,6.38,0,0,1-.93-.305,2.67,2.67,0,0,1-.7528-.2879.4422.4422,0,0,1,.1645-.2764c.0278-.02.0322-.0722.0473-.11l.149-.1252c.1555.0419.2352-.0739.3247-.1611a19.62,19.62,0,0,0,1.9938-2.222,21.1545,21.1545,0,0,0,1.2531-1.9813,5.9816,5.9816,0,0,0,.5094-1.1709,11.6268,11.6268,0,0,0,.4932-1.7162c.0526-.3075.0872-.6194.16-.922a3.8059,3.8059,0,0,0,.0805-.9332,12.1072,12.1072,0,0,0-.086-2.0032c-.0557-.3211-.0783-.6482-.14-.9681a11.1661,11.1661,0,0,0-.3779-1.4851c-.1-.2953-.1684-.6015-.2723-.8954a2.6068,2.6068,0,0,0-.24-.4489c-.0324-.0543-.1561-.039-.1843.02a.9449.9449,0,0,0-.066.1979c-.1.4434-.1905.8888-.2966,1.3306-.0961.4-.207.7971-.3131,1.195-.1575.59-.3052,1.1833-.4781,1.7689-.1894.6414-.3984,1.2772-.6067,1.9129-.3189.9728-.6447,1.9433-.9669,2.915a1.4111,1.4111,0,0,0-.0717.2455,6.2039,6.2039,0,0,1-.2963,1.1107c-.234.7017-.4964,1.3942-.7543,2.0877-.0253.0678-.1021.1164-.1664.1865a3.8157,3.8157,0,0,0-.4723-.405,9.7771,9.7771,0,0,0-1.401-.7277,15.1912,15.1912,0,0,0-1.9334-.6724,6.4909,6.4909,0,0,0-1.793-.3512.5893.5893,0,0,1-.1692-.0206,4.3185,4.3185,0,0,0-1.1065-.0464.15.15,0,0,0-.15.1273l-.2635.0084a.7869.7869,0,0,0-.6187-.0318,5.6785,5.6785,0,0,0-1.871.6907.51.51,0,0,1-.1962.03.5471.5471,0,0,1-.0468-.14,9.2608,9.2608,0,0,1,.0156-1.2815c.065-.47.0508-.9368.0695-1.4052a2.9306,2.9306,0,0,1,.0307-.382,7.3457,7.3457,0,0,0,.15-1.2244,2.8494,2.8494,0,0,1,.1022-.8,16.5737,16.5737,0,0,1,.3038-1.672.3939.3939,0,0,0,.01-.17,1.7177,1.7177,0,0,1,.0981-.6724c.147-.4326.1306-.9019.3134-1.3248a.2874.2874,0,0,0,.0147-.1267,1.687,1.687,0,0,1,.1407-.6637,1.3928,1.3928,0,0,0,.1032-.3688,5.6836,5.6836,0,0,1,.2479-1.0723,24.9584,24.9584,0,0,1,.7531-2.66c.179-.4789.34-.9646.51-1.4467.1374-.3887.2768-.7766.4153-1.1648l.152-.0295c.0357.0217,2.4576-.1937,2.4924-.2352.0557-.0029.1577-.0332.2134-.0361.5239-.0482,1.6024-.0519,1.7967-.0765.4635-.06.9277-.116,1.391-.1783a3.4109,3.4109,0,0,1,.3753-.073,10.8849,10.8849,0,0,0,1.468-.2371c.3077-.048.6108-.1271.9149-.197.6906-.1588,1.3878-.2949,2.0689-.4878.8193-.232,1.6367-.4713,2.44-.7639a27.5707,27.5707,0,0,0,2.677-1.1049c.46-.2248.9113-.469,1.355-.7244.3194-.1837.6166-.4056.93-.6A4.07,4.07,0,0,1,63.2646,75.94Z"/><path class="bb3f3ceb-e54f-460f-94d4-b98f072a943c" d="M44.0242,96.7846l.2636-.0084a1.6969,1.6969,0,0,0,.2948.0318,8.5579,8.5579,0,0,1,2.5329.3325,13.7771,13.7771,0,0,1,2.2586.78,6.0079,6.0079,0,0,1,1.22.6129c.206.152.403.3164.6009.4791a.2674.2674,0,0,0,.3314.0583c.0235-.0609.0551-.1389.0838-.218.1115-.3074.2185-.6165.3336-.9226.2452-.6517.4534-1.3155.6529-1.9821.0528-.1766.0577-.3682.1156-.5426.2244-.6756.4614-1.347.6936-2.02.1577-.4574.326-.9115.47-1.3731.191-.6116.3676-1.2277.5422-1.8442s.3456-1.2341.5055-1.8544a19.1026,19.1026,0,0,0,.4442-1.8694c.0056-.0369.074-.0773.12-.09.0256-.007.0859.0332.0967.0641.0756.2144.1451.4312.2113.6488.1075.3541.2313.7049.3112,1.0653a4.9393,4.9393,0,0,1,.2082,1.43.51.51,0,0,0,.025.1253,7.3608,7.3608,0,0,1,.1208,2.2554,11.2073,11.2073,0,0,1-.2945,1.8506c-.1434.4922-.3141.9764-.4574,1.4685a4.1747,4.1747,0,0,1-.4029.9417,21.7522,21.7522,0,0,1-1.2211,2.0068,17.71,17.71,0,0,1-1.1394,1.3847c-.2972.3271-.6235.6276-.9317.945a2.5347,2.5347,0,0,0-.2009.2676l-.149.1251a.5079.5079,0,0,0-.46.3045,1.3448,1.3448,0,0,0-.1618-.0517c-.2549-.0484-.3167-.0162-.4327.2223-.2739.5633-.5368,1.1322-.8231,1.6891a9.7256,9.7256,0,0,1-1.2164,1.8541,4.8594,4.8594,0,0,1-1.5554,1.2476,3.2025,3.2025,0,0,1-2.12.2815,3.2884,3.2884,0,0,1-1.5388-.7934,4.9888,4.9888,0,0,1-1.14-1.5336,8.82,8.82,0,0,1-.6921-1.8776c-.0744-.3188-.1564-.6342-.1988-.9593a1.379,1.379,0,0,0-.066-.2911.4084.4084,0,0,0-.3359-.2935,5.0112,5.0112,0,0,0-.5512-.0612,6.4893,6.4893,0,0,1-1.4836-.1642,2.1127,2.1127,0,0,0-.212-.0265c-.38-.0577-.7607-.1087-1.1384-.1772a3.2932,3.2932,0,0,0-.9764-.0616,4.5925,4.5925,0,0,1-.97-.3195c-.589-.2539-1.1913-.4768-1.7852-.72a10.7846,10.7846,0,0,1-2.1156-1.1139,7.9232,7.9232,0,0,1-2.6715-3.0595,8.4243,8.4243,0,0,1-.7684-2.3044c-.0369-.2243-.1263-.4423-.1434-.6669a15.1836,15.1836,0,0,1-.1033-2.2641c.0353-.4835.0521-.9691.1081-1.45a9.6361,9.6361,0,0,1,.2095-1.134,14.2409,14.2409,0,0,1,1.1774-3.25,8.9858,8.9858,0,0,1,2.6031-3.0781c.3642-.2743.743-.5292,1.1147-.793.49.064.9827.1179,1.4713.1952a8.9522,8.9522,0,0,0,1.2194.1569,1.5563,1.5563,0,0,1,.21.029c.2792.0441.5569.1065.8378.13.5367.0439,1.0752.0648,1.6128.0972.0842.0051,3.8144.1672,5.2944.17.1848,0,.37.0082.5545.0125-.05.133-.0969.2672-.1506.3987-.0969.2369-.2117.4674-.2945.7091-.2764.8062-.5484,1.6141-.8085,2.4257-.1038.3239-.1732.6589-.2567.9891-.0975.3855-.1913.7719-.2906,1.1569-.1134.4395-.2316.8777-.3464,1.3168a1.231,1.231,0,0,0-.0169.1268c-.0636.42-.2057.825-.2469,1.25a.6228.6228,0,0,1-.0223.0825c-.0363.1517-.0783.3024-.1069.4556a7.8578,7.8578,0,0,1-.21,1.0867.6379.6379,0,0,0-.0218.2115,3.815,3.815,0,0,1-.1337.9269,1.6818,1.6818,0,0,0-.0455.2942,11.8242,11.8242,0,0,1-.1719,1.4384,3.4391,3.4391,0,0,0-.07.6761c.02.6292-.0979,1.2486-.1089,1.8748-.0007.0423-.016.0842-.0178.1266-.0171.3834-.038.7667-.0438,1.15-.0011.073.0595.1469.0917.22a.5743.5743,0,0,0,.1462-.0239c.1272-.0634.2545-.1281.3751-.2029a4.5685,4.5685,0,0,1,1.13-.4955c.3791-.1105.777-.1561,1.1661-.2332C43.9864,96.8359,44.0041,96.8039,44.0242,96.7846Z"/><path class="b5516d0d-67b8-4082-9138-4cccb750b636" d="M44.4176,80.8791c-.1849-.0043-.37-.0121-.5545-.0125-1.48-.0032-5.21-.1653-5.2944-.17-.5376-.0324-1.0761-.0533-1.6128-.0972-.2809-.023-.5586-.0854-.8378-.13a1.5563,1.5563,0,0,0-.21-.029,8.9522,8.9522,0,0,1-1.2194-.1569c-.4886-.0773-.981-.1312-1.4713-.1952-.2193-.0593-.4362-.1329-.6591-.1755a36.9719,36.9719,0,0,1-5.61-1.52,21.6914,21.6914,0,0,1-4.3824-2.1193A10.7611,10.7611,0,0,1,20.4,74.4721a7.1984,7.1984,0,0,1-.8449-1.1284,1.32,1.32,0,0,1-.0776-.1858c.1077-.0813.18-.0056.2482.0282.4866.24.9675.4909,1.4551.7283a46.865,46.865,0,0,0,4.5761,1.92A50.2843,50.2843,0,0,0,30.63,77.304c1.2869.3231,2.5886.5773,3.8953.8019.73.1254,1.4713.1819,2.2026.3.804.13,1.6207.129,2.4231.2544a19.4,19.4,0,0,0,2.9461.1383c.9565.0032,1.9131-.007,2.87-.0034a14.7191,14.7191,0,0,0,2.1707-.1857c.1127-.0164.2265-.0282.34-.0333a14.3027,14.3027,0,0,0,1.5735-.1619c.4784-.0748.9606-.1258,1.4414-.1855.9485-.1178,1.8859-.2993,2.8222-.4882a49.3275,49.3275,0,0,0,6.916-1.9369c1.2089-.4338,2.4-.9131,3.5641-1.4577.31-.1451.6209-.2895.9341-.4279a1.4519,1.4519,0,0,1,.2433-.0616,1.8217,1.8217,0,0,1-.1615.2431,13.85,13.85,0,0,1-1.3759,1.3411,2.0434,2.0434,0,0,0-.2441.29c-.1423.0923-.2867.1816-.4267.2773a18.6589,18.6589,0,0,1-3.2285,1.746,28.6661,28.6661,0,0,1-2.7647,1.0216c-.6117.1895-1.2268.37-1.8463.5324s-1.2431.31-1.87.4374c-.683.1387-1.3722.2466-2.0586.3679-.126.0223-.2513.0493-.378.0663-.2679.0358-.5365.0661-.8047.0991-.4236.052-.8469.1064-1.2708.156-.3533.0413-.666.12-1.0192.1631a.34.34,0,0,0-.142.027,11.617,11.617,0,0,1-2.66.2438l-.1521.0294Z"/><path class="b929e88c-eaa3-4881-84ff-1cb9975b0697" d="M12.162,69.5929a4.3619,4.3619,0,0,0,.0165.5528,7.4461,7.4461,0,0,1,.0063,1.8277,6.979,6.979,0,0,1-.4523,1.8587A7.9694,7.9694,0,0,1,10.4417,76.03a6.7239,6.7239,0,0,1-1.6874,1.49,5.6765,5.6765,0,0,1-1.2631.6121,6.7871,6.7871,0,0,1-1.0457-.9985,9.9567,9.9567,0,0,1-1.41-1.9273,6.274,6.274,0,0,1-.8-2.1908,5.6893,5.6893,0,0,1-.11-.6741,4.0078,4.0078,0,0,1,.749-2.6162,2.9805,2.9805,0,0,1,1.2806-.964,4.577,4.577,0,0,1,2.3477-.26,11.5584,11.5584,0,0,1,1.5493.3c.479.1311.9442.3146,1.4111.4871C11.7008,69.3763,11.9292,69.4905,12.162,69.5929Z"/><path class="a34111a9-aec3-409f-8577-c7a2101a56c3" d="M18.2153,94.4243a1.6411,1.6411,0,0,0,.2542-.0283,3.0269,3.0269,0,0,1,2.0429.201,5.47,5.47,0,0,1,3.0943,3.4058,5.0919,5.0919,0,0,1,.0723,2.8278,6.9631,6.9631,0,0,1-.9867,2.1672c-.0995.1556-.202.3094-.3035.4638a7.1723,7.1723,0,0,1-1.41-.3187,8.4543,8.4543,0,0,1-1.2377-.4542,15.8438,15.8438,0,0,1-1.4745-.76,11.06,11.06,0,0,1-1.7651-1.267,3.9949,3.9949,0,0,1-1.0332-1.3973,2.8227,2.8227,0,0,1,.0193-2.398,3.6484,3.6484,0,0,1,1.3065-1.4913,8.8448,8.8448,0,0,1,1.1147-.6251A.606.606,0,0,0,18.2153,94.4243Z"/><path class="a34111a9-aec3-409f-8577-c7a2101a56c3" d="M61.7139,102.1357a7.0706,7.0706,0,0,1-1.0357-1.6106,5.1251,5.1251,0,0,1-.4336-2.7517,4.44,4.44,0,0,1,1.65-2.8984,3.8778,3.8778,0,0,1,1.099-.6472,3.376,3.376,0,0,1,2.5373-.01,6.1717,6.1717,0,0,1,1.8262,1.0429c.1593.1021.1419.1526.157.1764a6.0376,6.0376,0,0,1,.0686,2.3368,4.0689,4.0689,0,0,1-.7817,1.6929,5.6412,5.6412,0,0,1-1.8721,1.5955A9.4477,9.4477,0,0,1,63,101.86,3.8185,3.8185,0,0,1,61.7139,102.1357Z"/><path class="fd915b6e-d2a8-4814-a293-06d849616f8d" d="M48.5421,80.4348c.4239-.05.8472-.104,1.2708-.156.2682-.033.5368-.0633.8047-.0991.1267-.017.252-.044.378-.0663.6864-.1213,1.3756-.2292,2.0586-.3679.6273-.1273,1.2511-.2755,1.87-.4374s1.2346-.3429,1.8463-.5324a28.6661,28.6661,0,0,0,2.7647-1.0216,18.6589,18.6589,0,0,0,3.2285-1.746c.14-.0957.2844-.185.4267-.2773l.0722.224a4.03,4.03,0,0,0-.4192.2c-.3137.1941-.6109.416-.93.6-.4438.2553-.8951.5-1.355.7243a27.5622,27.5622,0,0,1-2.6771,1.1049c-.8029.2926-1.62.5319-2.44.7639-.681.1929-1.3783.329-2.0689.4878-.304.07-.6071.149-.9149.197a10.8823,10.8823,0,0,1-1.468.2371,3.4437,3.4437,0,0,0-.3753.073c-.4633.0623-.9274.1182-1.391.1783a6.3031,6.3031,0,0,0-.7569.11,4.0193,4.0193,0,0,1-.9765.0522A7.39,7.39,0,0,1,48.5421,80.4348Z"/><path class="b5516d0d-67b8-4082-9138-4cccb750b636" d="M64.9568,73.8667l.0908-.079Z"/><path class="a3aa650e-3014-430e-9977-6ba33d33a508" d="M80.3644,25.8093c-.3236-.4319-.602-.8076-.8849-1.18q-.4139-.5445-.8357-1.0827c-.2908-.3694-.581-.74-.884-1.0991s-.6176-.71-.9348-1.0574c-.3078-.3369-.6187-.6715-.9405-.995-.3319-.3335-.68-.6512-1.0185-.9779-.3287-.317-.6491-.6429-.9838-.9534-.3445-.32-.6979-.63-1.0548-.9358s-.7205-.6044-1.0859-.9c-.3545-.287-.7107-.5721-1.0741-.8475-.3739-.2832-.7574-.5536-1.1262-.822a.4339.4339,0,0,1,.1561-.3955,12.8907,12.8907,0,0,1,1.7562-1.6855c.6268-.4941,1.26-.98,1.9336-1.4107a23.74,23.74,0,0,1,3.0183-1.6947c.4536-.2045.9269-.3657,1.3933-.541.293-.11.59-.2085.8848-.3143.4684-.1681.93-.3571,1.4061-.5009a2.4907,2.4907,0,0,1,1.1041-.0228.5613.5613,0,0,1,.247.1549.42.42,0,0,1,.1132.1788,5.6994,5.6994,0,0,1,.3564,1.27,2.1724,2.1724,0,0,0,.0409.3391,9.6468,9.6468,0,0,1,.2186,1.9084,14.65,14.65,0,0,1,.0744,1.5359c-.0325.54-.0722,1.08-.1136,1.62-.0425.5541-.1439,1.103-.1946,1.6537-.0706.7679-.2614,1.518-.2961,2.2889a2.8265,2.8265,0,0,1-.0547.2935c-.039.2532-.0753.5069-.1113.7606-.0139.0986-.02.1986-.0363.2968-.1322.7863-.2576,1.574-.4022,2.3581-.1213.6578-.2644,1.3117-.4006,1.9668-.0377.1809-.0808.361-.1311.5387A1.6006,1.6006,0,0,1,80.3644,25.8093Z"/><path class="a3aa650e-3014-430e-9977-6ba33d33a508" d="M8.7885,23.4679a1.8486,1.8486,0,0,1-.1769-.29c-.3045-.86-.5994-1.7235-.8336-2.6064-.2594-.9779-.5261-1.9538-.7828-2.9324-.1084-.4134-.2052-.83-.2974-1.2474-.1782-.8066-.3623-1.6123-.52-2.4231-.1328-.6848-.232-1.3763-.3447-2.0651-.03-.1825-.06-.3652-.0809-.5489-.0347-.3112-.0773-.6227-.088-.9351-.0137-.3991.0033-.7992.003-1.1988a.7067.7067,0,0,1,.5045-.7145,1.8211,1.8211,0,0,1,.707-.1488.764.764,0,0,0,.0856-.0021A4.2211,4.2211,0,0,1,8.88,8.7118a27.7525,27.7525,0,0,1,3.4075,1.6911q1.9767,1.1139,3.8766,2.3518c1.1333.7419,2.2494,1.51,3.3694,2.2723.3453.235.3351.317-.0031.535-1.4267.92-2.8592,1.83-4.273,2.7691-1.057.7019-2.0709,1.4659-3.0548,2.268q-1.16.9456-2.31,1.9027c-.2845.2374-.5509.4963-.8273.7435C8.9922,23.31,8.9132,23.3678,8.7885,23.4679Z"/><path class="a22c5c28-9dd8-499d-8337-6ca17c4f2886" d="M24.4943,54.7443c0-.1.0046-.2-.0009-.3a2.0578,2.0578,0,0,1,.1455-.877c.0828-.2107.1108-.4464.2131-.6452a5.4853,5.4853,0,0,1,.6-.9275,5.9466,5.9466,0,0,1,.7658-.7338,3.3452,3.3452,0,0,1,1.0479-.5566c.0532-.02.11-.0318.1616-.0552a4.0225,4.0225,0,0,1,2.0637-.182,3.5938,3.5938,0,0,1,1.5522.5663,4.8775,4.8775,0,0,1,1.1009.9389A3.9883,3.9883,0,0,1,32.88,53.261a4.2119,4.2119,0,0,1,.2628,1.8438,4.4381,4.4381,0,0,1-.8554,2.2434,4.3307,4.3307,0,0,1-5.072,1.4464A4.479,4.479,0,0,1,25.3825,57.44a3.6522,3.6522,0,0,1-.6255-1.1114c-.0683-.1871-.1332-.3764-.1834-.5689A2.5052,2.5052,0,0,1,24.499,55.3c-.0126-.1846-.003-.3707-.003-.5561Zm1.88-1.3943a.81.81,0,0,0,.11.5523.9424.9424,0,0,0,1.261.3591,1.0735,1.0735,0,0,0,.29-1.8007.8793.8793,0,0,0-1.2969.0312A1.0916,1.0916,0,0,0,26.3745,53.35Z"/><path class="b262eafa-eaf5-42ab-bfef-4dcbcf1216ec" d="M49.4478,54.847a2.9871,2.9871,0,0,1,.1069-1.0494,4.4187,4.4187,0,0,1,1.0113-1.9429,4.3018,4.3018,0,0,1,1.4133-1.0158,4.8364,4.8364,0,0,1,1.2565-.368,2.4349,2.4349,0,0,1,1.1448.036,5.8056,5.8056,0,0,1,.9821.2726,4.7284,4.7284,0,0,1,1.2518.8,4.2587,4.2587,0,0,1,.9429,1.2053,3.0057,3.0057,0,0,1,.2384.5377,5.9317,5.9317,0,0,1,.2872,1.5024,1.9355,1.9355,0,0,1-.0418.3372,6.4088,6.4088,0,0,1-.1409.6666,3.9936,3.9936,0,0,1-.5871,1.2664,6.3555,6.3555,0,0,1-.4282.5839,4.4284,4.4284,0,0,1-1.9386,1.19,7.5734,7.5734,0,0,1-.9546.2191,2.374,2.374,0,0,1-.8462-.0728,4.5178,4.5178,0,0,1-1.8783-.7629,3.8578,3.8578,0,0,1-1.2622-1.4188c-.0791-.166-.1545-.3346-.246-.4936a5.75,5.75,0,0,1-.3012-1.02A1.3029,1.3029,0,0,1,49.4478,54.847ZM51.3256,53.34a.9487.9487,0,0,0,1.3086.9554,1.2267,1.2267,0,0,0,.651-.6446.9994.9994,0,0,0-1.7474-.955A.9719.9719,0,0,0,51.3256,53.34Z"/><path class="afe5e643-b11f-4457-a108-e4078e979eee" d="M41.542,61.3215a3.8193,3.8193,0,0,1,.2555.8008,4.009,4.009,0,0,1,.1007.801,2.5353,2.5353,0,0,0,.3083,1.2672.9806.9806,0,0,0,1.0181.4606,1.4123,1.4123,0,0,0,.4653-.2873c.1543-.125.2811-.2832.428-.4182a.3322.3322,0,0,1,.5818.114,1.041,1.041,0,0,1,.0979.3688,1.9439,1.9439,0,0,1-.5741,1.5472.6306.6306,0,0,1-.1655.1332,2.4821,2.4821,0,0,1-1.443.26,1.7928,1.7928,0,0,1-.8078-.461,1.6879,1.6879,0,0,1-.426-.5287,1.0447,1.0447,0,0,0-.3455-.4507,1.049,1.049,0,0,0-.153.1391,3.2459,3.2459,0,0,1-.74.813,2.24,2.24,0,0,1-.6089.2941,2.8963,2.8963,0,0,1-1.1377.1215,1.289,1.289,0,0,1-.6926-.3067,1.3338,1.3338,0,0,1-.5549-.8282.9388.9388,0,0,1,.6286-.9861.6256.6256,0,0,1,.2943.0112,4.2533,4.2533,0,0,1,.439.1642c.1453.0576.2931.1106.433.1793a.4659.4659,0,0,0,.4858-.0437,1.9074,1.9074,0,0,0,.8336-.9388,4.4191,4.4191,0,0,0,.1682-.743c.0437-.2509.0506-.509.1062-.7567a1.0651,1.0651,0,0,1,.1992-.3689.5074.5074,0,0,0,.1322-.3054Q41.2051,61.3475,41.542,61.3215Z"/><path class="ad9ad39f-1b4d-40b8-8340-877598d1fd5f" d="M18.0665,53.2468a.5246.5246,0,0,1-.4321.3457,6.38,6.38,0,0,1-1.1014.1049.3.3,0,0,1-.0426-.0013,11.0531,11.0531,0,0,0-1.2731-.0955c-.4264-.062-.8569-.02-1.2743-.0846a16.8126,16.8126,0,0,0-2.3035-.0732c-.77-.0134-1.541-.0042-2.3115.0032a3.2465,3.2465,0,0,0-.419.0635A.8911.8911,0,0,1,8,53.17a.5924.5924,0,0,1,.0108-.753.7842.7842,0,0,1,.4832-.332,7.6605,7.6605,0,0,1,1.5614-.1887c.7126.0249,1.4268.0143,2.14.0037a8.3489,8.3489,0,0,1,1.6935.1546c.249.0474.5078.04.76.0945.2347.0508.48.0546.7141.1069a2.7189,2.7189,0,0,0,.59.0773,1.1712,1.1712,0,0,1,.2494.0487,4.664,4.664,0,0,1,.5367.13c.2533.091.5.2029.7446.3151a2.0292,2.0292,0,0,1,.3309.1942A2.8988,2.8988,0,0,1,18.0665,53.2468Z"/><path class="afe5e643-b11f-4457-a108-e4078e979eee" d="M74.1546,51.13c-.1712,0-.3426.0054-.5136-.001a6.1772,6.1772,0,0,0-1.4793.1511.63.63,0,0,1-.1695.018,4.9729,4.9729,0,0,0-1.6276.3022c-.6309.1658-1.2477.3861-1.8679.5911-.1478.0489-.2826.1357-.4269.197-.3118.1326-.624.2647-.94.3871a4.6678,4.6678,0,0,1-.4486.1321.4.4,0,0,1-.3209-.087.5185.5185,0,0,1-.16-.8309,1.2824,1.2824,0,0,1,.3043-.298,10.2471,10.2471,0,0,1,.9521-.5676,11.93,11.93,0,0,1,2.0972-.83A5.1311,5.1311,0,0,1,70.7518,50a1.1956,1.1956,0,0,0,.2861-.0835.99.99,0,0,1,.2038-.0611,13.9153,13.9153,0,0,1,2.0447-.089,3.2527,3.2527,0,0,1,.5889.0853c.4532.1176.9191.1849,1.3612.3475a1.2492,1.2492,0,0,1,.5316.4163.1988.1988,0,0,1-.047.2992.9112.9112,0,0,1-.6252.2228c-.3125-.0212-.6274-.0051-.9413-.0051Z"/><path class="b5516d0d-67b8-4082-9138-4cccb750b636" d="M41.542,61.3215q-.3369.0258-.6738.0516c-.2563-.1794-.509-.3639-.77-.5367a4.7243,4.7243,0,0,1-1.3673-1.5034,1.1281,1.1281,0,0,1-.11-.277.5.5,0,0,1,.2774-.6379.6485.6485,0,0,1,.1175-.051,6.4132,6.4132,0,0,1,1.6619-.3642.7978.7978,0,0,0,.17-.0112,4.5492,4.5492,0,0,1,1.8176.1159c.21.0356.4167.0927.6229.1479a1.1137,1.1137,0,0,1,.2763.1082.44.44,0,0,1,.2328.576,1.2423,1.2423,0,0,1-.1673.3884c-.2611.3724-.529.7409-.8117,1.0972a2.7041,2.7041,0,0,1-1.0568.7749C41.686,61.234,41.6153,61.2807,41.542,61.3215Z"/><path class="a82c15a8-020a-4f3d-a1a3-2fd6ab962447" d="M10.0423,58.8405a.534.534,0,0,1-.4822-.15.7205.7205,0,0,1-.0277-.8618,1.856,1.856,0,0,1,.6886-.4945c.4987-.2074.9973-.422,1.5116-.5835.5952-.1868,1.2072-.32,1.8123-.4753.1236-.0317.2493-.0548.3734-.0842a3.8756,3.8756,0,0,1,.7158-.0988,5.4154,5.4154,0,0,0,.7963-.1283,1.4112,1.4112,0,0,1,.6344-.0011,3.772,3.772,0,0,0,1.1811.1359.4321.4321,0,0,1,.39.1284.31.31,0,0,1,.0028.4252.6115.6115,0,0,1-.4078.2129,2.4921,2.4921,0,0,0-.7672.2452,3.6256,3.6256,0,0,1-.98.2753.5434.5434,0,0,0-.1272.0113c-.4675.1787-.9714.2055-1.4473.3523-.31.0959-.6369.128-.95.2281-.663.212-1.3354.3916-1.992.6283A1.7825,1.7825,0,0,1,10.0423,58.8405Z"/><path class="ad9ad39f-1b4d-40b8-8340-877598d1fd5f" d="M68.6151,55.0705c.171,0,.342.0012.513,0a3.424,3.424,0,0,1,.6742.077,15.16,15.16,0,0,1,1.8075.477,5.6963,5.6963,0,0,1,1.5731.7474,10.722,10.722,0,0,1,.8409.7182.2006.2006,0,0,1,.0639.232.2358.2358,0,0,1-.2371.1482.1377.1377,0,0,1-.0425,0c-.2742-.085-.5664-.0522-.84-.1157-.6627-.1539-1.3183-.338-1.9781-.5045a5.9611,5.9611,0,0,0-.6227-.1264,6.6121,6.6121,0,0,0-1.4294-.1978,5.9864,5.9864,0,0,0-1.1431-.0957.978.978,0,0,1-.6655-.2374c-.1638-.1712-.1224-.3663-.1309-.5614-.0073-.1675.1016-.2445.22-.3353a1.0228,1.0228,0,0,1,.7123-.2292c.2272.0138.4558.0028.6838.0028Z"/><path class="bb3f3ceb-e54f-460f-94d4-b98f072a943c" d="M51.2049,101.238c.0324-.3107.7329-.6178.81-.6972.3082-.3174.6345-.6179.9317-.945a17.71,17.71,0,0,0,1.1394-1.3847,21.7522,21.7522,0,0,0,1.2211-2.0068,4.1747,4.1747,0,0,0,.4029-.9417c.1433-.4921.314-.9763.4574-1.4685a11.2073,11.2073,0,0,0,.2945-1.8506,7.3608,7.3608,0,0,0-.1208-2.2554.51.51,0,0,1-.025-.1253,4.9393,4.9393,0,0,0-.2082-1.43c-.08-.36-.2037-.7112-.3112-1.0653-.0662-.2176-.1357-.4344-.2113-.6488-.0108-.0309-.0711-.0711-.0967-.0641-.0464.0127-.1148.0531-.12.09a19.1026,19.1026,0,0,1-.4442,1.8694c-.16.62-.3311,1.2379-.5055,1.8544s-.3512,1.2326-.5422,1.8442c-.1442.4616-.3125.9157-.47,1.3731-.2322.673-.4692,1.3444-.6936,2.02-.0579.1744-.0628.366-.1156.5426-.2.6666-.4077,1.33-.6529,1.9821-.1151.3061-.2221.6152-.3336.9226-.0287.0791-.06.1571-.0838.218a.2674.2674,0,0,1-.3314-.0583c-.1979-.1627-.3949-.3271-.6009-.4791a6.0079,6.0079,0,0,0-1.22-.6129,13.7771,13.7771,0,0,0-2.2586-.78,8.5579,8.5579,0,0,0-2.5329-.3325c-.0973.006-1.1846-.0188-1.2829-.03a5.2031,5.2031,0,0,1,1.138-.1289,4.3183,4.3183,0,0,1,1.1065.0464.59.59,0,0,0,.1692.0206,6.49,6.49,0,0,1,1.793.3512A15.1858,15.1858,0,0,1,49.44,97.74a9.7771,9.7771,0,0,1,1.401.7277,3.8084,3.8084,0,0,1,.4723.405c.0644-.07.1412-.1187.1664-.1865.258-.6935.52-1.386.7543-2.0877a6.1958,6.1958,0,0,0,.2964-1.1107,1.42,1.42,0,0,1,.0716-.2455c.3222-.9717.6481-1.9422.9669-2.915.2084-.6356.4173-1.2715.6067-1.9129.1729-.5856.3206-1.1787.4781-1.7689.1062-.3979.217-.7947.3131-1.1949.1061-.4419.1969-.8873.2966-1.3307a.9507.9507,0,0,1,.066-.1979c.0283-.0595.1519-.0748.1843-.02a2.6142,2.6142,0,0,1,.24.4489c.1039.2939.1722.6.2722.8954a11.1354,11.1354,0,0,1,.3779,1.4851c.0613.32.0839.647.14.9681a12.129,12.129,0,0,1,.086,2.0032,3.81,3.81,0,0,1-.0805.9332c-.0732.3026-.1078.6145-.16.9221a11.6294,11.6294,0,0,1-.4933,1.7161,5.9812,5.9812,0,0,1-.5093,1.1709,21.1631,21.1631,0,0,1-1.2532,1.9813,19.62,19.62,0,0,1-1.9938,2.222C51.4247,101.4214,51.5367,101.3411,51.2049,101.238Z"/><path class="bb3f3ceb-e54f-460f-94d4-b98f072a943c" d="M44.4176,80.8791l.1516.019c-.1384.3883-.2778.7762-.4151,1.1649-.17.4821-.3312.9678-.51,1.4467a24.9589,24.9589,0,0,0-.7532,2.66,42.7925,42.7925,0,0,0-1.5524,11.304.51.51,0,0,0,.1963-.03,5.6771,5.6771,0,0,1,1.8709-.6907,1.16,1.16,0,0,1,.5578.0877c-.3891.0771-.787.1227-1.1661.2332a4.5685,4.5685,0,0,0-1.13.4955c-.1206.0748-.2479.1395-.3751.2029a.5743.5743,0,0,1-.1462.0239c-.0322-.0735-.0928-.1474-.0917-.22.0058-.3836.0267-.7669.0438-1.15.0018-.0424.0171-.0843.0178-.1266.011-.6262.1291-1.2456.1089-1.8748a3.4391,3.4391,0,0,1,.07-.6761,11.8242,11.8242,0,0,0,.1719-1.4384,1.6818,1.6818,0,0,1,.0455-.2942,3.815,3.815,0,0,0,.1337-.9269.6379.6379,0,0,1,.0218-.2115,7.8578,7.8578,0,0,0,.21-1.0867c.0286-.1532.0706-.3039.1069-.4556a.6228.6228,0,0,0,.0223-.0825c.0412-.4248.1833-.83.2469-1.25a1.231,1.231,0,0,1,.0169-.1268c.1148-.4391.233-.8773.3464-1.3168.0993-.385.1931-.7714.2906-1.1569.0835-.33.1529-.6652.2567-.9891.26-.8116.5321-1.62.8085-2.4257.0828-.2417.1976-.4722.2945-.7091C44.3207,81.1463,44.3676,81.0121,44.4176,80.8791Z"/><path class="a7a40ef9-e9b1-4507-862c-1b2fe9d96de0" d="M26.3745,53.35a1.0916,1.0916,0,0,1,.364-.8581.8793.8793,0,0,1,1.2969-.0312,1.0735,1.0735,0,0,1-.29,1.8007.9424.9424,0,0,1-1.261-.3591A.81.81,0,0,1,26.3745,53.35Z"/><path class="abce85ec-ac16-452b-be76-72d389b75df6" d="M51.3256,53.34a.9719.9719,0,0,1,.2122-.6442.9994.9994,0,0,1,1.7474.955,1.2267,1.2267,0,0,1-.651.6446A.9487.9487,0,0,1,51.3256,53.34Z"/></g></g></svg>