<svg xmlns="http://www.w3.org/2000/svg" width="40.2553mm" height="33.7659mm" viewBox="0 0 114.1094 95.7142"><defs><style>.bc8dd3bb-9635-4469-83db-5c2a712843da{fill:#ffeabf;}.af2a50f4-25a8-4da0-958a-d48a52e61e53{fill:#ffe9bf;}.a17258ce-6b6d-49bf-80fb-6dab324e5fc5{fill:#edac2a;}.b9817664-f0cd-46d9-bc46-3c4f1f9f0b3b{fill:#284739;}.f29d2176-01be-4ff3-b6b2-bfdf3ae8b3f8{fill:#234537;}.e52cec9a-2963-4d7a-9876-9ea28f3341fe{fill:#f7d9a6;}.a3a1ba16-bdbb-4c92-aab1-2d14ade3487b{fill:#f8ddae;}.a6448754-5125-4c42-8c8d-4689645b8f19{fill:#e35e29;}.b03c7feb-ee27-420c-8c8c-bf0f564f7fec{fill:#e35e2a;}.a284460f-ab80-40d9-b780-12ef67911a6a{fill:#194737;}.a8d45c43-ed6d-46d6-8b7c-bcce592e88d0{fill:#184737;}.b9a0177a-bcc8-468a-8359-684b94d92329{fill:#274739;}.b0f9b403-ec8c-4e94-9b51-da41868f6fda{fill:#2b493b;}.a082ba25-571c-4119-b48a-d4b35161c66e{fill:#e4622d;}.be2eff05-153f-4def-ac15-e67bc85b3f36{fill:#2b4a3c;}</style></defs><g id="efa7d94f-1f8d-4125-bca2-1ced2283af2b" data-name="Calque 2"><g id="e99c29fb-1a75-499f-a8f3-3d03f709fcc6" data-name="Calque 5"><path class="bc8dd3bb-9635-4469-83db-5c2a712843da" d="M20.9667,39.3758a1.3262,1.3262,0,0,0,.0461-.5805,2.2962,2.2962,0,0,1,.0237-.935.8506.8506,0,0,0,.0274-.1682,8.5355,8.5355,0,0,1,.0776-.9345c.07-.4477.0662-.9067.1-1.36a3.0134,3.0134,0,0,1,.0609-.3772,3.0787,3.0787,0,0,0,.1156-.8006.7828.7828,0,0,1,.05-.2917,1.8737,1.8737,0,0,0,.1274-.6679.7737.7737,0,0,1,.0481-.2065c.1312-.4942.2815-.9828.387-1.4843a7.1073,7.1073,0,0,1,.2456-.77c.1164-.35.22-.7048.3569-1.0462.2218-.5517.464-1.0952.7028-1.64q.1973-.45.4131-.8914a.4091.4091,0,0,0-.0052-.3665c-.1676-.4068-.3322-.8154-.4819-1.2291-.1641-.4535-.3121-.9129-.4641-1.3708-.2234-.6731-.439-1.3487-.6208-2.0345a4.6677,4.6677,0,0,1-.2812-.9772,5.047,5.047,0,0,1-.2574-.9427,7.4683,7.4683,0,0,1-.23-1.1244.11.11,0,0,0-.0065-.0422c-.1779-.41-.1639-.8643-.3048-1.2845a3.9486,3.9486,0,0,1-.1091-.6284c-.0045-.028.0059-.0619-.0062-.0848-.212-.4008-.1243-.8689-.2909-1.2823a2.58,2.58,0,0,1-.0763-.4608c-.0574-.2923-.1386-.583-.1869-.8731a7.1271,7.1271,0,0,0-.2057-1.1281,7.2254,7.2254,0,0,0-.2015-1.39,16.9559,16.9559,0,0,1-.2409-1.8135,3.2787,3.2787,0,0,0-.1077-.6291,1.2651,1.2651,0,0,1-.0475-.25,17.542,17.542,0,0,0-.0948-1.8761c-.009-.1135-.0154-.2273-.0267-.3406-.0168-.1692-.0466-.3378-.0532-.5073-.0094-.2424.0015-.4855-.004-.7281a8.9948,8.9948,0,0,1,.141-1.4407,3.99,3.99,0,0,0,.0263-.5545,1.7818,1.7818,0,0,1,.0856-.5459c.0936-.2976.15-.6079.2572-.9a3.21,3.21,0,0,1,.748-1.2258,4.4539,4.4539,0,0,1,.8217-.6784,4.9961,4.9961,0,0,1,.7775-.3377A3.535,3.535,0,0,1,23.6506.0105c.1285.0013.257.0006.3856.0006a5.0411,5.0411,0,0,1,.89.079,18.5019,18.5019,0,0,1,2.03.48q1.0609.3159,2.0892.7337c.7113.2911,1.4263.5731,2.1353.87.3545.1482.7006.3169,1.048.4813.6824.323,1.3688.6379,2.0428.9774.8253.4157,1.6407.8511,2.4581,1.2822.4023.2122.7961.4406,1.2.65q1.46.756,2.8673,1.6062c.3043.1845.6251.3418.9336.52q.9248.5335,1.844,1.0769c.319.1879.6329.3847.9517.573a.7658.7658,0,0,0,.739.034,13.3477,13.3477,0,0,1,1.64-.595c.2977-.0932.5859-.2167.8836-.31.2825-.0886.5719-.1551.8579-.233.0955-.026.19-.0576.2845-.0854.19-.0557.3811-.11.5714-.1659a1.5768,1.5768,0,0,0,.2426-.0763,1.0719,1.0719,0,0,1,.4115-.1006.8274.8274,0,0,0,.2852-.0769,1.0228,1.0228,0,0,1,.4119-.0983A.6728.6728,0,0,0,51.1,7.574a1.8407,1.8407,0,0,1,.7818-.1939.5652.5652,0,0,0,.2447-.0645.9088.9088,0,0,1,.4534-.1034.2927.2927,0,0,0,.1275-.0063c.3973-.1718.8389-.1417,1.2446-.2787a2.1418,2.1418,0,0,1,.7517-.1423.7957.7957,0,0,0,.293-.0449,2.1339,2.1339,0,0,1,.7958-.1315,1.1571,1.1571,0,0,0,.3755-.0623,2.2749,2.2749,0,0,1,.7139-.112,3.24,3.24,0,0,0,.506-.0589,9.2645,9.2645,0,0,1,1.6495-.1968,4.4853,4.4853,0,0,0,.7156-.1044c.1541-.0225.3087-.0463.4639-.0561s.3141-.0062.4711-.0028A10.1493,10.1493,0,0,0,62.47,5.86a1.9475,1.9475,0,0,1,.299-.0141c1.7849-.0009,3.57-.0059,5.3546.0033a5.8,5.8,0,0,1,1.06.0984,5.03,5.03,0,0,0,.85.0654c.1427.0031.2861.01.4282,0a5.4587,5.4587,0,0,1,1.1431.1233,1.9674,1.9674,0,0,0,.3366.0467,8.75,8.75,0,0,1,1.6468.2084,7.4892,7.4892,0,0,1,1.4266.218,2.1542,2.1542,0,0,1,.9631.1527.2624.2624,0,0,0,.1259.0193,2.8332,2.8332,0,0,1,1.0037.1739,4.5074,4.5074,0,0,0,.5034.0829c.0421.0064.0917-.0064.127.0113a5.2646,5.2646,0,0,0,.9064.2116c.4356.1322.89.1761,1.3208.3373a9.3015,9.3015,0,0,0,.9929.23c.29.0729.5734.168.8607.25.2045.0583.4138.1018.6153.1688.2132.0709.4208.151.6414.2061.3289.0821.6415.2281.9643.3369.2547.0859.5172.1488.7712.2365.2823.0975.5652.1977.8361.3224a.8069.8069,0,0,0,.813-.0437c.3405-.2074.6835-.4106,1.0274-.6124q.7-.4108,1.4031-.8168c.505-.2931,1.0086-.5886,1.5161-.8771.3581-.2036.7227-.3957,1.0829-.5957.9194-.5106,1.8261-1.0454,2.76-1.5286,1.2529-.6484,2.5244-1.2612,3.7917-1.8817.6392-.3129,1.2817-.62,1.932-.9094.5589-.2486,1.1285-.4738,1.6979-.6978q.7338-.2886,1.4785-.55c.2806-.099.57-.1739.8544-.261.1629-.05.3239-.1058.4876-.1528.0948-.0271.1934-.0406.29-.0626.11-.025.22-.0531.3293-.0789.1372-.0323.2741-.0665.4122-.0943.0972-.02.2-.0182.2938-.0469a3.29,3.29,0,0,1,1.098-.13,5.0149,5.0149,0,0,0,.5994-.0014,2.8625,2.8625,0,0,1,1.2574.1975,3.2282,3.2282,0,0,1,1.6859,1.245c.1435.2293.2981.4531.4214.6929A2.3768,2.3768,0,0,1,111.1,2.74a6.8008,6.8008,0,0,1,.28,1.8052.669.669,0,0,0,.0057.171,13.9573,13.9573,0,0,1,.0767,2.39c-.1593.5555-.0119,1.1392-.1553,1.6966a.5412.5412,0,0,0-.0075.1707,5.5924,5.5924,0,0,1-.1309,1.1418,3.0655,3.0655,0,0,0-.0411.3806,2.3517,2.3517,0,0,1-.1325.9247.6142.6142,0,0,0-.04.2509,3.9684,3.9684,0,0,1-.1426.9682,3.5423,3.5423,0,0,0-.08.5044,11.9865,11.9865,0,0,0-.2177,1.3448,1.1775,1.1775,0,0,1-.0585.2478,2.8417,2.8417,0,0,0-.1132.7149.8944.8944,0,0,1-.0418.2509,5.6229,5.6229,0,0,0-.1546.6629,9.18,9.18,0,0,0-.2342,1.2539.23.23,0,0,1-.0184.0831,13.76,13.76,0,0,0-.3541,1.5354,9.2634,9.2634,0,0,0-.2441,1.0792,8.6841,8.6841,0,0,1-.2863,1.068c-.0944.37-.2084.7351-.2967,1.1074-.062.2616-.1582.5152-.2429.7712-.1732.5236-.3412,1.0491-.5258,1.5686-.2182.6142-.4429,1.2263-.6827,1.8323a.7893.7893,0,0,0,.0088.6968c.1218.24.2088.4972.3329.7356.2824.5429.4573,1.129.6993,1.6874.1472.3393.2191.7024.3785,1.0387a5.1151,5.1151,0,0,1,.2239.7727c.0593.2044.1262.4066.1881.61a.6576.6576,0,0,1,.05.2052,1.6147,1.6147,0,0,0,.1175.54.39.39,0,0,1,.03.08c.0322.5695.2739,1.1027.29,1.6752a.8983.8983,0,0,0,.04.2517,3.0078,3.0078,0,0,1,.1308,1.0545A8.8659,8.8659,0,0,0,109.89,37.41a3.2509,3.2509,0,0,1,.0279.3828c.0023.5425.0113,1.0855-.0065,1.6275a.6189.6189,0,0,0,.2644.549c.5955.4619,1.2.9133,1.7837,1.3889a6.6006,6.6006,0,0,1,1.3044,1.2851,1.7159,1.7159,0,0,1,.3336,1.25,1.2083,1.2083,0,0,1-.3312.6351,4.5031,4.5031,0,0,1-1.0783.8318c-.8075.4824-1.6424.9135-2.4848,1.331-.4739.2348-.4764.2792-.1366.6584.2941.3282.57.6723.8585,1.0059.2418.28.4923.5527.7339.8329.288.3339.5744.6693.8547,1.01q.61.7411,1.21,1.4906a5.1837,5.1837,0,0,1,.859,1.5653.3858.3858,0,0,1,.0183.2086c-.0776.3019-.1583.6034-.2539.9a2.8667,2.8667,0,0,1-.7232,1.0932c-.386.3991-.7935.7765-1.2069,1.1494a15.6294,15.6294,0,0,1-2.1962,1.6187c-.7306.4574-1.469.9079-2.243,1.3-.67.34-1.3269.7107-1.9965,1.0546-.6729.3455-1.3466.6905-2.031,1.0123-.68.32-1.3748.611-2.0629.9151-.534.2361-1.0643.481-1.6026.707-.5511.2313-1.1089.4468-1.6655.6647-.5028.1968-1.0074.3889-1.5123.58-.1989.0753-.4007.1427-.6016.2127-.5629.1963-1.1235.4-1.69.5857-.5136.1687-1.0338.317-1.55.4768-.23.0712-.4582.15-.6878.2229q-.5889.1879-1.1786.3733-.4265.1345-.8533.2672c-.3658.1146-.7334.224-1.0966.3463-.1477.05-.2852.1293-.4288.192-.1171.051-.2363.097-.3546.1452a.1367.1367,0,0,0-.1837-.0493c-.5041.1911-1.0417.2662-1.5481.4545-.491.1824-1.025.22-1.5121.4233a.2362.2362,0,0,1-.0836.0156,5.7673,5.7673,0,0,0-1.0673.26c-.4291.0916-.85.22-1.2754.3314a.251.251,0,0,1-.0846.01,1.4789,1.4789,0,0,0-.54.1108.7491.7491,0,0,1-.2038.0571,2.1575,2.1575,0,0,0-.7019.1642c-.1481.0454-.3036.0665-.4556.1a2.0077,2.0077,0,0,0-.2882.0681c-.3589.1364-.7652.0735-1.11.2675a.071.071,0,0,1-.0421.0041,2.9927,2.9927,0,0,0-.9985.1883c-.0424.0078-.0737.0757-.11.1157l-.1812.0134a.4479.4479,0,0,0-.4438-.0029,1.5758,1.5758,0,0,1-.6622.12.5919.5919,0,0,0-.2088.0267,10.35,10.35,0,0,1-1.3276.2351c-.1551.0273-.3491.0146-.4324.2082l-.3518.0148a.8892.8892,0,0,0-.6977-.0017,2.2849,2.2849,0,0,1-.8336.1158,3.2861,3.2861,0,0,0-.6779.0185,5.8845,5.8845,0,0,1-1.3824.1533.44.44,0,0,0-.1657.0234c-.0362.0131-.0625.0532-.0933.0812L70.3669,70.8a6.7429,6.7429,0,0,0-1.0646.0018,6.9881,6.9881,0,0,1-.9306.07.3663.3663,0,0,0-.1656.0231c-.0427.024-.0654.0836-.0969.1275-.1568.0054-.3137.0154-.4705.0155-1.6279,0-3.2558.0023-4.8837-.0044a2.5511,2.5511,0,0,1-1.1789-.13.1186.1186,0,0,0-.0422-.0061c-.3832-.03-.766-.0726-1.15-.087a9.778,9.778,0,0,1-1.4059-.1043c-.237-.0434-.48-.0574-.72-.0812-.3258-.0322-.6524-.0571-.9778-.0934-.1266-.0141-.25-.0555-.3762-.0762a9.53,9.53,0,0,1-1.4738-.2341,1.0569,1.0569,0,0,0-.17-.0182c-.2388-.0364-.4777-.0728-.7159-.1128a2.6734,2.6734,0,0,0-.2916-.0613c-.5441-.0283-1.0494-.2718-1.596-.2824A11.6229,11.6229,0,0,0,51.37,69.45c-.4591-.1419-.951-.1741-1.417-.2978-.5227-.1388-1.0529-.2407-1.5768-.3718-.87-.2175-1.7434-.4216-2.61-.6519q-1.4238-.3786-2.8372-.7963c-1.0927-.3226-2.1808-.6609-3.2684-1q-1.2033-.3753-2.4-.7713c-.8113-.2677-1.6227-.536-2.4272-.8232-.6567-.2344-1.2962-.5183-1.9565-.741-.663-.2236-1.2972-.5136-1.9444-.7732-.5025-.2016-.9969-.4237-1.4912-.6448-.6888-.3079-1.38-.6118-2.06-.9388-.7417-.3567-1.4742-.7329-2.2061-1.1095-.7216-.3712-1.4362-.7561-2.1572-1.1286-.1476-.0763-.285-.2-.4743-.1575a6.1247,6.1247,0,0,0-1.0253-.693,18.9155,18.9155,0,0,1-3.61-2.7934,3.7715,3.7715,0,0,1-1.1224-2.0219,1.2523,1.2523,0,0,1,.0427-.71,5.4493,5.4493,0,0,1,.7653-1.3294c1.0017-1.3171,2.0791-2.5708,3.1772-3.8073.18-.2024.3619-.4026.5412-.6054.1973-.2233.18-.3189-.0754-.45-.5072-.26-1.0183-.513-1.52-.7826a14.1347,14.1347,0,0,1-1.6449-.9965,2.4159,2.4159,0,0,1-.6519-.67,1.2752,1.2752,0,0,1-.17-1.1011,2.8178,2.8178,0,0,1,.6334-1.0528,9.4618,9.4618,0,0,1,1.1787-1.0531q.7861-.626,1.5848-1.2365A.6529.6529,0,0,0,20.9667,39.3758ZM65.0175,52.7149c.0072.1271.0338.2575-.0722.3629a.7288.7288,0,0,0-.1749.4289c-.0449.2815-.0911.5633-.1193.8468a1.85,1.85,0,0,1-1.0292,1.4347.3768.3768,0,0,1-.3688.0221c-.1424-.0657-.2868-.1273-.432-.1867-.1186-.0485-.2375-.0978-.36-.1352a.7643.7643,0,0,0-.9341.9507,1.5844,1.5844,0,0,0,1.4676,1.0482,2.9635,2.9635,0,0,0,1.0731-.2628,2.5322,2.5322,0,0,0,.871-.7442c.0621-.0781.1137-.1649.1786-.24.1108-.129.2241-.12.3059.0207.05.0864.092.1773.1385.2657a1.9567,1.9567,0,0,0,.519.6194,1.49,1.49,0,0,0,1.5965.2845.915.915,0,0,1,.2043-.0626.8928.8928,0,0,0,.4425-.2476,1.8279,1.8279,0,0,0,.43-1.74c-.005-.0134-.0088-.0272-.0144-.04a.3023.3023,0,0,0-.5153-.13,2.8719,2.8719,0,0,0-.2456.2382c-.0806.0807-.155.1683-.24.2439a.9383.9383,0,0,1-1.3992-.27,2.109,2.109,0,0,1-.2623-.9373,2.0507,2.0507,0,0,0-.02-.3846,3.1982,3.1982,0,0,0-.3838-1.3869c.1558-.07.31-.1437.4677-.2086a1.8578,1.8578,0,0,0,.63-.4309,8.2882,8.2882,0,0,0,1.0661-1.3852,1.0974,1.0974,0,0,0,.1089-.2315.56.56,0,0,0-.2669-.7295.81.81,0,0,0-.24-.08c-.501-.1067-1-.2277-1.5055-.306a3.2608,3.2608,0,0,0-.7659.0139c-.24.0207-.4774.09-.7178.1039a5.2509,5.2509,0,0,0-1.1975.3.56.56,0,0,0-.37.8137.5941.5941,0,0,0,.0347.0782,4.3328,4.3328,0,0,0,1.3993,1.5817c.083.0547.162.1155.244.1718C64.7128,52.5089,64.8654,52.6116,65.0175,52.7149Zm-38.349-30.55c.0694-.0659.1552-.1355.2269-.2173.5258-.6,1.0338-1.2163,1.5769-1.8.5732-.616,1.1687-1.2123,1.7741-1.797.4815-.465.9818-.9121,1.4931-1.3443q.9951-.8409,2.0229-1.643c.5845-.455,1.181-.8962,1.7912-1.3158.6222-.4279,1.2679-.8215,1.9028-1.231.1571-.1014.1661-.2278.02-.34a1.4442,1.4442,0,0,0-.2193-.131c-.3294-.17-.6573-.3442-.9909-.5063-1-.4861-1.993-.9907-3.0085-1.4436-.95-.4234-1.9195-.8024-2.89-1.1773a12.9468,12.9468,0,0,0-2.3732-.7036,1.5255,1.5255,0,0,1-.2375-.0888,2.31,2.31,0,0,0-1.0119-.0394,1.7308,1.7308,0,0,1-.5915.23,2.5175,2.5175,0,0,0-1.2324,1.0786,3.171,3.171,0,0,0-.391,1.5589,22.6655,22.6655,0,0,0,.28,3.5761c.0854.72.221,1.4355.3612,2.1477a31.7594,31.7594,0,0,0,.7737,3.3709c.1571.5026.3114,1.0062.4767,1.5062C26.4607,21.97,26.4922,22.1068,26.6685,22.1648Zm77.67.6345a2.31,2.31,0,0,0,.1913-.35c.1624-.4859.3285-.9715.4632-1.4654q.2527-.9264.456-1.8661c.1782-.8207.3529-1.6431.4938-2.4708.1386-.8135.2341-1.6343.3464-2.4523a6.2825,6.2825,0,0,0,.0781-.6786c.0164-.6131.0144-1.2267.0238-1.84a2.7909,2.7909,0,0,0-.1895-1.0032,2.37,2.37,0,0,0-.8624-1.1422,2.8443,2.8443,0,0,0-2.0771-.4664,9.1117,9.1117,0,0,0-1.6593.3984,35.2413,35.2413,0,0,0-3.5463,1.3732c-1.0949.483-2.17,1.0116-3.2483,1.531-.4364.21-.86.4476-1.2878.6751-.1015.054-.2043.1137-.16.29.1743.1083.3686.2255.5593.3482a48.7354,48.7354,0,0,1,5.02,3.6977c.8409.7077,1.6429,1.4562,2.43,2.22.51.4954.9635,1.0489,1.4524,1.567.46.4874.9061.986,1.3222,1.5116A.7913.7913,0,0,0,104.3387,22.7993ZM73.8342,45.724a.7242.7242,0,0,0,.0127.1484,6.6043,6.6043,0,0,0,2.136,2.7341,9.5567,9.5567,0,0,0,4.7781,1.8346,10.7811,10.7811,0,0,0,3.45-.1553,9.3759,9.3759,0,0,0,3.8388-1.708,6.4153,6.4153,0,0,0,1.99-2.4773c.0352-.0781.0765-.1536.1072-.2333a.142.142,0,0,0-.11-.195,2.7161,2.7161,0,0,0-.3823-.0267q-4.4111-.002-8.8221-.0009-.1286,0-.257.002a.3258.3258,0,0,0-.326.2271,2.7459,2.7459,0,0,1-.204.4226,1.6438,1.6438,0,0,1-1.9141.6512A1.7087,1.7087,0,0,1,77.11,45.9186a.36.36,0,0,0-.3782-.2746c-.8708.0025-1.7416-.001-2.6123.0047A1.2115,1.2115,0,0,0,73.8342,45.724Zm-30.8594-.0794v.0013c-.4423,0-.8847-.0058-1.3268.0023-.24.0044-.2943.1069-.1977.3333.0167.0393.0373.077.0547.1161a6.5989,6.5989,0,0,0,2.5106,2.85A9.6325,9.6325,0,0,0,48.3,50.44a10.8569,10.8569,0,0,0,3.4059-.1438,9.7061,9.7061,0,0,0,3.285-1.2925A6.7665,6.7665,0,0,0,57.3929,46.5c.108-.2006.2-.41.2923-.6185a.1526.1526,0,0,0-.1259-.2208,3.5055,3.5055,0,0,0-.3837-.0155q-4.3869-.0012-8.7739-.0005c-.1,0-.2-.0006-.2995.0033a.3126.3126,0,0,0-.2941.2085,3.2748,3.2748,0,0,1-.229.4572,1.6341,1.6341,0,0,1-2.8927-.3355.4557.4557,0,0,0-.5134-.3369C43.774,45.6543,43.3742,45.6446,42.9748,45.6446Zm61.07,1.5171a1.4352,1.4352,0,0,0-.8174-.3251,9.0945,9.0945,0,0,0-2.9662.286c-.62.161-1.2366.3382-1.8509.5208a17.32,17.32,0,0,0-2.3578.8878,9.0477,9.0477,0,0,0-.8266.447,1.22,1.22,0,0,0-.4855.5283.63.63,0,0,0-.0413.498.7827.7827,0,0,0,.9143.5212,2.1577,2.1577,0,0,0,.3951-.158,18.769,18.769,0,0,1,2.2107-.9127c.6879-.234,1.3715-.4808,2.0616-.708.5273-.1736,1.0634-.32,1.5925-.4884a10.211,10.211,0,0,0,1.5241-.5563A1.613,1.613,0,0,0,104.0445,47.1617Zm-65.5523,7.126a1.091,1.091,0,0,0-.7069-.6332,2.7755,2.7755,0,0,0-.797-.14c-.5421.0054-1.0843.0069-1.6263.0172a2.5238,2.5238,0,0,0-.4672.0488c-.4877.1017-.974.2107-1.4594.3231a15.2275,15.2275,0,0,0-2.687.8482,13.49,13.49,0,0,0-1.24.67.98.98,0,0,0-.434.5131.5133.5133,0,0,0-.0107.374.6327.6327,0,0,0,.7883.4043,2.2988,2.2988,0,0,0,.4368-.1727,10.7258,10.7258,0,0,1,1.5942-.6125c.5844-.1818,1.1691-.364,1.759-.5265.3977-.11.8041-.1884,1.2079-.275.1948-.0418.3922-.0716.589-.1037s.3926-.0686.59-.0883c.5675-.0563,1.1355-.107,1.7036-.1561A.9023.9023,0,0,0,38.4922,54.2877ZM28.674,48.0456l-.0041.0332c-.1713,0-.3426-.0016-.5139,0a2.2033,2.2033,0,0,0-.787.1872.5681.5681,0,0,0-.3668.5345.5574.5574,0,0,0,.3453.5028.71.71,0,0,0,.2.0726c.1962.0332.3934.0634.5914.0828.3548.0348.7111.0549,1.0655.0929.1693.0181.3349.0845.5038.0919a13.25,13.25,0,0,1,1.6834.2953c.56.0976,1.1107.2557,1.6625.3986.289.0748.5727.1708.8571.2625.7052.2272,1.4058.47,2.1161.6792a2.7514,2.7514,0,0,0,.72.0666c.1765.0033.2467-.1335.17-.2991a.821.821,0,0,0-.1335-.2177,3.1369,3.1369,0,0,0-.4292-.4166,6.9933,6.9933,0,0,0-1.7095-.9633c-.4292-.1544-.8527-.327-1.2878-.4623a17.743,17.743,0,0,0-1.73-.4783,9.8885,9.8885,0,0,0-1.5574-.2725c-.0707-.0029-.1406-.0239-.2112-.0333Q29.2668,48.1235,28.674,48.0456Zm68.93,4.71-.0013.0257c-.2142,0-.43-.0144-.6422.0038a4.07,4.07,0,0,0-.7167.1127.6211.6211,0,0,0-.4674.5557.611.611,0,0,0,.3968.6015,1.8659,1.8659,0,0,0,.3693.1023,11.654,11.654,0,0,0,2.0031.1615c1.0982.032,2.1982-.0044,3.2945.106a12.1486,12.1486,0,0,0,2.0082-.08.8527.8527,0,0,0,.2453-.0674.1558.1558,0,0,0,.0545-.2486.6414.6414,0,0,0-.1635-.1353,8.0241,8.0241,0,0,0-.7669-.379,5.7438,5.7438,0,0,0-1.7371-.4276,1.771,1.771,0,0,1-.3375-.0559,4.6953,4.6953,0,0,0-1.0185-.1183c-.328-.0126-.6557-.0334-.9832-.0542C98.6292,52.826,98.1168,52.79,97.6044,52.7558Z"/><path class="af2a50f4-25a8-4da0-958a-d48a52e61e53" d="M84.8916,69.6725c.1656.0566.2025.232.3137.34a20.5132,20.5132,0,0,1,1.6394,1.9637,17.4506,17.4506,0,0,1,1.4774,2.192A15.5811,15.5811,0,0,1,89.92,77.8411a6.1272,6.1272,0,0,1,.3063,1.458,2.8994,2.8994,0,0,0,.08.4608,14.6481,14.6481,0,0,1,.071,2.56,3.6056,3.6056,0,0,1-.0786.5475,12.41,12.41,0,0,1-.362,1.7925,13.4886,13.4886,0,0,1-.8713,2.31,14.02,14.02,0,0,1-.78,1.4689,7.0935,7.0935,0,0,1-1.0771,1.4263c-.2551.2279-.4926.4764-.7281.725a8.1415,8.1415,0,0,1-1.699,1.2839,13.7982,13.7982,0,0,1-2.9475,1.3381,13.4906,13.4906,0,0,1-1.6771.4853,4.8429,4.8429,0,0,1-1.254.232A1.1792,1.1792,0,0,0,78.57,94c-.3347.0794-.6808.06-1.0157.108a9.8539,9.8539,0,0,1-1.1925.0633,13.8374,13.8374,0,0,1-1.863-.1946.4031.4031,0,0,0-.0814-.0254,8.8292,8.8292,0,0,1-1.3014-.2129,4.8892,4.8892,0,0,1-.6175-.1629c-.3272-.0939-.6538-.19-.9788-.291-.0327-.01-.0521-.0631-.0776-.0961a6.38,6.38,0,0,0,.3638-.672c.1912-.4758.3673-.9588.5237-1.4471a3.3782,3.3782,0,0,0,.1712-.8361,7.2681,7.2681,0,0,0-.1484-2.2533,8.6472,8.6472,0,0,0-.9053-2.2551c-.0364-.0614-.0783-.12-.1114-.1827a.4647.4647,0,0,1,.068-.6242,1.2753,1.2753,0,0,1,.2194-.203c.2546-.1831.5062-.3722.773-.536a10.9438,10.9438,0,0,1,3.32-1.3378,8.14,8.14,0,0,1,2.5514-.1968,4.8867,4.8867,0,0,1,1.6178.3829,12.507,12.507,0,0,1,2.1582,1.2182,1,1,0,0,0,.3808.18.5893.5893,0,0,0,.6675-.8029.9649.9649,0,0,0-.1356-.2657c-.2846-.3565-.5592-.7237-.8712-1.0553a5.4539,5.4539,0,0,0-2.4574-1.4161,7.8342,7.8342,0,0,0-3.8143-.0772,10.8075,10.8075,0,0,0-2.2891.6936,9.9178,9.9178,0,0,0-3.1753,2.0608c-.04.0405-.0786.0833-.1224.12a.1868.1868,0,0,1-.2694.0031,2.0947,2.0947,0,0,1-.1525-.15,11.6221,11.6221,0,0,0-1.2818-1.1325,8.8435,8.8435,0,0,0-4.8042-1.8473,27.5428,27.5428,0,0,0-3.851-.0023,6.6041,6.6041,0,0,0-.6823.0589c-.9432.1534-1.887.3054-2.8161.534a4.8512,4.8512,0,0,0-1.3166.4975,1.9453,1.9453,0,0,0-.3642.2913.2905.2905,0,0,0-.0461.3576,1.7221,1.7221,0,0,0,.2051.3246.7421.7421,0,0,0,.6717.305c.2546-.0286.51-.0536.7626-.0945.5348-.0866,1.0659-.1992,1.6026-.27.6079-.0807,1.2189-.15,1.8308-.1843.8118-.045,1.6256-.0566,2.4388-.072a10.2457,10.2457,0,0,1,2.5934.2442,7.4448,7.4448,0,0,1,1.1017.3368,7.6352,7.6352,0,0,1,2.5243,1.7331,7.9632,7.9632,0,0,1,2.2488,3.7738,5.7853,5.7853,0,0,1,.0478,2.1263,1.0265,1.0265,0,0,1-.0444.1652,9.19,9.19,0,0,1-.6806,1.7494,2.2393,2.2393,0,0,0-.5131.3783,9.8929,9.8929,0,0,1-3.0583,1.9922,9.5962,9.5962,0,0,1-1.41.4838,7.68,7.68,0,0,1-1.42.2687c-.41.02-.8172.09-1.2259.1363a3.155,3.155,0,0,1-.34.024c-.6992.0021-1.3984.0039-2.0975-.0017a4.3051,4.3051,0,0,1-.4648-.05c-.0424-.005-.0841-.019-.1263-.02a12.4824,12.4824,0,0,1-1.4906-.0855c-.2787-.0425-.5644-.0262-.8467-.0869-.3736-.08-.7564-.1176-1.1347-.1764-.1259-.02-.25-.0511-.3756-.072-.2239-.0373-.4484-.0709-.6728-.1056-.0281-.0044-.0575-.0032-.0848-.01q-.9694-.2476-1.9384-.4967c-.3424-.0881-.6843-.1779-1.0265-.2666a.7561.7561,0,0,1-.0833-.0183c-.8359-.32-1.7007-.5581-2.526-.9088a11.7818,11.7818,0,0,1-1.5334-.7512c.0945-.2838.204-.5637.2808-.8523.1724-.6476.3341-1.2982.4895-1.95a13.8084,13.8084,0,0,0,.2315-1.6947,16.7684,16.7684,0,0,0,.1283-1.8784,18.076,18.076,0,0,0-.154-3.1176,10.809,10.809,0,0,0-.51-1.9417c-.1655-.4405-.3477-.8751-.534-1.3073a12.6243,12.6243,0,0,0-1.24-2.2932c-.3377-.48-.717-.9229-1.096-1.3694a13.6833,13.6833,0,0,0-4.5-3.4232,15.7059,15.7059,0,0,0-2.5665-.9453,10.1916,10.1916,0,0,0-1.8-.37,9.0231,9.0231,0,0,0-2.64.1957,6.621,6.621,0,0,0-1.6116.567,4.8142,4.8142,0,0,0-.7206.4567.7272.7272,0,0,0-.31.5851.5129.5129,0,0,0,.5051.5727,1.0906,1.0906,0,0,0,.46-.0633,10.1153,10.1153,0,0,1,2.2933-.6712,5.9629,5.9629,0,0,1,2.5057.0463c.3027.0819.6051.1654.91.24a12.3867,12.3867,0,0,1,3.6188,1.6158,12.5777,12.5777,0,0,1,2.741,2.439,9.7726,9.7726,0,0,1,1.4043,2.04,15.637,15.637,0,0,1,1.1662,2.8479,6.6351,6.6351,0,0,1,.3033,1.8532c-.0076.5424-.0079,1.0851-.0088,1.6276a4.1208,4.1208,0,0,1-.1494,1.3131,2.0718,2.0718,0,0,0-.0489.3383c-.0213.1409-.0446.2815-.0688.422-.1042.6039-.2384,1.2045-.3057,1.8126a9.2287,9.2287,0,0,1-.4182,1.9148.3934.3934,0,0,0-.379.2245,6.0178,6.0178,0,0,1-.319.5553,4.1455,4.1455,0,0,1-1.1053,1.1736,4.4354,4.4354,0,0,1-1.1122.6239,4.4941,4.4941,0,0,1-.8912.2773,4.6249,4.6249,0,0,0-.4968.1221,4.3316,4.3316,0,0,1-.84.1318c-.4526.0241-.9022.1021-1.3546.1356a6.59,6.59,0,0,1-1.4921-.018,1.4246,1.4246,0,0,0-.2531-.0323,8.7654,8.7654,0,0,1-1.8632-.1907c-.5295-.0986-1.0641-.1705-1.5919-.2872-.4432-.098-.89-.1849-1.3293-.3-.7559-.1978-1.5145-.3907-2.2576-.63-.6757-.2177-1.3429-.47-1.9943-.7521a20.5454,20.5454,0,0,1-1.9849-.9912c-.57-.3245-1.1325-.66-1.6673-1.0376A15.3716,15.3716,0,0,1,23.438,89.49c-.4714-.4321-.99-.8147-1.4267-1.2843a17.5814,17.5814,0,0,1-1.7744-2.1284c-.3882-.5788-.7755-1.1583-1.1519-1.7447a2.7853,2.7853,0,0,1-.3065-.6094,1.68,1.68,0,0,0-.6-.8542.1465.1465,0,0,0,.0619-.18c-.18-.7179-.36-1.436-.5294-2.1564a18.3018,18.3018,0,0,1-.322-1.9819,15.8674,15.8674,0,0,1-.0948-2.9024,22.48,22.48,0,0,1,.3855-3.2658c.1437-.684.303-1.363.5053-2.0313a21.7621,21.7621,0,0,1,1.147-2.8987,15.5807,15.5807,0,0,1,3.35-4.6086c.4709-.4557.9655-.8869,1.4492-1.3294.1024.077.2072.1509.3066.2315.6192.5022,1.2605.9746,1.9113,1.4351.4064.2876.7936.602,1.1968.8942a4.0514,4.0514,0,0,0,1.2158.7035,4.1815,4.1815,0,0,1,1.01.4581c.7677.4665,1.56.8874,2.3583,1.2967.2533.13.52.2322.775.36,1.5431.7724,3.0769,1.5638,4.629,2.3175.9476.46,1.9177.875,2.8864,1.29.6806.2916,1.3689.5687,2.0666.8163.8055.2859,1.6217.5436,2.44.7923.708.2152,1.4226.41,2.1388.5963.62.1612,1.2459.2927,1.876.4118.5865.1108,1.1709.2318,1.7593.3364.7291.13,1.4635.2131,2.1953.3185.2109.03.4223.0612.6345.0795.44.0379.883.0469,1.32.1054a16.2537,16.2537,0,0,0,2.0436.1452,5.6452,5.6452,0,0,1,.8122.0314,11.841,11.841,0,0,0,1.8714.1469c.314-.0018.6282.0048.9422.0135a.5891.5891,0,0,1,.291.0438.9762.9762,0,0,0,.5782.1074q1.9488.0145,3.8975.0254a27.5828,27.5828,0,0,0,3.2418-.0813,6.552,6.552,0,0,1,1.401-.0934.4105.4105,0,0,0,.1275-.01A5.6228,5.6228,0,0,1,71.62,74.123a1.941,1.941,0,0,0,.3771-.0527,3.8326,3.8326,0,0,1,.6268-.1075,3.532,3.532,0,0,0,.841-.12,1.8532,1.8532,0,0,1,.2056-.054,19.917,19.917,0,0,0,2.4458-.545c.3436-.0881.6763-.2191,1.02-.3049a15.6162,15.6162,0,0,0,2.02-.661c.6991-.28,1.4174-.512,2.0925-.855.4925-.25,1.0143-.4423,1.5112-.6846.5358-.2614,1.0562-.5543,1.5868-.8267C84.5232,69.821,84.71,69.7515,84.8916,69.6725Z"/><path class="bc8dd3bb-9635-4469-83db-5c2a712843da" d="M16.98,82.26a.4991.4991,0,0,1-.3664-.0854c-.5989-.3571-1.2074-.6977-1.7792-1.1A13.4974,13.4974,0,0,1,12.49,79.0285a5.1018,5.1018,0,0,1-.7573-1.0295c-.0976-.1888-.2485-.3507-.34-.5416a11.4176,11.4176,0,0,1-.8789-2.3532c-.0969-.4156-.1779-.8322-.2569-1.2506a6.2807,6.2807,0,0,1-.1516-1.1808.838.838,0,0,0-.0158-.17.1651.1651,0,0,0-.26-.1168,3.1959,3.1959,0,0,0-.399.3161,6.2645,6.2645,0,0,1-1.5544,1.1169,5.0437,5.0437,0,0,1-1.297.41,4.6563,4.6563,0,0,1-1.0193.0664,3.7481,3.7481,0,0,1-2.0583-.7287A6.2226,6.2226,0,0,1,1.74,71.4518,12.5267,12.5267,0,0,1,.6026,68.3305q-.1877-.7869-.332-1.5837c-.0575-.3206-.049-.6533-.1111-.9727-.088-.4525-.0415-.9111-.0963-1.3607A9.9558,9.9558,0,0,1,0,63.1786a4.0019,4.0019,0,0,1,.0543-.722c.0457-.2494.0072-.5129.0279-.7684.0321-.3958.0831-.79.1265-1.185.0016-.014.012-.0274.0119-.0409A10.65,10.65,0,0,1,.4268,58.945c.0192-.1405.0466-.28.0781-.4186.0945-.4148.1965-.8279.289-1.2431a15.1458,15.1458,0,0,1,.4643-1.64c.1709-.4965.32-1.0012.5067-1.4914.2179-.5716.4647-1.1323.7025-1.6961.0936-.2219.1907-.4428.297-.6589.27-.5491.5343-1.1021.8245-1.6408a16.0629,16.0629,0,0,1,.9283-1.5839c.1951-.28.3785-.5681.5765-.8459q.4206-.59.8564-1.17c.1452-.1929.3018-.3781.4632-.5578a16.699,16.699,0,0,1,1.4383-1.5215c.6554-.5671,1.3059-1.1394,1.9835-1.6826A17.3385,17.3385,0,0,1,12.33,41.1564c.4958-.2733,1.0359-.4668,1.5571-.6937a10.7428,10.7428,0,0,1,1.408-.4936,7.5628,7.5628,0,0,1,1.2421-.2919,1.135,1.135,0,0,0,.1663-.037,11.044,11.044,0,0,1,1.4714-.2268,8.71,8.71,0,0,1,1.02-.0709c.0989,0,.1978.0167.2966.0258-.18.1614-.3641.3181-.5385.4851a15.9751,15.9751,0,0,0-1.908,2.0783,6.2368,6.2368,0,0,0-.8376,1.4386,1.86,1.86,0,0,0,.1894,1.7961,4.2462,4.2462,0,0,0,.4246.5343,7.94,7.94,0,0,0,1.58,1.3037c.1452.09.286.1882.4253.2876a1.3935,1.3935,0,0,1,.1942.1662.1989.1989,0,0,1,.0268.272,4.59,4.59,0,0,1-.3027.36q-.757.8151-1.5183,1.6262a9.0844,9.0844,0,0,0-1.4566,2.0007c-.1445.2784-.3007.5508-.45.8265a2.7489,2.7489,0,0,0-.1365.2662,2.1876,2.1876,0,0,0,.1888,2.2718,5.1883,5.1883,0,0,0,.3912.5082c.4416.4655.8814.9343,1.3481,1.3739.4458.42.9251.8043,1.3888,1.2053a36.8826,36.8826,0,0,0,3.5019,2.7431c.3244.2183.329.2788.0767.5566a37.2128,37.2128,0,0,0-2.3708,2.9235,18.9329,18.9329,0,0,0-2.81,5.6883c-.1948.6253-.332,1.269-.4839,1.9071a11.7741,11.7741,0,0,0-.3358,3.0549c.03,1.1126.0491,2.2258.1032,3.3373a9.0678,9.0678,0,0,0,.1955,1.5261c.1641.7367.389,1.46.586,2.1892A1.0612,1.0612,0,0,1,16.98,82.26Z"/><path class="a17258ce-6b6d-49bf-80fb-6dab324e5fc5" d="M65.2868,74.4707q-1.9488-.0123-3.8975-.0254a.9762.9762,0,0,1-.5782-.1074.5891.5891,0,0,0-.291-.0438c-.314-.0087-.6282-.0153-.9422-.0135a11.841,11.841,0,0,1-1.8714-.1469,5.6452,5.6452,0,0,0-.8122-.0314,16.2537,16.2537,0,0,1-2.0436-.1452c-.4368-.0585-.88-.0675-1.32-.1054-.2122-.0183-.4236-.0491-.6345-.0795-.7318-.1054-1.4662-.189-2.1953-.3185-.5884-.1046-1.1728-.2256-1.7593-.3364-.63-.1191-1.2564-.2506-1.876-.4118-.7162-.1865-1.4308-.3811-2.1388-.5963-.818-.2487-1.6342-.5064-2.44-.7923-.6977-.2476-1.386-.5247-2.0666-.8163-.9687-.4149-1.9388-.83-2.8864-1.29-1.5521-.7537-3.0859-1.5451-4.629-2.3175-.2546-.1274-.5217-.23-.775-.36-.7986-.4093-1.5906-.83-2.3583-1.2967a4.1815,4.1815,0,0,0-1.01-.4581,4.0514,4.0514,0,0,1-1.2158-.7035c-.4032-.2922-.79-.6066-1.1968-.8942-.6508-.4605-1.2921-.9329-1.9113-1.4351-.0994-.0806-.2042-.1545-.3067-.2312-.019-.2064-.1829-.3123-.3149-.4338a6.13,6.13,0,0,1-1.2714-1.8365c.1893-.0426.3267.0812.4743.1575.721.3725,1.4356.7574,2.1572,1.1286.7319.3766,1.4644.7528,2.2061,1.1095.68.327,1.3708.6309,2.06.9388.4943.2211.9887.4432,1.4912.6448.6472.26,1.2814.55,1.9444.7732.66.2227,1.3.5066,1.9565.741.8045.2872,1.6159.5555,2.4272.8232q1.197.3948,2.4.7713c1.0876.3393,2.1757.6776,3.2684,1q1.413.4171,2.8372.7963c.8665.23,1.74.4344,2.61.6519.5239.1311,1.0541.233,1.5768.3718.466.1237.9579.1559,1.417.2978a11.6229,11.6229,0,0,1,1.2867.2967c.5466.0106,1.0519.2541,1.596.2824a2.6734,2.6734,0,0,1,.2916.0613c.2382.04.4771.0764.7159.1128a1.0569,1.0569,0,0,1,.17.0182,9.53,9.53,0,0,0,1.4738.2341c.1262.0207.25.0621.3762.0762.3254.0363.652.0612.9778.0934.24.0238.483.0378.72.0812a9.778,9.778,0,0,0,1.4059.1043c.3838.0144.7666.0569,1.15.087a.1186.1186,0,0,1,.0422.0061,2.5511,2.5511,0,0,0,1.1789.13c1.6279.0067,3.2558.0047,4.8837.0044.1568,0,.3137-.01.4705-.0155.5787,0,1.1577.0065,1.7362-.0054a.5749.5749,0,0,0,.5215-.2171l.1364.0057c.0245.0141.0485.04.0734.0408a6.3713,6.3713,0,0,0,1.2346-.0361c.3221-.0527.6467-.0923.9713-.1275s.6556-.0331.9747-.0947c.2-.0385.4287-.013.5966-.1729q.1758-.0074.3518-.0145a.8615.8615,0,0,0,.5412-.0267,1.803,1.803,0,0,1,.7068-.1207.5269.5269,0,0,0,.169-.0113c.4359-.1251.8851-.18,1.3287-.2642.1134-.0216.2612-.0276.3291-.1641q.0906-.0068.1812-.0131a.7831.7831,0,0,0,.5817-.051,1.01,1.01,0,0,1,.4553-.0973.8822.8822,0,0,0,.2953-.0331,7.3714,7.3714,0,0,1,.9542-.2248c.4424-.1034.8824-.2174,1.3247-.3214.9266-.218,1.8566-.4224,2.78-.6516.6622-.1642,1.3168-.3593,1.9746-.5411.2057-.0568.41-.1171.6167-.1722.1194-.032.1521-.0035.2226.1765l-.1168.0779a.1846.1846,0,0,0-.1952.1422l-.3119.2115a.1641.1641,0,0,0-.1926.1447l-.7445.4669a.1555.1555,0,0,0-.2033.1258l-.4892.2871c-.04.01-.1039.0084-.1171.0333a.8883.8883,0,0,1-.4351.33c-.251.133-.5.2695-.7553.3947-.7534.37-1.5025.75-2.2662,1.0982-.5824.2653-1.18.4992-1.779.7257-.6244.2362-1.2534.463-1.89.664-.5825.184-1.18.32-1.7667.4914a21.2838,21.2838,0,0,1-2.9578.6379c-.2812.04-.5636.0717-.8447.1125a7.92,7.92,0,0,1-1.27.148,1.5565,1.5565,0,0,0-.2135.0125c-.3948.0478-.7881.1128-1.1842.143-.596.0455-1.1938.0672-1.7909.0986a1.1529,1.1529,0,0,0-.1709.0062,10.4558,10.4558,0,0,1-1.7912.0839c-.0855.0029-.1714.0009-.2566.0073S65.3113,74.402,65.2868,74.4707Z"/><path class="b9817664-f0cd-46d9-bc46-3c4f1f9f0b3b" d="M22.5446,59.2445A6.13,6.13,0,0,0,23.816,61.081c.132.1215.2959.2274.3149.4338-.4836.4422-.9782.8734-1.4491,1.3291a15.5807,15.5807,0,0,0-3.35,4.6086,21.7621,21.7621,0,0,0-1.147,2.8987c-.2023.6683-.3616,1.3473-.5053,2.0313a22.48,22.48,0,0,0-.3855,3.2658,15.8674,15.8674,0,0,0,.0948,2.9024,18.3018,18.3018,0,0,0,.322,1.9819c.17.72.3494,1.4385.5294,2.1564a.1465.1465,0,0,1-.0619.18c-.2876-.118-.58-.2261-.8611-.3583A2.0356,2.0356,0,0,1,16.98,82.26a1.0612,1.0612,0,0,0-.0185-.1653c-.197-.7294-.4219-1.4525-.586-2.1892a9.0678,9.0678,0,0,1-.1955-1.5261c-.0541-1.1115-.0731-2.2247-.1032-3.3373a11.7741,11.7741,0,0,1,.3358-3.0549c.1519-.6381.2891-1.2818.4839-1.9071a18.9329,18.9329,0,0,1,2.81-5.6883,37.2128,37.2128,0,0,1,2.3708-2.9235c.2523-.2778.2477-.3383-.0767-.5566a36.8826,36.8826,0,0,1-3.5019-2.7431c-.4637-.401-.943-.7854-1.3888-1.2053-.4667-.44-.9065-.9084-1.3481-1.3739a5.1883,5.1883,0,0,1-.3912-.5082,2.1876,2.1876,0,0,1-.1888-2.2718,2.7489,2.7489,0,0,1,.1365-.2662c.15-.2757.3059-.5481.45-.8265A9.0844,9.0844,0,0,1,17.226,49.716q.7589-.8133,1.5183-1.6262a4.59,4.59,0,0,0,.3027-.36.1989.1989,0,0,0-.0268-.272,1.3935,1.3935,0,0,0-.1942-.1662c-.1393-.0994-.28-.1972-.4253-.2876a7.94,7.94,0,0,1-1.58-1.3037,4.2462,4.2462,0,0,1-.4246-.5343,1.86,1.86,0,0,1-.1894-1.7961,6.2368,6.2368,0,0,1,.8376-1.4386,15.9751,15.9751,0,0,1,1.908-2.0783c.1744-.167.3587-.3237.5385-.4851a4.7565,4.7565,0,0,1,1.4755.0075.6529.6529,0,0,1-.32.5652q-.7987.61-1.5848,1.2365a9.4618,9.4618,0,0,0-1.1787,1.0531,2.8178,2.8178,0,0,0-.6334,1.0528,1.2752,1.2752,0,0,0,.17,1.1011,2.4159,2.4159,0,0,0,.6519.67,14.1347,14.1347,0,0,0,1.6449.9965c.5021.27,1.0132.5225,1.52.7826.2558.1312.2727.2268.0754.45-.1793.2028-.3615.403-.5412.6054-1.0981,1.2365-2.1755,2.49-3.1772,3.8073a5.4493,5.4493,0,0,0-.7653,1.3294,1.2523,1.2523,0,0,0-.0427.71,3.7715,3.7715,0,0,0,1.1224,2.0219,18.9155,18.9155,0,0,0,3.61,2.7934A6.1247,6.1247,0,0,1,22.5446,59.2445Z"/><path class="f29d2176-01be-4ff3-b6b2-bfdf3ae8b3f8" d="M69.9452,92.4289a9.19,9.19,0,0,0,.6806-1.7494,1.0265,1.0265,0,0,0,.0444-.1652,5.7853,5.7853,0,0,0-.0478-2.1263,7.9632,7.9632,0,0,0-2.2488-3.7738,7.6352,7.6352,0,0,0-2.5243-1.7331,7.4448,7.4448,0,0,0-1.1017-.3368A10.2457,10.2457,0,0,0,62.1542,82.3c-.8132.0154-1.627.027-2.4388.072-.6119.034-1.2229.1036-1.8308.1843-.5367.0713-1.0678.1839-1.6026.27-.2527.0409-.508.0659-.7626.0945a.7421.7421,0,0,1-.6717-.305,1.7221,1.7221,0,0,1-.2051-.3246.2905.2905,0,0,1,.0461-.3576,1.9453,1.9453,0,0,1,.3642-.2913,4.8512,4.8512,0,0,1,1.3166-.4975c.9291-.2286,1.8729-.3806,2.8161-.534a6.6041,6.6041,0,0,1,.6823-.0589,27.5428,27.5428,0,0,1,3.851.0023,8.8435,8.8435,0,0,1,4.8042,1.8473,11.6221,11.6221,0,0,1,1.2818,1.1325,2.0947,2.0947,0,0,0,.1525.15.1868.1868,0,0,0,.2694-.0031c.0438-.0363.0822-.0791.1224-.12a9.9178,9.9178,0,0,1,3.1753-2.0608,10.8075,10.8075,0,0,1,2.2891-.6936,7.8342,7.8342,0,0,1,3.8143.0772,5.4539,5.4539,0,0,1,2.4574,1.4161c.312.3316.5866.6988.8712,1.0553a.9649.9649,0,0,1,.1356.2657.5893.5893,0,0,1-.6675.8029,1,1,0,0,1-.3808-.18,12.507,12.507,0,0,0-2.1582-1.2182,4.8867,4.8867,0,0,0-1.6178-.3829,8.14,8.14,0,0,0-2.5514.1968,10.9438,10.9438,0,0,0-3.32,1.3378c-.2668.1638-.5184.3529-.773.536a1.2753,1.2753,0,0,0-.2194.203.4647.4647,0,0,0-.068.6242c.0331.063.075.1213.1114.1827a8.6472,8.6472,0,0,1,.9053,2.2551,7.2681,7.2681,0,0,1,.1484,2.2533,3.3782,3.3782,0,0,1-.1712.8361c-.1564.4883-.3325.9713-.5237,1.4471a6.38,6.38,0,0,1-.3638.672,2.2126,2.2126,0,0,1-1.1457-.5257C70.18,92.5834,70.0622,92.5067,69.9452,92.4289Z"/><path class="f29d2176-01be-4ff3-b6b2-bfdf3ae8b3f8" d="M45.931,91.6726a9.2287,9.2287,0,0,0,.4182-1.9148c.0673-.6081.2015-1.2087.3057-1.8126.0242-.1405.0475-.2811.0688-.422a2.0718,2.0718,0,0,1,.0489-.3383,4.1208,4.1208,0,0,0,.1494-1.3131c.0009-.5425.0012-1.0852.0088-1.6276a6.6351,6.6351,0,0,0-.3033-1.8532,15.637,15.637,0,0,0-1.1662-2.8479,9.7726,9.7726,0,0,0-1.4043-2.04,12.5777,12.5777,0,0,0-2.741-2.439,12.3867,12.3867,0,0,0-3.6188-1.6158c-.3044-.075-.6068-.1585-.91-.24a5.9629,5.9629,0,0,0-2.5057-.0463,10.1153,10.1153,0,0,0-2.2933.6712,1.0906,1.0906,0,0,1-.46.0633.5129.5129,0,0,1-.5051-.5727.7272.7272,0,0,1,.31-.5851,4.8142,4.8142,0,0,1,.7206-.4567,6.621,6.621,0,0,1,1.6116-.567,9.0231,9.0231,0,0,1,2.64-.1957,10.1916,10.1916,0,0,1,1.8.37,15.7059,15.7059,0,0,1,2.5665.9453,13.6833,13.6833,0,0,1,4.5,3.4232c.379.4465.7583.89,1.096,1.3694a12.6243,12.6243,0,0,1,1.24,2.2932c.1863.4322.3685.8668.534,1.3073a10.809,10.809,0,0,1,.51,1.9417,18.076,18.076,0,0,1,.154,3.1176,16.7684,16.7684,0,0,1-.1283,1.8784,13.8084,13.8084,0,0,1-.2315,1.6947c-.1554.6519-.3171,1.3025-.4895,1.95-.0768.2886-.1863.5685-.2808.8523a.8046.8046,0,0,1-.2447-.0586c-.4288-.2675-.8521-.5441-1.2759-.82A1.0873,1.0873,0,0,1,45.931,91.6726Z"/><path class="e52cec9a-2963-4d7a-9876-9ea28f3341fe" d="M65.2868,74.4707c.0245-.0687.0534-.1361.1384-.1425s.1711-.0044.2566-.0073a10.4558,10.4558,0,0,0,1.7912-.0839,1.1529,1.1529,0,0,1,.1709-.0062c.5971-.0314,1.1949-.0531,1.7909-.0986.3961-.03.7894-.0952,1.1842-.143a1.5565,1.5565,0,0,1,.2135-.0125,7.92,7.92,0,0,0,1.27-.148c.2811-.0408.5635-.0723.8447-.1125a21.2838,21.2838,0,0,0,2.9578-.6379c.5868-.1712,1.1842-.3074,1.7667-.4914.6364-.201,1.2654-.4278,1.89-.664.5989-.2265,1.1966-.46,1.779-.7257.7637-.3479,1.5128-.728,2.2662-1.0982.2549-.1252.5043-.2617.7553-.3947a.8883.8883,0,0,0,.4351-.33c.0132-.0249.0768-.0229.1171-.0333q-.011.1659-.022.3316c-.1819.079-.3685.1485-.5445.2388-.5306.2724-1.051.5653-1.5868.8267-.4969.2423-1.0187.4344-1.5112.6846-.6751.343-1.3934.5754-2.0925.855a15.6162,15.6162,0,0,1-2.02.661c-.3441.0858-.6768.2168-1.02.3049a19.917,19.917,0,0,1-2.4458.545,1.8532,1.8532,0,0,0-.2056.054,3.532,3.532,0,0,1-.841.12,3.8326,3.8326,0,0,0-.6268.1075,1.941,1.941,0,0,1-.3771.0527,5.6228,5.6228,0,0,0-1.5626.1626.4105.4105,0,0,1-.1275.01,6.552,6.552,0,0,0-1.401.0934A27.5828,27.5828,0,0,1,65.2868,74.4707Z"/><path class="a3a1ba16-bdbb-4c92-aab1-2d14ade3487b" d="M87.1672,67.8848c-.07-.18-.1032-.2085-.2226-.1765-.2062.0551-.411.1154-.6167.1722-.6578.1818-1.3124.3769-1.9746.5411-.9238.2292-1.8538.4336-2.78.6516-.4423.104-.8823.218-1.3247.3214a7.3714,7.3714,0,0,0-.9542.2248.8822.8822,0,0,1-.2953.0331,1.01,1.01,0,0,0-.4553.0973.7831.7831,0,0,1-.5817.051c.0365-.04.0678-.1082.11-.116a2.9927,2.9927,0,0,1,.9985-.1883.071.071,0,0,0,.0421-.0041c.3445-.194.7508-.1311,1.11-.2675a2.0077,2.0077,0,0,1,.2882-.0681c.152-.0331.3075-.0542.4556-.1a2.1575,2.1575,0,0,1,.7019-.1642.7491.7491,0,0,0,.2038-.0571,1.4789,1.4789,0,0,1,.54-.1108.251.251,0,0,0,.0846-.01c.425-.1115.8463-.24,1.2754-.3314a5.7673,5.7673,0,0,1,1.0673-.26.2362.2362,0,0,0,.0836-.0156c.4871-.2029,1.0211-.2409,1.5121-.4233.5064-.1883,1.044-.2634,1.5481-.4545a.1367.1367,0,0,1,.1837.0493A3.4547,3.4547,0,0,1,87.1672,67.8848Zm.1792-.2434-.0138.0179.0229.0028Z"/><path class="e52cec9a-2963-4d7a-9876-9ea28f3341fe" d="M86.8552,68.1049a.1846.1846,0,0,1,.1952-.1422A.1556.1556,0,0,1,86.8552,68.1049Z"/><path class="e52cec9a-2963-4d7a-9876-9ea28f3341fe" d="M86.3507,68.4611a.1641.1641,0,0,1,.1926-.1447A.1764.1764,0,0,1,86.3507,68.4611Z"/><path class="e52cec9a-2963-4d7a-9876-9ea28f3341fe" d="M85.4029,69.0538a.1555.1555,0,0,1,.2033-.1258A.1816.1816,0,0,1,85.4029,69.0538Z"/><path class="a6448754-5125-4c42-8c8d-4689645b8f19" d="M26.6685,22.1648c-.1763-.058-.2078-.1944-.246-.31-.1653-.5-.32-1.0036-.4767-1.5062a31.7594,31.7594,0,0,1-.7737-3.3709c-.14-.7122-.2758-1.4275-.3612-2.1477a22.6655,22.6655,0,0,1-.28-3.5761,3.171,3.171,0,0,1,.391-1.5589,2.5175,2.5175,0,0,1,1.2324-1.0786,1.7308,1.7308,0,0,0,.5915-.23,2.31,2.31,0,0,1,1.0119.0394,1.5255,1.5255,0,0,0,.2375.0888,12.9468,12.9468,0,0,1,2.3732.7036c.97.3749,1.94.7539,2.89,1.1773,1.0155.4529,2.008.9575,3.0085,1.4436.3336.1621.6615.3359.9909.5063a1.4442,1.4442,0,0,1,.2193.131c.1457.1121.1367.2385-.02.34-.6349.4095-1.2806.8031-1.9028,1.231-.61.42-1.2067.8608-1.7912,1.3158q-1.0281.8-2.0229,1.643c-.5113.4322-1.0116.8793-1.4931,1.3443-.6054.5847-1.2009,1.181-1.7741,1.797-.5431.5837-1.0511,1.2-1.5769,1.8C26.8237,22.0293,26.7379,22.0989,26.6685,22.1648Z"/><path class="b03c7feb-ee27-420c-8c8c-bf0f564f7fec" d="M104.3387,22.7993a.7913.7913,0,0,1-.1948-.1224c-.4161-.5256-.8622-1.0242-1.3222-1.5116-.4889-.5181-.9422-1.0716-1.4524-1.567-.7869-.7639-1.5889-1.5124-2.43-2.22a48.7354,48.7354,0,0,0-5.02-3.6977c-.1907-.1227-.385-.24-.5593-.3482-.0438-.1767.059-.2364.16-.29.428-.2275.8514-.465,1.2878-.6751,1.0785-.5194,2.1534-1.048,3.2483-1.531a35.2413,35.2413,0,0,1,3.5463-1.3732,9.1117,9.1117,0,0,1,1.6593-.3984,2.8443,2.8443,0,0,1,2.0771.4664,2.37,2.37,0,0,1,.8624,1.1422,2.7909,2.7909,0,0,1,.1895,1.0032c-.0094.6133-.0074,1.2269-.0238,1.84a6.2825,6.2825,0,0,1-.0781.6786c-.1123.818-.2078,1.6388-.3464,2.4523-.1409.8277-.3156,1.65-.4938,2.4708q-.2037.9384-.456,1.8661c-.1347.4939-.3008.98-.4632,1.4654A2.31,2.31,0,0,1,104.3387,22.7993Z"/><path class="a284460f-ab80-40d9-b780-12ef67911a6a" d="M73.8342,45.724a1.2115,1.2115,0,0,1,.2849-.0753c.8707-.0057,1.7415-.0022,2.6123-.0047a.36.36,0,0,1,.3782.2746,1.7087,1.7087,0,0,0,1.0215,1.0289,1.6438,1.6438,0,0,0,1.9141-.6512,2.7459,2.7459,0,0,0,.204-.4226.3258.3258,0,0,1,.326-.2271q.1286-.002.257-.002,4.4111,0,8.8221.0009a2.7161,2.7161,0,0,1,.3823.0267.142.142,0,0,1,.11.195c-.0307.08-.072.1552-.1072.2333a6.4153,6.4153,0,0,1-1.99,2.4773,9.3759,9.3759,0,0,1-3.8388,1.708,10.7811,10.7811,0,0,1-3.45.1553,9.5567,9.5567,0,0,1-4.7781-1.8346,6.6043,6.6043,0,0,1-2.136-2.7341A.7242.7242,0,0,1,73.8342,45.724Z"/><path class="a8d45c43-ed6d-46d6-8b7c-bcce592e88d0" d="M42.9748,45.6446c.3994,0,.7992.01,1.1982-.0034a.4557.4557,0,0,1,.5134.3369,1.6341,1.6341,0,0,0,2.8927.3355,3.2748,3.2748,0,0,0,.229-.4572.3126.3126,0,0,1,.2941-.2085c.1-.0039.2-.0033.2995-.0033q4.3871,0,8.7739.0005a3.5055,3.5055,0,0,1,.3837.0155.1526.1526,0,0,1,.1259.2208c-.092.2086-.1843.4179-.2923.6185a6.7665,6.7665,0,0,1-2.402,2.5039,9.7061,9.7061,0,0,1-3.285,1.2925A10.8569,10.8569,0,0,1,48.3,50.44a9.6325,9.6325,0,0,1-4.2844-1.4927,6.5989,6.5989,0,0,1-2.5106-2.85c-.0174-.0391-.038-.0768-.0547-.1161-.0966-.2264-.0424-.3289.1977-.3333.4421-.0081.8845-.0023,1.3268-.0023Z"/><path class="b9817664-f0cd-46d9-bc46-3c4f1f9f0b3b" d="M65.6735,52.7133A3.1982,3.1982,0,0,1,66.0573,54.1a2.0507,2.0507,0,0,1,.02.3846,2.109,2.109,0,0,0,.2623.9373.9383.9383,0,0,0,1.3992.27c.085-.0756.1594-.1632.24-.2439a2.8719,2.8719,0,0,1,.2456-.2382.3023.3023,0,0,1,.5153.13c.0056.0131.0094.0269.0144.04a1.8279,1.8279,0,0,1-.43,1.74.8928.8928,0,0,1-.4425.2476.915.915,0,0,0-.2043.0626,1.49,1.49,0,0,1-1.5965-.2845,1.9567,1.9567,0,0,1-.519-.6194c-.0465-.0884-.0885-.1793-.1385-.2657-.0818-.141-.1951-.15-.3059-.0207-.0649.0755-.1165.1623-.1786.24a2.5322,2.5322,0,0,1-.871.7442,2.9635,2.9635,0,0,1-1.0731.2628,1.5844,1.5844,0,0,1-1.4676-1.0482.7643.7643,0,0,1,.9341-.9507c.1223.0374.2412.0867.36.1352.1452.0594.29.121.432.1867a.3768.3768,0,0,0,.3688-.0221,1.85,1.85,0,0,0,1.0292-1.4347c.0282-.2835.0744-.5653.1193-.8468a.7288.7288,0,0,1,.1749-.4289c.106-.1054.0794-.2358.072-.363Z"/><path class="b9a0177a-bcc8-468a-8359-684b94d92329" d="M104.0445,47.1617a1.613,1.613,0,0,1-.6474.5406,10.211,10.211,0,0,1-1.5241.5563c-.5291.1685-1.0652.3148-1.5925.4884-.69.2272-1.3737.474-2.0616.708a18.769,18.769,0,0,0-2.2107.9127,2.1577,2.1577,0,0,1-.3951.158.7827.7827,0,0,1-.9143-.5212.63.63,0,0,1,.0413-.498,1.22,1.22,0,0,1,.4855-.5283,9.0477,9.0477,0,0,1,.8266-.447,17.32,17.32,0,0,1,2.3578-.8878c.6143-.1826,1.2306-.36,1.8509-.5208a9.0945,9.0945,0,0,1,2.9662-.286A1.4352,1.4352,0,0,1,104.0445,47.1617Z"/><path class="b9a0177a-bcc8-468a-8359-684b94d92329" d="M38.4922,54.2877a.9023.9023,0,0,1-.759.4916c-.5681.0491-1.1361.1-1.7036.1561-.1978.02-.394.0563-.59.0883s-.3942.0619-.589.1037c-.4038.0866-.81.1654-1.2079.275-.59.1625-1.1746.3447-1.759.5265a10.7258,10.7258,0,0,0-1.5942.6125,2.2988,2.2988,0,0,1-.4368.1727.6327.6327,0,0,1-.7883-.4043.5133.5133,0,0,1,.0107-.374.98.98,0,0,1,.434-.5131,13.49,13.49,0,0,1,1.24-.67,15.2275,15.2275,0,0,1,2.687-.8482c.4854-.1124.9717-.2214,1.4594-.3231a2.5238,2.5238,0,0,1,.4672-.0488c.542-.01,1.0842-.0118,1.6263-.0172a2.7755,2.7755,0,0,1,.797.14A1.091,1.091,0,0,1,38.4922,54.2877Z"/><path class="b0f9b403-ec8c-4e94-9b51-da41868f6fda" d="M28.674,48.0456q.5926.0785,1.1854.1574c.0706.0094.14.03.2112.0333a9.8885,9.8885,0,0,1,1.5574.2725,17.743,17.743,0,0,1,1.73.4783c.4351.1353.8586.3079,1.2878.4623a6.9933,6.9933,0,0,1,1.7095.9633,3.1369,3.1369,0,0,1,.4292.4166.821.821,0,0,1,.1335.2177c.0767.1656.0065.3024-.17.2991a2.7514,2.7514,0,0,1-.72-.0666c-.71-.2094-1.4109-.452-2.1161-.6792-.2844-.0917-.5681-.1877-.8571-.2625-.5518-.1429-1.1021-.301-1.6625-.3986a13.25,13.25,0,0,0-1.6834-.2953c-.1689-.0074-.3345-.0738-.5038-.0919-.3544-.038-.7107-.0581-1.0655-.0929-.198-.0194-.3952-.05-.5914-.0828a.71.71,0,0,1-.2-.0726.5574.5574,0,0,1-.3453-.5028.5681.5681,0,0,1,.3668-.5345,2.2033,2.2033,0,0,1,.787-.1872c.1713-.002.3426,0,.5139,0Z"/><path class="a082ba25-571c-4119-b48a-d4b35161c66e" d="M65.6735,52.7133l-.6562.0015c-.1519-.1032-.3045-.2059-.4562-.31-.082-.0563-.161-.1171-.244-.1718a4.3328,4.3328,0,0,1-1.3993-1.5817.5941.5941,0,0,1-.0347-.0782.56.56,0,0,1,.37-.8137,5.2509,5.2509,0,0,1,1.1975-.3c.24-.0142.4773-.0832.7178-.1039a3.2608,3.2608,0,0,1,.7659-.0139c.5055.0783,1.0045.1993,1.5055.306a.81.81,0,0,1,.24.08.56.56,0,0,1,.2669.7295,1.0974,1.0974,0,0,1-.1089.2315,8.2882,8.2882,0,0,1-1.0661,1.3852,1.8578,1.8578,0,0,1-.63.4309C65.9834,52.57,65.8293,52.6435,65.6735,52.7133Z"/><path class="be2eff05-153f-4def-ac15-e67bc85b3f36" d="M97.6044,52.7558c.5124.0345,1.0248.07,1.5374.1029.3275.0208.6552.0416.9832.0542a4.6953,4.6953,0,0,1,1.0185.1183,1.771,1.771,0,0,0,.3375.0559,5.7438,5.7438,0,0,1,1.7371.4276,8.0241,8.0241,0,0,1,.7669.379.6414.6414,0,0,1,.1635.1353.1558.1558,0,0,1-.0545.2486.8527.8527,0,0,1-.2453.0674,12.1486,12.1486,0,0,1-2.0082.08c-1.0963-.11-2.1963-.074-3.2945-.106a11.654,11.654,0,0,1-2.0031-.1615,1.8659,1.8659,0,0,1-.3693-.1023.611.611,0,0,1-.3968-.6015.6211.6211,0,0,1,.4674-.5557,4.07,4.07,0,0,1,.7167-.1127c.2126-.0182.428-.0038.6422-.0038Z"/><path class="a3a1ba16-bdbb-4c92-aab1-2d14ade3487b" d="M74.3539,70.4154c-.1679.16-.397.1344-.5966.1729-.3191.0616-.65.0595-.9747.0947s-.6492.0748-.9713.1275a6.3713,6.3713,0,0,1-1.2346.0361c-.0249-.0008-.0489-.0267-.0733-.0408.0307-.0279.057-.068.0932-.0811a.44.44,0,0,1,.1657-.0234,5.8845,5.8845,0,0,0,1.3824-.1533,3.2861,3.2861,0,0,1,.6779-.0185,2.2849,2.2849,0,0,0,.8336-.1158A.8892.8892,0,0,1,74.3539,70.4154Z"/><path class="a3a1ba16-bdbb-4c92-aab1-2d14ade3487b" d="M77.7805,69.8139c-.0679.1365-.2157.1425-.3291.1641-.4436.0846-.8928.1391-1.3287.2642a.5269.5269,0,0,1-.169.0113,1.803,1.803,0,0,0-.7068.1207.8615.8615,0,0,1-.5412.0267c.0833-.1939.2773-.1812.4324-.2085a10.35,10.35,0,0,0,1.3276-.2351.5919.5919,0,0,1,.2088-.0267,1.5758,1.5758,0,0,0,.6622-.12A.4479.4479,0,0,1,77.7805,69.8139Z"/><path class="a3a1ba16-bdbb-4c92-aab1-2d14ade3487b" d="M70.3669,70.8a.5749.5749,0,0,1-.5215.2171c-.5785.0119-1.1575.005-1.7362.0054.0315-.0439.0542-.1035.0969-.1275a.3663.3663,0,0,1,.1656-.0231,6.9881,6.9881,0,0,0,.9306-.07A6.7429,6.7429,0,0,1,70.3669,70.8Z"/><polygon class="a17258ce-6b6d-49bf-80fb-6dab324e5fc5" points="87.346 67.641 87.356 67.662 87.333 67.659 87.346 67.641"/></g></g></svg>