<svg id="e03cfdef-3ba5-497d-af5d-536f0de4320f" data-name="Calque 1" xmlns="http://www.w3.org/2000/svg" width="56.7519mm" height="34.5629mm" viewBox="0 0 160.8715 97.9736"><defs><style>.fdcb6770-567d-4264-95a3-4ebca8955ebe{fill:#e25c27;}.fdd3488e-4d38-46f4-9210-b4a548d185ac{fill:#f6e0af;}.a9fbb20d-c5e7-4621-b24b-14a20ef20e56{fill:#edab26;}.ba25be2d-5374-4f3f-988e-f0a6291f05e5{fill:#edaa25;}.f5e8dc98-0400-4ef2-a221-4db9e1732ea0{fill:#eda925;}.acdc2bbf-9b10-412f-a99c-ba2396955401{fill:#eda926;}.a52d6310-545b-4977-9d2b-a4aec9011fdd{fill:#eda826;}.a22911ce-102c-47e5-a26f-a3bab9ff11e0{fill:#efa277;}.a4383a24-925c-410c-9971-7b1f0eda6783{fill:#170800;}.f4d9538b-b0ae-4a74-9f95-6a84c6778417{fill:#280e00;}.a6b2112e-a0f8-4ff1-aeb9-17f03b0a71f1{fill:#2a1001;}.fef4f1aa-a0f3-4174-8685-ec687e548ce3{fill:#194c39;}.b771e2c2-009c-46e2-9c43-9ea5f1201e7b{fill:#184c39;}.b3394593-dfc9-4ef5-aec7-5578c3fc6129{fill:#164b39;}.e01a86d1-66cc-4971-a2ce-4ea57227ca5f{fill:#f6e8c1;}</style></defs><path class="fdcb6770-567d-4264-95a3-4ebca8955ebe" d="M-206.9979,145.0512a2.5536,2.5536,0,0,1,.7818.517.4584.4584,0,0,1-.07.2566c-.1627.1963-.3263.3919-.486.5906-.3006.3738-.6047.7449-.8962,1.1257-.3007.3929-.5906.7941-.8808,1.1949a19.5711,19.5711,0,0,0-1.3622,2.1116q-.4935.9071-.9587,1.8295c-.8542,1.69-1.71,3.379-2.5044,5.0983-.1635.354-.3053.7181-.459,1.0766-.2366.5519-.4434,1.1153-.6618,1.6742a12.09,12.09,0,0,0-.5606,1.8948,1.1456,1.1456,0,0,0,1.1013,1.3861,3.9936,3.9936,0,0,0,1.4786-.33c.39-.1361.7586-.3337,1.1449-.4827.7426-.2863,1.4457-.6582,2.1717-.98.3147-.14.6219-.2962.93-.45.5862-.2923,1.17-.5892,1.756-.8818.39-.1947.7625-.4184,1.1335-.6475.42-.2593.871-.4683,1.29-.7282.6758-.4186,1.3367-.8611,2.0041-1.2932.2141-.1386.43-.2746.6428-.4147.5017-.33,1.0144-.6448,1.5-.9968.5579-.4044,1.1068-.8243,1.63-1.2719a4.53,4.53,0,0,0,.9317-.9731.8244.8244,0,0,1,.27.2815,5.4068,5.4068,0,0,1,.5241.75.33.33,0,0,0-.1338.176c-.139.3486-.2808.6962-.4146,1.0468q-.5382,1.4107-1.186,2.7746c-.3225.68-.6649,1.35-1.0063,2.021-.156.3065-.3279.6051-.4983.9041-.1636.287-.33.5724-.5041.8532a.5918.5918,0,0,0-.0623.3925.3811.3811,0,0,0,.3651.3357.7235.7235,0,0,0,.2687-.0159,4.998,4.998,0,0,0,1.2419-.5161c.6091-.412,1.23-.8082,1.8224-1.243a9.12,9.12,0,0,0,1.238-1.0433c.2065-.2173.3924-.4539.5953-.6747a2.6145,2.6145,0,0,0,.3231-.4309,3.2964,3.2964,0,0,1,.5158-.837,2.2923,2.2923,0,0,0,.6412.1972c.921.1875,1.8465.352,2.7606.5751.4892.1194.9789.2456,1.4737.3354a6.5776,6.5776,0,0,0,1.1314.2477,5.0314,5.0314,0,0,0,.9436.2815c.3808.1314.78.2107,1.1707.3119.0577.0149.1175.0222.1742.04q1.1338.3505,2.2669.7039c.3276.1029.6524.2147.9784.3225.4965.1642.9946.3237,1.489.4942.3937.1358.7837.2824,1.1735.4294.2647.1.5256.21.7891.3135.3048.1194.6143.2241.9084.3737.21.1069.4526.1494.6658.2517.3223.1546.6681.25.9844.4216.2359.1277.5011.2.741.322.3454.1751.7163.2925,1.052.4911a4.0119,4.0119,0,0,0,.65.2968c.3391.1254.6046.4034.9765.4462a4.4361,4.4361,0,0,0,.7467.4092c.1952.1138.4118.1957.5909.3259a8.8992,8.8992,0,0,1,1.2608.7738.46.46,0,0,0,.1907.1174,2.08,2.08,0,0,1,.7518.4842c.1607.1359.3328.2583.499.3877a1.0376,1.0376,0,0,1,.4315.8092,2.3828,2.3828,0,0,1-.1948,1.0993,15.1556,15.1556,0,0,1-1.1141,2.0048c-.3245.488-.634.9859-.9555,1.4759a3.6219,3.6219,0,0,1-.3981.5452,4.4367,4.4367,0,0,0-.5335.7246,16.341,16.341,0,0,1-1.0493,1.3465c-.3552.447-.7287.88-1.0947,1.3181-.3757.45-.7681.8849-1.1655,1.3164-.4787.52-.9676,1.0293-1.46,1.5355-.5134.5277-1.0257,1.0566-1.547,1.5764-.2018.2012-.4309.3747-.64.5686-.2971.2749-.5877.5568-.8809.8359a.7276.7276,0,0,1-.0977.0934,6.5966,6.5966,0,0,0-.8935.7572c-.232.2134-.4954.3937-.7285.6005-.4844.43-1.0014.8174-1.4978,1.2308-.4388.3654-.9029.7006-1.356,1.0488a.7216.7216,0,0,0-.0743.0511c-.375.3734-.8554.609-1.25.9585a6.317,6.317,0,0,1-.5531.39,6.15,6.15,0,0,0-.7587.5668.2792.2792,0,0,1-.0715.0548c-.5611.2636-.992.7288-1.5481,1.0007a.81.81,0,0,0-.2235.1519,3.8247,3.8247,0,0,1-.9786.63,1.9364,1.9364,0,0,0-.8953.9733c-.3124.7314-.651,1.4515-1.0339,2.1485-.3256.5925-.6608,1.1814-1.0245,1.751-.4445.6959-.94,1.3578-1.4344,2.02-.431.5766-.89,1.13-1.363,1.67-.3231.369-.6925.698-1.0454,1.04q-.4531.44-.9167.8686a4.3417,4.3417,0,0,1-.5779.5007,10.7427,10.7427,0,0,1-1.1333.8818.2762.2762,0,0,0-.0731.0527c-.498.4883-1.152.7622-1.6747,1.2172a1.2476,1.2476,0,0,1-.2325.1339,7.2334,7.2334,0,0,0-.8156.4769,10.395,10.395,0,0,1-1.7045.9143c-1.047.4926-2.1033.9644-3.1835,1.3825a9.0285,9.0285,0,0,1-1.03.3157,8.1944,8.1944,0,0,0-.9392.3167,1.6406,1.6406,0,0,1-.4315.1238,4.8083,4.8083,0,0,0-1.0495.2542,1.9384,1.9384,0,0,1-.4852.0984c-.3036.02-.5822.1574-.8754.204a4.2049,4.2049,0,0,0-.8416.1329.6433.6433,0,0,1-.2639.0414,1.7272,1.7272,0,0,0-.49.06,2.1378,2.1378,0,0,1-.4007.0518,1.15,1.15,0,0,0-.4434.0605.2693.2693,0,0,1-.13.0318,9.2323,9.2323,0,0,0-.9851.0763,2.0523,2.0523,0,0,0-.4473.0445.6438.6438,0,0,1-.3109.0113.4575.4575,0,0,0-.3086.0184.3875.3875,0,0,1-.1746.0374c-.5051-.055-1.0119.0632-1.5162-.018a3.0161,3.0161,0,0,1-.8474.0174,7.4608,7.4608,0,0,1-.8462-.03,5.9706,5.9706,0,0,0-.8008-.0391c-.3572.0091-.7158-.057-1.0745-.0787-.3116-.0189-.62-.065-.9315-.0894-.3256-.0256-.6526-.0847-.9787-.1307-.68-.0959-1.3531-.2382-2.0312-.3487a9.0983,9.0983,0,0,0-1.3185-.2421,17.8684,17.8684,0,0,0-1.7726-.4839,6.8224,6.8224,0,0,0-1.1237-.3035,1.8413,1.8413,0,0,1-.3777-.1367,16.825,16.825,0,0,1-1.7383-.6106c-.4551-.0417-.8155-.3678-1.2666-.4218a6.1025,6.1025,0,0,0-.9865-.4213c-.4372-.197-.88-.3825-1.3187-.5751a1.3735,1.3735,0,0,1-.1547-.0928c-.0763-.1473-.0776-.1479-.2309-.0925a.688.688,0,0,0-.3558-.021,18.4978,18.4978,0,0,1-1.8152-.8953c-.6907-.36-1.3527-.7753-2.0217-1.1756-.5018-.3-1.0014-.605-1.49-.9255-.5642-.37-1.1157-.759-1.6726-1.14-.1856-.127-.3764-.2471-.5552-.3829-.6321-.48-1.2719-.9514-1.8859-1.454a18.187,18.187,0,0,1-1.5332-1.3211,5.5862,5.5862,0,0,0-.5532-.459.1391.1391,0,0,0-.12-.0153c-.0491.0222-.0383.0778-.0118.1159.4107.59.808,1.191,1.2407,1.7649.2164.2869.4159.5878.6481.862.31.366.5838.76.9022,1.1209.3366.3816.6387.7936,1.0018,1.1535.5875.5825,1.1711,1.1691,1.7566,1.7537a2.2343,2.2343,0,0,0,.2274.2189c.5047.3768.9559.8171,1.45,1.2077.7053.5572,1.4383,1.0754,2.1561,1.6147-.392.3271-.7774.6623-1.1774.9793a26.55,26.55,0,0,1-2.1714,1.6155c-.4684.2989-.9483.58-1.426.8642a.9229.9229,0,0,1-.2136.0652c-.0952-.0731-.1884-.1491-.2859-.2188-.9509-.68-1.93-1.32-2.8594-2.03-.4162-.3183-.8458-.619-1.2628-.9364-.6316-.4808-1.2561-.9708-1.8862-1.4537-.3925-.3007-.8014-.5812-1.182-.8961-.5791-.4792-1.2081-.8838-1.83-1.3023a2.315,2.315,0,0,0-1.487-.4121,1.3935,1.3935,0,0,0-1.2344,1.02,1.5465,1.5465,0,0,0-.0746.5746c.0426.2372.03.48.0927.7119a13.6691,13.6691,0,0,0,.7005,1.9444,27.0085,27.0085,0,0,0,1.4266,2.7962c.5325.9049,1.0565,1.814,1.6372,2.69a2.6822,2.6822,0,0,1,.4588.82c-.462.1746-.9473.2685-1.4174.4111-.3737.1133-.7634.1542-1.1294.29a.4739.4739,0,0,1-.1281.0409,9.495,9.495,0,0,0-1.4078.29c-.5286.1136-1.07.1411-1.5924.2837a1.9471,1.9471,0,0,1-.49.0571,6.7,6.7,0,0,0-1.1638.12,4.4309,4.4309,0,0,1-1.1664.0529c-.0489-.1415-.0894-.2867-.1483-.424-.1891-.44-.3906-.8755-.5769-1.317-.2507-.5945-.4925-1.1928-.7366-1.79a11.1336,11.1336,0,0,1-.4149-1.0462c-.1865-.6341-.463-1.2332-.6823-1.8542-.2842-.8048-.5222-1.6267-.8644-2.4109-.0175-.04-.01-.0907-.0239-.1327a5.687,5.687,0,0,0-.5491-1.2324,1.1569,1.1569,0,0,0-1.91-.1877,1.9583,1.9583,0,0,0-.3392.5259,12.07,12.07,0,0,0-.7164,2.2188c-.11.4655-.21.9339-.2977,1.4054-.0988.53-.1731,1.0627-.2568,1.5946a2.9888,2.9888,0,0,0-.0818.5319c.0118.586-.1363,1.1637-.094,1.7518a.2213.2213,0,0,1-.009.0893,2.7848,2.7848,0,0,0-.0789.894,1.4962,1.4962,0,0,1-.0153.3595,3.1124,3.1124,0,0,0-.07.85,4.7814,4.7814,0,0,1-1.5608-.1316.3255.3255,0,0,0-.088-.0174,13.84,13.84,0,0,1-1.7805-.2231,3.7418,3.7418,0,0,1-.7511-.133.65.65,0,0,0-.1754-.0373c-.526-.0288-1.0226-.2293-1.5475-.2638a.4511.4511,0,0,1-.2487-.0946c-.0341-.4176-.0406-.84-.1126-1.2513a5.13,5.13,0,0,1-.0655-.76,1.9855,1.9855,0,0,0-.0137-.45,4.51,4.51,0,0,1-.0762-1.0306.9752.9752,0,0,0-.0165-.269,2.8024,2.8024,0,0,1-.0756-.8493,1.1685,1.1685,0,0,0-.0081-.27,5.9691,5.9691,0,0,1-.0795-1.3457,1.901,1.901,0,0,0-.0234-.4487,2.9145,2.9145,0,0,1-.0684-.76,1.5479,1.5479,0,0,0-.0126-.36,3.7585,3.7585,0,0,1-.0693-1.1656,7.6733,7.6733,0,0,0-.2-1.8275,1.2643,1.2643,0,0,0-1.3271-1.0429,1.35,1.35,0,0,0-.8914.481,6.2994,6.2994,0,0,0-.8139,1.1841c-.2992.5894-.6108,1.1727-.8547,1.7891-.2037.5149-.4371,1.0182-.6332,1.5358-.2334.6162-.4809,1.2269-.7059,1.8468-.3068.8449-.6276,1.6846-.908,2.5389a16.9031,16.9031,0,0,1-1.6352-.8357,34.907,34.907,0,0,1-3.1277-1.95.3381.3381,0,0,1-.0582-.0674.2164.2164,0,0,0,.1131-.1837,6.53,6.53,0,0,1,.2341-1.3239c.1061-.5574.2154-1.1157.3175-1.6741.0994-.5436.2356-1.08.3007-1.6316.0382-.3232.1241-.6423.168-.97.0635-.4733.1353-.9466.2078-1.4186a2.4458,2.4458,0,0,0-.068-1.1524.9738.9738,0,0,0-.7188-.6867,1.0523,1.0523,0,0,0-1.0052.25,3.868,3.868,0,0,0-.544.5983c-.3345.4967-.6145,1.0236-.9133,1.5408-.5416.9372-1.0217,1.9053-1.5112,2.8692-.1074.2115-.2386.4109-.3589.6158-.1538-.0795-.23-.2336-.3379-.3563-.0792-.09-.15-.1867-.2258-.28a.5192.5192,0,0,0-.43-.2056c-.09.0015-.18-.0042-.27-.0039a4.0978,4.0978,0,0,1-1.2041-.1394,1.6883,1.6883,0,0,0-.3566-.0464,3.5373,3.5373,0,0,1-.93-.1537,1.2333,1.2333,0,0,0-.31-.052,3.01,3.01,0,0,1-.7929-.1507,2.2785,2.2785,0,0,0-.3986-.0645,1.8581,1.8581,0,0,1-.3507-.0705,1.7346,1.7346,0,0,0-.57-.1214,1.8284,1.8284,0,0,1-.5979-.1884.633.633,0,0,1,.1164-.333c.2276-.3346.45-.6735.6578-1.0206a1.8541,1.8541,0,0,0,.3247-1.06.9639.9639,0,0,0-.976-.9179,1.6622,1.6622,0,0,0-.7265.217c-.7481.3821-1.4942.7681-2.2439,1.1469a6.6127,6.6127,0,0,1-1.67.6423,5.233,5.233,0,0,1-1.0691-.3249c-.3244-.0993-.6411-.231-.9629-.3444-.3924-.1383-.7768-.3-1.16-.4618-.548-.23-1.0931-.4681-1.6377-.7064-.1364-.06-.2665-.1335-.3993-.2008a.405.405,0,0,1,.0429-.1266q.4053-.51.8172-1.0142a16.1073,16.1073,0,0,0,1.3321-1.8064,4.2984,4.2984,0,0,0,.5684-1.267.8419.8419,0,0,0-.2363-.863.795.795,0,0,0-.94-.2253c-.1078.0524-.2192.0979-.3309.1415-.4188.1634-.8058.3932-1.2155.5778-.9289.4186-1.8629.8236-2.8066,1.2071a6.324,6.324,0,0,1-.7474.3087c-.3658.096-.6977.2707-1.0519.39a.1976.1976,0,0,0-.14.1586,3.6015,3.6015,0,0,1-.82-.4531,42.2509,42.2509,0,0,1-4.4608-3.1726.3169.3169,0,0,1-.0511-.0724c.0385-.1885.2134-.242.3426-.3356.3643-.2637.75-.5,1.1-.7815.3965-.32.7989-.6328,1.1845-.9678.4756-.4132.9514-.8261,1.4089-1.2589.2944-.2784.5524-.5932.8276-.89.542-.5842,1.0452-1.198,1.5309-1.8272a6.0871,6.0871,0,0,0,.7447-1.2315.8377.8377,0,0,0-.1145-.8882.6927.6927,0,0,0-.5312-.3,1.06,1.06,0,0,0-.6075.1287c-.5945.32-1.1893.64-1.793.942-.899.45-1.8183.8574-2.7485,1.2387a22.6167,22.6167,0,0,1-3.295,1.0633c-.32.0768-.65.1086-.97.1814a11.2505,11.2505,0,0,1-1.9576.2538,2.6577,2.6577,0,0,1-.2274-.2159c-.7044-.8394-1.4185-1.6707-2.0676-2.5553-.3991-.544-.8128-1.077-1.158-1.6581a.9115.9115,0,0,1,.4939-.1928,15.6608,15.6608,0,0,0,3.6249-1.3293c.589-.2941,1.1594-.6267,1.73-.9558.3245-.1872.6372-.3961.9468-.6076.2223-.1519.4237-.3347.6467-.4854a13.0786,13.0786,0,0,0,1.6478-1.3192,23.0821,23.0821,0,0,0,2.8982-3.14,27.0273,27.0273,0,0,0,1.7469-2.6715.8665.8665,0,0,1,.2873-.3387q.7152,1.4259,1.43,2.8518c.7049,1.4077,1.4641,2.7861,2.2572,4.1455.446.7643.8992,1.5263,1.39,2.262.7583,1.1369,1.5373,2.26,2.3978,3.3249.6526.8079,1.3222,1.5993,2.04,2.3492a22.2416,22.2416,0,0,0,4.1278,3.3388q.7022.4489,1.4041.8981a2.0571,2.0571,0,0,0,.2359.131c.1815.0844.2837.0078.2736-.2005a.3225.3225,0,0,0-.0073-.09c-.22-.6171-.1242-1.2857-.3126-1.9093a1.6989,1.6989,0,0,1-.0345-.4483,9.3635,9.3635,0,0,0-.11-1.3482,5.9011,5.9011,0,0,1-.0709-.9891c.0019-.8426-.0028-1.6852.0069-2.5277.0039-.33.0293-.6612.0626-.99.0531-.524.0738-1.05.1178-1.5741.059-.7015.1856-1.3974.2856-2.0953.0128-.0888.0529-.1748.0586-.2634a9.7746,9.7746,0,0,1,.1786-1.11c.1173-.65.2474-1.2961.4286-1.9316.0206-.0719.0315-.1466.0468-.22a.99.99,0,0,1,.4618.1644,5.52,5.52,0,0,0,2.8141.6685c.3-.0133.6019-.0035.9028-.0069a1.2614,1.2614,0,0,0,.3144-.0193c.491-.135,1.0042-.1605,1.4909-.3257.241-.0818.4869-.1485.7205-.2525a.1529.1529,0,0,1,.17.0074c.0593.05.0289.1054-.0024.1583q-.7545,1.2784-1.3889,2.6206a23.5539,23.5539,0,0,0-1.1393,2.6386c-.1376.4129-.2843.8229-.4295,1.2332a2.9034,2.9034,0,0,0-.1328,1.1556.4947.4947,0,0,0,.3418.4377.488.488,0,0,0,.5457-.0958,1.0833,1.0833,0,0,0,.2359-.3269c.11-.2452.2267-.4878.3316-.7353.2517-.594.4936-1.1923.7486-1.785.1892-.44.3975-.8719.589-1.311.4025-.9231.8979-1.7984,1.3721-2.6846a.89.89,0,0,1,.17-.2069.1664.1664,0,0,1,.242.007,1.1268,1.1268,0,0,1,.1323.1822,4.6452,4.6452,0,0,0,.9232,1.1,7.2613,7.2613,0,0,0,.5608.5221,7.7426,7.7426,0,0,0,1.7746.9639,2.2089,2.2089,0,0,0,.9908.259,3.8448,3.8448,0,0,0,1.3666.232,5.044,5.044,0,0,0,1.7919-.0889c.0726-.0179.1421-.05.2153-.0638a.1686.1686,0,0,1,.22.1618,2.6812,2.6812,0,0,1-.0353.8074,1.7222,1.7222,0,0,0-.0484.4462,1.2722,1.2722,0,0,1-.0121.3147,4.1691,4.1691,0,0,0-.0782,1.0752,2.9071,2.9071,0,0,1-.0251.5394,6.0734,6.0734,0,0,0-.1584,1.5164,1.284,1.284,0,0,1-.0469.4011,1.3293,1.3293,0,0,0-.0365.3115,4.8459,4.8459,0,0,1-.0689.6694,1.2108,1.2108,0,0,0,.3417,1.1178.4167.4167,0,0,0,.6055.0155,1.56,1.56,0,0,0,.5228-.7211c.1128-.3725.2239-.7464.31-1.1256a18.5647,18.5647,0,0,0,.2917-1.8608,11.7909,11.7909,0,0,0,.1653-1.7866.4593.4593,0,0,1,.0173-.1786,1.813,1.813,0,0,0,.0719-.6237,1.1608,1.1608,0,0,1,.03-.3124,1.6987,1.6987,0,0,0,.0541-.5359q.0044-1.3544.0056-2.7086a5.2352,5.2352,0,0,1,.0726-.8948.3059.3059,0,0,1,.2847-.2821c1.1994.0593,2.3994.049,3.5994.0229a1.49,1.49,0,0,0,.7454-.1257.4176.4176,0,0,1,.1746-.0367,10.0875,10.0875,0,0,0,1.3315-.2009,17.82,17.82,0,0,0,3.0247-.85c.3206-.1262.6456-.2413.9686-.3615-.04.2812-.07.5642-.1223.843a4.82,4.82,0,0,0-.1456,1.0668,2.4575,2.4575,0,0,1-.04.3111c-.04.4172-.1289.8279-.1386,1.25a7.8009,7.8009,0,0,1-.0771,1.6631,1.1987,1.1987,0,0,0-.0052.27q0,.655,0,1.31a1.1957,1.1957,0,0,0,.0089.315,4.2424,4.2424,0,0,1,.0707,1.1216c.0074.4969.0034.9939.0091,1.4908a1.59,1.59,0,0,0,.0365.4019,2.0216,2.0216,0,0,1,.0517.4915,1.2169,1.2169,0,0,0,.0156.3145,3.0541,3.0541,0,0,1,.0733.85,2.3529,2.3529,0,0,0,.0508.4913,3.5077,3.5077,0,0,1,.12.7975,5.2653,5.2653,0,0,0,.1289.98,19.11,19.11,0,0,0,.4693,1.9211c.0725.2456.1738.4786.2479.7222a1.3273,1.3273,0,0,0,.5049.6223.482.482,0,0,0,.6753-.1229.9922.9922,0,0,0,.1191-.5159,3.7741,3.7741,0,0,0-.0778-.6225,7.1912,7.1912,0,0,1-.2214-1.2814,5.74,5.74,0,0,1-.1259-1.1162,2.0374,2.0374,0,0,0-.0457-.3553c-.0439-.3564-.1137-.7123-.1229-1.07a14.4118,14.4118,0,0,1-.1033-1.526.1164.1164,0,0,0-.0046-.0448,3.6676,3.6676,0,0,1-.0826-1.0744,2.4767,2.4767,0,0,0-.0266-.4491,6.3859,6.3859,0,0,1-.05-1.3484c-.0017-.11.079-.15.19-.0988q.3276.1521.6495.3163a5.3389,5.3389,0,0,0,2.3025.5259,4.5257,4.5257,0,0,0,.6674-.0948,8.3605,8.3605,0,0,0,1.7933-.4035,16.0347,16.0347,0,0,0,1.5427-.6309,4.2857,4.2857,0,0,0,1.1993-.7815c.4416-.429.4767-.2345.6639.1752.0123.027.0128.0592.0237.087q.3714.9429.7443,1.8853a10.5362,10.5362,0,0,1,.3946,1.0056c.13.4633.343.8941.4784,1.3548.1056.3591.2628.7028.3865,1.0571.1924.5513.3664,1.1092.5656,1.658.256.7057.5645,1.3919.7851,2.1109.0087.0286.0253.0547.0354.0829a4.6685,4.6685,0,0,0,.9278,1.3721.5669.5669,0,0,0,.1373.1161.2934.2934,0,0,0,.3949-.0962.7087.7087,0,0,0,.1141-.3841.8833.8833,0,0,1,.0126-.3142c.1591-.4091-.0431-.7989-.0443-1.1981-.23-.73-.3725-1.4822-.5763-2.22-.3525-1.2761-.79-2.5222-1.2439-3.7622-.345-.9418-.7235-1.872-1.1028-2.8015-.5612-1.3755-1.1353-2.7427-1.8052-4.0705-.3173-.6288-.61-1.27-.9574-1.8838-.273-.4826-.5474-.9638-.8494-1.4287a17.4236,17.4236,0,0,0-1.3389-1.9179,4.64,4.64,0,0,0-1.0552-1.1008.3845.3845,0,0,1-.1746-.348,17.1418,17.1418,0,0,0,1.4865-1.6315,19.387,19.387,0,0,0,2.29-3.5019,20.22,20.22,0,0,0,1.2072-2.9131c.046-.1382.0451-.3013.1766-.4037.385.23.7648.47,1.1568.687a4.2224,4.2224,0,0,0,.7753.3545,2.8316,2.8316,0,0,1,.6532.2913,1.4946,1.4946,0,0,0,.2352.13.4226.4226,0,0,0,.4443-.1351.3788.3788,0,0,0-.0332-.421,2.5132,2.5132,0,0,0-.2577-.2508,2.8,2.8,0,0,1-.5209-.5581,2.12,2.12,0,0,0-.7247-.66,3.1258,3.1258,0,0,1-.411-.2737,3.5765,3.5765,0,0,0-.96-.577,2.4568,2.4568,0,0,1,.0142-.31c.0642-.381.1366-.7606.2055-1.1407a6.4654,6.4654,0,0,1,.1846-.9621,1.2088,1.2088,0,0,0,.026-.31c.01-.1631.019-.3263.0283-.4895.1128.0984.2318.1905.3373.2961q1.3215,1.3223,2.639,2.6486c.18.1809.3588.3634.5443.5387a2.933,2.933,0,0,0,.695.4909c.1107.0556.2547.135.3766.0119.0982-.0992.06-.2246.0259-.34a4.3582,4.3582,0,0,0-.4889-1.1082c-.21-.3308-.4747-.6185-.7056-.9315-.393-.5329-.84-1.0187-1.28-1.5085a18.1326,18.1326,0,0,0-1.384-1.3533,3.1575,3.1575,0,0,0-.764-.62,9.6589,9.6589,0,0,0-.1616-1.5165c-.1077-.5423-.1744-1.0947-.2838-1.6388a19.3514,19.3514,0,0,0-1.4865-4.4764,17.6138,17.6138,0,0,0-1.2763-2.2779.5913.5913,0,0,1-.1343-.3716c.2337-.2933.49-.5717.6938-.8847.1574-.2423.3656-.436.5359-.6644a8.5774,8.5774,0,0,1,.7645-.88c.346-.3517.7158-.68,1.0758-1.0181.1641-.1542.3255-.3116.4946-.46.2923-.2571.5814-.5172.8828-.765.3825-.3144.788-.6,1.1616-.9251a1.7155,1.7155,0,0,1,.4434-.308.5858.5858,0,0,0,.19-.1192,3.189,3.189,0,0,1,.773-.5382,8.84,8.84,0,0,0,.7491-.5,8.5755,8.5755,0,0,1,.9405-.5276c.3863-.2023.7844-.3829,1.1666-.5926a19.7523,19.7523,0,0,1,2.5576-1.1243c.5061-.1908,1.0059-.3983,1.5128-.5871a2.9707,2.9707,0,0,1,.6065-.1669,8.4284,8.4284,0,0,0,1.2942-.3855.6.6,0,0,0,.4042-.3966c.0953-.285.2307-.5534.332-.837.1208-.3381.2793-.6639.4127-.9993.1441-.3622.349-.7011.482-1.0666.1134-.3117.2709-.6.4-.9023.1775-.414.3667-.8232.5612-1.23.1685-.3519.35-.6976.5284-1.0445.1921-.3729.3884-.7435.5816-1.1159.1864-.3593.3641-.7234.5586-1.0784.2167-.3953.4444-.7848.6738-1.173q.4117-.6969.8353-1.387c.1406-.23.2866-.456.445-.676.1828-.2538.3188-.5414.5031-.7987.2788-.3891.5431-.7887.8137-1.1837.1442-.2106.3377-.38.4756-.5987.1755-.2787.383-.5373.575-.8057.2976-.4161.6638-.7733.9967-1.159.3723-.4312.7534-.8549,1.1389-1.2743a3.5549,3.5549,0,0,1,.52-.4921c.3807-.2742.6918-.6248,1.0532-.9169a3.0954,3.0954,0,0,1,1.3553-.772.4107.4107,0,0,1,.2653-.0106,2.87,2.87,0,0,0,.4788.1214,3.29,3.29,0,0,1,.7712.3614,8.5777,8.5777,0,0,1,1.786,1.58c.07.0792.1417.1561.2158.2309a24.2677,24.2677,0,0,1,1.792,2.0868c.9238,1.1706,1.7469,2.41,2.5612,3.6577.8794,1.3471,1.7119,2.7218,2.5156,4.1149.8486,1.4708,1.6624,2.9608,2.4554,4.4619.3579.6774.6886,1.3693,1.0194,2.0605.4213.88.8443,1.76,1.24,2.6522s.76,1.7985,1.1392,2.6979c.1635.3874.3315.7731.4974,1.16a.5453.5453,0,0,0-.1185.0635,15.9644,15.9644,0,0,0-1.6294,1.743c-.3217.3944-.6055.82-.9133,1.2256a11.9591,11.9591,0,0,0-1.83,3.4877,2.02,2.02,0,0,0-.0779.5765.5384.5384,0,0,0,.2968.4719.2716.2716,0,0,0,.3007.0048,4.3733,4.3733,0,0,0,.37-.2564c.3706-.28.7387-.5627,1.1081-.8441.3934-.3.782-.606,1.1819-.8968q1.2364-.8992,2.4838-1.7834c.2688-.1907.5649-.3445.8252-.5454.3585-.2765.7664-.4727,1.1335-.734A1.0933,1.0933,0,0,1-206.9979,145.0512Zm-30.964,38.9649a1.008,1.008,0,0,0-.5917.1775c-.2846.2445-.58.4762-.8673.7177a.8783.8783,0,0,1-.3907.2172,2.64,2.64,0,0,1-1.1137.026.3511.3511,0,0,1-.2161-.1512,3.3548,3.3548,0,0,1-.1766-.3127c-.0889-.1741-.1589-.3593-.2618-.5242a.695.695,0,0,0-.817-.3159.9258.9258,0,0,0-.5431.51,1.543,1.543,0,0,0,.3673,1.6213,2.3171,2.3171,0,0,0,1.6285.6614,2.9387,2.9387,0,0,0,.7592-.0844.1507.1507,0,0,1,.1978.17,1.3824,1.3824,0,0,1-.048.22,1.7278,1.7278,0,0,0-.0577.5814,1.5823,1.5823,0,0,0,1.07,1.5635c.0565.02.1094.05.1649.0732a1.17,1.17,0,0,0,1.0417-.0253,4.3809,4.3809,0,0,0,.5291-.3422,1.2215,1.2215,0,0,0,.3673-.5065c.13-.2849-.0029-.4994-.3192-.5347a2.1729,2.1729,0,0,0-.5358-.0005.8481.8481,0,0,1-.9207-1.0327,1.8232,1.8232,0,0,1,.3571-.77,8.2876,8.2876,0,0,0,.7208-1.035.4552.4552,0,0,0,.0195-.5029.6347.6347,0,0,1,.641.0255.67.67,0,0,0,.3514.0574,7.0049,7.0049,0,0,0,1.5215-.1125,1.812,1.812,0,0,0,.8008-.2816.4616.4616,0,0,0,.2279-.4127.7521.7521,0,0,0-.13-.4637c-.2116-.2914-.4383-.57-.6567-.8556a3.6294,3.6294,0,0,0-.9038-.8676,2.5672,2.5672,0,0,1-.2919-.21,5.6259,5.6259,0,0,0-1.3782-.7318.402.402,0,0,0-.13-.0325.2891.2891,0,0,0-.2136.052.8712.8712,0,0,0-.36.5522,6.9756,6.9756,0,0,0-.0947,1.3888,1.4782,1.4782,0,0,0,.0852.4376A2.7182,2.7182,0,0,1-237.9619,184.0161Zm51.3153-14.6995a9.1506,9.1506,0,0,0-1.7506.0885c-.2477.05-.3033.1111-.2556.36.1435.7492.3164,1.4914.44,2.2462.13.7979.225,1.5993.3181,2.4a8.93,8.93,0,0,1,.1072,1.7049.4952.4952,0,0,0,.007.18,4.2076,4.2076,0,0,1,.0828,1.12,1.1426,1.1426,0,0,0,.0213.3136,1.8059,1.8059,0,0,1,.0595.6253c-.0088.4945-.0073.9865-.0635,1.4825-.069.6084-.0432,1.226-.0924,1.841a17.5947,17.5947,0,0,1-.1883,1.9653.18.18,0,0,0,.2506.2092,1.0857,1.0857,0,0,0,.2813-.1387c.3535-.2527.7016-.5128,1.0512-.7709a.7092.7092,0,0,0,.0657-.0619c.3355-.322.7739-.5168,1.081-.8747a.313.313,0,0,1,.1174-.0656,1.4209,1.4209,0,0,0,.4307-.3224,1.8042,1.8042,0,0,1,.3409-.293,3.1911,3.1911,0,0,0,.73-.5968.8684.8684,0,0,1,.2034-.1769,4.2094,4.2094,0,0,0,.9-.7438,1.4242,1.4242,0,0,1,.2453-.196,3.7932,3.7932,0,0,0,.7589-.6334,1.2489,1.2489,0,0,1,.1969-.1854,12.806,12.806,0,0,0,1.6111-1.4371,16.4448,16.4448,0,0,0,1.3141-1.4224,17.0514,17.0514,0,0,0,1.4295-1.9609,7.7863,7.7863,0,0,0,.5773-1.17.5664.5664,0,0,0-.1161-.6234,1.9632,1.9632,0,0,0-.7107-.5435c-.5306-.2359-1.0663-.4626-1.6113-.6619a2.589,2.589,0,0,1-.4894-.2087.7411.7411,0,0,0-.2521-.0887.5235.5235,0,0,1-.2455-.1017,1.9706,1.9706,0,0,0-.62-.2576c-.0982-.0347-.2-.0585-.3007-.0869-.432-.1222-.8586-.2711-1.2973-.36-.7175-.1458-1.4452-.2409-2.1638-.382a4.5094,4.5094,0,0,0-.803-.0837.5283.5283,0,0,1-.1789-.0153,1.9959,1.9959,0,0,0-.7139-.0715C-186.1348,169.3127-186.3907,169.3166-186.6466,169.3166Zm-36.9317-31.0858a.9391.9391,0,0,0-.0185-.1846c-.0921-.409-.1843-.8181-.2873-1.2244-.1766-.6967-.3556-1.393-.544-2.0865-.2079-.7653-.426-1.5278-.643-2.2906-.0861-.3028-.1752-.605-.2733-.9041-.2151-.6555-.4395-1.3079-.6552-1.9632a19.0328,19.0328,0,0,0-1.07-2.5767,4.5175,4.5175,0,0,0-.9462-1.3041,2.4055,2.4055,0,0,0-.8813-.5218.5211.5211,0,0,0-.4721.05,1.5281,1.5281,0,0,0-.2424.1994,7.73,7.73,0,0,0-1.3829,1.653c-.1376.231-.3113.44-.4669.6608a1.3705,1.3705,0,0,0-.1964.3006,4.7829,4.7829,0,0,1-.4815.8093c-.1912.3214-.4069.6286-.5908.9539-.2937.52-.5712,1.0482-.8529,1.5744-.4035.7537-.8119,1.5048-1.2049,2.2638-.5039.9733-.9863,1.9575-1.425,2.9623-.06.1375-.1166.2769-.1663.4183-.0656.1865.0044.2949.1947.3052.12.0064.2407.0032.3611.0034.6169.001,1.2338.001,1.8507.0032a1.2291,1.2291,0,0,1,.3587.02,2.4412,2.4412,0,0,0,.7152.0655,5.9474,5.9474,0,0,1,.9.0287,3.5629,3.5629,0,0,0,.76.0609,10.405,10.405,0,0,1,1.2971.1186c.4747.04.9435.1574,1.425.1614a1.1712,1.1712,0,0,1,.2214.035,6.2337,6.2337,0,0,0,.615.1263c.64.0644,1.2748.1606,1.9069.2813.543.1037,1.0905.1838,1.6356.2771.1177.02.2325.0577.35.0767.12.0194.197-.0512.2079-.1781C-223.5761,138.3757-223.5783,138.3455-223.5783,138.2308Zm-14.4659,33.4832a4.1127,4.1127,0,0,0-4.2676-4.0824,4.1038,4.1038,0,0,0-3.905,4.08,4.1246,4.1246,0,0,0,4.2519,4.1035A4.1006,4.1006,0,0,0-238.0442,171.714Zm17.3619,15.649c-.0141-.15-.0187-.3313-.05-.5083a4.4189,4.4189,0,0,0-.8046-1.8915,2.9046,2.9046,0,0,0-1.2045-1.0564,1.1944,1.1944,0,0,1-.1589-.0857,2.8135,2.8135,0,0,0-1.0569-.372,2.4473,2.4473,0,0,0-1.1516-.0393.5057.5057,0,0,1-.18.0064,1.6237,1.6237,0,0,0-.7.1534c-.2228.0908-.45.1747-.6625.2862a3.3975,3.3975,0,0,0-1.1425.8688,4.3335,4.3335,0,0,0-.9045,1.9451,3.471,3.471,0,0,0-.0683,1.1668,4.6633,4.6633,0,0,0,1.1081,2.381,4.0947,4.0947,0,0,0,1.54.9842,3.514,3.514,0,0,0,.9634.2224,1.824,1.824,0,0,0,1.0187-.0461.477.477,0,0,1,.1788-.0147,1.679,1.679,0,0,0,.652-.1659,2.9265,2.9265,0,0,0,.9694-.5564.6729.6729,0,0,1,.15-.1,2.2577,2.2577,0,0,0,.6955-.695A4.62,4.62,0,0,0-220.6823,187.363Zm6.7257,5.9262a1.9766,1.9766,0,0,0-.3524.0036.5428.5428,0,0,0-.4459.34.5075.5075,0,0,0,.1526.5734,1,1,0,0,0,.4168.2608c.2366.0588.4455.1836.674.2522a17.9943,17.9943,0,0,1,2.1306.8491c.2914.13.5343.34.8321.45a2.0256,2.0256,0,0,1,.5358.3278,5.08,5.08,0,0,0,.5055.3775,6.5241,6.5241,0,0,1,1.3905,1.1432c.114.12.23.2389.3535.349.1.09.2137.1647.3207.247a.57.57,0,0,0,.3833.1049.2912.2912,0,0,0,.3208-.3415,1.14,1.14,0,0,0-.18-.5526,7.1035,7.1035,0,0,0-1.3584-1.7342q-.4269-.3687-.8654-.7238a1.9321,1.9321,0,0,0-.37-.2544c-.3659-.1749-.7065-.395-1.0685-.5785a12.8618,12.8618,0,0,0-2.2214-.8707A3.8874,3.8874,0,0,0-213.9566,193.2892Zm1.9177,8.451c-.03-.2143-.0652-.4369-.0907-.66a3.5406,3.5406,0,0,0-.1918-.7865,9.0937,9.0937,0,0,0-.9272-1.7514,8.8122,8.8122,0,0,0-1.705-1.9734,1.3382,1.3382,0,0,0-.5841-.3271.6987.6987,0,0,0-.7137.2758.6087.6087,0,0,0,.0615.6769.9867.9867,0,0,0,.1194.1351c.3677.3563.7044.7411,1.05,1.1181.3476.3791.63.8053.94,1.21a12.4274,12.4274,0,0,1,.7368,1.1336c.243.4006.5836.7252.8419,1.1134a.4923.4923,0,0,0,.176.1351.1818.1818,0,0,0,.2538-.1117C-212.0564,201.87-212.0508,201.81-212.0389,201.74Z" transform="translate(329.4087 -117.4338)"/><path class="fdd3488e-4d38-46f4-9210-b4a548d185ac" d="M-254.12,164.6006c-.1315.1024-.1306.2655-.1766.4037a20.22,20.22,0,0,1-1.2072,2.9131,19.387,19.387,0,0,1-2.29,3.5019,17.1265,17.1265,0,0,1-1.4863,1.6312.9008.9008,0,0,1-.455-.16,2.4378,2.4378,0,0,0-.4215-.25,2.72,2.72,0,0,0-2.0731-.24,6.2018,6.2018,0,0,0-.6579.2743,2.4921,2.4921,0,0,0-.2689-1.04c-.2345-.4712-.475-.9389-.7457-1.3911a29.5663,29.5663,0,0,0-3.1936-4.3619,32.182,32.182,0,0,0-2.5047-2.5969c-.7587-.6877-1.5841-1.2927-2.3912-1.92a11.4119,11.4119,0,0,0-1.3119-.8772,4.6818,4.6818,0,0,0-1.6981-.5734,1.5462,1.5462,0,0,0-.8.0744,1,1,0,0,0-.66,1.0248,1.1141,1.1141,0,0,0,.62.9345,4.42,4.42,0,0,0,.5761.2558,4.8453,4.8453,0,0,1,.92.4732,14.2037,14.2037,0,0,1,1.1563.8633c.6271.5158,1.2849.9954,1.875,1.5549a32.8838,32.8838,0,0,1,4.89,5.7693c.4471.6789.8492,1.3845,1.2567,2.0868a1.4041,1.4041,0,0,0,1.2272.7891c-.0716.1484-.1336.3024-.2165.4442a9.1411,9.1411,0,0,0-.8509,1.9713,5.9728,5.9728,0,0,1-.3271.975c-.323.12-.648.2353-.9686.3615a17.82,17.82,0,0,1-3.0247.85,10.0875,10.0875,0,0,1-1.3315.2009.4176.4176,0,0,0-.1746.0367,1.49,1.49,0,0,1-.7454.1257c-1.2.0261-2.4.0364-3.5992-.0227-.0078-.0278-.0071-.0709-.0253-.0814a.5272.5272,0,0,1-.2383-.5709,4.4189,4.4189,0,0,1,.0474-.4408,2.3981,2.3981,0,0,0,.004-.8853,4.0716,4.0716,0,0,1-.0524-.7076c.0748.0083.15.0163.2245.025a.9934.9934,0,0,0,1.0637-1.0286,1.6782,1.6782,0,0,0-.1224-.57c-.1655-.42-.334-.8388-.4871-1.2633-.4847-1.3444-.9392-2.6988-1.3253-4.0755q-.378-1.3477-.6682-2.7166c-.0867-.4125-.1406-.83-.2321-1.2411-.0523-.2346-.0993-.4715-.13-.71-.0723-.567-.1315-1.1357-.2-1.7033-.0394-.3287-.1066-.6553-.1254-.985q-.1032-1.8035-.18-3.6086c-.0355-.8433.0218-1.6848.0677-2.5271a30.2061,30.2061,0,0,1,.255-3.33c.0468-.2814.0543-.5678.1009-.8512q.1281-.78.2731-1.5554c.091-.4889.1945-.9735.3226-1.4529.163-.61.325-1.2215.51-1.8255.198-.6472.4062-1.2924.6389-1.9279a13.2409,13.2409,0,0,1,1.0487-2.2471,1.8293,1.8293,0,0,0,.28-.7568,1.1553,1.1553,0,0,0-.4773-1.1056,1.1052,1.1052,0,0,0-1.1936-.1175,1.8859,1.8859,0,0,0-.6965.5623,6.2248,6.2248,0,0,0-.6811,1.1677,27.72,27.72,0,0,0-1.594,4.4567c-.2415.8541-.46,1.7142-.6387,2.5849q-.1773.8631-.3,1.7336a19.8332,19.8332,0,0,0-.2924,2.8722.4049.4049,0,0,1-.0048.0449c-.077.75-.1,1.5018-.1223,2.2546-.0605,2.0647.0451,4.1241.1856,6.1826.0051.075.0124.15.024.2244.1925,1.2334.3049,2.4774.5622,3.7031.2662,1.2679.5651,2.5253.9378,3.7654.16.533.3326,1.0623.5,1.5934a1.5162,1.5162,0,0,1-.2577-.0521,2.6523,2.6523,0,0,0-.868-.13c-.2844-.0115-.5519.0864-.8316.0874-.0987-.2517-.1929-.5053-.2969-.7548a23.9752,23.9752,0,0,1-.8928-2.65c-.3348-1.1714-.6441-2.35-.8874-3.5442-.105-.5155-.1969-1.0339-.2818-1.5531-.0873-.5339-.1318-1.0761-.2435-1.6045a16.0491,16.0491,0,0,1-.2764-2.4643,34.9416,34.9416,0,0,1,.076-5.7261c.0728-.6609.2016-1.3079.3349-1.9545a27.8538,27.8538,0,0,1,.7363-2.7907c.1771-.5588.3751-1.1119.5852-1.6593a4.0838,4.0838,0,0,1,.6184-1.0457,1.6742,1.6742,0,0,0,.363-1.131,1.1131,1.1131,0,0,0-1.61-.88,1.9943,1.9943,0,0,0-.6065.5286,8.2069,8.2069,0,0,0-1.2232,2.4013q-.3569.9987-.6389,2.0214c-.204.7394-.3933,1.4819-.5561,2.2319-.1185.5455-.1616,1.1014-.2685,1.6475a5.631,5.631,0,0,0-.105.85q-.05,1.2178-.0955,2.4361c-.0079.21-.0174.4211-.0126.6314.0121.5266.0384,1.053.0472,1.58a18.8774,18.8774,0,0,0,.1959,2.6087c.1185.7576.1958,1.5217.3208,2.2781.1865,1.128.4315,2.2445.704,3.3554.28,1.14.5986,2.2683.9748,3.38.3133.9261.656,1.8416,1.06,2.733-.0288.0524-.0442.1264-.0885.1538a9.9061,9.9061,0,0,0-1.0212.81,7.08,7.08,0,0,0-.9571.9526c-.1448.1734-.294.3413-.45.5025-.21.2163-.2941.2291-.54.051a12.3581,12.3581,0,0,1-1.3307-1.0715c-.5426-.52-1.0648-1.0622-1.601-1.59a7.8158,7.8158,0,0,1-.7092-.8145c-.1554-.2019-.3122-.4029-.4632-.6081a.4744.4744,0,0,0-.2635-.1608.4673.4673,0,0,0-.0075-.54c-.1366-.2525-.3171-.4737-.4691-.7142a20.0578,20.0578,0,0,1-1.2592-2.3254,15.3912,15.3912,0,0,1-.8736-2.3155c-.0957-.345-.2129-.684-.3155-1.0272a.9485.9485,0,0,1-.0448-.2642.9941.9941,0,0,0-.1073-.4792.7935.7935,0,0,1-.0794-.3938.5794.5794,0,0,0-.0036-.1352c-.1293-.5416-.1427-1.0985-.2208-1.645a14.72,14.72,0,0,1-.1245-2.6964,7.6085,7.6085,0,0,1,.1043-.8473,5.0987,5.0987,0,0,0,.0609-.7617,1.9947,1.9947,0,0,1,.0725-.5332,2.1519,2.1519,0,0,0,.1157-.7091.5421.5421,0,0,1,.0436-.2635,1.372,1.372,0,0,0,.1413-.6545.4194.4194,0,0,1,.026-.1319,28.4985,28.4985,0,0,1,1.117-3.1765q.4053-.9.891-1.7586c.1552-.2741.319-.5437.4875-.81a8.55,8.55,0,0,1,.7106-1.0377,3.9136,3.9136,0,0,0,.406-.595A1.5535,1.5535,0,0,0-288.49,145.8a2.2643,2.2643,0,0,1-.05-.401,9.038,9.038,0,0,0-.1469-1.4294,10.5562,10.5562,0,0,0-.2347-1.2355,6.7446,6.7446,0,0,0-.9963-2.35,1.9712,1.9712,0,0,0-1.14-.8369,2.81,2.81,0,0,0-1.075-.0278,5.5758,5.5758,0,0,0-.9564.2463,10.4486,10.4486,0,0,0-2.7377,1.3544c-.6564.45-1.2841.9365-1.9088,1.43-.482.3809-.9436.7884-1.4438,1.1487-.5108.368-.986.7851-1.4842,1.1712a7.9958,7.9958,0,0,1-1.8137,1.0845,3.1888,3.1888,0,0,1-1.2764.2334,3.1447,3.1447,0,0,1-1.2365-.1945,3.0047,3.0047,0,0,1-.9117-.572c-.0437-.0415-.0841-.0866-.13-.1259a3.9866,3.9866,0,0,1-1.207-2.1194,11.58,11.58,0,0,1-.216-1.2841c-.0722-.511-.0615-1.018-.0836-1.5273a10.7956,10.7956,0,0,1,.1377-1.4327,7.6883,7.6883,0,0,1,.1856-1.0616,12.3192,12.3192,0,0,1,.4158-1.4223,17.8807,17.8807,0,0,1,.9107-2.1062,17.895,17.895,0,0,1,1.4219-2.3991,1.6812,1.6812,0,0,1,.1284-.1841A16.1334,16.1334,0,0,1-302.44,129.96c.5777-.43,1.1469-.871,1.7329-1.2888a3.61,3.61,0,0,1,1.2484-.6079,1.3175,1.3175,0,0,1,1.045.1309.87.87,0,0,1,.471.8566.8483.8483,0,0,1-.56.7562,6.0262,6.0262,0,0,0-1.5149.96c-.6224.4733-1.1966,1.0032-1.7736,1.5275a6.1977,6.1977,0,0,0-1.2294,1.5457c-.3023.5359-.6162,1.0678-.8759,1.6244a16.5869,16.5869,0,0,0-.9409,2.3839c-.143.4932-.1567,1.0079-.3226,1.4922a.5706.5706,0,0,0-.0138.1794q-.0015.9711-.0006,1.9423a.5261.5261,0,0,0,.0141.1792c.1484.3944.1726.8223.3358,1.2134a1.9163,1.9163,0,0,0,.42.6326.8707.8707,0,0,0,.997.1915,3.9871,3.9871,0,0,0,1.0085-.5857q1.1452-.8731,2.28-1.7606c.2946-.2318.5617-.4983.8528-.7349.4189-.3408.8418-.6775,1.2747-1a15.4121,15.4121,0,0,1,2.5658-1.5837,10.7489,10.7489,0,0,1,2.45-.8829.6683.6683,0,0,1,.1294-.0376,7.0844,7.0844,0,0,1,1.8789-.0528.619.619,0,0,0,.18.0139,2.8264,2.8264,0,0,1,1.5151.4943,5.1422,5.1422,0,0,1,1.8631,1.98,9.0708,9.0708,0,0,1,.8907,2.2572,5.1841,5.1841,0,0,1,.2476,1.2319,3.4566,3.4566,0,0,0,.183.8326.1652.1652,0,0,0,.2832.0862c.0724-.0536.1377-.1166.2086-.1723.3773-.2964.7455-.6058,1.1361-.8836s.7985-.5321,1.2079-.7817a20.8793,20.8793,0,0,1,2.487-1.2711c.3928-.1724.8087-.3033,1.2153-.4482q.74-.2636,1.4949-.4641a6.4767,6.4767,0,0,1,1.58-.3278.5507.5507,0,0,0,.177-.03,3.998,3.998,0,0,1,1.2-.157c.4031-.0177.8045-.0825,1.2057-.1337a6.0152,6.0152,0,0,1,1.44-.01,12.43,12.43,0,0,0,1.7008.1554.7743.7743,0,0,1,.225.005c.4186.12.8533.152,1.2769.241.6894.145,1.3663.3387,2.04.5451.4586.14.9107.2953,1.3542.4765a19.4886,19.4886,0,0,1,2.4271,1.1711,19.0847,19.0847,0,0,1,2.0333,1.3317q.8592.6578,1.6756,1.364a7.6336,7.6336,0,0,1,1.0363,1.0667c.2027.26.43.5014.6444.7529.2638.31.5077.6313.7427.9618.0867.1219.1907.2313.2833.3493a.39.39,0,0,0,.362.14.5907.5907,0,0,0,.1342.3717,17.6138,17.6138,0,0,1,1.2763,2.2779,19.3514,19.3514,0,0,1,1.4865,4.4764c.1094.5441.1761,1.0965.2838,1.6388a9.6469,9.6469,0,0,1,.1615,1.5165,14.1376,14.1376,0,0,0,.005,1.8752c-.0093.1632-.0182.3264-.0283.4895a1.2088,1.2088,0,0,1-.026.31,6.4654,6.4654,0,0,0-.1846.9621c-.0689.38-.1413.76-.2055,1.1407a2.4383,2.4383,0,0,0-.0141.31,1.2678,1.2678,0,0,0-.2059.6695c-.0763.06-.1185.1291-.0574.2244A.735.735,0,0,0-254.12,164.6006Zm-2.2214,3.1142a2.4378,2.4378,0,0,0-.2207-.8424c-.202-.4037-.4158-.8019-.604-1.2118a12,12,0,0,0-1.2631-2.1325c-.5192-.702-1.0613-1.3858-1.6334-2.0461a35.8735,35.8735,0,0,0-4.4328-4.37c-.782-.6369-1.588-1.2444-2.3636-1.8887A15.6025,15.6025,0,0,0-269.84,153.28c-1.13-.5675-2.2891-1.07-3.4484-1.5733-.3862-.1674-.7749-.3333-1.1737-.4662a2.2418,2.2418,0,0,0-1.3318-.0787,1.0754,1.0754,0,0,0-.6186,1.63,1.3589,1.3589,0,0,0,.66.5257c.4625.1811.9136.3872,1.3578.61q1.29.6488,2.5913,1.2763a15.267,15.267,0,0,1,3.1853,1.9553c.6373.5279,1.2941,1.0323,1.9347,1.5564a33.3336,33.3336,0,0,1,2.8785,2.5364c1.1634,1.2,2.2891,2.4352,3.3295,3.7446a8.0343,8.0343,0,0,1,.8687,1.3179c.33.6423.715,1.2557.996,1.9238a1.3266,1.3266,0,0,0,.56.6323,1.0912,1.0912,0,0,0,1.3648-.1779A1.37,1.37,0,0,0-256.3416,167.7148Zm-28.85-19.0876a1.135,1.135,0,0,0-1.52-1.08,1.7944,1.7944,0,0,0-1.0039.9264,7.3489,7.3489,0,0,0-.4511,1.0329,25.7014,25.7014,0,0,0-1.0535,4.103,30.6849,30.6849,0,0,0-.3192,3.595,30.09,30.09,0,0,0,.0749,3.0228,21.5561,21.5561,0,0,0,.5424,3.5649,26.11,26.11,0,0,0,.7127,2.6122,21.1692,21.1692,0,0,0,1.2622,3.0882,15.2837,15.2837,0,0,0,1.6494,2.5305,2.12,2.12,0,0,0,.5749.5.8778.8778,0,0,0,1.2242-.4759,1.0334,1.0334,0,0,0-.0073-.7084,4.3312,4.3312,0,0,0-.2162-.4964c-.2658-.5232-.5338-1.0454-.8085-1.5639a21.1094,21.1094,0,0,1-1.6138-3.9645c-.3-1.026-.5351-2.0685-.7482-3.1152a13.237,13.237,0,0,1-.2136-1.4736c-.0489-.5543-.0541-1.1126-.0756-1.6692-.0432-1.1148.0042-2.228.0579-3.3411a16.8173,16.8173,0,0,1,.3006-2.28,20.1539,20.1539,0,0,1,.4824-1.9714,6.3193,6.3193,0,0,1,.9541-2.2258A.92.92,0,0,0-285.1921,148.6272Zm9.7947,7.0518a.9586.9586,0,0,0-.5838.1244,1.0142,1.0142,0,0,0-.2954,1.5216,2.0786,2.0786,0,0,0,.6469.5552c.2341.1362.4694.2711.7095.3962a35.661,35.661,0,0,1,4.9968,3.2355,33.7474,33.7474,0,0,1,2.8849,2.5272c1.102,1.0493,2.1,2.1977,3.1467,3.3a18.7314,18.7314,0,0,1,1.8415,2.2226c.24.3464.4639.7036.6949,1.0561a1.8551,1.8551,0,0,0,.5983.6045,1.12,1.12,0,0,0,1.702-.7754,1.2479,1.2479,0,0,0-.1942-.9061c-.39-.6253-.76-1.2624-1.1958-1.86-.675-.9268-1.4339-1.7821-2.193-2.6373-.8793-.9907-1.7944-1.948-2.7323-2.884a32.4454,32.4454,0,0,0-2.6182-2.3524c-.9636-.7728-1.9772-1.4782-3.0094-2.1544a14.0946,14.0946,0,0,0-3.8895-1.87A1.7633,1.7633,0,0,0-275.3974,155.679Zm9.1007,19.2152a1.2311,1.2311,0,0,0-.081-.471,4.1489,4.1489,0,0,0-.4034-.7553q-.5619-.8735-1.1223-1.748a34.7684,34.7684,0,0,0-2.133-3.0244,25.9292,25.9292,0,0,0-2.5373-2.6942,6.9288,6.9288,0,0,0-2.178-1.3434.9276.9276,0,0,0-1.0507.1594.9656.9656,0,0,0-.1345,1.3115,3.0412,3.0412,0,0,0,.5841.625,26.0225,26.0225,0,0,1,3.2155,3.3533,34.2563,34.2563,0,0,1,2.2039,3.1411c.3883.6093.79,1.21,1.1873,1.8137a2.0833,2.0833,0,0,0,.5926.6123,1.1191,1.1191,0,0,0,1.1978.09A1.1366,1.1366,0,0,0-266.2967,174.8942Zm2.1667-31.7591a.9323.9323,0,0,0-1.1033-.9041,1.2491,1.2491,0,0,0-.535.2287c-.1689.1254-.336.2539-.4957.3907a21.9837,21.9837,0,0,1-2.9775,2.1874,44.7889,44.7889,0,0,1-5.3766,2.7458,1.82,1.82,0,0,0-.6088.3759.9883.9883,0,0,0,.4721,1.6964,1.4981,1.4981,0,0,0,.9677-.1062c.4611-.1818.9234-.366,1.3672-.5854,1.2666-.6261,2.5327-1.2543,3.7518-1.9715a20.4614,20.4614,0,0,0,3.06-2.1478,12.475,12.475,0,0,0,1.1311-1.1006A1.19,1.19,0,0,0-264.13,143.1351Zm-5.6507,8.9947a1.1737,1.1737,0,0,0,.4488-.0718,9.68,9.68,0,0,0,2.101-.9257,37.2741,37.2741,0,0,0,4.03-2.7355,10.6555,10.6555,0,0,0,1.8537-1.84,2.4223,2.4223,0,0,0,.3814-.61,1.0005,1.0005,0,0,0-.2937-1.1822.9489.9489,0,0,0-1.176.0117,3.9978,3.9978,0,0,0-.5008.4531,13.94,13.94,0,0,1-1.3562,1.2573,36.9428,36.9428,0,0,1-3.5979,2.4887,9.4443,9.4443,0,0,1-1.791.8446,4.31,4.31,0,0,0-.7049.299,1.0331,1.0331,0,0,0-.5654.961,1.0316,1.0316,0,0,0,.6081.9332A1.1529,1.1529,0,0,0-269.7807,152.13Zm4.6034,2.788a1.5629,1.5629,0,0,0,.8586-.2368,22.2972,22.2972,0,0,0,4.4643-3.1162,7.0077,7.0077,0,0,0,.944-1.029,3.159,3.159,0,0,0,.3726-.6662.99.99,0,0,0-.306-1.0179.8583.8583,0,0,0-1.01-.0943,2.28,2.28,0,0,0-.2625.1743c-.27.2153-.54.4326-.8046.6546-.5649.4733-1.1368.9377-1.7406,1.3609A25.5542,25.5542,0,0,1-265.47,152.66a1.89,1.89,0,0,0-.4855.3232,1.1059,1.1059,0,0,0-.2747,1.24A1.0308,1.0308,0,0,0-265.1773,154.9178Zm-8.3191-9.0109a1.53,1.53,0,0,0,.6957-.1913c.2865-.1649.5719-.3319.863-.4884.9143-.4915,1.794-1.0393,2.6547-1.6184a7.2622,7.2622,0,0,0,1.1347-.9588,1.91,1.91,0,0,0,.3888-.5491.91.91,0,0,0-.1587-1.0447.9271.9271,0,0,0-1.0055-.1716,2.1273,2.1273,0,0,0-.5647.3676,12.108,12.108,0,0,1-1.4259,1.0261c-.8758.5566-1.7892,1.0476-2.6951,1.5517a2.6725,2.6725,0,0,0-.5934.4047.9322.9322,0,0,0-.2537,1.0685A.9849.9849,0,0,0-273.4964,145.9069Zm16.8754,7.6711a.8809.8809,0,0,0-1.187-.8476,1.2729,1.2729,0,0,0-.4924.3087c-.1407.1355-.2789.2737-.42.4093a11.8384,11.8384,0,0,1-2.2086,1.7024c-.3106.1828-.6263.3569-.9413.5322a1.6209,1.6209,0,0,0-.6029.5294,1.0243,1.0243,0,0,0,.0441,1.22,1.0648,1.0648,0,0,0,1.17.3526c.1623-.0773.3309-.1425.4884-.2284.25-.1366.4956-.2834.74-.43a11.1062,11.1062,0,0,0,2.7326-2.26,4.3261,4.3261,0,0,0,.55-.7682A1.067,1.067,0,0,0-256.621,153.578Zm-14.7546,22.0549a.9442.9442,0,0,0,.9538-1.103,1.5271,1.5271,0,0,0-.2647-.6174,23.5932,23.5932,0,0,0-1.8569-2.2639,1.1378,1.1378,0,0,0-.489-.3129.79.79,0,0,0-.9963.4647,1.1028,1.1028,0,0,0,.1027.9949,14.1468,14.1468,0,0,0,1.6061,2.2818,2.0691,2.0691,0,0,0,.5169.4317A.8249.8249,0,0,0-271.3756,175.6329Zm15.4148-17.5279a.9333.9333,0,0,0-1.37-.859,2.634,2.634,0,0,0-.3663.26,13.0181,13.0181,0,0,1-1.115.8387,1.5845,1.5845,0,0,0-.4717.4769.8746.8746,0,0,0-.0565.9769.9735.9735,0,0,0,.938.51,1.2992,1.2992,0,0,0,.6371-.2008,6.8162,6.8162,0,0,0,1.3527-1.1126,2.7411,2.7411,0,0,0,.2757-.3552A1.15,1.15,0,0,0-255.9608,158.105Zm-.883,5.0894a1.0979,1.0979,0,0,0,.4429-.0672,2.02,2.02,0,0,0,.9792-.8328.9413.9413,0,0,0-.11-1.1293.9587.9587,0,0,0-1.1035-.288,2.4326,2.4326,0,0,0-.8617.5651,1.5067,1.5067,0,0,0-.2137.2885A.9719.9719,0,0,0-256.8438,163.1944Z" transform="translate(329.4087 -117.4338)"/><path class="a9fbb20d-c5e7-4621-b24b-14a20ef20e56" d="M-309.9814,174.2847a.8665.8665,0,0,0-.2873.3387,27.0273,27.0273,0,0,1-1.7469,2.6715,23.0821,23.0821,0,0,1-2.8982,3.14,13.0786,13.0786,0,0,1-1.6478,1.3192c-.223.1507-.4244.3335-.6467.4854-.31.2115-.6223.42-.9468.6076-.5708.3291-1.1412.6617-1.73.9558a15.6608,15.6608,0,0,1-3.6249,1.3293.9115.9115,0,0,0-.4939.1928,9.9025,9.9025,0,0,1-.8443-1.2681,32.2869,32.2869,0,0,1-1.729-3.1592q-.4839-1.0382-.9238-2.0956c-.2532-.609-.4528-1.236-.6868-1.851-.1114-.2928-.17-.6053-.2559-.908-.11-.3895-.2253-.7775-.3342-1.1674a1.6992,1.6992,0,0,1-.0587-.3091c-.0142-.1664-.0742-.3229-.1006-.4836a13.0484,13.0484,0,0,1-.2786-1.6842,7.7722,7.7722,0,0,0-.0946-.9877,8.0171,8.0171,0,0,1-.0045-2.472,5.9913,5.9913,0,0,0,.0975-.9874.82.82,0,0,1,.01-.18c.0955-.4546.1864-.91.2952-1.3618.07-.2907.1473-.58.2343-.8672a11.2994,11.2994,0,0,1,1.234-2.791,5.9418,5.9418,0,0,1,2.556-2.3466,7.4719,7.4719,0,0,1,1.014-.3493,5.1079,5.1079,0,0,1,1.4291-.1447,2.7467,2.7467,0,0,1,.891.1168,3.1573,3.1573,0,0,1,.8635.2362,7.13,7.13,0,0,1,1.94.9281,11.5671,11.5671,0,0,1,2.4972,2.2016,23.9222,23.9222,0,0,1,2.8444,4.16c.5687,1.0226,1.11,2.059,1.6357,3.1037C-311.1671,171.8624-310.52,173.0469-309.9814,174.2847Z" transform="translate(329.4087 -117.4338)"/><path class="ba25be2d-5374-4f3f-988e-f0a6291f05e5" d="M-289.28,170.626a.4744.4744,0,0,1,.2635.1608c.151.2052.3078.4062.4632.6081a7.8158,7.8158,0,0,0,.7092.8145c.5362.5273,1.0584,1.069,1.601,1.59a12.3581,12.3581,0,0,0,1.3307,1.0715c.2462.1781.33.1653.54-.051.1565-.1612.3057-.3291.45-.5025a7.08,7.08,0,0,1,.9571-.9526,9.9061,9.9061,0,0,1,1.0212-.81c.0443-.0274.06-.1014.0884-.1539a.5044.5044,0,0,0,.2919-.0866,5.1364,5.1364,0,0,1,1.5282-.6921.2769.2769,0,0,0,.1584-.1471c.28-.001.5472-.0989.8316-.0874a2.6523,2.6523,0,0,1,.868.13,1.5064,1.5064,0,0,0,.2577.052,3.2913,3.2913,0,0,0,.3313.2318,3.4536,3.4536,0,0,1,1.4176,1.4759,5.4171,5.4171,0,0,1,.6292,2.2862.8923.8923,0,0,0,.0979.4341,4.0716,4.0716,0,0,0,.0524.7076,2.3981,2.3981,0,0,1-.004.8853,4.4189,4.4189,0,0,0-.0474.4408.5272.5272,0,0,0,.2383.5709c.0182.0105.0175.0536.0253.0814a.3055.3055,0,0,0-.2849.2819,5.2352,5.2352,0,0,0-.0726.8948q0,1.3542-.0056,2.7086a1.6987,1.6987,0,0,1-.0541.5359,1.1608,1.1608,0,0,0-.03.3124,1.813,1.813,0,0,1-.0719.6237.4593.4593,0,0,0-.0173.1786,11.7909,11.7909,0,0,1-.1653,1.7866,18.5647,18.5647,0,0,1-.2917,1.8608c-.0864.3792-.1975.7531-.31,1.1256a1.56,1.56,0,0,1-.5228.7211.4167.4167,0,0,1-.6055-.0155,1.2108,1.2108,0,0,1-.3417-1.1178,4.8459,4.8459,0,0,0,.0689-.6694,1.3293,1.3293,0,0,1,.0365-.3115,1.284,1.284,0,0,0,.0469-.4011,6.0734,6.0734,0,0,1,.1584-1.5164,2.9071,2.9071,0,0,0,.0251-.5394,4.1691,4.1691,0,0,1,.0782-1.0752,1.2722,1.2722,0,0,0,.0121-.3147,1.7222,1.7222,0,0,1,.0484-.4462,2.6812,2.6812,0,0,0,.0353-.8074.1686.1686,0,0,0-.22-.1618c-.0732.0136-.1427.0459-.2153.0638a5.044,5.044,0,0,1-1.7919.0889,3.8448,3.8448,0,0,1-1.3666-.232,2.2089,2.2089,0,0,1-.9908-.259,7.7426,7.7426,0,0,1-1.7746-.9639,7.2613,7.2613,0,0,1-.5608-.5221,4.6452,4.6452,0,0,1-.9232-1.1,1.1268,1.1268,0,0,0-.1323-.1822.1664.1664,0,0,0-.242-.007.89.89,0,0,0-.17.2069c-.4742.8862-.97,1.7615-1.3721,2.6846-.1915.4391-.4.871-.589,1.311-.255.5927-.4969,1.191-.7486,1.785-.1049.2475-.2212.49-.3316.7353a1.0833,1.0833,0,0,1-.2359.3269.488.488,0,0,1-.5457.0958.4947.4947,0,0,1-.3418-.4377,2.9034,2.9034,0,0,1,.1328-1.1556c.1452-.41.2919-.82.4295-1.2332a23.5539,23.5539,0,0,1,1.1393-2.6386q.6373-1.3415,1.3889-2.6206c.0313-.0529.0617-.1078.0024-.1583a.1529.1529,0,0,0-.17-.0074c-.2336.104-.48.1707-.7205.2525-.4867.1652-1,.1907-1.4909.3257a1.2614,1.2614,0,0,1-.3144.0193c-.3009.0034-.6024-.0064-.9028.0069a5.52,5.52,0,0,1-2.8141-.6685.99.99,0,0,0-.4618-.1644,16.3258,16.3258,0,0,1,.6016-1.8754c.3389-.8652.7-1.7218,1.1216-2.5509a12.1566,12.1566,0,0,1,.7955-1.359A3.4418,3.4418,0,0,1-289.28,170.626Z" transform="translate(329.4087 -117.4338)"/><path class="ba25be2d-5374-4f3f-988e-f0a6291f05e5" d="M-197.34,154.3567a4.53,4.53,0,0,1-.9317.9731c-.5233.4476-1.0722.8675-1.63,1.2719-.4857.352-.9984.6669-1.5.9968-.213.14-.4287.2761-.6428.4147-.6674.4321-1.3283.8746-2.0041,1.2932-.4195.26-.87.4689-1.29.7282-.371.2291-.7434.4528-1.1335.6475-.586.2926-1.17.59-1.756.8818-.3082.1536-.6154.31-.93.45-.726.3221-1.4291.694-2.1717.98-.3863.149-.7547.3466-1.1449.4827a3.9936,3.9936,0,0,1-1.4786.33,1.1456,1.1456,0,0,1-1.1013-1.3861,12.09,12.09,0,0,1,.5606-1.8948c.2184-.5589.4252-1.1223.6618-1.6742.1537-.3585.2955-.7226.459-1.0766.7942-1.7193,1.65-3.4084,2.5044-5.0983q.4659-.9216.9587-1.8295a19.5711,19.5711,0,0,1,1.3622-2.1116c.29-.4008.58-.802.8808-1.1949.2915-.3808.5956-.7519.8962-1.1257.16-.1987.3233-.3943.486-.5906a.4584.4584,0,0,0,.07-.2566c.4073.3315.8.6827,1.2251.9892a20.449,20.449,0,0,1,1.6468,1.3342,25.3348,25.3348,0,0,1,1.9533,1.8714c.2322.2564.4751.5038.7232.7448.4751.4614.9255.9435,1.3635,1.4413.4669.5307.9118,1.08,1.38,1.6086A5.0258,5.0258,0,0,1-197.34,154.3567Z" transform="translate(329.4087 -117.4338)"/><path class="ba25be2d-5374-4f3f-988e-f0a6291f05e5" d="M-251.0408,213.8435a2.6822,2.6822,0,0,0-.4588-.82c-.5807-.876-1.1047-1.7851-1.6372-2.69a27.0085,27.0085,0,0,1-1.4266-2.7962,13.6691,13.6691,0,0,1-.7005-1.9444c-.0626-.2316-.05-.4747-.0927-.7119a1.5465,1.5465,0,0,1,.0746-.5746,1.3935,1.3935,0,0,1,1.2344-1.02,2.315,2.315,0,0,1,1.487.4121c.6215.4185,1.25.8231,1.83,1.3023.3806.3149.79.5954,1.182.8961.63.4829,1.2546.9729,1.8862,1.4537.417.3174.8466.6181,1.2628.9364.9293.7107,1.9085,1.3505,2.8594,2.03.0975.07.1907.1457.2859.2188a.6118.6118,0,0,1-.1277.1221c-.9633.49-1.9221.9875-2.9054,1.4378-.6684.306-1.3327.6211-2.018.8869-.46.1784-.9316.3275-1.4.4847-.341.1145-.6847.2207-1.0272.3306A.5711.5711,0,0,1-251.0408,213.8435Z" transform="translate(329.4087 -117.4338)"/><path class="f5e8dc98-0400-4ef2-a221-4db9e1732ea0" d="M-267.4024,215.2153a3.1124,3.1124,0,0,1,.07-.85,1.4962,1.4962,0,0,0,.0153-.3595,2.7848,2.7848,0,0,1,.0789-.894.2213.2213,0,0,0,.009-.0893c-.0423-.5881.1058-1.1658.094-1.7518a2.9888,2.9888,0,0,1,.0818-.5319c.0837-.5319.158-1.0644.2568-1.5946.0878-.4715.1881-.94.2977-1.4054a12.07,12.07,0,0,1,.7164-2.2188,1.9583,1.9583,0,0,1,.3392-.5259,1.1569,1.1569,0,0,1,1.91.1877,5.687,5.687,0,0,1,.5491,1.2324c.0144.042.0064.0926.0239.1327.3422.7842.58,1.6061.8644,2.4109.2193.621.4958,1.22.6823,1.8542a11.1336,11.1336,0,0,0,.4149,1.0462c.2441.5972.4859,1.1955.7366,1.79.1863.4415.3878.8766.5769,1.317.0589.1373.0994.2825.1483.424-.0745.0065-.149.0186-.2235.0186q-3.0863,0-6.1723-.0016A7.55,7.55,0,0,1-267.4024,215.2153Z" transform="translate(329.4087 -117.4338)"/><path class="f5e8dc98-0400-4ef2-a221-4db9e1732ea0" d="M-280.51,211.8606c.28-.8543.6012-1.694.908-2.5389.225-.62.4725-1.2306.7059-1.8468.1961-.5176.43-1.0209.6332-1.5358.2439-.6164.5555-1.2.8547-1.7891a6.2994,6.2994,0,0,1,.8139-1.1841,1.35,1.35,0,0,1,.8914-.481,1.2643,1.2643,0,0,1,1.3271,1.0429,7.6733,7.6733,0,0,1,.2,1.8275,3.7585,3.7585,0,0,0,.0693,1.1656,1.5479,1.5479,0,0,1,.0126.36,2.9145,2.9145,0,0,0,.0684.76,1.901,1.901,0,0,1,.0234.4487,5.9691,5.9691,0,0,0,.0795,1.3457,1.1685,1.1685,0,0,1,.0081.27,2.8024,2.8024,0,0,0,.0756.8493.9752.9752,0,0,1,.0165.269,4.51,4.51,0,0,0,.0762,1.0306,1.9855,1.9855,0,0,1,.0137.45,5.13,5.13,0,0,0,.0655.76c.072.4111.0785.8337.1126,1.2513a9.8535,9.8535,0,0,1-1.3571-.2927,15.8475,15.8475,0,0,1-1.5439-.4758c-.6356-.2184-1.2681-.4472-1.8943-.6913A13.1676,13.1676,0,0,1-280.51,211.8606Z" transform="translate(329.4087 -117.4338)"/><path class="acdc2bbf-9b10-412f-a99c-ba2396955401" d="M-320.5511,189.7548a11.2505,11.2505,0,0,0,1.9576-.2538c.3206-.0728.6508-.1046.97-.1814a22.6167,22.6167,0,0,0,3.295-1.0633c.93-.3813,1.8495-.7887,2.7485-1.2387.6037-.3021,1.1985-.6221,1.793-.942a1.06,1.06,0,0,1,.6075-.1287.6927.6927,0,0,1,.5312.3.8377.8377,0,0,1,.1145.8882,6.0871,6.0871,0,0,1-.7447,1.2315c-.4857.6292-.9889,1.243-1.5309,1.8272-.2752.2966-.5332.6114-.8276.89-.4575.4328-.9333.8457-1.4089,1.2589-.3856.335-.788.6479-1.1845.9678-.3492.2818-.7352.5178-1.1.7815-.1292.0936-.3041.1471-.3426.3356a10.5217,10.5217,0,0,1-1.1418-.9341,49.7782,49.7782,0,0,1-3.6663-3.6279A.7614.7614,0,0,1-320.5511,189.7548Z" transform="translate(329.4087 -117.4338)"/><path class="acdc2bbf-9b10-412f-a99c-ba2396955401" d="M-289.1095,205.8409c.12-.2049.2515-.4043.3589-.6158.49-.9639.97-1.932,1.5112-2.8692.2988-.5172.5788-1.0441.9133-1.5408a3.868,3.868,0,0,1,.544-.5983,1.0523,1.0523,0,0,1,1.0052-.25.9738.9738,0,0,1,.7188.6867,2.4458,2.4458,0,0,1,.068,1.1524c-.0725.472-.1443.9453-.2078,1.4186-.0439.3277-.13.6468-.168.97-.0651.552-.2013,1.088-.3007,1.6316-.1021.5584-.2114,1.1167-.3175,1.6741a6.53,6.53,0,0,0-.2341,1.3239.2164.2164,0,0,1-.1131.1837,1.4,1.4,0,0,1-.1991-.1026c-.7769-.5669-1.5829-1.0962-2.3043-1.7357A8.5813,8.5813,0,0,1-289.1095,205.8409Z" transform="translate(329.4087 -117.4338)"/><path class="acdc2bbf-9b10-412f-a99c-ba2396955401" d="M-206.9979,145.0512a1.0933,1.0933,0,0,0-.2956.1009c-.3671.2613-.775.4575-1.1335.734-.26.2009-.5564.3547-.8252.5454q-1.2468.8849-2.4838,1.7834c-.4.2908-.7885.5971-1.1819.8968-.3694.2814-.7375.5644-1.1081.8441a4.3733,4.3733,0,0,1-.37.2564.2716.2716,0,0,1-.3007-.0048.5384.5384,0,0,1-.2968-.4719,2.02,2.02,0,0,1,.0779-.5765,11.9591,11.9591,0,0,1,1.83-3.4877c.3078-.4061.5916-.8312.9133-1.2256a15.9644,15.9644,0,0,1,1.6294-1.743.5453.5453,0,0,1,.1185-.0635q.3927.2948.7856.5891a.9752.9752,0,0,0,.2218.1505,3.5555,3.5555,0,0,1,.9346.6057.9732.9732,0,0,0,.1853.1252A5.8952,5.8952,0,0,1-206.9979,145.0512Z" transform="translate(329.4087 -117.4338)"/><path class="a52d6310-545b-4977-9d2b-a4aec9011fdd" d="M-238.2663,207.0116c-.7178-.5393-1.4508-1.0575-2.1561-1.6147-.4945-.3906-.9457-.8309-1.45-1.2077a2.2343,2.2343,0,0,1-.2274-.2189c-.5855-.5846-1.1691-1.1712-1.7566-1.7537-.3631-.36-.6652-.7719-1.0018-1.1535-.3184-.3608-.5921-.7549-.9022-1.1209-.2322-.2742-.4317-.5751-.6481-.862-.4327-.5739-.83-1.1745-1.2407-1.7649-.0265-.0381-.0373-.0937.0118-.1159a.1391.1391,0,0,1,.12.0153,5.5862,5.5862,0,0,1,.5532.459,18.187,18.187,0,0,0,1.5332,1.3211c.614.5026,1.2538.9738,1.8859,1.454.1788.1358.37.2559.5552.3829.5569.3809,1.1084.77,1.6726,1.14.489.3205.9886.6253,1.49.9255.669.4,1.331.8159,2.0217,1.1756a18.4978,18.4978,0,0,0,1.8152.8953q-1.0786.9915-2.1584,1.9817A.5267.5267,0,0,1-238.2663,207.0116Z" transform="translate(329.4087 -117.4338)"/><path class="acdc2bbf-9b10-412f-a99c-ba2396955401" d="M-193.9813,159.1316a3.2964,3.2964,0,0,0-.5158.837,2.6145,2.6145,0,0,1-.3231.4309c-.2029.2208-.3888.4574-.5953.6747a9.12,9.12,0,0,1-1.238,1.0433c-.5924.4348-1.2133.831-1.8224,1.243a4.998,4.998,0,0,1-1.2419.5161.7235.7235,0,0,1-.2687.0159.3811.3811,0,0,1-.3651-.3357.5918.5918,0,0,1,.0623-.3925c.1739-.2808.34-.5662.5041-.8532.17-.299.3423-.5976.4983-.9041.3414-.6707.6838-1.3412,1.0063-2.021q.6468-1.3636,1.186-2.7746c.1338-.3506.2756-.6982.4146-1.0468a.33.33,0,0,1,.1338-.176.7331.7331,0,0,1,.1339.1164c.3722.5277.75,1.0519,1.1083,1.5889C-194.8545,157.7673-194.4215,158.4518-193.9813,159.1316Z" transform="translate(329.4087 -117.4338)"/><path class="acdc2bbf-9b10-412f-a99c-ba2396955401" d="M-310.34,198.1259a.1976.1976,0,0,1,.14-.1586c.3542-.1194.6861-.2941,1.0519-.39a6.324,6.324,0,0,0,.7474-.3087c.9437-.3835,1.8777-.7885,2.8066-1.2071.41-.1846.7967-.4144,1.2155-.5778.1117-.0436.2231-.0891.3309-.1415a.795.795,0,0,1,.94.2253.8419.8419,0,0,1,.2363.863,4.2984,4.2984,0,0,1-.5684,1.267,16.1073,16.1073,0,0,1-1.3321,1.8064q-.4106.5055-.8172,1.0142a.405.405,0,0,0-.0429.1266c-.5774-.2717-1.1643-.5249-1.73-.8194-.8178-.426-1.6236-.8754-2.4262-1.33A1.6844,1.6844,0,0,1-310.34,198.1259Z" transform="translate(329.4087 -117.4338)"/><path class="acdc2bbf-9b10-412f-a99c-ba2396955401" d="M-300.4029,202.6829a6.6127,6.6127,0,0,0,1.67-.6423c.75-.3788,1.4958-.7648,2.2439-1.1469a1.6622,1.6622,0,0,1,.7265-.217.9639.9639,0,0,1,.976.9179,1.8541,1.8541,0,0,1-.3247,1.06c-.2078.3471-.43.686-.6578,1.0206a.633.633,0,0,0-.1164.333,1.5262,1.5262,0,0,1-.3114-.0184c-.3452-.0916-.687-.1963-1.03-.2965-.3146-.0919-.63-.1824-.9434-.2773-.355-.1074-.7083-.22-1.063-.3282-.2983-.0909-.5977-.1784-.8964-.2677A.4462.4462,0,0,1-300.4029,202.6829Z" transform="translate(329.4087 -117.4338)"/><path class="a22911ce-102c-47e5-a26f-a3bab9ff11e0" d="M-235.6349,204.989c.1533-.0554.1546-.0548.2309.0925A.275.275,0,0,1-235.6349,204.989Z" transform="translate(329.4087 -117.4338)"/><path class="f5e8dc98-0400-4ef2-a221-4db9e1732ea0" d="M-265.3341,177.131a5.9728,5.9728,0,0,0,.3271-.975,9.1411,9.1411,0,0,1,.8509-1.9713c.0829-.1418.1449-.2958.2163-.4442a1.4105,1.4105,0,0,0,.4539-.4164.8575.8575,0,0,1,.2489-.2523,1.3242,1.3242,0,0,0,.349-.3969,6.2018,6.2018,0,0,1,.6579-.2743,2.72,2.72,0,0,1,2.0731.24,2.4378,2.4378,0,0,1,.4215.25.9008.9008,0,0,0,.455.16.3841.3841,0,0,0,.1744.3483,4.64,4.64,0,0,1,1.0552,1.1008,17.4236,17.4236,0,0,1,1.3389,1.9179c.302.4649.5764.9461.8494,1.4287.3476.6142.64,1.255.9574,1.8838.67,1.3278,1.244,2.695,1.8052,4.0705.3793.9295.7578,1.86,1.1028,2.8015.4543,1.24.8914,2.4861,1.2439,3.7622.2038.7374.3461,1.49.5763,2.22.0012.3992.2034.789.0443,1.1981a.8833.8833,0,0,0-.0126.3142.7087.7087,0,0,1-.1141.3841.2934.2934,0,0,1-.3949.0962.5669.5669,0,0,1-.1373-.1161,4.6685,4.6685,0,0,1-.9278-1.3721c-.01-.0282-.0267-.0543-.0354-.0829-.2206-.719-.5291-1.4052-.7851-2.1109-.1992-.5488-.3732-1.1067-.5656-1.658-.1237-.3543-.2809-.698-.3865-1.0571-.1354-.4607-.3484-.8915-.4784-1.3548a10.5362,10.5362,0,0,0-.3946-1.0056q-.3735-.9422-.7443-1.8853c-.0109-.0278-.0114-.06-.0237-.087-.1872-.41-.2223-.6042-.6639-.1752a4.2857,4.2857,0,0,1-1.1993.7815,16.0347,16.0347,0,0,1-1.5427.6309,8.3605,8.3605,0,0,1-1.7933.4035,4.5257,4.5257,0,0,1-.6674.0948,5.3389,5.3389,0,0,1-2.3025-.5259q-.3214-.1646-.6495-.3163c-.1108-.0514-.1915-.0109-.19.0988a6.3859,6.3859,0,0,0,.05,1.3484,2.4767,2.4767,0,0,1,.0266.4491,3.6676,3.6676,0,0,0,.0826,1.0744.1164.1164,0,0,1,.0046.0448,14.4118,14.4118,0,0,0,.1033,1.526c.0092.3574.079.7133.1229,1.07a2.0374,2.0374,0,0,1,.0457.3553,5.74,5.74,0,0,0,.1259,1.1162,7.1912,7.1912,0,0,0,.2214,1.2814,3.7741,3.7741,0,0,1,.0778.6225.9922.9922,0,0,1-.1191.5159.482.482,0,0,1-.6753.1229,1.3273,1.3273,0,0,1-.5049-.6223c-.0741-.2436-.1754-.4766-.2479-.7222a19.11,19.11,0,0,1-.4693-1.9211,5.2653,5.2653,0,0,1-.1289-.98,3.5077,3.5077,0,0,0-.12-.7975,2.3529,2.3529,0,0,1-.0508-.4913,3.0541,3.0541,0,0,0-.0733-.85,1.2169,1.2169,0,0,1-.0156-.3145,2.0216,2.0216,0,0,0-.0517-.4915,1.59,1.59,0,0,1-.0365-.4019c-.0057-.4969-.0017-.9939-.0091-1.4908a4.2424,4.2424,0,0,0-.0707-1.1216,1.1957,1.1957,0,0,1-.0089-.315q-.001-.6551,0-1.31a1.1987,1.1987,0,0,1,.0052-.27,7.8009,7.8009,0,0,0,.0771-1.6631c.01-.4216.099-.8323.1386-1.25a2.4575,2.4575,0,0,0,.04-.3111,4.82,4.82,0,0,1,.1456-1.0668C-265.4041,177.6952-265.374,177.4122-265.3341,177.131Z" transform="translate(329.4087 -117.4338)"/><path class="f5e8dc98-0400-4ef2-a221-4db9e1732ea0" d="M-186.6466,169.3166c.2559,0,.5118-.0039.7675.0011a1.9959,1.9959,0,0,1,.7139.0715.5283.5283,0,0,0,.1789.0153,4.5094,4.5094,0,0,1,.803.0837c.7186.1411,1.4463.2362,2.1638.382.4387.0892.8653.2381,1.2973.36.1.0284.2025.0522.3007.0869a1.9706,1.9706,0,0,1,.62.2576.5235.5235,0,0,0,.2455.1017.7411.7411,0,0,1,.2521.0887,2.589,2.589,0,0,0,.4894.2087c.545.1993,1.0807.426,1.6113.6619a1.9632,1.9632,0,0,1,.7107.5435.5664.5664,0,0,1,.1161.6234,7.7863,7.7863,0,0,1-.5773,1.17,17.0514,17.0514,0,0,1-1.4295,1.9609,16.4448,16.4448,0,0,1-1.3141,1.4224,12.806,12.806,0,0,1-1.6111,1.4371,1.2489,1.2489,0,0,0-.1969.1854,3.7932,3.7932,0,0,1-.7589.6334,1.4242,1.4242,0,0,0-.2453.196,4.2094,4.2094,0,0,1-.9.7438.8684.8684,0,0,0-.2034.1769,3.1911,3.1911,0,0,1-.73.5968,1.8042,1.8042,0,0,0-.3409.293,1.4209,1.4209,0,0,1-.4307.3224.313.313,0,0,0-.1174.0656c-.3071.3579-.7455.5527-1.081.8747a.7092.7092,0,0,1-.0657.0619c-.35.2581-.6977.5182-1.0512.7709a1.0857,1.0857,0,0,1-.2813.1387.18.18,0,0,1-.2506-.2092,17.5947,17.5947,0,0,0,.1883-1.9653c.0492-.615.0234-1.2326.0924-1.841.0562-.496.0547-.988.0635-1.4825a1.8059,1.8059,0,0,0-.0595-.6253,1.1426,1.1426,0,0,1-.0213-.3136,4.2076,4.2076,0,0,0-.0828-1.12.4952.4952,0,0,1-.007-.18,8.93,8.93,0,0,0-.1072-1.7049c-.0931-.8009-.1881-1.6023-.3181-2.4-.1231-.7548-.296-1.497-.44-2.2462-.0477-.2488.0079-.31.2556-.36A9.1506,9.1506,0,0,1-186.6466,169.3166Z" transform="translate(329.4087 -117.4338)"/><path class="f5e8dc98-0400-4ef2-a221-4db9e1732ea0" d="M-223.5783,138.2308c0,.1147.0022.1449,0,.1747-.0109.1269-.0878.1975-.2079.1781-.1179-.019-.2327-.0566-.35-.0767-.5451-.0933-1.0926-.1734-1.6356-.2771-.6321-.1207-1.2666-.2169-1.9069-.2813a6.2337,6.2337,0,0,1-.615-.1263,1.1712,1.1712,0,0,0-.2214-.035c-.4815-.004-.95-.1216-1.425-.1614a10.405,10.405,0,0,0-1.2971-.1186,3.5629,3.5629,0,0,1-.76-.0609,5.9474,5.9474,0,0,0-.9-.0287,2.4412,2.4412,0,0,1-.7152-.0655,1.2291,1.2291,0,0,0-.3587-.02c-.6169-.0022-1.2338-.0022-1.8507-.0032-.12,0-.241.003-.3611-.0034-.19-.01-.26-.1187-.1947-.3052.05-.1414.1062-.2808.1663-.4183.4387-1.0048.9211-1.989,1.425-2.9623.393-.759.8014-1.51,1.2049-2.2638.2817-.5262.5592-1.0548.8529-1.5744.1839-.3253.4-.6325.5908-.9539a4.7829,4.7829,0,0,0,.4815-.8093,1.3705,1.3705,0,0,1,.1964-.3006c.1556-.22.3293-.43.4669-.6608a7.73,7.73,0,0,1,1.3829-1.653,1.5281,1.5281,0,0,1,.2424-.1994.5211.5211,0,0,1,.4721-.05,2.4055,2.4055,0,0,1,.8813.5218,4.5175,4.5175,0,0,1,.9462,1.3041,19.0328,19.0328,0,0,1,1.07,2.5767c.2157.6553.44,1.3077.6552,1.9632.0981.2991.1872.6013.2733.9041.217.7628.4351,1.5253.643,2.2906.1884.6935.3674,1.39.544,2.0865.103.4063.1952.8154.2873,1.2244A.9391.9391,0,0,1-223.5783,138.2308Z" transform="translate(329.4087 -117.4338)"/><path class="a4383a24-925c-410c-9971-7b1f0eda6783" d="M-238.0442,171.714a4.1006,4.1006,0,0,1-3.9207,4.1009,4.1246,4.1246,0,0,1-4.2519-4.1035,4.1038,4.1038,0,0,1,3.905-4.08A4.1127,4.1127,0,0,1-238.0442,171.714Zm-4.1632-.9409a.9068.9068,0,0,0,.9278-.6248.9016.9016,0,0,0-.1748-1.0055.7632.7632,0,0,0-.6841-.2809,1.2068,1.2068,0,0,0-.96.594.7928.7928,0,0,0,.11.9956A.9244.9244,0,0,0-242.2074,170.7731Z" transform="translate(329.4087 -117.4338)"/><path class="a4383a24-925c-410c-9971-7b1f0eda6783" d="M-220.6823,187.363a4.62,4.62,0,0,1-.8085,2.4826,2.2577,2.2577,0,0,1-.6955.695.6729.6729,0,0,0-.15.1,2.9265,2.9265,0,0,1-.9694.5564,1.679,1.679,0,0,1-.652.1659.477.477,0,0,0-.1788.0147,1.824,1.824,0,0,1-1.0187.0461,3.514,3.514,0,0,1-.9634-.2224,4.0947,4.0947,0,0,1-1.54-.9842,4.6633,4.6633,0,0,1-1.1081-2.381,3.471,3.471,0,0,1,.0683-1.1668,4.3335,4.3335,0,0,1,.9045-1.9451,3.3975,3.3975,0,0,1,1.1425-.8688c.2124-.1115.44-.1954.6625-.2862a1.6237,1.6237,0,0,1,.7-.1534.5057.5057,0,0,0,.18-.0064,2.4473,2.4473,0,0,1,1.1516.0393,2.8135,2.8135,0,0,1,1.0569.372,1.1944,1.1944,0,0,0,.1589.0857,2.9046,2.9046,0,0,1,1.2045,1.0564,4.4189,4.4189,0,0,1,.8046,1.8915C-220.701,187.0317-220.6964,187.2134-220.6823,187.363Zm-3.9906-2.7944c-.048,0-.0779,0-.1078,0a1.1067,1.1067,0,0,0-.9967.7172.8425.8425,0,0,0,.3275.9908,1.0075,1.0075,0,0,0,1.3215-.0653.9811.9811,0,0,0,.2629-1.0682A.8325.8325,0,0,0-224.6729,184.5686Z" transform="translate(329.4087 -117.4338)"/><path class="f4d9538b-b0ae-4a74-9f95-6a84c6778417" d="M-237.598,184.4169a.4552.4552,0,0,1-.0195.5029,8.2876,8.2876,0,0,1-.7208,1.035,1.8232,1.8232,0,0,0-.3571.77.8481.8481,0,0,0,.9207,1.0327,2.1729,2.1729,0,0,1,.5358.0005c.3163.0353.4488.25.3192.5347a1.2215,1.2215,0,0,1-.3673.5065,4.3809,4.3809,0,0,1-.5291.3422,1.17,1.17,0,0,1-1.0417.0253c-.0555-.0234-.1084-.0531-.1649-.0732a1.5823,1.5823,0,0,1-1.07-1.5635,1.7278,1.7278,0,0,1,.0577-.5814,1.3824,1.3824,0,0,0,.048-.22.1507.1507,0,0,0-.1978-.17,2.9387,2.9387,0,0,1-.7592.0844,2.3171,2.3171,0,0,1-1.6285-.6614,1.543,1.543,0,0,1-.3673-1.6213.9258.9258,0,0,1,.5431-.51.695.695,0,0,1,.817.3159c.1029.1649.1729.35.2618.5242a3.3548,3.3548,0,0,0,.1766.3127.3511.3511,0,0,0,.2161.1512,2.64,2.64,0,0,0,1.1137-.026.8783.8783,0,0,0,.3907-.2172c.2872-.2415.5827-.4732.8673-.7177a1.01,1.01,0,0,1,.5916-.1778A2.1138,2.1138,0,0,0-237.598,184.4169Z" transform="translate(329.4087 -117.4338)"/><path class="a6b2112e-a0f8-4ff1-aeb9-17f03b0a71f1" d="M-213.9566,193.2892a3.8874,3.8874,0,0,1,1.1537.2232,12.8618,12.8618,0,0,1,2.2214.8707c.362.1835.7026.4036,1.0685.5785a1.9321,1.9321,0,0,1,.37.2544q.4377.3556.8654.7238a7.1035,7.1035,0,0,1,1.3584,1.7342,1.14,1.14,0,0,1,.18.5526.2912.2912,0,0,1-.3208.3415.57.57,0,0,1-.3833-.1049c-.107-.0823-.22-.1574-.3207-.247-.1235-.11-.2395-.229-.3535-.349a6.5241,6.5241,0,0,0-1.3905-1.1432,5.08,5.08,0,0,1-.5055-.3775,2.0256,2.0256,0,0,0-.5358-.3278c-.2978-.11-.5407-.32-.8321-.45a17.9943,17.9943,0,0,0-2.1306-.8491c-.2285-.0686-.4374-.1934-.674-.2522a1,1,0,0,1-.4168-.2608.5075.5075,0,0,1-.1526-.5734.5428.5428,0,0,1,.4459-.34A1.9766,1.9766,0,0,1-213.9566,193.2892Z" transform="translate(329.4087 -117.4338)"/><path class="a52d6310-545b-4977-9d2b-a4aec9011fdd" d="M-237.598,184.4169a2.1138,2.1138,0,0,1-.364-.4011,2.7156,2.7156,0,0,0-.1674-1.053,1.4782,1.4782,0,0,1-.0852-.4376,6.9756,6.9756,0,0,1,.0947-1.3888.8712.8712,0,0,1,.36-.5522.2891.2891,0,0,1,.2136-.052.402.402,0,0,1,.13.0325,5.6259,5.6259,0,0,1,1.3782.7318,2.5672,2.5672,0,0,0,.2919.21,3.6294,3.6294,0,0,1,.9038.8676c.2184.2855.4451.5642.6567.8556a.7521.7521,0,0,1,.13.4637.4616.4616,0,0,1-.2279.4127,1.812,1.812,0,0,1-.8008.2816,7.0049,7.0049,0,0,1-1.5215.1125.67.67,0,0,1-.3514-.0574A.6347.6347,0,0,0-237.598,184.4169Z" transform="translate(329.4087 -117.4338)"/><path class="f4d9538b-b0ae-4a74-9f95-6a84c6778417" d="M-253.3041,159.9751a14.1376,14.1376,0,0,1-.005-1.8752,3.1561,3.1561,0,0,1,.7641.62,18.1326,18.1326,0,0,1,1.384,1.3533c.44.49.8875.9756,1.28,1.5085.2309.313.4956.6007.7056.9315a4.3582,4.3582,0,0,1,.4889,1.1082c.0344.1158.0723.2412-.0259.34-.1219.1231-.2659.0437-.3766-.0119a2.933,2.933,0,0,1-.695-.4909c-.1855-.1753-.3641-.3578-.5443-.5387q-1.3194-1.3244-2.639-2.6486C-253.0723,160.1656-253.1913,160.0735-253.3041,159.9751Z" transform="translate(329.4087 -117.4338)"/><path class="a6b2112e-a0f8-4ff1-aeb9-17f03b0a71f1" d="M-212.0389,201.74c-.0119.07-.0175.13-.0327.1875a.1818.1818,0,0,1-.2538.1117.4923.4923,0,0,1-.176-.1351c-.2583-.3882-.5989-.7128-.8419-1.1134a12.4274,12.4274,0,0,0-.7368-1.1336c-.3105-.4048-.5927-.831-.94-1.21-.3457-.377-.6824-.7618-1.05-1.1181a.9867.9867,0,0,1-.1194-.1351.6087.6087,0,0,1-.0615-.6769.6987.6987,0,0,1,.7137-.2758,1.3382,1.3382,0,0,1,.5841.3271,8.8122,8.8122,0,0,1,1.705,1.9734,9.0937,9.0937,0,0,1,.9272,1.7514,3.5406,3.5406,0,0,1,.1918.7865C-212.1041,201.3033-212.0687,201.5259-212.0389,201.74Z" transform="translate(329.4087 -117.4338)"/><path class="a6b2112e-a0f8-4ff1-aeb9-17f03b0a71f1" d="M-254.12,164.6006a.7346.7346,0,0,1,.0943-.5188c.0956-.0553.0957-.135.0574-.2245a1.2678,1.2678,0,0,1,.2059-.6695,3.5775,3.5775,0,0,1,.96.577,3.1258,3.1258,0,0,0,.411.2737,2.12,2.12,0,0,1,.7247.66,2.8,2.8,0,0,0,.5209.5581,2.5132,2.5132,0,0,1,.2577.2508.3788.3788,0,0,1,.0332.421.4226.4226,0,0,1-.4443.1351,1.4946,1.4946,0,0,1-.2352-.13,2.8316,2.8316,0,0,0-.6532-.2913,4.2224,4.2224,0,0,1-.7753-.3545C-253.3554,165.07-253.7352,164.8308-254.12,164.6006Z" transform="translate(329.4087 -117.4338)"/><path class="fef4f1aa-a0f3-4174-8685-ec687e548ce3" d="M-275.4427,175.9973a.8923.8923,0,0,1-.0979-.4341,5.4171,5.4171,0,0,0-.6292-2.2862,3.4536,3.4536,0,0,0-1.4176-1.4759,3.2913,3.2913,0,0,1-.3313-.2318c-.1669-.531-.3393-1.06-.5-1.5933-.3727-1.24-.6716-2.4975-.9378-3.7654-.2573-1.2257-.37-2.47-.5622-3.7031-.0116-.0742-.0189-.1494-.024-.2244-.14-2.0585-.2461-4.1179-.1856-6.1826.022-.7528.0453-1.505.1223-2.2546a.4049.4049,0,0,0,.0048-.0449,19.8332,19.8332,0,0,1,.2924-2.8722q.1235-.87.3-1.7336c.179-.8707.3972-1.7308.6387-2.5849a27.72,27.72,0,0,1,1.594-4.4567,6.2248,6.2248,0,0,1,.6811-1.1677,1.8859,1.8859,0,0,1,.6965-.5623,1.1052,1.1052,0,0,1,1.1936.1175,1.1553,1.1553,0,0,1,.4773,1.1056,1.8293,1.8293,0,0,1-.28.7568,13.2409,13.2409,0,0,0-1.0487,2.2471c-.2327.6355-.4409,1.2807-.6389,1.9279-.1849.604-.3469,1.2151-.51,1.8255-.1281.4794-.2316.964-.3226,1.4529q-.1444.7767-.2731,1.5554c-.0466.2834-.0541.57-.1009.8512a30.2061,30.2061,0,0,0-.255,3.33c-.0459.8423-.1032,1.6838-.0677,2.5271q.0761,1.8049.18,3.6086c.0188.33.086.6563.1254.985.0681.5676.1273,1.1363.2,1.7033.03.2382.0774.4751.13.71.0915.411.1454.8286.2321,1.2411q.2878,1.3706.6682,2.7166c.3861,1.3767.8406,2.7311,1.3253,4.0755.1531.4245.3216.8434.4871,1.2633a1.6782,1.6782,0,0,1,.1224.57.9934.9934,0,0,1-1.0637,1.0286C-275.293,176.0136-275.3679,176.0056-275.4427,175.9973Z" transform="translate(329.4087 -117.4338)"/><path class="b771e2c2-009c-46e2-9c43-9ea5f1201e7b" d="M-279.876,171.4745a.2769.2769,0,0,1-.1584.1471,5.1364,5.1364,0,0,0-1.5282.6921.5044.5044,0,0,1-.2919.0866c-.4038-.8913-.7465-1.8068-1.06-2.7329-.3762-1.1115-.6952-2.24-.9748-3.38-.2725-1.1109-.5175-2.2274-.704-3.3554-.125-.7564-.2023-1.52-.3208-2.2781a18.8774,18.8774,0,0,1-.1959-2.6087c-.0088-.5266-.0351-1.053-.0472-1.58-.0048-.21.0047-.4211.0126-.6314q.0459-1.2181.0955-2.4361a5.631,5.631,0,0,1,.105-.85c.1069-.5461.15-1.102.2685-1.6475.1628-.75.3521-1.4925.5561-2.2319q.2822-1.0226.6389-2.0214a8.2069,8.2069,0,0,1,1.2232-2.4013,1.9943,1.9943,0,0,1,.6065-.5286,1.1131,1.1131,0,0,1,1.61.88,1.6742,1.6742,0,0,1-.363,1.131,4.0838,4.0838,0,0,0-.6184,1.0457c-.21.5474-.4081,1.1-.5852,1.6593a27.8538,27.8538,0,0,0-.7363,2.7907c-.1333.6466-.2621,1.2936-.3349,1.9545a34.9416,34.9416,0,0,0-.076,5.7261,16.0491,16.0491,0,0,0,.2764,2.4643c.1117.5284.1562,1.0706.2435,1.6045.0849.5192.1768,1.0376.2818,1.5531.2433,1.1943.5526,2.3728.8874,3.5442a23.9752,23.9752,0,0,0,.8928,2.65C-280.0689,170.9692-279.9747,171.2228-279.876,171.4745Z" transform="translate(329.4087 -117.4338)"/><path class="b3394593-dfc9-4ef5-aec7-5578c3fc6129" d="M-256.3416,167.7148a1.37,1.37,0,0,1-.3446.978,1.0912,1.0912,0,0,1-1.3648.1779,1.3266,1.3266,0,0,1-.56-.6323c-.281-.6681-.6662-1.2815-.996-1.9238a8.0343,8.0343,0,0,0-.8687-1.3179c-1.04-1.3094-2.1661-2.5447-3.3295-3.7446a33.3336,33.3336,0,0,0-2.8785-2.5364c-.6406-.5241-1.2974-1.0285-1.9347-1.5564a15.267,15.267,0,0,0-3.1853-1.9553q-1.3019-.6252-2.5913-1.2763c-.4442-.2233-.8953-.4294-1.3578-.61a1.3589,1.3589,0,0,1-.66-.5257,1.0754,1.0754,0,0,1,.6186-1.63,2.2418,2.2418,0,0,1,1.3318.0787c.3988.1329.7875.2988,1.1737.4662,1.1593.5028,2.3185,1.0058,3.4484,1.5733a15.6025,15.6025,0,0,1,2.9811,1.9435c.7756.6443,1.5816,1.2518,2.3636,1.8887a35.8735,35.8735,0,0,1,4.4328,4.37c.5721.66,1.1142,1.3441,1.6334,2.0461a12,12,0,0,1,1.2631,2.1325c.1882.41.402.8081.604,1.2118A2.4378,2.4378,0,0,1-256.3416,167.7148Z" transform="translate(329.4087 -117.4338)"/><path class="b771e2c2-009c-46e2-9c43-9ea5f1201e7b" d="M-285.1921,148.6272a.92.92,0,0,1-.195.6111,6.3193,6.3193,0,0,0-.9541,2.2258,20.1539,20.1539,0,0,0-.4824,1.9714,16.8173,16.8173,0,0,0-.3006,2.28c-.0537,1.1131-.1011,2.2263-.0579,3.3411.0215.5566.0267,1.1149.0756,1.6692a13.237,13.237,0,0,0,.2136,1.4736c.2131,1.0467.4481,2.0892.7482,3.1152a21.1094,21.1094,0,0,0,1.6138,3.9645c.2747.5185.5427,1.0407.8085,1.5639a4.3312,4.3312,0,0,1,.2162.4964,1.0334,1.0334,0,0,1,.0073.7084.8778.8778,0,0,1-1.2242.4759,2.12,2.12,0,0,1-.5749-.5,15.2837,15.2837,0,0,1-1.6494-2.5305,21.1692,21.1692,0,0,1-1.2622-3.0882,26.11,26.11,0,0,1-.7127-2.6122,21.5561,21.5561,0,0,1-.5424-3.5649,30.09,30.09,0,0,1-.0749-3.0228,30.6849,30.6849,0,0,1,.3192-3.595,25.7014,25.7014,0,0,1,1.0535-4.103,7.3489,7.3489,0,0,1,.4511-1.0329,1.7944,1.7944,0,0,1,1.0039-.9264A1.135,1.135,0,0,1-285.1921,148.6272Z" transform="translate(329.4087 -117.4338)"/><path class="b3394593-dfc9-4ef5-aec7-5578c3fc6129" d="M-275.3974,155.679a1.7633,1.7633,0,0,1,.51.1031,14.0946,14.0946,0,0,1,3.8895,1.87c1.0322.6762,2.0458,1.3816,3.0094,2.1544a32.4454,32.4454,0,0,1,2.6182,2.3524c.9379.936,1.853,1.8933,2.7323,2.884.7591.8552,1.518,1.71,2.193,2.6373.4353.5978.8058,1.2349,1.1958,1.86a1.2479,1.2479,0,0,1,.1942.9061,1.12,1.12,0,0,1-1.702.7754,1.8551,1.8551,0,0,1-.5983-.6045c-.231-.3525-.4551-.71-.6949-1.0561a18.7314,18.7314,0,0,0-1.8415-2.2226c-1.0467-1.1022-2.0447-2.2506-3.1467-3.3a33.7474,33.7474,0,0,0-2.8849-2.5272,35.661,35.661,0,0,0-4.9968-3.2355c-.24-.1251-.4754-.26-.7095-.3962a2.0786,2.0786,0,0,1-.6469-.5552,1.0142,1.0142,0,0,1,.2954-1.5216A.9586.9586,0,0,1-275.3974,155.679Z" transform="translate(329.4087 -117.4338)"/><path class="b3394593-dfc9-4ef5-aec7-5578c3fc6129" d="M-262.888,172.6749a1.3242,1.3242,0,0,1-.349.3969.8575.8575,0,0,0-.2489.2523,1.4105,1.4105,0,0,1-.4539.4164,1.4041,1.4041,0,0,1-1.227-.7891c-.4075-.7023-.81-1.4079-1.2567-2.0868a32.8838,32.8838,0,0,0-4.89-5.7693c-.59-.56-1.2479-1.0391-1.875-1.5549a14.2037,14.2037,0,0,0-1.1563-.8633,4.8453,4.8453,0,0,0-.92-.4732,4.42,4.42,0,0,1-.5761-.2558,1.1141,1.1141,0,0,1-.62-.9345,1,1,0,0,1,.66-1.0248,1.5462,1.5462,0,0,1,.8-.0744,4.6818,4.6818,0,0,1,1.6981.5734,11.4119,11.4119,0,0,1,1.3119.8772c.8071.6274,1.6325,1.2324,2.3912,1.92a32.182,32.182,0,0,1,2.5047,2.5969,29.5663,29.5663,0,0,1,3.1936,4.3619c.2707.4522.5112.92.7457,1.3911A2.4921,2.4921,0,0,1-262.888,172.6749Z" transform="translate(329.4087 -117.4338)"/><path class="b3394593-dfc9-4ef5-aec7-5578c3fc6129" d="M-266.2967,174.8942a1.1366,1.1366,0,0,1-.659,1.07,1.1191,1.1191,0,0,1-1.1978-.09,2.0833,2.0833,0,0,1-.5926-.6123c-.3976-.6033-.799-1.2044-1.1873-1.8137a34.2563,34.2563,0,0,0-2.2039-3.1411,26.0225,26.0225,0,0,0-3.2155-3.3533,3.0412,3.0412,0,0,1-.5841-.625.9656.9656,0,0,1,.1345-1.3115.9276.9276,0,0,1,1.0507-.1594,6.9288,6.9288,0,0,1,2.178,1.3434,25.9292,25.9292,0,0,1,2.5373,2.6942,34.7684,34.7684,0,0,1,2.133,3.0244q.559.8754,1.1223,1.748a4.1489,4.1489,0,0,1,.4034.7553A1.2311,1.2311,0,0,1-266.2967,174.8942Z" transform="translate(329.4087 -117.4338)"/><path class="b3394593-dfc9-4ef5-aec7-5578c3fc6129" d="M-264.13,143.1351a1.19,1.19,0,0,1-.3467.8093,12.475,12.475,0,0,1-1.1311,1.1006,20.4614,20.4614,0,0,1-3.06,2.1478c-1.2191.7172-2.4852,1.3454-3.7518,1.9715-.4438.2194-.9061.4036-1.3672.5854a1.4981,1.4981,0,0,1-.9677.1062.9883.9883,0,0,1-.4721-1.6964,1.82,1.82,0,0,1,.6088-.3759,44.7889,44.7889,0,0,0,5.3766-2.7458,21.9837,21.9837,0,0,0,2.9775-2.1874c.16-.1368.3268-.2653.4957-.3907a1.2491,1.2491,0,0,1,.535-.2287A.9323.9323,0,0,1-264.13,143.1351Z" transform="translate(329.4087 -117.4338)"/><path class="b771e2c2-009c-46e2-9c43-9ea5f1201e7b" d="M-269.7807,152.13a1.1529,1.1529,0,0,1-.5627-.1169,1.0316,1.0316,0,0,1-.6081-.9332,1.0331,1.0331,0,0,1,.5654-.961,4.31,4.31,0,0,1,.7049-.299,9.4443,9.4443,0,0,0,1.791-.8446,36.9428,36.9428,0,0,0,3.5979-2.4887,13.94,13.94,0,0,0,1.3562-1.2573,3.9978,3.9978,0,0,1,.5008-.4531.9489.9489,0,0,1,1.176-.0117,1.0005,1.0005,0,0,1,.2937,1.1822,2.4223,2.4223,0,0,1-.3814.61,10.6555,10.6555,0,0,1-1.8537,1.84,37.2741,37.2741,0,0,1-4.03,2.7355,9.68,9.68,0,0,1-2.101.9257A1.1737,1.1737,0,0,1-269.7807,152.13Z" transform="translate(329.4087 -117.4338)"/><path class="b771e2c2-009c-46e2-9c43-9ea5f1201e7b" d="M-265.1773,154.9178a1.0308,1.0308,0,0,1-1.0532-.6944,1.1059,1.1059,0,0,1,.2747-1.24,1.89,1.89,0,0,1,.4855-.3232,25.5542,25.5542,0,0,0,2.8087-1.7125c.6038-.4232,1.1757-.8876,1.7406-1.3609.265-.222.5342-.4393.8046-.6546a2.28,2.28,0,0,1,.2625-.1743.8583.8583,0,0,1,1.01.0943.99.99,0,0,1,.306,1.0179,3.159,3.159,0,0,1-.3726.6662,7.0077,7.0077,0,0,1-.944,1.029,22.2972,22.2972,0,0,1-4.4643,3.1162A1.5629,1.5629,0,0,1-265.1773,154.9178Z" transform="translate(329.4087 -117.4338)"/><path class="b771e2c2-009c-46e2-9c43-9ea5f1201e7b" d="M-273.4964,145.9069a.9849.9849,0,0,1-.96-.6037.9322.9322,0,0,1,.2537-1.0685,2.6725,2.6725,0,0,1,.5934-.4047c.9059-.5041,1.8193-.9951,2.6951-1.5517a12.108,12.108,0,0,0,1.4259-1.0261,2.1273,2.1273,0,0,1,.5647-.3676.9271.9271,0,0,1,1.0055.1716.91.91,0,0,1,.1587,1.0447,1.91,1.91,0,0,1-.3888.5491,7.2622,7.2622,0,0,1-1.1347.9588c-.8607.5791-1.74,1.1269-2.6547,1.6184-.2911.1565-.5765.3235-.863.4884A1.53,1.53,0,0,1-273.4964,145.9069Z" transform="translate(329.4087 -117.4338)"/><path class="b3394593-dfc9-4ef5-aec7-5578c3fc6129" d="M-256.621,153.578a1.067,1.067,0,0,1-.1262.5192,4.3261,4.3261,0,0,1-.55.7682,11.1062,11.1062,0,0,1-2.7326,2.26c-.2446.147-.49.2938-.74.43-.1575.0859-.3261.1511-.4884.2284a1.0648,1.0648,0,0,1-1.17-.3526,1.0243,1.0243,0,0,1-.0441-1.22,1.6209,1.6209,0,0,1,.6029-.5294c.315-.1753.6307-.3494.9413-.5322a11.8384,11.8384,0,0,0,2.2086-1.7024c.1407-.1356.2789-.2738.42-.4093a1.2729,1.2729,0,0,1,.4924-.3087A.8809.8809,0,0,1-256.621,153.578Z" transform="translate(329.4087 -117.4338)"/><path class="fef4f1aa-a0f3-4174-8685-ec687e548ce3" d="M-271.3755,175.6327a.8229.8229,0,0,1-.4275-.1239,2.0691,2.0691,0,0,1-.5169-.4317,14.1468,14.1468,0,0,1-1.6061-2.2818,1.1028,1.1028,0,0,1-.1027-.9949.79.79,0,0,1,.9963-.4647,1.1378,1.1378,0,0,1,.489.3129,23.5932,23.5932,0,0,1,1.8569,2.2639,1.5271,1.5271,0,0,1,.2647.6174A.9439.9439,0,0,1-271.3755,175.6327Z" transform="translate(329.4087 -117.4338)"/><path class="fef4f1aa-a0f3-4174-8685-ec687e548ce3" d="M-255.9608,158.105a1.15,1.15,0,0,1-.1763.5353,2.7411,2.7411,0,0,1-.2757.3552,6.8162,6.8162,0,0,1-1.3527,1.1126,1.2992,1.2992,0,0,1-.6371.2008.9735.9735,0,0,1-.938-.51.8746.8746,0,0,1,.0565-.9769,1.5845,1.5845,0,0,1,.4717-.4769,13.0181,13.0181,0,0,0,1.115-.8387,2.634,2.634,0,0,1,.3663-.26A.9333.9333,0,0,1-255.9608,158.105Z" transform="translate(329.4087 -117.4338)"/><path class="fef4f1aa-a0f3-4174-8685-ec687e548ce3" d="M-256.8438,163.1943a.9718.9718,0,0,1-.8663-1.4636,1.5067,1.5067,0,0,1,.2137-.2885,2.4326,2.4326,0,0,1,.8617-.5651.9587.9587,0,0,1,1.1035.288.9413.9413,0,0,1,.11,1.1293,2.02,2.02,0,0,1-.9792.8328A1.0961,1.0961,0,0,1-256.8438,163.1943Z" transform="translate(329.4087 -117.4338)"/><path class="fef4f1aa-a0f3-4174-8685-ec687e548ce3" d="M-253.9685,163.8573c.0383.0895.0382.1692-.0574.2245C-254.087,163.9864-254.0448,163.9174-253.9685,163.8573Z" transform="translate(329.4087 -117.4338)"/><path class="e01a86d1-66cc-4971-a2ce-4ea57227ca5f" d="M-242.2074,170.7731a.9244.9244,0,0,1-.78-.3216.7928.7928,0,0,1-.11-.9956,1.2068,1.2068,0,0,1,.96-.594.7632.7632,0,0,1,.6841.2809.9016.9016,0,0,1,.1748,1.0055A.9068.9068,0,0,1-242.2074,170.7731Z" transform="translate(329.4087 -117.4338)"/><path class="e01a86d1-66cc-4971-a2ce-4ea57227ca5f" d="M-224.6729,184.5686a.8325.8325,0,0,1,.8074.5744.9811.9811,0,0,1-.2629,1.0682,1.0075,1.0075,0,0,1-1.3215.0653.8425.8425,0,0,1-.3275-.9908,1.1067,1.1067,0,0,1,.9967-.7172C-224.7508,184.5689-224.7209,184.5686-224.6729,184.5686Z" transform="translate(329.4087 -117.4338)"/></svg>