<svg xmlns="http://www.w3.org/2000/svg" width="45.9917mm" height="53.1855mm" viewBox="0 0 130.3701 150.7622"><defs><style>.b43de4c4-98dc-44a6-8313-47350eb8f336{fill:#edab24;}.e6e5e11d-9479-45f7-8510-feb4fc0e1a76{fill:#eadab9;}.e232a808-9d15-4e8b-9cbe-8b993384e4e3{fill:#ebdaba;}.bba45260-5525-403b-9c7e-492cec0d8e90{fill:#ebdbba;}.ea6c9adc-373b-44c0-87b9-ef15f5f06f3e{fill:#214833;}.ae75a6b3-5d89-46a1-a889-fa75df7f5d19{fill:#214731;}.b2b2866c-c55f-4ba4-b699-42034335cb07{fill:#ecac26;}.fe36aa74-511f-4808-ba84-0db62a3604a5{fill:#264c39;}.b4792949-fa43-4577-892b-35a7a6b27b02{fill:#f4d7a3;}.fbbbc4ed-5830-48b3-b8d4-658bfebb056e{fill:#f1d193;}.bd9675a0-8aaa-4971-8591-c1c383492bc8{fill:#ebdab8;}.af99a6d1-77d8-4e7d-8422-cd9f6b4dec54{fill:#164331;}.f8e057c2-63d6-421a-bb30-fa76c591f10d{fill:#194431;}.a7918111-3be1-4e64-b5bf-4977355b39e2{fill:#ebdab7;}.e43a874d-a7bb-4765-bfc4-9e8f414b4a42{fill:#ebdab6;}.a2d3f5d6-9166-44e3-9103-d5d961cc720a{fill:#e25d28;}.eb3211d2-7e7a-466c-a4a8-3a9e8e4d25f5{fill:#104232;}.b73b3b10-ede5-46ba-ae35-43a689fa03a8{fill:#1f4736;}.f8833cad-7cda-40ab-8c75-200a09d96f1b{fill:#e8d8b8;}.fe5c0bd4-96a9-46a9-bc01-8d495fa909a0{fill:#e7d7b7;}.ab8d050e-c297-4c9a-bcd9-809ee6ca4ad9{fill:#e8d9b8;}</style></defs><g id="aacdf29d-b2c8-4638-9dfe-ee29b49a9c32" data-name="Calque 2"><g id="a93791fa-d7a1-4651-8d52-726949820873" data-name="Calque 2"><path class="b43de4c4-98dc-44a6-8313-47350eb8f336" d="M10.84,103.6623l-.0571-.1642a.2136.2136,0,0,0-.1854-.2514,16.3557,16.3557,0,0,1-.9235-2.4012c-.2192-.6731-.42-1.3535-.5965-2.0389-.1718-.6661-.3075-1.3417-.45-2.0151q-.1561-.7375-.2861-1.48c-.0381-.22-.015-.452-.0658-.6677a18.6234,18.6234,0,0,1-.2194-2.34,19.322,19.322,0,0,1-.0817-2.7448c.0285-.8028.0852-1.6047.138-2.4065.0109-.1664.0663-.3294.0894-.4957.0847-.6093.1568-1.2205.2488-1.8287.0612-.4049.1307-.81.2274-1.2078.1937-.7962.4081-1.5873.6148-2.38a30.4434,30.4434,0,0,1,1.319-3.8042c.07-.1726.152-.3406.2273-.5113a.5982.5982,0,0,0-.15-.7512Q8.2416,73.74,5.8228,71.2779A41.1053,41.1053,0,0,1,1.71,66.4621,12.6422,12.6422,0,0,1,.383,64.2544,4.21,4.21,0,0,1,0,62.4607a2.9147,2.9147,0,0,1,.8212-2.03,6.6618,6.6618,0,0,1,.9789-.8338,15.0706,15.0706,0,0,1,2.7763-1.4527,28.5422,28.5422,0,0,1,4.5686-1.5088,33.3994,33.3994,0,0,1,3.8424-.7677c1.1863-.1484,2.3653-.3654,3.5546-.477a32.583,32.583,0,0,1,3.4141-.2008c1.2157.0138,2.4327-.0164,3.6472.027,1.2881.0461,2.5754.1246,3.8575.2826a40.4964,40.4964,0,0,1,4.083.7022,1.3323,1.3323,0,0,0,.8706-.1064,47.3822,47.3822,0,0,1,5.55-2.0783c1.0859-.3331,2.1858-.6235,3.2878-.9.6672-.1673,1.3589-.2382,2.0242-.4116.87-.2267,1.765-.2921,2.6422-.4728.6729-.1387,1.3714-.1516,2.0578-.2271,1.6545-.182,3.3165-.2362,4.978-.3.1464-.0056.2917-.0386.47-.0633.0265-.2393.0558-.4579.0742-.6774.0579-.6891.1093-1.3788.1677-2.0679q.14-1.648.2852-3.2958c.01-.1117.0242-.223.0333-.3347.0821-1.0058.1354-2.0149.2514-3.0168.1741-1.5026.3662-3.0031.6173-4.4964.2605-1.55.6378-3.0712,1.0157-4.5937a24.3142,24.3142,0,0,1,.9365-2.9923,12.3183,12.3183,0,0,1,1.6122-2.9413A4.7974,4.7974,0,0,1,59.67,26.0326a3.4226,3.4226,0,0,1,2.5729-.4919,5.9248,5.9248,0,0,1,2.4269,1.101,23.8355,23.8355,0,0,1,3,2.6989,54.9285,54.9285,0,0,1,4.7866,5.716c2.6087,3.5629,5.0208,7.2561,7.3507,11.0045.4638.7463.9061,1.5061,1.36,2.2588.0949.1575.1619.345.3772.3857a3.419,3.419,0,0,0,.1715.4107q1.8705,3.2622,3.4818,6.66,1.0572,2.23,2.0452,4.4926c.9367,2.1424,1.761,4.3306,2.5357,6.5358a5.56,5.56,0,0,0,.9685,1.6893,36.6286,36.6286,0,0,1,4.0861,6.226,34.8265,34.8265,0,0,1,2.6882,6.8248,32.6749,32.6749,0,0,1,.9,4.3907c.0994.742.1494,1.4875.2288,2.23a19.42,19.42,0,0,1,.1063,2.8549c-.028.69-.1053,1.3784-.1408,2.0686a27.5726,27.5726,0,0,1-.4083,3.2243,30.2184,30.2184,0,0,1-.9706,3.9741,6.5891,6.5891,0,0,1-.51,1.4137c-.4659-.0129-.6806.3029-.8638.66l-.2005.1439a1.0417,1.0417,0,0,0-.6993.6406.2485.2485,0,0,0-.0847.0394.7481.7481,0,0,0-.5921.5192.2245.2245,0,0,0-.0824.0391.5076.5076,0,0,0-.4771.4115l-.1989.1426a.21.21,0,0,0-.2447.1982l-.2045.1376a.4351.4351,0,0,0-.16.03q-1.3131.871-2.6195,1.7525a.8563.8563,0,0,0-.1622.21.2474.2474,0,0,0-.0886.0311,1.4784,1.4784,0,0,0-.3136.099c-.694.4025-1.3775.8236-2.076,1.218s-1.3982.7932-2.1213,1.14c-1.06.5088-2.1422.9708-3.2129,1.4572-1.0381.4716-2.113.8483-3.185,1.2307a56.2364,56.2364,0,0,1-6.1226,1.7754c-.2716.0634-.5524.0889-.8224.1577-.2273.058-.4885.03-.6678.23l-.2205.0176a1.4608,1.4608,0,0,0-.3819-.0191,9.32,9.32,0,0,1-1.637.222c-.0773.0028-.1519.08-.2278.1232l-.2237.008c-.2042-.0109-.4083-.0272-.6127-.0319-1.3618-.0311-2.7231.0617-4.087-.0869-.7577-.0826-1.5213-.119-2.2767-.24-.8273-.1322-1.663-.2188-2.4839-.3813-1.1143-.2207-2.216-.5045-3.3275-.74a.9569.9569,0,0,1-.785-.6331,9.0051,9.0051,0,0,0-.7293-1.4484c-.3332-.5831-.67-1.1644-1.0247-1.7348-.62-.9993-1.3259-1.94-2.0239-2.8854a.6137.6137,0,0,0-.3862-.3015.242.242,0,0,0-.0364-.0857.5716.5716,0,0,0-.054-.209c-.1928-.25-.3951-.4935-.5988-.7352-.2876-.3414-.5754-.6827-.87-1.0177-.5286-.6-1.0592-1.1986-1.5979-1.79a1.4485,1.4485,0,0,0-.3216-.2053l-.1507-.1961c-.0169-.0688-.0119-.1584-.0543-.2029q-.4144-.4348-.8495-.85c-.0446-.0426-.134-.0382-.2027-.0556l-.1952-.15a2.7056,2.7056,0,0,0-.9326-.9655c-.0239-.018-.0706-.0058-.1067-.0077a.2329.2329,0,0,0-.0818-.0385,1.1805,1.1805,0,0,0-.5017-.583,20.4556,20.4556,0,0,0-3.5917-2.2565c-.4008-.1987-.807-.3882-1.22-.561-.55-.23-1.1-.4627-1.6644-.6539a17.3033,17.3033,0,0,0-3.8847-.7294,10.2427,10.2427,0,0,0-2.3958.1341,17.2951,17.2951,0,0,0-2.2867.5035,11.2111,11.2111,0,0,0-4.0176,2.0227,1.35,1.35,0,0,0-.5712.6678l-.2194.2188a1.3672,1.3672,0,0,0-.3222.2052,13.4162,13.4162,0,0,0-.8921,1.0745,12.2983,12.2983,0,0,0-1.7548,3.4872,9.7617,9.7617,0,0,0-.4968,3.0207c.0041.3739.0049.748-.0055,1.1216a.2758.2758,0,0,1-.2649.3071c-.4063.051-.8134.0987-1.2216.1291a7.6983,7.6983,0,0,1-2.2188-.2293,11.1091,11.1091,0,0,1-4.1771-1.6837c-.1671-.1192-.3352-.238-.51-.345a1.2928,1.2928,0,0,0-.2554-.0917.23.23,0,0,0-.0823-.0348.7776.7776,0,0,0-.5917-.5257c-.2135-.205-.4285-.4085-.64-.6154A.6716.6716,0,0,0,10.84,103.6623ZM78.1517,60.2586c.1411-.1265.0873-.23.0366-.3308-.5461-1.0852-1.0683-2.1834-1.6463-3.2514-.7286-1.3463-1.4927-2.6739-2.2608-3.9982-.6838-1.1788-1.3859-2.3472-2.0943-3.5114-1.126-1.85-2.2906-3.6755-3.5957-5.4071a16.5942,16.5942,0,0,0-2.9379-3.2141,5.9474,5.9474,0,0,0-1.3856-.8372,2.54,2.54,0,0,0-2.3693.1341,3.0068,3.0068,0,0,0-1.11,1.1616,7.4211,7.4211,0,0,0-.7137,2.2888c-.1113.6233-.1826,1.2539-.2649,1.8821-.0652.4987-.1331.9976-.1766,1.4984-.0581.6688-.0935,1.34-.1393,2.01-.0039.0558-.0125.1113-.0183.167-.0618.5931-.1286,1.1857-.1838,1.7794-.0674.7236-.12,1.4486-.1889,2.172a.7056.7056,0,0,0,.3523.7079,1.011,1.011,0,0,0,.3656.1328,34.892,34.892,0,0,1,3.49.7909c1.3661.38,2.7379.7424,4.0914,1.1635a53.2181,53.2181,0,0,1,5.1943,1.9353,45.9229,45.9229,0,0,1,5.0755,2.4908C77.83,60.1149,78.0009,60.185,78.1517,60.2586ZM56.9311,100.4447a8.9861,8.9861,0,0,0,.4831,2.97,2.9515,2.9515,0,0,0,.6963,1.1355,4.6974,4.6974,0,0,0,1.5244,1.0265,3.5448,3.5448,0,0,0,1.1411.2644,3.6914,3.6914,0,0,0,2.85-1.0766c.3951-.3673.7394-.79,1.1009-1.1927a4.2054,4.2054,0,0,0,.8032-1.3371,10.7119,10.7119,0,0,0,.7316-2.9176,6.7843,6.7843,0,0,0-.83-3.9955,3.7913,3.7913,0,0,0-4.9071-1.56,4.8109,4.8109,0,0,0-2.2369,2.1223,15.9781,15.9781,0,0,0-.9227,2.0388A6.6012,6.6012,0,0,0,56.9311,100.4447ZM13.7939,73.3982c.0536-.0722.1091-.1473.165-.2221.48-.6424.9543-1.2888,1.4405-1.9263a30.9045,30.9045,0,0,1,2.7743-3.292c.1192-.1179.2223-.2521.3408-.3708q.81-.8117,1.6254-1.6179c.36-.3533.7295-.6963,1.0918-1.0469a.2158.2158,0,0,0,.0321-.32c-.1976-.0367-.4144-.0826-.633-.1167-.8465-.1317-1.6926-.2669-2.5408-.3862-.461-.0648-.9259-.102-1.3893-.1485-.6114-.0614-1.2221-.1537-1.8349-.1716-1.0641-.0312-2.13-.0164-3.1945-.0194a5.6387,5.6387,0,0,0-2.1768.4474,2.1721,2.1721,0,0,0-1.2033,1.1863,1.6381,1.6381,0,0,0-.1665.87A3.2544,3.2544,0,0,0,8.5186,67.48a18.911,18.911,0,0,0,2.4968,3.2932c.1526.1642.3231.3137.4616.4888a18.9142,18.9142,0,0,0,2.1182,2.0726C13.6194,73.3566,13.6635,73.3575,13.7939,73.3982Zm1.3732,23.7454a6.2763,6.2763,0,0,0,.3587,2.2321,3.573,3.573,0,0,0,.7322,1.2494,2.4578,2.4578,0,0,0,3.5526.3038,3.4,3.4,0,0,0,1.036-1.5056,13.1492,13.1492,0,0,0,.4661-1.612,6.4427,6.4427,0,0,0,.1062-2.6684,4.85,4.85,0,0,0-1-2.2832,2.4584,2.4584,0,0,0-3.8232-.1223,4.3526,4.3526,0,0,0-.7789,1.2245A7.271,7.271,0,0,0,15.1671,97.1436ZM62.3151,82.08a4.46,4.46,0,0,0,.866,2.7528,5.1478,5.1478,0,0,0,1.7582,1.6185,3.3239,3.3239,0,0,0,2.0777.5294,2.144,2.144,0,0,0,1.9291-1.6124,3.1392,3.1392,0,0,0-.0007-1.1089,2.8914,2.8914,0,0,0-.7287-1.6093,12.37,12.37,0,0,0-2.4687-2.1028,2.9678,2.9678,0,0,0-1.8521-.5347,1.6719,1.6719,0,0,0-1.579,1.528C62.3047,81.7266,62.3151,81.9142,62.3151,82.08Zm-44.69-1.2979c0,.0747-.0017.15,0,.2242a1.467,1.467,0,0,0,1.0021,1.3463,2.7106,2.7106,0,0,0,1.76-.0065,4.267,4.267,0,0,0,1.0283-.5589,12.5037,12.5037,0,0,0,1.7892-1.69,3.4313,3.4313,0,0,0,.75-1.3008,1.713,1.713,0,0,0-.0174-1.2605,1.6526,1.6526,0,0,0-1.3947-.98,3.4,3.4,0,0,0-2.0371.4893,7.2746,7.2746,0,0,0-2.0643,1.7013A3.14,3.14,0,0,0,17.6248,80.7819Z"/><path class="b43de4c4-98dc-44a6-8313-47350eb8f336" d="M116.9369,30.6842a34.9282,34.9282,0,0,1,.108,3.9224c-.0145.5046-.0364,1.009-.0584,1.5134-.0406.934-.0635,1.8692-.1314,2.8012-.0707.9688-.1842,1.9344-.2822,2.9011-.0772.7619-.1444,1.5252-.2432,2.2844-.12.9258-.2649,1.8485-.4094,2.771a.4553.4553,0,0,0,.138.4555c.1123.0986.2257.1963.3441.2874a32.2236,32.2236,0,0,1,5.4421,5.32,36.8827,36.8827,0,0,1,4.22,6.4043,24.2092,24.2092,0,0,1,1.6124,3.9363c.1574.5171.2839,1.0435.4362,1.5622.126.4291.28.85.4026,1.28a17.0464,17.0464,0,0,1,.4935,2.2368c.0719.4983.1874.99.2729,1.4868.0886.5146.1687,1.0307.2451,1.5473.0872.5906.1743,1.1815.2468,1.774.0862.7044.1649,1.41.2319,2.1165s.1158,1.4159.1726,2.124c.006.0746.0156.149.018.2236.0709,2.2238.2232,4.4457.1574,6.6724-.0094.3173-.046.6337-.07.9506-.2044.1046-.2451.3217-.3328.5013-.6968,1.4261-1.3973,2.85-2.2189,4.21a26.3227,26.3227,0,0,1-3.0679,4.1941,15.5461,15.5461,0,0,1-3.3143,2.8228,10.8336,10.8336,0,0,1-4.6813,1.7275,6.3437,6.3437,0,0,1-1.8342-.0927,6.7131,6.7131,0,0,1-3.9845-2.4147.4577.4577,0,0,0-.3627-.2286c-.09-.5522-.1815-1.104-.2691-1.6565a29.0975,29.0975,0,0,0-.6843-3.4072c-.0816-.2874-.1454-.58-.2216-.8689a17.49,17.49,0,0,1-.3324-2.2162c-.109-.8336-.1574-1.6752-.2684-2.5085-.1806-1.3556-.2256-2.72-.2843-4.0827a31.6093,31.6093,0,0,1,.0681-3.2517c.065-1.0838.1534-2.1649.2953-3.2385a22.4693,22.4693,0,0,1,.757-3.4474,42.62,42.62,0,0,1,1.9764-5.1243c.417-.94.8256-1.8837,1.2356-2.8269a2.0577,2.0577,0,0,0,.1074-.3186.7037.7037,0,0,0-.3283-.82.6412.6412,0,0,0-.7822.0705,2.7289,2.7289,0,0,0-.509.5895,10.0775,10.0775,0,0,0-.6026,1.0761c-.4128.86-.8173,1.7235-1.2041,2.595a32.1257,32.1257,0,0,0-2.8621,10.9c-.0361.4285-.0828.8576-.0879,1.2868-.0183,1.5521-.0643,3.105.0682,4.6552.0541.6332.0715,1.2706.1493,1.9007.1854,1.5021.3289,3.01.6294,4.497.274,1.356.5252,2.7156.9231,4.0433a11.0026,11.0026,0,0,1,.3049,1.25,8.4473,8.4473,0,0,1,.114,1.1716c.0641,1.888.1166,3.7764.1722,5.6647a2.2415,2.2415,0,0,1-.01.2242q-.139,1.986-.28,3.9717c-.0094.13-.0519.2583-.056.3882a3.3507,3.3507,0,0,0-.0614.9439c-.384.48-.7573.9694-1.1542,1.4387-.8687,1.0273-1.75,2.0436-2.6245,3.0663-.3761.44-.7355.8948-1.1226,1.3248q-.8435.9371-1.717,1.8471c-1.5261,1.5919-3.0422,3.1938-4.5949,4.7593-1.3421,1.3531-2.7166,2.675-4.1007,3.9853-.9629.9116-1.9528,1.7961-2.9553,2.6641-1.1435.99-2.3117,1.9522-3.4742,2.92q-1.8521,1.5423-3.7143,3.0723c-1.8386,1.5021-3.7265,2.9393-5.69,4.2758a1.5787,1.5787,0,0,1-.1479.08c-.1529-.0928-.1359-.2479-.1544-.396-.0852-.6829-.142-1.3721-.2754-2.0459a17.913,17.913,0,0,0-.98-3.32,13.3279,13.3279,0,0,0-1.8762-3.2947c-.243-.3052-.4776-.6171-.7161-.9258a2.821,2.821,0,0,1,.2852-.1708c.5106-.232,1.0281-.449,1.5352-.6882q2.8935-1.3649,5.6469-2.9945a38.096,38.096,0,0,0,3.575-2.3164c.9253-.697,1.8424-1.406,2.7414-2.1364a32.1331,32.1331,0,0,0,4.3126-4.24c.8188-.9715,1.6289-1.9505,2.4405-2.9282.191-.23.3848-.4594.556-.7039a31.2457,31.2457,0,0,0,3.41-5.9157c.2926-.7072.5906-1.4163.8154-2.1463.3461-1.1238.66-2.2594.9328-3.4031.2031-.852.3274-1.7234.4711-2.5887.0826-.4973.14-.999.1978-1.5a25.4119,25.4119,0,0,0,.3027-2.7283,57.66,57.66,0,0,0-.1771-5.7719c-.0657-.7065-.138-1.4137-.2472-2.1143a38.28,38.28,0,0,0-.8286-3.8331,30.4824,30.4824,0,0,0-2.8159-7.1843,17.9734,17.9734,0,0,0-1.4738-2.3158q-1.3962-1.7907-2.8021-3.5739a2.3266,2.3266,0,0,1-.4289-.779q-.7476-2.498-1.6514-4.944Q88.8908,59.07,87.62,56.3206a50.0422,50.0422,0,0,0-2.9977-5.5793,36.2347,36.2347,0,0,0-2.04-3.0178,15.5343,15.5343,0,0,1,2.3238-1.9311A25.0818,25.0818,0,0,1,95.12,41.5613a23.0637,23.0637,0,0,1,5.2485-.3419,18.98,18.98,0,0,1,2.6749.2731,2.5714,2.5714,0,0,0,.4793.0041,1.5492,1.5492,0,0,0,.034-.3787c-.1406-.8649-.2664-1.7314-.4444-2.5913a41.6228,41.6228,0,0,0-1.1331-4.0941,44.9772,44.9772,0,0,0-4.0976-9.1243c-.1587-.2721-.29-.56-.4345-.8408.11-.019.2212-.0315.3292-.0581a12.5673,12.5673,0,0,1,3.152-.3985,19.7764,19.7764,0,0,1,2.0657.0921,17.5409,17.5409,0,0,1,1.8707.3174,24.76,24.76,0,0,1,5.0329,1.8439c1.0816.5085,2.13,1.0814,3.1576,1.69.593.3511,1.1663.7358,1.7449,1.1108A23.1323,23.1323,0,0,1,116.9369,30.6842Z"/><path class="e6e5e11d-9479-45f7-8510-feb4fc0e1a76" d="M68.8357,114.3174q.1119-.0041.2236-.0081a.7882.7882,0,0,0,.2569.0694c.4549-.0409.9087-.094,1.3621-.1487.1449-.0174.2871-.0557.4315-.078a.2392.2392,0,0,0,.1963-.1687l.22-.0177a.4371.4371,0,0,0,.4248.06c.9948-.2253,1.9992-.4188,2.9788-.6987,1.16-.3317,2.3218-.6645,3.4641-1.0621,1.3715-.4773,2.7423-.9518,4.0673-1.55.9669-.4366,1.9454-.848,2.9054-1.2989.59-.2769,1.1586-.5984,1.7284-.9152q1.2686-.7054,2.5221-1.4376c.1661-.0976.387-.1664.4308-.4061a.2473.2473,0,0,1,.0887-.0311.7048.7048,0,0,0,.4611-.171c.7586-.5018,1.5128-1.01,2.2709-1.5129a.3975.3975,0,0,0,.21-.309l.2045-.1376a.2.2,0,0,0,.2447-.1982q.0995-.0713.1991-.1426a.4614.4614,0,0,0,.4769-.4115.2224.2224,0,0,1,.0825-.039.6551.6551,0,0,0,.592-.5193.246.246,0,0,1,.0848-.0393.8979.8979,0,0,0,.6992-.6407l.2005-.1438a.4246.4246,0,0,0,.3438-.1517c.1666-.1466.3411-.2841.5123-.4254-.0767.2483-.1388.5024-.2322.7443a37.204,37.204,0,0,1-7.1737,11.5653,42.4149,42.4149,0,0,1-6.3664,5.7334,47.4159,47.4159,0,0,1-11.6367,6.21,52.7612,52.7612,0,0,1-15.5015,3.1281,46.1564,46.1564,0,0,1-6.1667-.0751c-1.6021-.139-3.2036-.2837-4.7872-.5739.0963-.1358.1819-.28.29-.4059a10.4277,10.4277,0,0,0,1.928-3.3236,15.9045,15.9045,0,0,0,.846-4.1c.0673-.8532.0108-1.7162.01-2.5748.1628-.1252.32-.2592.4895-.3742a10.6108,10.6108,0,0,0,2.6589-2.7067,3.4651,3.4651,0,0,0,.64-1.5407c.0416-.3039-.1709-.4742-.4457-.3393a2.9254,2.9254,0,0,0-.6083.3954c-.34.2912-.6721.5951-.9839.9165a16.8458,16.8458,0,0,1-2.3,1.9637,4.9643,4.9643,0,0,1-.568.3593,9.7623,9.7623,0,0,1-3.6079,1.1525,6.5373,6.5373,0,0,1-3.642-.681,2.1433,2.1433,0,0,1-.5516-.3794,10.8879,10.8879,0,0,1-2.1044-2.608c-.2769-.5287-.6154-1.0255-.9341-1.5317a.28.28,0,0,0-.4711-.0575,2.3762,2.3762,0,0,0-.1839.2111q-.9278,1.1253-1.8544,2.2516a7.4846,7.4846,0,0,1-1.3048,1.2261,2.57,2.57,0,0,1-.5257.3191,4.593,4.593,0,0,1-3.1808.18,4.89,4.89,0,0,1-2.75-2.0108,1.9181,1.9181,0,0,0-.3187-.3875.4952.4952,0,0,0-.8392.3213,1.0406,1.0406,0,0,0,.036.3848,2.9893,2.9893,0,0,0,.4714,1.011,5.5647,5.5647,0,0,0,1.6738,1.5541,5.7168,5.7168,0,0,0,3.923.8248c.46-.0675.9087-.21,1.3627-.3178a24.3136,24.3136,0,0,0,.1974,2.6073,13.3726,13.3726,0,0,0,.8457,3.5049c.1159.2924.2149.5914.3217.8874-.6859-.2983-1.38-.579-2.0563-.8978a45.9447,45.9447,0,0,1-8.954-5.5353,4.8826,4.8826,0,0,0-.471-.2951.4071.4071,0,0,0-.1516-.3942c-.4583-.3811-.8962-.7873-1.3619-1.1589A28.4578,28.4578,0,0,1,18,114.6753c-.419-.4221-.7868-.8951-1.1763-1.3463-.3165-.3667-.6387-.7288-.944-1.1046-.2816-.3466-.5486-.7056-.8139-1.065-.3871-.5244-.7819-1.0441-1.1457-1.5844-.3535-.5251-.69-1.0635-1.002-1.6141q-.7446-1.3147-1.4434-2.6553c-.2248-.429-.4116-.8784-.6026-1.3242a1.0723,1.0723,0,0,1-.033-.3189.67.67,0,0,1,.42.246c.2117.2069.4267.41.64.6152a.639.639,0,0,0,.5916.5259.2329.2329,0,0,1,.0823.0346c.0406.081.06.1924.125.2386a9.921,9.921,0,0,0,2.2742,1.3038c.7334.2692,1.4735.5286,2.2269.7322a7.9816,7.9816,0,0,0,1.98.2869,8.1455,8.1455,0,0,0,1.6135-.1019c.5477-.1025.6414-.183.6553-.7581a15.8626,15.8626,0,0,1,.0977-2.2306,11.9712,11.9712,0,0,1,.9748-3.1918,10.5382,10.5382,0,0,1,1.9809-2.8909c.1053-.1078.2158-.2117.1912-.3837l.22-.2187c.198.0265.3089-.1115.4225-.2327a6.538,6.538,0,0,1,1.0931-.8662,10.3581,10.3581,0,0,1,3.1033-1.3749,11.7248,11.7248,0,0,1,3.1219-.5539,1.9943,1.9943,0,0,0,.2193-.039c.1842-.0228.3692-.039.5533-.0626a7.74,7.74,0,0,1,1.0532.1,10.822,10.822,0,0,1,1.88.2239,13.6884,13.6884,0,0,1,3.2963,1.0406c.9317.4289,1.8343.9239,2.7341,1.4183a11.671,11.671,0,0,1,2.31,1.657.3967.3967,0,0,0,.3461.1448.2344.2344,0,0,1,.0818.0384c.0081.0355.0044.0825.0261.1053.2648.2781.53.5564.8049.8241.043.0418.1376.0306.2083.0439q.0977.0752.1953.15a.6.6,0,0,0,.0805.2018q.4032.4212.8243.8251a.6074.6074,0,0,0,.2016.0815q.0753.098.1506.1962c-.0291.1984.116.3022.2289.4243q.7023.76,1.4034,1.5206c.0254.0275.05.0552.074.0843.4439.55.8847,1.1022,1.3335,1.648a.5959.5959,0,0,0,.4031.2795.24.24,0,0,1,.0363.0858c-.0222.1461.067.24.1469.3462.4686.6245.952,1.2392,1.39,1.8846a28.6449,28.6449,0,0,1,2.1676,3.6456c.1375.2857.2843.5671.4258.8509a.6971.6971,0,0,0,.4553.38c.3033.0882.6118.1564.9147.2385.8435.2288,1.6995.3843,2.5549.5536.91.18,1.8253.3158,2.7441.4413a12.4745,12.4745,0,0,0,2.046.2131,1.4755,1.4755,0,0,1,.2206.0307,5.1673,5.1673,0,0,0,.6063.071c1.176.007,2.352.0043,3.528.0029a1.7842,1.7842,0,0,0,.3882-.0263C68.7451,114.4535,68.7867,114.3694,68.8357,114.3174Zm-35.8146-4.6627c.5028-.0393,1.0117-.0425,1.5072-.1254a8.5674,8.5674,0,0,0,2.8425-.9939,5.75,5.75,0,0,0,2.2173-2.2459,2.9029,2.9029,0,0,0,.4111-1.6655,4.1508,4.1508,0,0,0-1.5085-2.9641,4.3433,4.3433,0,0,0-.74-.5044,13.1034,13.1034,0,0,0-3.8385-1.366,13.4342,13.4342,0,0,0-6.0465.3372,4.9159,4.9159,0,0,0-2.5271,1.5808,3.4957,3.4957,0,0,0-.79,3.0958,5.0646,5.0646,0,0,0,2.7268,3.5117,11.5813,11.5813,0,0,0,1.8329.6911A13.4723,13.4723,0,0,0,33.0211,109.6547Z"/><path class="e232a808-9d15-4e8b-9cbe-8b993384e4e3" d="M76.8012,137.082c-.24.175-.4731.3592-.72.5236-2.3442,1.563-4.68,3.1385-7.0412,4.6763-1.0932.7121-2.2322,1.3543-3.3564,2.018-.7229.4266-1.4488.8494-2.1878,1.2473-.97.5223-1.9462,1.0345-2.9346,1.5209-.8536.42-1.7167.8255-2.596,1.188a29.25,29.25,0,0,1-3.8219,1.4281c-.6309.1623-1.2534.358-1.8867.5092s-1.2836.2219-1.9174.3552c-.61.1282-1.2352.005-1.83.1931a11.1322,11.1322,0,0,1-2.2339-.0728,1.3432,1.3432,0,0,0-.279-.0208,6.6586,6.6586,0,0,1-1.59-.2637,11.6438,11.6438,0,0,1-2.05-.7235,8.0943,8.0943,0,0,1-2.1417-1.4007,6.9947,6.9947,0,0,1-1.6758-2.2886,9.9781,9.9781,0,0,1-.7121-2.403,18.1236,18.1236,0,0,1-.0842-2.9615,3.9443,3.9443,0,0,1,.1218-.827,16.8877,16.8877,0,0,1,1.225-3.7646A24.601,24.601,0,0,1,40.5,133.47a.6551.6551,0,0,0,.135-.4134,1.0362,1.0362,0,0,0,.6631-.4669,12.5085,12.5085,0,0,1,2.35-2.2245c.15-.1031.3379-.1724.4106-.3656a1.4157,1.4157,0,0,1,.2234-.0035c.7947.11,1.5869.2424,2.3839.3326,1.0014.1134,2.0048.2382,3.01.2768,1.2872.0495,2.5774.0215,3.8663.019.317-.0007.6345-.0254.9508-.05,1.1353-.0893,2.2687-.2174,3.4056-.2665,1.1962-.0518,2.38-.1884,3.5657-.34a44.6,44.6,0,0,0,4.4026-.8261,45.2175,45.2175,0,0,0,6.5727-2.05.8563.8563,0,0,1,.5325-.1321,2.5817,2.5817,0,0,0,.1348.2978c.3279.5385.7705.9922,1.1068,1.5294a8.3212,8.3212,0,0,1,.9309,1.7025,2.4421,2.4421,0,0,0,.1443.3022,15.0294,15.0294,0,0,1,.9278,2.7382,15.975,15.975,0,0,1,.3168,1.5757,8.1188,8.1188,0,0,1,.139,1.1A3.5745,3.5745,0,0,0,76.8012,137.082Z"/><path class="bba45260-5525-403b-9c7e-492cec0d8e90" d="M110.4876,95.9759a.4577.4577,0,0,1,.3627.2286,6.7131,6.7131,0,0,0,3.9845,2.4147,6.3437,6.3437,0,0,0,1.8342.0927,10.8336,10.8336,0,0,0,4.6813-1.7275,15.5461,15.5461,0,0,0,3.3143-2.8228,26.3227,26.3227,0,0,0,3.0679-4.1941c.8216-1.36,1.5221-2.7841,2.2189-4.21.0877-.18.1284-.3967.3328-.5013a5.0216,5.0216,0,0,1,.0192,1.4484c-.0178.2223-.0555.4433-.0652.6658-.013.2988-.0238.5992-.0071.8974a18.0665,18.0665,0,0,1-.14,2.5128c-.042.5023-.0544,1.0043-.092,1.5055-.0472.63-.13,1.2573-.191,1.8864-.05.5189-.09,1.039-.1388,1.5581-.021.2217-.0546.4423-.0824.6634a1.419,1.419,0,0,0-.0259.2222,5.8316,5.8316,0,0,1-.1147,1.167c-.117.6978-.1642,1.4036-.24,2.1061-.0139.1289-.0607.2539-.08.3825-.12.79-.2268,1.5829-.3557,2.3719-.1318.8071-.2808,1.6115-.4275,2.4161-.1235.6772-.2291,1.3589-.388,2.0278-.2194.9238-.468,1.8412-.7288,2.7543-.266.931-.5263,1.8664-.8537,2.7766-.4228,1.1754-.825,2.3586-1.3191,3.5095-.45,1.0482-.9267,2.082-1.4556,3.091a27.411,27.411,0,0,1-2.3621,3.7988c-.5066.6724-1.0448,1.31-1.6042,1.9377q-.747.8384-1.5436,1.6242a10.7288,10.7288,0,0,1-3.06,2.139,5.2144,5.2144,0,0,1-3.4422.3463,5.7291,5.7291,0,0,1-2.7315-1.4594,5.3512,5.3512,0,0,1-1.1947-1.8126,7.4889,7.4889,0,0,1-.5-1.4789c-.1045-.5647-.2341-1.1264-.3023-1.7023a15.8361,15.8361,0,0,1-.0888-1.7291,2.2621,2.2621,0,0,1,.0914-.8866.1284.1284,0,0,0,.0089-.0551,8.9609,8.9609,0,0,1,.2394-1.8236c.0338-.2576.0924-.5126.1514-.7661.0758-.326.17-.6478.2447-.9741.1659-.7263.3493-1.4466.5637-2.1612.2567-.8553.46-1.7265.6866-2.5909s.4744-1.7249.6724-2.5962c.1895-.8337.3259-1.6794.4882-2.5193.0282-.1459.0782-.2879.1014-.4343.0218-.1376-.0747-.1986-.1919-.2327a2.83,2.83,0,0,0,.15-.4676c.1-.6991.1907-1.4.2749-2.1011.0687-.5724.147-1.1452.18-1.72.085-1.486.1417-2.9734.0894-4.4626C110.5055,96.7193,110.4978,96.3475,110.4876,95.9759Z"/><path class="bba45260-5525-403b-9c7e-492cec0d8e90" d="M116.9369,30.6842A23.1323,23.1323,0,0,0,114.8,29.065c-.5786-.375-1.1519-.76-1.7449-1.1108-1.0277-.6086-2.076-1.1815-3.1576-1.69a24.76,24.76,0,0,0-5.0329-1.8439,17.5409,17.5409,0,0,0-1.8707-.3174,19.7764,19.7764,0,0,0-2.0657-.0921,12.5673,12.5673,0,0,0-3.152.3985c-.108.0266-.2194.0391-.3292.0581a1.7179,1.7179,0,0,1-.2181-.2414c-.4878-.7952-.9587-1.6011-1.4565-2.39s-1.0068-1.5716-1.5364-2.3394c-.55-.7979-1.1263-1.5785-1.7-2.36q-.9266-1.262-1.8711-2.5106c-.6541-.8611-1.31-1.7214-1.9862-2.5651-.712-.8884-1.4038-1.7933-2.0252-2.7447A16.937,16.937,0,0,1,84.93,6.1814c-.1136-.295-.2276-.589-.336-.886a5.0611,5.0611,0,0,1-.2674-2.2615A2.9541,2.9541,0,0,1,85.5614.8091,4.3582,4.3582,0,0,1,87.1928.112,8.5653,8.5653,0,0,1,89.0887.0044a.2744.2744,0,0,1,.056.0022,16.5637,16.5637,0,0,1,2.86.7472,22.3863,22.3863,0,0,1,5.0222,2.9153c.7271.5544,1.4222,1.1457,2.11,1.7492.5066.4446.9993.9008,1.4606,1.3886.4478.4735.8517.988,1.29,1.4705a11.301,11.301,0,0,1,.9466,1.176c.3282.4751.6994.92,1.0272,1.3958a32.3883,32.3883,0,0,1,1.8614,2.9946,1.32,1.32,0,0,0,.1172.19.23.23,0,0,0,.3835,0,3.32,3.32,0,0,1,.68-.6569,2.4934,2.4934,0,0,1,.8188-.4729,3.0274,3.0274,0,0,1,3.2236.6557,11.9292,11.9292,0,0,1,2.5387,3.11,21.1024,21.1024,0,0,1,1.9707,4.5049,20.925,20.925,0,0,1,.6919,2.7043,14.9029,14.9029,0,0,1,.4,2.59,1.4069,1.4069,0,0,0,.0548.273,6.11,6.11,0,0,1,.1608,1.3295,4.2428,4.2428,0,0,0,.07.6087c.0113.0925.0283.1847.0325.2775C116.8907,29.5326,116.9133,30.1084,116.9369,30.6842Z"/><path class="bba45260-5525-403b-9c7e-492cec0d8e90" d="M30.686,136.6913a8.7792,8.7792,0,0,1-1.2234.38c-.855.26-1.7192.4856-2.5873.6946q-1.3843.3333-2.7791.6229a17.2945,17.2945,0,0,1-1.8676.3233,15.0521,15.0521,0,0,1-2.2183.2573c-.6917.1909-1.4179.0253-2.1107.2049a13.8626,13.8626,0,0,1-2.404-.07,1.696,1.696,0,0,0-.3354-.0189,16.4128,16.4128,0,0,1-2.66-.3,17.6007,17.6007,0,0,1-2.8639-.74,8.3805,8.3805,0,0,1-2.5839-1.4379,6.3683,6.3683,0,0,1-2.045-2.824,4.992,4.992,0,0,1-.2347-.92,5.41,5.41,0,0,1-.1548-1.2734,6.996,6.996,0,0,1,.232-1.4864,9.8135,9.8135,0,0,1,.4375-1.2664A9.0994,9.0994,0,0,1,6.7634,126.54c.3992-.4441.7944-.8929,1.2141-1.3171a20.1505,20.1505,0,0,1,3.8594-2.953,24.8106,24.8106,0,0,1,2.3126-1.2591,25.3677,25.3677,0,0,1,4.3486-1.6182c.7538-.2015,1.5068-.406,2.2617-.6035a2.1211,2.1211,0,0,1,.3333-.0344,6.63,6.63,0,0,0,.4455.4955,40.3165,40.3165,0,0,0,7.7724,5.6353c.4234.2335.83.4979,1.244.7479a1.4652,1.4652,0,0,0,.1517.7023,13.3,13.3,0,0,1,.6142,3.6167,19.8609,19.8609,0,0,1-.0823,3.7354,17.3,17.3,0,0,1-.3952,2.1343A1.9676,1.9676,0,0,0,30.686,136.6913Z"/><path class="ea6c9adc-373b-44c0-87b9-ef15f5f06f3e" d="M72.9729,126.9594a.8563.8563,0,0,0-.5325.1321,45.2175,45.2175,0,0,1-6.5727,2.05,44.6,44.6,0,0,1-4.4026.8261c-1.1855.1516-2.37.2882-3.5657.34-1.1369.0491-2.27.1772-3.4056.2665-.3163.0249-.6338.05-.9508.05-1.2889.0025-2.5791.0305-3.8663-.019-1.0057-.0386-2.0091-.1634-3.01-.2768-.797-.09-1.5892-.2222-2.3839-.3326a1.42,1.42,0,0,0-.2237.0035q-.4078-.12-.8153-.2408a.891.891,0,0,1,.1077-.1258c.3719-.3024.7427-.6065,1.1216-.9a2.9868,2.9868,0,0,1,.3814-.2172c1.584.29,3.1855.435,4.7876.574a46.1564,46.1564,0,0,0,6.1667.0751A52.7612,52.7612,0,0,0,71.31,126.037a47.4159,47.4159,0,0,0,11.6367-6.21,42.4149,42.4149,0,0,0,6.3664-5.7334,37.204,37.204,0,0,0,7.1737-11.5653c.0934-.2419.1555-.496.2318-.7441a.05.05,0,0,0,.0081-.0831,6.5891,6.5891,0,0,0,.51-1.4137,30.2184,30.2184,0,0,0,.9706-3.9741,27.5726,27.5726,0,0,0,.4083-3.2243c.0355-.69.1128-1.3783.1408-2.0686a19.42,19.42,0,0,0-.1063-2.8549c-.0794-.7429-.1294-1.4884-.2288-2.23a32.6749,32.6749,0,0,0-.9-4.3907A34.8265,34.8265,0,0,0,94.8333,74.72a36.6286,36.6286,0,0,0-4.0861-6.226,5.56,5.56,0,0,1-.9685-1.6893c-.7747-2.2052-1.599-4.3934-2.5357-6.5358q-.9886-2.2613-2.0452-4.4926-1.61-3.397-3.4818-6.66a3.419,3.419,0,0,1-.1715-.4107q.5193-.4912,1.038-.9822a36.3234,36.3234,0,0,1,2.04,3.0179A50.0422,50.0422,0,0,1,87.62,56.3206q1.2758,2.7469,2.325,5.5906.9075,2.4453,1.6514,4.944a2.3266,2.3266,0,0,0,.4289.779q1.407,1.7823,2.8021,3.5739a17.9734,17.9734,0,0,1,1.4738,2.3158,30.4824,30.4824,0,0,1,2.8159,7.1843,38.28,38.28,0,0,1,.8286,3.8331c.1092.7006.1815,1.4078.2472,2.1143a57.66,57.66,0,0,1,.1771,5.7719,25.4119,25.4119,0,0,1-.3027,2.7283c-.0579.5009-.1152,1.0026-.1978,1.5-.1437.8653-.268,1.7367-.4711,2.5887-.2727,1.1437-.5867,2.2793-.9328,3.4031-.2248.73-.5228,1.4391-.8154,2.1463a31.2457,31.2457,0,0,1-3.41,5.9157c-.1712.2445-.365.4739-.556.7039-.8116.9777-1.6217,1.9567-2.44,2.9282a32.1331,32.1331,0,0,1-4.3126,4.24c-.899.73-1.8161,1.4394-2.7414,2.1364a38.096,38.096,0,0,1-3.575,2.3164q-2.7536,1.6277-5.6469,2.9945c-.5071.2392-1.0246.4562-1.5352.6882a2.7431,2.7431,0,0,0-.2847.1709C73.09,126.9121,73.0316,126.9358,72.9729,126.9594Z"/><path class="ae75a6b3-5d89-46a1-a889-fa75df7f5d19" d="M110.4876,95.9759c.01.3716.0179.7434.0309,1.1149.0523,1.4892-.0044,2.9766-.0894,4.4626-.0329.5751-.1112,1.1479-.18,1.72-.0842.7013-.1744,1.402-.2749,2.1011a2.83,2.83,0,0,1-.15.4676c-.2709.3288-.5372.6618-.8145.9855-.18.21-.3756.4064-.5642.609a3.347,3.347,0,0,1,.0613-.9439c.0041-.13.0466-.2581.056-.3882q.1431-1.9857.28-3.9717a2.2415,2.2415,0,0,0,.01-.2242c-.0556-1.8883-.1081-3.7767-.1722-5.6647a8.4473,8.4473,0,0,0-.114-1.1716,11.0026,11.0026,0,0,0-.3049-1.25c-.3979-1.3277-.6491-2.6873-.9231-4.0433-.3-1.4874-.444-2.9949-.6294-4.497-.0778-.63-.0952-1.2675-.1493-1.9007-.1325-1.55-.0865-3.1031-.0682-4.6552.0051-.4292.0518-.8583.0879-1.2868a32.1257,32.1257,0,0,1,2.8621-10.9c.3868-.8715.7913-1.7354,1.2041-2.595a10.0775,10.0775,0,0,1,.6026-1.0761,2.7289,2.7289,0,0,1,.509-.5895.6412.6412,0,0,1,.7822-.0705.7037.7037,0,0,1,.3283.82,2.0577,2.0577,0,0,1-.1074.3186c-.41.9432-.8186,1.8869-1.2356,2.8269a42.62,42.62,0,0,0-1.9764,5.1243,22.4693,22.4693,0,0,0-.757,3.4474c-.1419,1.0736-.23,2.1547-.2953,3.2385a31.6093,31.6093,0,0,0-.0681,3.2517c.0587,1.3624.1037,2.7271.2843,4.0827.111.8333.1594,1.6749.2684,2.5085a17.49,17.49,0,0,0,.3324,2.2162c.0762.2891.14.5815.2216.8689a29.0975,29.0975,0,0,1,.6843,3.4072C110.3061,94.8719,110.3978,95.4237,110.4876,95.9759Z"/><path class="b2b2866c-c55f-4ba4-b699-42034335cb07" d="M43.2434,129.759q.4074.12.8152.2408c-.0724.1932-.2606.2625-.41.3656a12.5085,12.5085,0,0,0-2.35,2.2245,1.0362,1.0362,0,0,1-.6631.4669,2.1439,2.1439,0,0,0-.3167.0859c-2.5243,1.1081-5.1061,2.0664-7.7132,2.9576-.6332.2165-1.2792.3952-1.9192.5911a1.9678,1.9678,0,0,1,.1574-.8693,17.3,17.3,0,0,0,.3952-2.1343,19.8609,19.8609,0,0,0,.0823-3.7354,13.3,13.3,0,0,0-.6142-3.6167,1.46,1.46,0,0,1-.1513-.702c.1883.0811.38.1549.5639.2438.5382.26,1.0653.544,1.612.7839.6313.2771,1.2789.5172,1.9194.7734.15.1881.2969.3791.4514.5637a12.5713,12.5713,0,0,0,1.0869,1.2668,5.7313,5.7313,0,0,0,2.4265,1.33,5.3,5.3,0,0,0,2.3734.0929,5.2013,5.2013,0,0,0,1.9562-.776A2.7649,2.7649,0,0,1,43.2434,129.759Z"/><path class="fe36aa74-511f-4808-ba84-0db62a3604a5" d="M34.6507,127.4348c-.6405-.2562-1.2881-.4963-1.9194-.7734-.5467-.24-1.0738-.5242-1.612-.7839-.1842-.0889-.3756-.1627-.5639-.2438-.4146-.25-.821-.5147-1.2444-.7482a40.3165,40.3165,0,0,1-7.7724-5.6353,6.63,6.63,0,0,1-.4455-.4955c.238-.1751.5422-.1243.7993-.2342a4.8826,4.8826,0,0,1,.471.2951,45.9447,45.9447,0,0,0,8.954,5.5353c.6762.3188,1.37.6,2.0561.8976.12.1617.253.3157.3579.4869q.3472.5664.6695,1.1479C34.4985,127.0592,34.5683,127.2505,34.6507,127.4348Z"/><path class="b4792949-fa43-4577-892b-35a7a6b27b02" d="M72.9729,126.9594c.0587-.0236.1174-.0473.1756-.071.238.3086.4726.62.7156.9257a13.3279,13.3279,0,0,1,1.8762,3.2947,17.913,17.913,0,0,1,.98,3.32c.1334.6738.19,1.363.2754,2.0459.0185.1481.0015.3032.1544.396-.0527.1753-.207.1827-.3486.2111a3.5777,3.5777,0,0,1-.1278-.877,8.1188,8.1188,0,0,0-.139-1.1,15.975,15.975,0,0,0-.3168-1.5757,15.0294,15.0294,0,0,0-.9278-2.7382,2.4421,2.4421,0,0,1-.1443-.3022,8.3212,8.3212,0,0,0-.9309-1.7025c-.3363-.5372-.7789-.9909-1.1068-1.5294A2.5817,2.5817,0,0,1,72.9729,126.9594Z"/><path class="fbbbc4ed-5830-48b3-b8d4-658bfebb056e" d="M10.5973,103.2467a.2136.2136,0,0,1,.1854.2514A.1892.1892,0,0,1,10.5973,103.2467Z"/><path class="bd9675a0-8aaa-4971-8591-c1c383492bc8" d="M78.1517,60.2586c-.1508-.0736-.3214-.1437-.4791-.2359a45.9229,45.9229,0,0,0-5.0755-2.4908,53.2181,53.2181,0,0,0-5.1943-1.9353c-1.3535-.4211-2.7253-.7836-4.0914-1.1635a34.892,34.892,0,0,0-3.49-.7909,1.011,1.011,0,0,1-.3656-.1328.7056.7056,0,0,1-.3523-.7079c.0685-.7234.1215-1.4484.1889-2.172.0552-.5937.122-1.1863.1838-1.7794.0058-.0557.0144-.1112.0183-.167.0458-.67.0812-1.3409.1393-2.01.0435-.5008.1114-1,.1766-1.4984.0823-.6282.1536-1.2588.2649-1.8821a7.4211,7.4211,0,0,1,.7137-2.2888,3.0068,3.0068,0,0,1,1.11-1.1616,2.54,2.54,0,0,1,2.3693-.1341,5.9474,5.9474,0,0,1,1.3856.8372A16.5942,16.5942,0,0,1,68.5912,43.76c1.3051,1.7316,2.47,3.5568,3.5957,5.4071.7084,1.1642,1.41,2.3326,2.0943,3.5114.7681,1.3243,1.5322,2.6519,2.2608,3.9982.578,1.068,1.1,2.1662,1.6463,3.2514C78.239,60.0283,78.2928,60.1321,78.1517,60.2586Z"/><path class="af99a6d1-77d8-4e7d-8422-cd9f6b4dec54" d="M56.931,100.4448a6.6034,6.6034,0,0,1,.4346-2.522,15.9781,15.9781,0,0,1,.9227-2.0388,4.8109,4.8109,0,0,1,2.2369-2.1223,3.7913,3.7913,0,0,1,4.9071,1.56,6.7843,6.7843,0,0,1,.83,3.9955,10.7119,10.7119,0,0,1-.7316,2.9176,4.2054,4.2054,0,0,1-.8032,1.3371c-.3615.4029-.7058.8254-1.1009,1.1927a3.6914,3.6914,0,0,1-2.85,1.0766,3.5448,3.5448,0,0,1-1.1411-.2644,4.6974,4.6974,0,0,1-1.5244-1.0265,2.9515,2.9515,0,0,1-.6963-1.1355A8.9886,8.9886,0,0,1,56.931,100.4448ZM61.65,97.5094a1.6169,1.6169,0,0,0-.1874-.8655.9693.9693,0,0,0-1.6009-.2357,2.2262,2.2262,0,0,0-.6506,1.9457,1.3174,1.3174,0,0,0,.3406.7539.9091.9091,0,0,0,1.3064.071A2.2506,2.2506,0,0,0,61.65,97.5094Z"/><path class="bd9675a0-8aaa-4971-8591-c1c383492bc8" d="M13.7939,73.3982c-.13-.0407-.1745-.0416-.1987-.064a18.9142,18.9142,0,0,1-2.1182-2.0726c-.1385-.1751-.309-.3246-.4616-.4888A18.911,18.911,0,0,1,8.5186,67.48a3.2544,3.2544,0,0,1-.3939-1.2163,1.6381,1.6381,0,0,1,.1665-.87,2.1721,2.1721,0,0,1,1.2033-1.1863,5.6387,5.6387,0,0,1,2.1768-.4474c1.0649.003,2.13-.0118,3.1945.0194.6128.0179,1.2235.11,1.8349.1716.4634.0465.9283.0837,1.3893.1485.8482.1193,1.6943.2545,2.5408.3862.2186.0341.4354.08.633.1167a.2158.2158,0,0,1-.0321.32c-.3623.3506-.7322.6936-1.0918,1.0469q-.8179.8037-1.6254,1.6179c-.1185.1187-.2216.2529-.3408.3708a30.9045,30.9045,0,0,0-2.7743,3.292c-.4862.6375-.9608,1.2839-1.44,1.9263C13.903,73.2509,13.8475,73.326,13.7939,73.3982Z"/><path class="f8e057c2-63d6-421a-bb30-fa76c591f10d" d="M15.1671,97.1436a7.271,7.271,0,0,1,.65-3.1817,4.3526,4.3526,0,0,1,.7789-1.2245,2.4584,2.4584,0,0,1,3.8232.1223,4.85,4.85,0,0,1,1,2.2832,6.4427,6.4427,0,0,1-.1062,2.6684,13.1492,13.1492,0,0,1-.4661,1.612,3.4,3.4,0,0,1-1.036,1.5056,2.4578,2.4578,0,0,1-3.5526-.3038,3.573,3.573,0,0,1-.7322-1.2494A6.2763,6.2763,0,0,1,15.1671,97.1436Zm2.9872-2.3209a.7311.7311,0,0,0-1.06-.718,1.3177,1.3177,0,0,0-.5038,1.7386,1.0069,1.0069,0,0,0,.1382.174.6843.6843,0,0,0,1.1226-.1883A7.6645,7.6645,0,0,0,18.1543,94.8227Z"/><path class="a7918111-3be1-4e64-b5bf-4977355b39e2" d="M62.3151,82.08c0-.1656-.01-.3532.0018-.5394a1.6719,1.6719,0,0,1,1.579-1.528,2.9678,2.9678,0,0,1,1.8521.5347A12.37,12.37,0,0,1,68.2167,82.65a2.8914,2.8914,0,0,1,.7287,1.6093,3.1392,3.1392,0,0,1,.0007,1.1089,2.144,2.144,0,0,1-1.9291,1.6124,3.3239,3.3239,0,0,1-2.0777-.5294,5.1478,5.1478,0,0,1-1.7582-1.6185A4.46,4.46,0,0,1,62.3151,82.08Z"/><path class="e43a874d-a7bb-4765-bfc4-9e8f414b4a42" d="M17.6248,80.7819a3.14,3.14,0,0,1,.8163-2.0361,7.2746,7.2746,0,0,1,2.0643-1.7013,3.4,3.4,0,0,1,2.0371-.4893,1.6526,1.6526,0,0,1,1.3947.98,1.713,1.713,0,0,1,.0174,1.2605,3.4313,3.4313,0,0,1-.75,1.3008,12.5037,12.5037,0,0,1-1.7892,1.69,4.267,4.267,0,0,1-1.0283.5589,2.7106,2.7106,0,0,1-1.76.0065,1.467,1.467,0,0,1-1.0021-1.3463C17.6231,80.9314,17.6248,80.8566,17.6248,80.7819Z"/><path class="fbbbc4ed-5830-48b3-b8d4-658bfebb056e" d="M45.0461,99.3256a.3967.3967,0,0,1-.3461-.1448,11.671,11.671,0,0,0-2.31-1.657c-.9-.4944-1.8024-.9894-2.7341-1.4183a13.6884,13.6884,0,0,0-3.2963-1.0406,10.822,10.822,0,0,0-1.88-.2239,7.74,7.74,0,0,0-1.0532-.1c-.1841.0236-.3691.04-.5533.0626a1.9943,1.9943,0,0,1-.2193.039,11.7248,11.7248,0,0,0-3.1219.5539,10.3581,10.3581,0,0,0-3.1033,1.3749,6.538,6.538,0,0,0-1.0931.8662c-.1136.1212-.2245.2592-.4225.2327a1.3494,1.3494,0,0,1,.5711-.6679,11.2111,11.2111,0,0,1,4.0176-2.0227,17.2951,17.2951,0,0,1,2.2867-.5035,10.2427,10.2427,0,0,1,2.3958-.1341,17.3033,17.3033,0,0,1,3.8847.7294c.564.1912,1.1146.4237,1.6644.6539.4125.1728.8187.3623,1.22.561a20.4556,20.4556,0,0,1,3.5917,2.2565A1.1805,1.1805,0,0,1,45.0461,99.3256Z"/><path class="fbbbc4ed-5830-48b3-b8d4-658bfebb056e" d="M68.8357,114.3174c-.049.052-.0906.1361-.1484.1492a1.7842,1.7842,0,0,1-.3882.0263c-1.176.0014-2.352.0041-3.528-.0029a5.1673,5.1673,0,0,1-.6063-.071,1.4755,1.4755,0,0,0-.2206-.0307,12.4745,12.4745,0,0,1-2.046-.2131c-.9188-.1255-1.8336-.2611-2.7441-.4413-.8554-.1693-1.7114-.3248-2.5549-.5536-.3029-.0821-.6114-.15-.9147-.2385a.6971.6971,0,0,1-.4553-.38c-.1415-.2838-.2883-.5652-.4258-.8509a28.6449,28.6449,0,0,0-2.1676-3.6456c-.4382-.6454-.9216-1.26-1.39-1.8846-.08-.1065-.1691-.2-.1469-.3462a.6132.6132,0,0,1,.3863.3014c.698.9454,1.4035,1.8861,2.0239,2.8854.3542.57.6915,1.1517,1.0247,1.7348a9.0051,9.0051,0,0,1,.7293,1.4484.9569.9569,0,0,0,.785.6331c1.1115.2355,2.2132.5193,3.3275.74.8209.1625,1.6566.2491,2.4839.3813.7554.1208,1.519.1572,2.2767.24,1.3639.1486,2.7252.0558,4.087.0869C68.4274,114.29,68.6315,114.3065,68.8357,114.3174Z"/><path class="fbbbc4ed-5830-48b3-b8d4-658bfebb056e" d="M90.0482,106.6571c-.0438.24-.2647.3085-.4308.4061q-1.2513.7353-2.5221,1.4376c-.57.3168-1.1389.6383-1.7284.9152-.96.4509-1.9385.8623-2.9054,1.2989-1.325.5983-2.6958,1.0728-4.0673,1.55-1.1423.3976-2.3036.73-3.4641,1.0621-.98.28-1.984.4734-2.9788.6987a.4371.4371,0,0,1-.4248-.06c.1794-.2.4406-.1723.6679-.23.27-.0688.5508-.0943.8224-.1577a56.2364,56.2364,0,0,0,6.1226-1.7754c1.072-.3824,2.1469-.7591,3.185-1.2307,1.0707-.4864,2.153-.9484,3.2129-1.4572.7231-.347,1.4223-.7454,2.1213-1.14s1.382-.8155,2.076-1.218A1.4784,1.4784,0,0,1,90.0482,106.6571Z"/><path class="fbbbc4ed-5830-48b3-b8d4-658bfebb056e" d="M24.6934,98.0887c.0246.172-.0859.2759-.1912.3837a10.5382,10.5382,0,0,0-1.9809,2.8909,11.9712,11.9712,0,0,0-.9748,3.1918,15.8626,15.8626,0,0,0-.0977,2.2306c-.0139.5751-.1076.6556-.6553.7581a8.1455,8.1455,0,0,1-1.6135.1019,7.9816,7.9816,0,0,1-1.98-.2869c-.7534-.2036-1.4935-.463-2.2269-.7322a9.921,9.921,0,0,1-2.2742-1.3038c-.0653-.0462-.0844-.1576-.125-.2386a1.3061,1.3061,0,0,1,.2554.0919c.1749.107.343.2258.51.345a11.1091,11.1091,0,0,0,4.1771,1.6837,7.6983,7.6983,0,0,0,2.2188.2293c.4082-.03.8153-.0781,1.2216-.1291a.2758.2758,0,0,0,.2649-.3071c.01-.3736.01-.7477.0055-1.1216a9.7617,9.7617,0,0,1,.4968-3.0207,12.2983,12.2983,0,0,1,1.7548-3.4872,13.4162,13.4162,0,0,1,.8921-1.0745A1.3672,1.3672,0,0,1,24.6934,98.0887Z"/><path class="fbbbc4ed-5830-48b3-b8d4-658bfebb056e" d="M51.0624,105.7486a.5959.5959,0,0,1-.4031-.2795c-.4488-.5458-.89-1.0982-1.3335-1.648-.0235-.0291-.0486-.0568-.074-.0843q-.7014-.7605-1.4034-1.5206c-.1129-.1221-.258-.2259-.2289-.4243a1.443,1.443,0,0,1,.3217.2052c.5387.591,1.0693,1.1894,1.5979,1.79.2951.335.5829.6763.87,1.0177.2037.2417.406.485.5988.7352A.5716.5716,0,0,1,51.0624,105.7486Z"/><path class="fbbbc4ed-5830-48b3-b8d4-658bfebb056e" d="M93.0785,104.6331a.3975.3975,0,0,1-.21.309c-.7581.5026-1.5123,1.0111-2.2709,1.5129a.7048.7048,0,0,1-.4611.171.8536.8536,0,0,1,.1621-.21q1.3051-.8831,2.6195-1.7525A.4351.4351,0,0,1,93.0785,104.6331Z"/><path class="fbbbc4ed-5830-48b3-b8d4-658bfebb056e" d="M71.3061,113.9833a.2392.2392,0,0,1-.1963.1687c-.1444.0223-.2866.0606-.4315.078-.4534.0547-.9072.1078-1.3621.1487a.7882.7882,0,0,1-.2569-.0694c.076-.0428.1506-.12.2279-.1231a9.32,9.32,0,0,0,1.637-.222A1.4608,1.4608,0,0,1,71.3061,113.9833Z"/><path class="fbbbc4ed-5830-48b3-b8d4-658bfebb056e" d="M47.4689,101.5957a.6074.6074,0,0,1-.2016-.0815q-.4207-.4038-.8243-.8251a.6.6,0,0,1-.0805-.2018c.0686.0176.158.0132.2026.0558q.4347.4146.8495.85C47.457,101.4373,47.452,101.5269,47.4689,101.5957Z"/><path class="fbbbc4ed-5830-48b3-b8d4-658bfebb056e" d="M46.1672,100.3373c-.0707-.0133-.1653-.0021-.2083-.0439-.2752-.2677-.54-.546-.8049-.8241-.0217-.0228-.018-.07-.0261-.1053.0361.002.0828-.01.1067.0078A2.7056,2.7056,0,0,1,46.1672,100.3373Z"/><path class="fbbbc4ed-5830-48b3-b8d4-658bfebb056e" d="M96.7265,101.7011a.05.05,0,0,1-.0081.0831c-.1708.1411-.3453.2786-.5119.4252a.4246.4246,0,0,1-.3438.1517C96.0459,102.004,96.2606,101.6882,96.7265,101.7011Z"/><path class="fbbbc4ed-5830-48b3-b8d4-658bfebb056e" d="M95.6622,102.5049a.8979.8979,0,0,1-.6992.6407A1.0412,1.0412,0,0,1,95.6622,102.5049Z"/><path class="fbbbc4ed-5830-48b3-b8d4-658bfebb056e" d="M94.8782,103.1849a.6551.6551,0,0,1-.592.5193A.7478.7478,0,0,1,94.8782,103.1849Z"/><path class="fbbbc4ed-5830-48b3-b8d4-658bfebb056e" d="M12.4918,105.05a.639.639,0,0,1-.5916-.5259A.7782.7782,0,0,1,12.4918,105.05Z"/><path class="fbbbc4ed-5830-48b3-b8d4-658bfebb056e" d="M94.2037,103.7432a.4614.4614,0,0,1-.4769.4115A.5072.5072,0,0,1,94.2037,103.7432Z"/><path class="fbbbc4ed-5830-48b3-b8d4-658bfebb056e" d="M93.5277,104.2973a.2.2,0,0,1-.2447.1982A.21.21,0,0,1,93.5277,104.2973Z"/><path class="a2d3f5d6-9166-44e3-9103-d5d961cc720a" d="M34.6507,127.4348c-.0824-.1843-.1522-.3756-.25-.5515q-.3222-.581-.6695-1.1479c-.1049-.1712-.2379-.3252-.3579-.4869-.1066-.2958-.2056-.5948-.3215-.8872a13.3726,13.3726,0,0,1-.8457-3.5049,24.34,24.34,0,0,1-.1975-2.6072c.3827-.2319.7841-.4383,1.1446-.7008a7.6484,7.6484,0,0,0,2.1427-2.4884c.05-.0888.07-.2257.2515-.2009.14.2662.2875.5456.4345.8251a6.9725,6.9725,0,0,0,2.7049,2.85,7.65,7.65,0,0,0,2.7419.931A9.27,9.27,0,0,0,45.53,119.18a11.737,11.737,0,0,0,2.3983-1.0681c.0009.8586.0574,1.7216-.01,2.5748a15.9045,15.9045,0,0,1-.846,4.1,10.4277,10.4277,0,0,1-1.928,3.3236c-.1078.1256-.1934.27-.29.4059a2.9522,2.9522,0,0,0-.3818.2171c-.3789.2935-.75.5976-1.1216.9a.891.891,0,0,0-.1077.1258,2.7727,2.7727,0,0,0-.2982.1532,5.2013,5.2013,0,0,1-1.9562.776,5.3,5.3,0,0,1-2.3734-.0929,5.7313,5.7313,0,0,1-2.4265-1.33,12.5713,12.5713,0,0,1-1.0869-1.2668C34.9476,127.8139,34.8009,127.6229,34.6507,127.4348Z"/><path class="eb3211d2-7e7a-466c-a4a8-3a9e8e4d25f5" d="M33.0211,109.6547a13.4723,13.4723,0,0,1-3.9125-.6486,11.5813,11.5813,0,0,1-1.8329-.6911,5.0646,5.0646,0,0,1-2.7268-3.5117,3.4957,3.4957,0,0,1,.79-3.0958,4.9159,4.9159,0,0,1,2.5271-1.5808,13.4342,13.4342,0,0,1,6.0465-.3372,13.1034,13.1034,0,0,1,3.8385,1.366,4.3433,4.3433,0,0,1,.74.5044,4.1508,4.1508,0,0,1,1.5085,2.9641,2.9029,2.9029,0,0,1-.4111,1.6655,5.75,5.75,0,0,1-2.2173,2.2459,8.5674,8.5674,0,0,1-2.8425.9939C34.0328,109.6122,33.5239,109.6154,33.0211,109.6547Zm-3.107-7.0423a1.1477,1.1477,0,0,0-.7929-1.1031,1.6366,1.6366,0,0,0-1.81.5435.895.895,0,0,0,.0742,1.3015,2.0506,2.0506,0,0,0,.7923.3937,1.5132,1.5132,0,0,0,1.5018-.5186A1.0644,1.0644,0,0,0,29.9141,102.6124Z"/><path class="b73b3b10-ede5-46ba-ae35-43a689fa03a8" d="M47.928,118.1123A11.737,11.737,0,0,1,45.53,119.18a9.27,9.27,0,0,1-4.1008.2844,7.65,7.65,0,0,1-2.7419-.931,6.9725,6.9725,0,0,1-2.7049-2.85c-.147-.2795-.2943-.5589-.4345-.8251-.1814-.0248-.2015.1121-.2515.2009a7.6484,7.6484,0,0,1-2.1427,2.4884c-.36.2625-.7619.4689-1.1446.7008-.4539.108-.9028.25-1.3626.3177a5.7168,5.7168,0,0,1-3.923-.8248,5.5647,5.5647,0,0,1-1.6738-1.5541,2.9893,2.9893,0,0,1-.4714-1.011,1.0406,1.0406,0,0,1-.036-.3848.4952.4952,0,0,1,.8392-.3213,1.9181,1.9181,0,0,1,.3187.3875,4.89,4.89,0,0,0,2.75,2.0108,4.593,4.593,0,0,0,3.1808-.18,2.57,2.57,0,0,0,.5257-.3191,7.4846,7.4846,0,0,0,1.3048-1.2261q.9255-1.1273,1.8544-2.2516a2.3762,2.3762,0,0,1,.1839-.2111.28.28,0,0,1,.4711.0575c.3187.5062.6572,1.003.9341,1.5317a10.8879,10.8879,0,0,0,2.1044,2.608,2.1433,2.1433,0,0,0,.5516.3794,6.5373,6.5373,0,0,0,3.642.681,9.7623,9.7623,0,0,0,3.6079-1.1525,4.9643,4.9643,0,0,0,.568-.3593,16.8458,16.8458,0,0,0,2.3-1.9637c.3118-.3214.6435-.6253.9839-.9165a2.9254,2.9254,0,0,1,.6083-.3954c.2748-.1349.4873.0354.4457.3393a3.4651,3.4651,0,0,1-.64,1.5407,10.6108,10.6108,0,0,1-2.6589,2.7067C48.2477,117.8531,48.0908,117.9871,47.928,118.1123Z"/><path class="f8833cad-7cda-40ab-8c75-200a09d96f1b" d="M61.65,97.5094a2.2506,2.2506,0,0,1-.7919,1.6694.9091.9091,0,0,1-1.3064-.071,1.3174,1.3174,0,0,1-.3406-.7539,2.2262,2.2262,0,0,1,.6506-1.9457.9693.9693,0,0,1,1.6009.2357A1.6169,1.6169,0,0,1,61.65,97.5094Z"/><path class="fe5c0bd4-96a9-46a9-bc01-8d495fa909a0" d="M18.1543,94.8227a7.6645,7.6645,0,0,1-.303,1.0063.6843.6843,0,0,1-1.1226.1883,1.0069,1.0069,0,0,1-.1382-.174,1.3177,1.3177,0,0,1,.5038-1.7386A.7311.7311,0,0,1,18.1543,94.8227Z"/><path class="ab8d050e-c297-4c9a-bcd9-809ee6ca4ad9" d="M29.9141,102.6124a1.0644,1.0644,0,0,1-.2347.617,1.5132,1.5132,0,0,1-1.5018.5186,2.0506,2.0506,0,0,1-.7923-.3937.895.895,0,0,1-.0742-1.3015,1.6366,1.6366,0,0,1,1.81-.5435A1.1477,1.1477,0,0,1,29.9141,102.6124Z"/></g></g></svg>