<svg xmlns="http://www.w3.org/2000/svg" width="53.8306mm" height="55.7322mm" viewBox="0 0 152.5906 157.981"><defs><style>.e1f1c672-764d-4d25-8621-b1daedaa000b{fill:#edab25;}.b2f842a4-4d72-47e6-82ce-43b9b430eb40{fill:#e25c27;}.ad36f551-cbd7-4638-ad3b-236ac9f648b5{fill:#ecab26;}.b4cdbc4f-82a2-4bce-a41c-f4fd9f6b6762{fill:#294d34;}.ec6f15ae-940e-4b18-8945-6b27d16fcab4{fill:#284b33;}.b71d9552-9cbc-4865-8b98-f37ae97cc474{fill:#2b4d34;}.a1dab18f-ea6e-4cd0-a635-3d638f819bf2{fill:#eca125;}.a0ad3a60-4ae2-4b4b-8577-21c555d4aae6{fill:#ffe9be;}.b57ffb57-0b27-4c97-b555-5d25db22ce2a{fill:#eca026;}.aae8c6c1-6770-4513-b8a6-fbb6ff2ca4e0{fill:#ec9d25;}.f737fc1f-26ce-4ba4-b79f-0abbaeef0cb7{fill:#f0a67b;}.adadb7d1-96f4-4d84-923b-7417fa0e93a9{fill:#ffe9bf;}.b862cb69-5744-4672-9b6f-ce9bfc8b6e3d{fill:#1c4d38;}.bf2146c1-edb2-45c8-8e71-c2a1c114c21c{fill:#1b4d38;}.a5cdaa6b-c3bf-4bf4-9ac1-b3762bdfe777{fill:#eca025;}.ae26c905-b357-45cb-9aa7-42a2e973b4aa{fill:#d19f28;}.b9c767c9-dd4a-4c04-97ef-f2799173678d{fill:#ffeabf;}.fb61481c-bb36-47ee-973d-da30ca14eed9{fill:#ffe9bd;}.a1a602ab-3381-4a0b-9b06-0828a0c25d4c{fill:#e25d28;}.bdd36ddd-3b40-4262-a6ac-c5c6ecdad6bc{fill:#184d3b;}.b24f005c-af53-40b4-b5fe-a68541326769{fill:#23513d;}.ffab58d1-db02-410a-b9d3-18790082c510{fill:#f7e7bd;}.addae359-e53e-4d81-bf6c-c8619d18e0b2{fill:#f4e5bc;}.b5f7d9c8-705a-4c9e-bff8-364955e3ffd4{fill:#e35d27;}</style></defs><g id="b44a9d5d-af49-4a10-8899-7007137b06f7" data-name="Calque 2"><g id="e8344e56-7997-484a-90d3-23bc6cac6f74" data-name="Calque 4"><path class="e1f1c672-764d-4d25-8621-b1daedaa000b" d="M136.8378,54.27a1.7716,1.7716,0,0,1,.0572.9224,17.8019,17.8019,0,0,1-.248,2.1557,11.0286,11.0286,0,0,0-.1366,1.8135,28.56,28.56,0,0,1-.3221,2.9161c-.1427,1.0078-.368,1.9985-.5655,2.9947A22.9445,22.9445,0,0,1,135,67.5754c-.1839.5775-.3109,1.1735-.503,1.7479-.3845,1.15-.7577,2.307-1.2071,3.4324-.5151,1.29-1.0637,2.57-1.6791,3.8148-.6414,1.2969-1.3572,2.5589-2.0831,3.8114-.5384.9291-1.1238,1.833-1.7278,2.7214-.5047.7424-1.0637,1.4481-1.6041,2.166-.4.5309-.8028,1.06-1.2148,1.5809-.2426.3069-.5.6027-.76.895-.7154.8035-1.396,1.6376-2.1761,2.3838-.438.419-.8331.8828-1.2485,1.3255-.16.1711-.3236.34-.4854.51-.346-.017-.6185.07-.6694.472-.0631.1638-.2567.2618-.2363.4679a1.2778,1.2778,0,0,1-.6943.5963.4743.4743,0,0,0-.483.459.4129.4129,0,0,1-.102.0137.6646.6646,0,0,0-.6046.5771l-.2168.13a.6587.6587,0,0,0-.6067.5735.3865.3865,0,0,1-.1009.0142.2087.2087,0,0,0-.2512.2267l-.3413.2418a1.5624,1.5624,0,0,0-.8153.5813c-.022.0233-.015.074-.0215.1119l-.2226.1307c-.3415.0637-.6449.1751-.7194.5737l-.4514.2537a.2094.2094,0,0,0-.2554.22l-.2211.13a.7012.7012,0,0,0-.6011.4615.3439.3439,0,0,1-.1.0123.2078.2078,0,0,0-.2535.2216.3808.3808,0,0,1-.1019.0124.2084.2084,0,0,0-.2511.2237.35.35,0,0,1-.0991.0135.3212.3212,0,0,0-.3739.3247l-.3352.1444c-.2217.0266-.4409.0567-.4871.337a.4583.4583,0,0,1-.1042.0144.2092.2092,0,0,0-.2489.2212.514.514,0,0,1-.1077.0123.21.21,0,0,0-.2455.2226.49.49,0,0,1-.1072.013.2089.2089,0,0,0-.2475.2089l-.4424.154a.2054.2054,0,0,0-.2615.2176.3259.3259,0,0,1-.1006.0122c-.2242.0247-.4439.0557-.4881.3392a.4239.4239,0,0,1-.104.0117.2086.2086,0,0,0-.2505.2135l-.22.0221c-.2193.0282-.4372.0585-.4856.3347a.4634.4634,0,0,1-.1052.0173c-.2884.0038-.2884.0038-.365.223a.383.383,0,0,1-.1021.0142.2078.2078,0,0,0-.2526.2078l-.2142.0305c-.2946-.0034-.2946-.0034-.372.2224a.3542.3542,0,0,1-.1015.011c-.263.1-.5279.1953-.7867.305-.0337.0143-.0363.1019-.0533.1556a.3388.3388,0,0,1-.1.0109.2068.2068,0,0,0-.2554.2051l-.217.03a1.0048,1.0048,0,0,0-.6886.223c-.07.0424-.1033.145-.1534.22l-.2122.03a.2051.2051,0,0,0-.2592.1989l-.2182.0326a12.1231,12.1231,0,0,0-1.8561.6921c-.0715.027-.1085.1456-.1615.2217l-.2207.0269c-.1653-.0073-.3376-.0271-.3679.2064l-.3256.0365c-.2873.0838-.5769.16-.86.2578-.0512.0177-.0734.1194-.109.1823l-.2193.0243a2.5066,2.5066,0,0,0-1.0115.2935c-.0357.0144-.0435.0979-.0642.1493l-.33.0323a1.23,1.23,0,0,0-.29.0172c-.5022.1518-1.0027.3093-1.4993.4781-.0538.0183-.0787.1213-.1171.1851l-.3285.027c-.29-.01-.29-.01-.3784.2025l-.444.0339c-.2909-.0117-.2909-.0117-.38.202l-.2353.0136a.55.55,0,0,0-.2018-.0627,4.5154,4.5154,0,0,1-1.02.1629c.0483-.17.2062-.2283.3309-.3177.62-.4441,1.2477-.8773,1.8617-1.3293a17.25,17.25,0,0,0,1.9208-1.6368,22.315,22.315,0,0,0,1.9023-2.0014c.423-.5382.898-1.0387,1.2878-1.5992a22.0714,22.0714,0,0,0,2.426-4.3541,19.3385,19.3385,0,0,0,1.2818-4.4452,4.35,4.35,0,0,1,.205-.8522,2.0258,2.0258,0,0,0,.1243-.688c.0057-.9607.0168-1.9214.0123-2.8821a2.7505,2.7505,0,0,0-.21-1.3791.7416.7416,0,0,1-.04-.23,22.5859,22.5859,0,0,0-.6873-2.97,20.7321,20.7321,0,0,0-1.7776-4.15A26.8088,26.8088,0,0,0,98.8062,74.87,20.6216,20.6216,0,0,0,96.59,72.5192c-.6-.56-1.2289-1.0914-1.8628-1.6138-.3609-.2975-.76-.5482-1.138-.8258a23.2193,23.2193,0,0,0-3.193-1.9775c-.2445-.1248-.4858-.2563-.7345-.372-.7628-.3548-1.5136-.7414-2.2962-1.046A30.485,30.485,0,0,0,83.35,65.3653a.5655.5655,0,0,1-.45-.4116c-.1483-.4854-.3115-.9663-.4552-1.4529-.1882-.6371-.35-1.2823-.5482-1.916-.1863-.5952-.43-1.1728-.6048-1.771-.2963-1.0154-.7-1.9916-1.069-2.9791-.4317-1.1541-.9283-2.2838-1.3857-3.4284a20.1259,20.1259,0,0,0-2.1181-3.9842,4.0858,4.0858,0,0,0-2.071-1.4659,2.5865,2.5865,0,0,0-2.3573.3295,4.7425,4.7425,0,0,0-1.2972,1.2624,17.1175,17.1175,0,0,0-1.8368,3.4081c-.4122.9913-.7729,2.005-1.1312,3.0176-.2408.6805-.4469,1.3739-.6517,2.0664-.2218.75-.4275,1.5042-.6337,2.2584-.18.66-.367,1.3186-.5228,1.9844-.1915.8181-.3613,1.6415-.5253,2.4656a.78.78,0,0,1-.6391.6729,22.7132,22.7132,0,0,0-3.0729.989c-.8531.3439-1.7151.6722-2.5435,1.0692-.8467.4056-1.6639.875-2.4826,1.3366a24.2631,24.2631,0,0,0-4.3116,3.14,26.6086,26.6086,0,0,0-2.5839,2.6494,23.3817,23.3817,0,0,0-1.97,2.7008,21.8441,21.8441,0,0,0-2.1512,4.56,22.8784,22.8784,0,0,0-.7726,3.0709,13.2486,13.2486,0,0,0-.2587,2.918c.018.529.008,1.0588.0154,1.5882a2.96,2.96,0,0,0,.0342.468q.1973,1.126.4081,2.25a17.3913,17.3913,0,0,0,1.2736,3.9611,22.0974,22.0974,0,0,0,2.2384,3.9236,19.3271,19.3271,0,0,0,1.5263,1.9335c.4825.5112.9468,1.0389,1.4692,1.5155.6512.5941,1.2806,1.21,1.9881,1.74a1.5046,1.5046,0,0,1,.2232.2647c-.1352.1678-.2971.1142-.4647.0628-.3232-.0991-.6487-.1905-.9733-.2851l-.3269-.03c-.0355-.063-.0576-.1649-.1088-.1825-.2827-.0973-.5725-.1741-.86-.2579l-.3254-.0352a.2046.2046,0,0,0-.2629-.2l-.3257-.0349c-.0117-.16-.13-.225-.2558-.2779-.4743-.2-.9479-.4016-1.4265-.5907a1.37,1.37,0,0,0-.3361-.044l-.2175-.033a.2058.2058,0,0,0-.2573-.2l-.214-.0313c-.0277-.2322-.1993-.2149-.3639-.21l-.6951-.2614a.2069.2069,0,0,0-.2559-.2043l-.215-.0311c-.02-.0521-.0245-.126-.0624-.1527a1.1937,1.1937,0,0,0-.6628-.2878l-.2165-.0287a.207.207,0,0,0-.2534-.2072l-.2173-.0293a.2073.2073,0,0,0-.2542-.2058.35.35,0,0,1-.1007-.014.2052.2052,0,0,0-.2618-.2154l-.2081-.027c-.05-.2765-.2675-.3071-.4886-.332l-.217-.0268a.2091.2091,0,0,0-.2479-.2121.5232.5232,0,0,1-.1065-.0124c-.0458-.2808-.2648-.3117-.4873-.3376a.3626.3626,0,0,1-.1013-.0149.2052.2052,0,0,0-.2616-.2144l-.5625-.255a1.0652,1.0652,0,0,0-.8378-.5763.4314.4314,0,0,1-.1036-.0138c-.07-.3236-.3315-.3281-.5826-.35l-.0034-.004a.7067.7067,0,0,0-.607-.4551.3668.3668,0,0,1-.1021-.0125.694.694,0,0,0-.606-.4572l-.3336-.1443a.3235.3235,0,0,0-.37-.3282l-.219-.1318c-.045-.2791-.2645-.31-.4843-.3406l-.2232-.13c-.0794-.3932-.3706-.5208-.7207-.5745l-.221-.1315c-.0358-.0857-.048-.2-.1113-.2523q-.5275-.4361-1.0789-.8429a.7264.7264,0,0,0-.2712-.0617,16.4811,16.4811,0,0,0-2.0706-1.904,10.83,10.83,0,0,1-.9162-.8274c-.7948-.7843-1.5808-1.5777-2.3689-2.3688-.2906-.2917-.5891-.5767-.8638-.8828-.6409-.7143-1.2842-1.4274-1.8993-2.1639-.59-.706-1.1693-1.4229-1.7094-2.167-.7924-1.0917-1.5889-2.1821-2.2922-3.3359-.3972-.6517-.8228-1.2872-1.1956-1.9524-.824-1.47-1.6093-2.96-2.31-4.4959-.4969-1.0889-.938-2.1988-1.3756-3.31-.3084-.7831-.5688-1.5868-.814-2.3924-.2735-.8986-.4888-1.8149-.76-2.7144a35.8512,35.8512,0,0,1-.8439-3.9007,31.6072,31.6072,0,0,1-.474-3.3718c-.0875-1.1921-.2123-2.3829-.2593-3.5775-.0323-.8226-.0085-1.6475-.0037-2.4713a2.17,2.17,0,0,1,.0564-.3439l.1466-.0917c.4363.3855.8734.77,1.3074,1.1581a.6653.6653,0,0,1,.0954.1453.9057.9057,0,0,0,.72.6967l.458.3622a.3239.3239,0,0,0,.3653.3443l.2221.1309a.3212.3212,0,0,0,.3714.3366l.57.37a.32.32,0,0,0,.3727.3349.3731.3731,0,0,1,.0991.0142.2082.2082,0,0,0,.25.2242l.5737.3671a.2133.2133,0,0,0,.2437.2266l.2278.1235a.2092.2092,0,0,0,.2475.2257l.5741.3723a.3236.3236,0,0,0,.3709.3316.438.438,0,0,1,.1019.0132.2087.2087,0,0,0,.2488.2238l.9272.6043a.2087.2087,0,0,0,.2517.2184l1.0437.6027c.0436.2821.2647.31.4854.3394l.217.0379a.21.21,0,0,0,.2526.1983l.576.2467a.323.323,0,0,0,.3264.34c.2913.01.5833.01.8746.0007a.3246.3246,0,0,0,.3314-.336l.2081-.0238a.2048.2048,0,0,0,.2639-.1985c.241-.0192.3092-.2591.4761-.373.0542-.02.1413-.0256.1578-.0625a6.2041,6.2041,0,0,0,.6583-2.3466c.0111-.3908.0157-.782.0373-1.1723.0127-.2322.0713-.4624.0766-.6942.012-.5289.0034-1.0582.0044-1.5874a1.3719,1.3719,0,0,1,.013-.4094,5.1635,5.1635,0,0,0,.1076-1.3392,13.23,13.23,0,0,1,.1484-1.5689,5.2432,5.2432,0,0,0,.0837-.87,3.2464,3.2464,0,0,1,.0806-.7537,4.5345,4.5345,0,0,0,.1437-1.0972,8.299,8.299,0,0,1,.1394-1.2185c.0223-.1536.08-.3021.1023-.4557.0908-.6155.1235-1.2448.2739-1.8449a12.3738,12.3738,0,0,1,.415-1.9975.8456.8456,0,0,0,.0212-.1741c.0358-.1907.062-.3844.1157-.57a2.1459,2.1459,0,0,0,.1256-.6881.9939.9939,0,0,1,.06-.343,2.3472,2.3472,0,0,0,.1764-.9149.5142.5142,0,0,1,.0452-.2278c.239-.5628.1811-1.1923.4072-1.7611a3.1153,3.1153,0,0,0,.2261-.9032,13.1377,13.1377,0,0,1,.3442-1.5366c.0963-.4965.2511-.9818.3831-1.4712.2081-.7711.4116-1.5437.6305-2.3117.1708-.599.3677-1.1906.543-1.7883.2029-.6923.3848-1.3909.5948-2.081.1756-.5766.3876-1.1421.5672-1.7175.2611-.8367.4936-1.6825.7643-2.5159.265-.8161.5677-1.62.8435-2.4325.1186-.3492.2086-.708.3163-1.061.1422-.4667.27-.9388.4376-1.3965.3815-1.0446.6864-2.114,1.0385-3.1681.2957-.8853.4946-1.8029.737-2.7061.1867-.6958.3639-1.3945.5664-2.0858a2.7982,2.7982,0,0,0,.1433-.9791c.7139-.4441,1.4256-.8919,2.1428-1.3307.384-.2349.77-.468,1.1681-.6781.9181-.4849,1.8366-.97,2.7684-1.4275,1.02-.5008,2.0427-.9977,3.0857-1.4467,1.079-.4646,2.1847-.8669,3.2768-1.3012,1.4214-.5651,2.8865-1.0005,4.3466-1.4478.804-.2462,1.635-.4036,2.4406-.6451.8463-.2537,1.71-.4182,2.5721-.5981.8813-.1841,1.7593-.3945,2.6485-.5275,1.3361-.2,2.6806-.3425,4.0218-.508.35-.0432.7-.0884,1.0515-.1184.4874-.0417.976-.0693,1.4639-.104Q72.1775.1793,73.5257.0819a25.911,25.911,0,0,1,4.23.0092c.9567.0873,1.9115.1818,2.8736.1916.3906.004.7815.0466,1.1708.0856.8.08,1.5991.16,2.3965.2573Q85.5381.79,86.8748.9889c.464.0689.9241.1662,1.3837.2614,1.0549.2184,2.12.3994,3.1594.6765,1.3423.358,2.7078.6375,4.0175,1.1147.11.04.2285.055.34.09,1.738.5478,3.4631,1.1322,5.14,1.8505,1.1164.4783,2.2395.9423,3.3427,1.4495.8361.3844,1.6457.8265,2.4665,1.2439.0522.0266.0978.0666.15.0921a40.8644,40.8644,0,0,1,3.87,2.2235c.78.4881,1.5375,1.0118,2.3049,1.5194l.124.1794a.1953.1953,0,0,0-.0629.2536c.5206,1.63.8217,3.3235,1.441,4.9272.2369.6135.3759,1.2646.5637,1.8973.0665.2242.1394.447.2206.6663.0476.1288.1139.253.2782.2673l.0156.236c-.0254.0492-.0827.1076-.0716.1461.1673.5782.3473,1.1521.5073,1.7329.1706.62.4247,1.2163.631,1.8269.2055.6082.3961,1.2215.5949,1.832.1146.3523.2372.7021.3476,1.0556.1848.5922.3607,1.1871.5451,1.7794.04.13.1125.25.15.3807.2226.7676.4383,1.5372.6586,2.3054.1018.3547.2215.7048.3107,1.0626.16.6421.3406,1.279.5021,1.9207.1412.5611.2945,1.1256.4773,1.6742.2723.8178.3188,1.6868.623,2.493a1.0919,1.0919,0,0,1,.0269.1732c.0446.2286.0852.4582.1377.685.1055.4549.2594.9029.3187,1.3634.1222.9478.3382,1.8772.5361,2.8078.2713,1.2755.5088,2.5525.676,3.8464.0771.5969.1931,1.186.2426,1.7909a19.2,19.2,0,0,1,.2146,1.9107,1.53,1.53,0,0,0,.0359.2306c.0265.1923.0554.3844.0753.5773a1.7073,1.7073,0,0,0,.028.4076,2.7373,2.7373,0,0,1,.0919.9289,1.6037,1.6037,0,0,0,.024.4667,2.9784,2.9784,0,0,1,.0922.9877c.0032.5682.0007,1.1363.0015,1.7045a1.3869,1.3869,0,0,0,.011.4094,6.1658,6.1658,0,0,1,.1107,1.5148,11.4789,11.4789,0,0,0,.1512,1.2148,3.2659,3.2659,0,0,0,.2256.6648c.0235.0564.12.0822.1837.1221l.1456.577a.211.211,0,0,0,.2291.2451l.3526.2547c.0178.1619.1123.2206.2669.1987l.2058.02a.3229.3229,0,0,0,.3263.3408c.2916.01.584.01.8756.0006a.3242.3242,0,0,0,.33-.3375l.6777-.2585a.2046.2046,0,0,0,.2647-.2055c.2052-.1251.4072-.2559.617-.3727a2.1757,2.1757,0,0,1,.3123-.1178.3346.3346,0,0,0,.3605-.2362l-.003.0016a.2091.2091,0,0,0,.2434-.2164.52.52,0,0,1,.1065-.0191.21.21,0,0,0,.2467-.2154l1.631-1.0823a.3235.3235,0,0,0,.37-.3323.5136.5136,0,0,1,.105-.0185.21.21,0,0,0,.247-.2244l.2208-.13a.3238.3238,0,0,0,.3689-.332.5287.5287,0,0,1,.1066-.0184.2106.2106,0,0,0,.2456-.2235,3.2355,3.2355,0,0,1,.9231-.6052.3214.3214,0,0,0,.3716-.3372c.133-.1079.2616-.2218.4006-.3214a2.6575,2.6575,0,0,1,.294-.1614.3255.3255,0,0,0,.3644-.3455l.342-.2428a.477.477,0,0,0,.4826-.4616A1.0427,1.0427,0,0,1,136.8378,54.27Zm-38.626,8.0187-.0076.0074a.614.614,0,0,0-.5373.2961,6.4866,6.4866,0,0,0-1.2213,2.3808,7.9953,7.9953,0,0,0-.0853,2.1575.1576.1576,0,0,0,.0174.0559,14.157,14.157,0,0,0,.6112,1.4573A4.0881,4.0881,0,0,0,98.4122,70.32c.269.159.5387.3168.8028.4836a4.0637,4.0637,0,0,0,1.6615.5339,4.8052,4.8052,0,0,0,1.6331-.0437,5.4962,5.4962,0,0,0,2.2133-1.0123,3.7661,3.7661,0,0,0,1.1408-1.2435,8.3953,8.3953,0,0,1,.6292-1.1237,2.1605,2.1605,0,0,0,.2668-.934c.0048-.0233-.045-.058-.0694-.0874l-.0008-1.5257c.0146-.0129.04-.0243.0421-.0389a2.0407,2.0407,0,0,0-.1089-.7783c-.1579-.29-.3233-.5752-.4764-.8672a4.6508,4.6508,0,0,0-1.6871-1.8838c-.4474-.2715-.9295-.4869-1.402-.7152a.509.509,0,0,0-.5967.03l-1.7734-.0022a.5307.5307,0,0,0-.5937-.0322c-.32.1322-.642.2618-.9513.4164a6.6206,6.6206,0,0,0-.69.4188A.4642.4642,0,0,0,98.2118,62.2891ZM48.9067,61.1119l-1.7732.0023A.63.63,0,0,0,46.42,61.1c-.2085.1075-.4036.2441-.6185.335a4.908,4.908,0,0,0-2.0091,1.6544,10.4116,10.4116,0,0,0-.8165,1.5531.5094.5094,0,0,0,.0255.6019l-.0025,1.7735a.4964.4964,0,0,0-.0477.55,4.1835,4.1835,0,0,0,.1826.4317,6.2926,6.2926,0,0,0,1.18,1.7958,5.6321,5.6321,0,0,0,1.73,1.1755,4.45,4.45,0,0,0,1.3473.3773,4.6332,4.6332,0,0,0,2.2522-.2434,5.8916,5.8916,0,0,0,.7434-.3327,4.623,4.623,0,0,0,1.6772-1.327,6.9322,6.9322,0,0,0,.9854-1.8516,5.2606,5.2606,0,0,0,.0079-2.8826,4.8624,4.8624,0,0,0-.941-1.8064A5.7989,5.7989,0,0,0,51.02,61.8511a9.25,9.25,0,0,0-1.5116-.7655A.5162.5162,0,0,0,48.9067,61.1119Z"/><path class="e1f1c672-764d-4d25-8621-b1daedaa000b" d="M119.9831,92.6593c1.0169-.5431,2.0671-1.017,3.1305-1.4583.5943-.2467,1.2143-.4321,1.8252-.6378.2761-.0929.5429-.2041.83-.2775.721-.1845,1.4544-.2959,2.1787-.4522a18.4692,18.4692,0,0,1,4.5681-.1819,8.7138,8.7138,0,0,1,1.6093.32,6.6145,6.6145,0,0,1,2.26,1.0874A5.3928,5.3928,0,0,1,137.5616,92.2a5.9671,5.9671,0,0,1,1.048,1.9564,5.08,5.08,0,0,1,.3406,1.8362c-.02.2729-.0065.5487-.004.8231a2.8688,2.8688,0,0,1-.1376.9242c-.12.37-.1943.7532-.32,1.1249a9.7346,9.7346,0,0,1-.6373,1.5075,21.4184,21.4184,0,0,1-1.1749,1.9639,27.1849,27.1849,0,0,1-2.89,3.4755c-.5429.5638-1.0723,1.1419-1.6377,1.6823-.7784.7439-1.58,1.4643-2.3818,2.183-.4811.431-.9772.8459-1.4761,1.2564q-.9068.7459-1.83,1.4715c-.677.533-1.3558,1.064-2.0452,1.5809-1.0334.7748-2.0678,1.5486-3.1539,2.25-.296.1913-.5767.4061-.871.6a4.3181,4.3181,0,0,1-.409.2134l-.102.0738-.0209.03-.0359-.0067a6.9567,6.9567,0,0,0-1.88.4276,22.5724,22.5724,0,0,0-2.684,1.0233,9.6749,9.6749,0,0,0-2.3659,1.3954,11.1989,11.1989,0,0,1-.9919.82,11.8244,11.8244,0,0,0-1.4865,1.2345,26.369,26.369,0,0,0-3.43,3.9224,25.9708,25.9708,0,0,0-2.4261,4.2807c-.056.1214-.43,1.0388-.4533,1.0913a11.3671,11.3671,0,0,0-.7354,2.71c-.045.27-.0341.55-.0953.815a4.28,4.28,0,0,0-.0474,1.2858,1.5588,1.5588,0,0,0,.201.6035.4325.4325,0,0,0,.6547.1444.9293.9293,0,0,0,.4294-.6058c.0538-.2685.1009-.5384.16-.8056a20.2578,20.2578,0,0,1,.8519-2.9886,24.961,24.961,0,0,1,2.1395-4.1732c.4676-.7464.9838-1.4576,1.5111-2.1638a26.0668,26.0668,0,0,1,4.2343-4.3782,23.5827,23.5827,0,0,1,2.572-1.8482c.3452-.2172.6853-.4425,1.0278-.6642a5.7626,5.7626,0,0,1,1.1221-.4762,7.3569,7.3569,0,0,1,1.1745-.3508,10.55,10.55,0,0,1,2.07-.3675,4.54,4.54,0,0,0,.5259-.0508,6.8322,6.8322,0,0,1,1.9329.0024c.1161.0173.2329.0343.35.0413a7.1241,7.1241,0,0,1,2.7848.8275,8.5237,8.5237,0,0,1,2.7465,2.2551,13.1268,13.1268,0,0,1,1.3573,2.052,21.0521,21.0521,0,0,1,1.1075,2.5783c.1535.3979.2458.8193.3658,1.23.0767.2773.3,1.2983.3846,1.6714.0463.2489.1477.8475.17,1.1142.0391.21.0265.6343.0494.7446.0419.3179-.1241,3.3042-.1239,3.6978-.0853-.02-.282-.4939-.3673-.5138-.1878-.4916-.9635-2.3173-1.1153-2.1853a.9642.9642,0,0,0-.8069.26,2.6183,2.6183,0,0,0-.9383,2.3982,1.3428,1.3428,0,0,0,.93,1.1776,1.3134,1.3134,0,0,0,1.4512-.3292,2.091,2.091,0,0,0,.6378-1.0912l.2088.2839-.0725.801a7.124,7.124,0,0,1-.0916.8866,25.7284,25.7284,0,0,1-.7744,3.3631c-.1757.5171-.3254,1.0433-.51,1.5569a20.5328,20.5328,0,0,1-1.5665,3.4023,17.4083,17.4083,0,0,1-1.6819,2.4021,15.42,15.42,0,0,1-1.2723,1.3823,21.59,21.59,0,0,1-4.1026,3.0229c-.8863.5039-1.8093.9232-2.731,1.3472a13.82,13.82,0,0,1-1.4892.5256c-.4453.1456-.8912.2963-1.3468.4018a9.99,9.99,0,0,1-1.7268.3213c-.4884.0256-.9737.1076-1.462.14a7.1529,7.1529,0,0,1-.994-.0032c-.4491-.0326-.8987-.0795-1.3427-.1528a6.944,6.944,0,0,1-1.0822-.261,13.9593,13.9593,0,0,1-1.3049-.523,7.8887,7.8887,0,0,1-2.206-1.5349c-.3876-.3727-.5022-.3882-.9721-.128-1.4688.8133-2.9441,1.6164-4.477,2.3028a22.5139,22.5139,0,0,1-3.7264,1.391c-.72.18-1.4256.4152-2.1454.5949-.5111.1275-1.0352.203-1.5533.3031-.3265.063-.652.1308-.9788.1923-.2117.04-.425.072-.6375.1081-.2307.0391-.4617.0772-.6919.1189-.135.0244-.2677.0688-.4034.0808-.8381.0739-1.6756.168-2.5156.2037-1.0768.0459-2.1558.06-3.2339.0572-1.4507-.0032-2.9024-.0088-4.3517-.0645-.8393-.0323-1.677-.1368-2.5154-.2056-.8347-.0685-1.6587-.2661-2.4878-.4043-.6752-.1126-1.3523-.214-2.026-.3341-.4039-.072-.804-.1669-1.2037-.26a.7519.7519,0,0,1-.1962-.1174,20.4558,20.4558,0,0,0-.14-2.05c-.0884-.5783-.0771-1.1714-.1252-1.7567-.024-.2916-.0875-.58-.1242-.8707-.0782-.621-.1659-1.2413-.222-1.8644a22.5361,22.5361,0,0,0-.5024-2.89c-.38-1.7-.7638-3.4-1.2641-5.07a20.6082,20.6082,0,0,0-1.3137-3.393c-.1853-.367-.3536-.7427-.5255-1.1163a19.8511,19.8511,0,0,0-1.3834-2.5229,4.0191,4.0191,0,0,0-.6671-.7387.7237.7237,0,0,0-.8291-.0767.6555.6555,0,0,0-.3967.72,1.7662,1.7662,0,0,0,.151.498c.087.1961.2172.3731.3033.57.4318.9861.8629,1.9727,1.28,2.9652a36.0684,36.0684,0,0,1,1.4611,3.9667,32.6047,32.6047,0,0,1,.8437,3.4175c.0908.52.2011,1.0365.2946,1.556.128.7118.289,1.421.3623,2.1388.1012.9919.235,1.98.292,2.9789a19.56,19.56,0,0,1-.0818,3.2243c-.1422.1827-.2715.3775-.4289.546a7.5671,7.5671,0,0,1-2.814,1.97,7.9882,7.9882,0,0,1-4.666.4525c-.6683-.1467-1.3389-.276-1.9984-.4634a15.1121,15.1121,0,0,1-2.28-.92,16.1971,16.1971,0,0,1-3.2275-2.026,15.4576,15.4576,0,0,1-2.1484-2.0818c-.392-.4632-.8141-.9009-1.2129-1.3585-.231-.265-.4427-.5468-.6631-.8211a1.5053,1.5053,0,0,0-.1143-.2668c-.219-.3244-.4616-.6336-.669-.965q-1.0295-1.6446-2.0391-3.3017c-1.3652-2.2456-2.6186-4.5534-3.8029-6.8986-.5741-1.1367-1.1494-2.2737-1.6848-3.4287-.5108-1.1018-.9858-2.221-1.4486-3.3441-.4852-1.1771-.9721-2.3556-1.3943-3.556-.4413-1.255-.8119-2.5352-1.203-3.8075a17.6717,17.6717,0,0,0-.8438-2.5005.4333.4333,0,0,0,.1035-.432c-.0566-.2268-.0879-.46-.1263-.6911-.0609-.3661-.1231-.7321-.1762-1.0994-.0392-.2711-.079-.5435-.093-.8166a7.863,7.863,0,0,0-.158-1.28,4.4314,4.4314,0,0,1-.0923-.8741,16.09,16.09,0,0,0-.1406-1.99,9.341,9.341,0,0,1-.0776-1.2291c-.0092-1.4495-.0163-2.8993.0017-4.3487.0067-.5462.0827-1.0917.13-1.6373.02-.2337.06-.4665.0667-.7a5.6477,5.6477,0,0,1,.1919-1.6275.3936.3936,0,0,0,.022-.1151,14.5512,14.5512,0,0,1,.3191-2.2647,10.9805,10.9805,0,0,1,.449-2.1751c.0831.037.1658.0747.2494.1106.1.0428.2.0841.3.126l.361.459a.2109.2109,0,0,0,.2269.2479l.24.345a.3294.3294,0,0,0,.3475.3608l.2441.3426a.21.21,0,0,0,.2312.2448c.2046.0864.255.2934.3588.4587a.21.21,0,0,0,.2281.2482,23.7919,23.7919,0,0,1,1.8877,2.2287.2112.2112,0,0,0,.2324.2422,1.1484,1.1484,0,0,1,.4747.58.4757.4757,0,0,0,.4645.48l.712.8157a.3257.3257,0,0,0,.35.3605,2.2293,2.2293,0,0,1,.2291.177q1.0356,1.03,2.0653,2.066a2.2248,2.2248,0,0,1,.1767.2292.475.475,0,0,0,.4794.4664l.4606.3613a.477.477,0,0,0,.4822.4619l.342.2477a.3236.3236,0,0,0,.3676.3389c.2809.208.5638.4133.8414.6256a1.9957,1.9957,0,0,1,.2042.2078.4713.4713,0,0,0,.4847.4612.4248.4248,0,0,1,.1026.0169.3246.3246,0,0,0,.3664.3372l1.3968,1.0766a.3287.3287,0,0,0,.3681.3361c.1751-.0064.2227.1683.3422.2408a.2092.2092,0,0,0,.25.2281.4007.4007,0,0,1,.1023.0129.21.21,0,0,0,.2469.2246,2.9938,2.9938,0,0,1,.7318.4958c.0987.082.21.1486.3159.2223a.21.21,0,0,0,.2453.2245l.2252.1255a.2085.2085,0,0,0,.2551.222.3232.3232,0,0,1,.0986.0146.2084.2084,0,0,0,.2518.2226.3748.3748,0,0,1,.1008.0159.2083.2083,0,0,0,.2516.22c.1481.0747.3008.1416.4429.2264.1277.0762.2437.1722.3649.26a.208.208,0,0,0,.2522.22.3543.3543,0,0,1,.1014.0126.2072.2072,0,0,0,.2552.2206l.3321.1409a.21.21,0,0,0,.247.2177c.1007.0438.2055.08.3015.1328.2117.1156.419.2393.6281.36a.2091.2091,0,0,0,.25.2123c.0886.0353.1791.0667.2654.1069.1044.0486.2052.1048.3076.1576a.3179.3179,0,0,0,.3807.3165l.4438.1519a.2087.2087,0,0,0,.25.209l.5743.2606a.2079.2079,0,0,0,.2528.2084l1.0419.4978a.2084.2084,0,0,0,.2516.209l.3386.13c.0311.0677.0436.1651.0964.198a1.1472,1.1472,0,0,0,.63.2566.7134.7134,0,0,1,.43.1514c.1929.1268.4047.2249.6084.3352.0484.2863.2663.32.4974.3333l.6787.2625c.0182.0531.02.1337.0571.1551a4.6692,4.6692,0,0,0,1.3762.6459l.2146.0217a.2078.2078,0,0,0,.2532.2157l.2174.0208a.2084.2084,0,0,0,.2519.2154l.2183.0236a.3145.3145,0,0,0,.3857.32,6.9866,6.9866,0,0,1,1.1458.4953.2053.2053,0,0,0,.2619.214l.6788.2643a.2052.2052,0,0,0,.2613.2074l.4446.1481a.208.208,0,0,0,.2527.2106l.454.139c.0357.0647.0566.1656.11.1874a4.3745,4.3745,0,0,0,.4953.1444l.4551.1306c.0542.22.0765.2313.2352.1161l.2332.0215c.0152.0535.0142.1226.0482.1579a.8167.8167,0,0,0,.6965.2466c.029-.0027.0541-.047.081-.0719l.3554-.0025c.0279.0239.0575.07.0835.0685a1.9207,1.9207,0,0,0,.9463-.4262c.0234-.0163.0207-.07.03-.1063l.7974-.2586a3.9835,3.9835,0,0,0,1.2144-.4783c.0546-.0334.0731-.1258.1082-.191l.3236-.0379a2.2881,2.2881,0,0,0,.7937-.2929c.0337-.0123.0395-.1008.0583-.154l.21-.0221a1.1314,1.1314,0,0,0,.6684-.2805c.0384-.0261.044-.1.0648-.1525l1.1558-.5048a.2111.2111,0,0,0,.2591-.2082c.3256-.1987.65-.4.9784-.5934a.4728.4728,0,0,1,.1729-.0236.32.32,0,0,0,.3764-.3217l.3322-.1475a.2076.2076,0,0,0,.2539-.2227c.0764-.0416.1526-.0836.2293-.1245s.1528-.08.2292-.12a.2093.2093,0,0,0,.2482-.2237.401.401,0,0,1,.1023-.0132.2085.2085,0,0,0,.2506-.2233.3686.3686,0,0,1,.1019-.0124.2087.2087,0,0,0,.2509-.225.3409.3409,0,0,1,.1011-.011.2085.2085,0,0,0,.2515-.2265.31.31,0,0,1,.1-.01.2074.2074,0,0,0,.2542-.222.3382.3382,0,0,1,.1006-.0124.3219.3219,0,0,0,.3713-.3348c.152-.0847.2588-.2522.4582-.25a.21.21,0,0,0,.2477-.2216l.9256-.6044a.2088.2088,0,0,0,.2507-.2242.351.351,0,0,1,.0993-.0131.321.321,0,0,0,.3724-.3344.4735.4735,0,0,1,.1038-.0155.21.21,0,0,0,.248-.228l.2207-.1263a.2086.2086,0,0,0,.25-.2247.344.344,0,0,1,.1-.0124.3211.3211,0,0,0,.3716-.3373l.2257-.1265a.2168.2168,0,0,0,.2479-.2243l.004-.0046c.247.0053.4436-.0564.4655-.35l.22-.1312a.2112.2112,0,0,0,.2505-.2219c.2158-.181.3887-.4228.6877-.4862a.2091.2091,0,0,0,.252-.2253l.2451-.2351c.2763-.0187.2763-.0187.3433-.2359l.221-.1265a.3264.3264,0,0,0,.3705-.3363l.2221-.1321a.3293.3293,0,0,0,.3666-.3378l.6962-.4829a.33.33,0,0,0,.36-.3461l.2282-.1246a.2148.2148,0,0,0,.2435-.2289.3726.3726,0,0,1,.3382-.247.2114.2114,0,0,0,.2514-.2208l.3382-.2494a.21.21,0,0,0,.2476-.2281l.2184-.1278a.4682.4682,0,0,0,.4886-.4593l.2228-.1262a.3253.3253,0,0,0,.3661-.3437l.462-.36a.2119.2119,0,0,0,.2439-.229l.2206-.1276a.3232.3232,0,0,0,.3673-.345c.0833-.2089.2939-.2552.459-.36a.3245.3245,0,0,0,.3653-.3424c.1515-.1235.21-.3652.4607-.3626a.2113.2113,0,0,0,.246-.2271l.5793-.4783a.2115.2115,0,0,0,.2441-.2294c.1722-.2682.4677-.3924.6957-.5955a.4754.4754,0,0,0,.4813-.4639c.2182-.3807.6231-.5516.9323-.83a.6731.6731,0,0,0,.5979-.582,7.9611,7.9611,0,0,1,1.0485-.9489c.0747-.0181.1708-.0128.22-.0583.23-.2108.451-.4313.6638-.6591.0468-.05.0465-.1444.0678-.2183a5.1757,5.1757,0,0,1,.6395-.6769,15.9538,15.9538,0,0,0,1.3256-1.2355q.4258-.3995.8515-.7994a.469.469,0,0,0,.4752-.4742l.4662-.4674a.3217.3217,0,0,0,.357-.3579,1.7238,1.7238,0,0,1,.1361-.1855,10.4774,10.4774,0,0,0,1.0922-1.1944,1.5414,1.5414,0,0,1,.306-.2592.4736.4736,0,0,0,.466-.4806,2.4519,2.4519,0,0,1,.7136-.813.3269.3269,0,0,0,.3465-.3625l.4811-.579a.3253.3253,0,0,0,.342-.3641l.3613-.46a.3251.3251,0,0,0,.3449-.3635c.104-.1663.1516-.3769.3617-.46a.3249.3249,0,0,0,.3432-.3667l.8328-1.0466a.3236.3236,0,0,0,.344-.3663l.1308-.2216a.21.21,0,0,0,.2245-.2452.37.37,0,0,1,.241-.3439.2139.2139,0,0,0,.2325-.2421l.2562-.4627C119.88,93.0023,120.0026,92.893,119.9831,92.6593Zm3.8619,42.04a4.4051,4.4051,0,0,0-2.2772.4957,8.63,8.63,0,0,0-2.8055,2.0941c-.183.2034-.3544.4181-.5214.6351a12.8923,12.8923,0,0,0-1.6176,2.4426c-.2435.5329-.4645,1.0761-.6935,1.6156a8.1551,8.1551,0,0,0-.6154,2.9689,5.7285,5.7285,0,0,0,.6045,2.8409,3.851,3.851,0,0,0,3.4462,2.1747,4.8733,4.8733,0,0,0,2.3088-.5892,8.4923,8.4923,0,0,0,1.7423-1.1858,12.5068,12.5068,0,0,0,2.7388-3.19,15.7291,15.7291,0,0,0,1.2118-2.6045,10.2157,10.2157,0,0,0,.8179-3.1042c.0314-.5565-.0813-1.09-.0913-1.6356a3.65,3.65,0,0,0-2.1971-2.5854A4.3982,4.3982,0,0,0,123.845,134.6992Zm7.8217-33.4233h.0054c0-.2547.0075-.51-.0013-.764a3.85,3.85,0,0,0-1.6486-3.1536,3.2461,3.2461,0,0,0-1.3676-.6508,7.0659,7.0659,0,0,0-1.75-.1445,6.6617,6.6617,0,0,1-.7554.093,3.2306,3.2306,0,0,0-1.2478.2988,3.1092,3.1092,0,0,0-1.3221.95,5.633,5.633,0,0,0-1.2133,3.4185c-.0056.1958.0059.3921-.0014.5877a3.3967,3.3967,0,0,0,.125.9265,5.1492,5.1492,0,0,0,.9477,1.9352,4.2092,4.2092,0,0,0,3.464,1.7879,7.3179,7.3179,0,0,0,1.4557-.1577,3.3,3.3,0,0,0,1.9417-1.129,6.7559,6.7559,0,0,0,.869-1.3208,4.0642,4.0642,0,0,0,.5009-2.03C131.6573,101.7073,131.6667,101.4914,131.6667,101.2759Zm-4.1694,24.7771a3.2919,3.2919,0,0,0-.8684.0993,2.3263,2.3263,0,0,0-1.4362,1.528c-.0513.168-.0878.3406-.132.5108a2.8187,2.8187,0,0,0,.5484,2.487,2.7036,2.7036,0,0,0,3.0559.8964,2.4932,2.4932,0,0,0,1.2958-1.0541,2.6086,2.6086,0,0,0,.313-1.2939,3.0069,3.0069,0,0,0-.7686-2.2652A2.2885,2.2885,0,0,0,127.4973,126.053Zm-3.4785,1.8571a2.4007,2.4007,0,0,0-3.8324-2.0438,3.0769,3.0769,0,0,0-1.2025,2.8926,2.4965,2.4965,0,0,0,.4721,1.3,2.1953,2.1953,0,0,0,3.0188.5906A3.32,3.32,0,0,0,124.0188,127.91Zm8.8046-31.6634c0,.0538-.0029.1323.0005.2106a1.9132,1.9132,0,0,0,1.1662,1.7009,1.32,1.32,0,0,0,.8581.0965,2.3317,2.3317,0,0,0,1.1418-.6741,2.2272,2.2272,0,0,0,.1874-2.858,1.6177,1.6177,0,0,0-1.9215-.6295,2.0285,2.0285,0,0,0-.7547.4428A2.1049,2.1049,0,0,0,132.8234,96.2467Zm-2.5786-4.388c-.15,0-.2291-.0073-.3064.0012a1.9577,1.9577,0,0,0-1.6753,1.2014,1.51,1.51,0,0,0,.328,1.7369,1.8439,1.8439,0,0,0,1.7918.6417,2.3342,2.3342,0,0,0,1.4628-1.0963.9.9,0,0,0,.1276-.3244,1.7055,1.7055,0,0,0-.3992-1.4753C131.206,92.12,130.813,91.7323,130.2448,91.8587Zm4.4047,8.2265a1.5052,1.5052,0,0,0-1.4535,1.9764,1.7647,1.7647,0,0,0,.678.8629,1.1048,1.1048,0,0,0,1.0611.1356,1.9507,1.9507,0,0,0,1.17-1.1611,1.0939,1.0939,0,0,0-.0908-1.0636A1.4579,1.4579,0,0,0,134.65,100.0852Z"/><path class="b2f842a4-4d72-47e6-82ce-43b9b430eb40" d="M21.3571,58.4343q-.2869-.1861-.5742-.3722a.2279.2279,0,0,0-.2474-.2258l-.2278-.1235a.2157.2157,0,0,0-.2437-.2266l-.5738-.367a.2309.2309,0,0,0-.25-.2243.3692.3692,0,0,0-.0992-.0141.3562.3562,0,0,0-.3726-.335q-.285-.1852-.57-.37a.3559.3559,0,0,0-.3713-.3367l-.2222-.1308a.3537.3537,0,0,0-.3652-.3444q-.2291-.1812-.4581-.3622a1.049,1.049,0,0,0-.7195-.6967.6653.6653,0,0,0-.0954-.1453c-.434-.3881-.8711-.7726-1.3075-1.1581a.2277.2277,0,0,0-.1714-.2408,1.2713,1.2713,0,0,0-.31-.5509c-.62-.5406-1.2214-1.1024-1.8335-1.6521-.8452-.759-1.7185-1.4886-2.5334-2.2785a16.6178,16.6178,0,0,1-2.0592-2.33c-.5187-.7357-1.1055-1.4229-1.6422-2.1464A34.29,34.29,0,0,1,3.898,40.41c-.389-.6792-.8345-1.3258-1.2309-2.001-.3068-.5226-.5918-1.0593-.8595-1.6031a11.734,11.734,0,0,1-.7689-2.2727,9.1307,9.1307,0,0,1-.2673-1.619C.7392,32.4851.6631,32.0588.645,31.63a5.3682,5.3682,0,0,1,.0762-.8163c.0153-.1362.05-.2707.0593-.4071a11.1171,11.1171,0,0,1,.81-3.2355A18.2166,18.2166,0,0,1,2.695,24.97c.4811-.874.9809-1.7389,1.5061-2.587.473-.7641.9636-1.52,1.4947-2.2448a37.5857,37.5857,0,0,1,5.1217-5.58c.7245-.6571,1.5074-1.2492,2.2462-1.8911A37.8156,37.8156,0,0,1,16.26,10.272q1.6358-1.1429,3.3421-2.1836c.7859-.478,1.594-.9127,2.3955-1.36.3745-.2091.772-.3771,1.1592-.5635,1.1421-.55,2.2817-1.1047,3.4271-1.6474.9707-.46,1.9548-.8918,2.9206-1.3616A15.4439,15.4439,0,0,1,32.187,2.1336c.4138-.1134.8361-.1995,1.2454-.3311a1.1444,1.1444,0,0,1,.2293-.0521c.701-.0728,1.4008-.17,2.1037-.2069a3.6146,3.6146,0,0,1,2.8,1.1381,4.0777,4.0777,0,0,1,.9982,1.9021A7.943,7.943,0,0,1,39.81,6.7363c-.0048.6275.0043,1.2555-.016,1.8825a4.6183,4.6183,0,0,1-.1554,1.28,2.0258,2.0258,0,0,0-.0277.5223,4.1517,4.1517,0,0,1-.2043,1.2066c-.2371.9271-.4888,1.8505-.74,2.7738-.17.6217-.3342,1.2454-.5275,1.86-.2753.875-.5829,1.74-.8614,2.6137-.2135.67-.39,1.3519-.6061,2.0208-.7228,2.2325-1.4589,4.4607-2.1843,6.6923q-.3891,1.1974-.7513,2.4036c-.19.6361-.3554,1.2795-.5336,1.9191-.4976,1.7864-1.0274,3.5644-1.4375,5.3738-.263,1.16-.5051,2.3251-.7512,3.4891-.2057.9731-.4088,1.9468-.603,2.9222-.1218.6112-.2277,1.2257-.3359,1.84-.0981.5564-.177,1.1165-.2878,1.67A5.955,5.955,0,0,0,29.6,48.654a1.4648,1.4648,0,0,1-.0225.3513,8.7345,8.7345,0,0,0-.2126,1.916,1.2657,1.2657,0,0,1-.0185.2928,9.1194,9.1194,0,0,0-.2173,2.1511.9727.9727,0,0,1-.0259.35,2.686,2.686,0,0,0-.0911.9308c-.0048.451-.0012.9021-.0039,1.3531a1.3649,1.3649,0,0,1-.0224.409,2.7277,2.7277,0,0,0-.0839.932,8.5444,8.5444,0,0,1-.4925,2.984c-.0383.11-.0648.224-.0968.3362-.1669.1139-.2351.3538-.4762.3728-.154-.0216-.2282.0629-.2638.1987l-.2081.0237a2.1449,2.1449,0,0,1-1.36.0053.5978.5978,0,0,0-.1725-.01l-.5761-.2466c-.0233-.1436-.0927-.2285-.2525-.1984l-.2172-.0378c-.0578-.2617-.2721-.3-.4852-.34q-.5219-.3013-1.0439-.6026a.2227.2227,0,0,0-.2515-.2185l-.9273-.6042a.228.228,0,0,0-.2487-.2239.4328.4328,0,0,0-.102-.0131C21.6894,58.56,21.5863,58.427,21.3571,58.4343Z"/><path class="b2f842a4-4d72-47e6-82ce-43b9b430eb40" d="M133.8662,56.6468a3.2374,3.2374,0,0,0-.9232.6052.2184.2184,0,0,0-.2455.2235.5356.5356,0,0,0-.1066.0183c-.2282-.0063-.33.1275-.3689.3321l-.2209.13a.223.223,0,0,0-.2469.2244.5272.5272,0,0,0-.105.0183c-.2277-.0053-.3312.1275-.37.3325l-1.631,1.0821a.2111.2111,0,0,0-.2467.2156.5331.5331,0,0,0-.1065.0189.2074.2074,0,0,0-.2434.2166l.003-.0015c-.168.0056-.3334.0153-.3605.2361a2.1757,2.1757,0,0,0-.3123.1178c-.21.1168-.4118.2476-.617.3726a.2325.2325,0,0,0-.2647.2056l-.6777.2584a1.2558,1.2558,0,0,0-.2856.0319,1.4,1.4,0,0,1-.9614,0,1.3128,1.3128,0,0,0-.2852-.036c-.0686-.0068-.1372-.0137-.2061-.02-.0377-.1349-.1132-.219-.2666-.1989l-.3526-.2547a.2285.2285,0,0,0-.2291-.2451q-.0727-.2886-.1454-.577c-.0429-.2884-.07-.58-.1325-.8643a7.86,7.86,0,0,1-.2047-1.8558c.0124-.6658.0014-1.3321-.0021-1.9981a3.2675,3.2675,0,0,0-.021-.4688,14.0645,14.0645,0,0,1-.2111-2.2087,3.4028,3.4028,0,0,0-.0744-.8138,5.4261,5.4261,0,0,1-.1481-1.1574c-.0079-.609-.1341-1.1991-.201-1.7977a13.6568,13.6568,0,0,0-.2754-1.9647,1.1556,1.1556,0,0,1-.005-.1171c-.0346-.2305-.0662-.4616-.1088-.6907a4.2765,4.2765,0,0,1-.115-.5133,18.8948,18.8948,0,0,0-.3724-2.0683c-.098-.5753-.214-1.1489-.3538-1.7155a17.246,17.246,0,0,0-.4166-1.9406.5719.5719,0,0,1-.0372-.1711,9.5352,9.5352,0,0,0-.3287-1.6015c-.1956-.8949-.4193-1.784-.6465-2.6717-.1692-.6613-.355-1.3187-.547-1.9739-.3073-1.0488-.5732-2.109-.9173-3.1484-.3618-1.0928-.6541-2.2084-.993-3.309-.2064-.67-.449-1.3287-.6654-1.9957-.2951-.9091-.5818-1.821-.87-2.7323-.2-.633-.3914-1.269-.6-1.8993a1.6294,1.6294,0,0,0-.2137-.3384q-.0078-.1179-.0154-.236a.7547.7547,0,0,0-.0137-.1732c-.4134-1.3161-.8444-2.6268-1.24-3.9483-.3061-1.0226-.573-2.0572-.8462-3.0894-.0692-.2613-.0959-.5339-.1421-.8014l-.0208-.27a1.4976,1.4976,0,0,0-.016-.229c-.1286-.578-.2613-1.1551-.3928-1.7324.1-.0879.0813-.1652-.021-.2349a31.5545,31.5545,0,0,1-.0112-3.5734,3.8618,3.8618,0,0,1,.0916-.5159.203.203,0,0,0,.0906-.3115,4.05,4.05,0,0,1,.6859-1.728,3.6931,3.6931,0,0,1,2.7767-1.5494,2.2229,2.2229,0,0,1,.5868.0079c.8267.16,1.6772.1207,2.499.3445a18.537,18.537,0,0,1,3.0008,1c.9921.4624,1.9761.9421,2.966,1.409,1.005.4741,2.0168.9341,3.0188,1.4144,1.25.5992,2.501,1.199,3.6909,1.9137,1.1573.6951,2.3015,1.4093,3.4151,2.1761s2.22,1.5421,3.2918,2.3644c.5273.4045,1.0264.8457,1.542,1.2657a40.3424,40.3424,0,0,1,4.25,4.0565,26.3443,26.3443,0,0,1,2.6443,3.3c.7187,1.0947,1.3824,2.226,2.0549,3.35a22.2714,22.2714,0,0,1,1.47,2.8085,16.6239,16.6239,0,0,1,.6246,1.8284,18.2014,18.2014,0,0,1,.3805,2.3173,5.1224,5.1224,0,0,1,.0071,1.1143,12.8356,12.8356,0,0,1-.16,1.4005,13.2046,13.2046,0,0,1-.8513,2.9205,26.2554,26.2554,0,0,1-1.9227,3.4288q-.6047.9718-1.2,1.9493a30.1221,30.1221,0,0,1-1.8955,2.6868c-.6331.8223-1.266,1.6462-1.9349,2.439-.4278.5072-.9174.9627-1.3859,1.4348-.2345.2363-.4789.4634-.7273.6852-.6718.6-1.35,1.1926-2.022,1.7926-.4677.4175-.9339.8371-1.3917,1.2654-.4295.4018-.85.813-1.268,1.2272a5.0875,5.0875,0,0,0-.335.405l-.0287.15-.0374.27a1.0412,1.0412,0,0,0-.7163.506.52.52,0,0,0-.4826.4617l-.342.2428a.3544.3544,0,0,0-.3644.3455,2.6575,2.6575,0,0,0-.294.1614c-.139.1-.2676.2135-.4007.3213A.36.36,0,0,0,133.8662,56.6468Z"/><path class="ad36f551-cbd7-4638-ad3b-236ac9f648b5" d="M50.4208,150.8463a7.9659,7.9659,0,0,1-1.69,2.0161,10.2255,10.2255,0,0,1-3.1866,1.9518c-.5611.2266-1.12.4641-1.6958.6473-.67.2133-1.3563.377-2.0381.5521a3.9607,3.9607,0,0,1-.5237.0708,11.3515,11.3515,0,0,1-3.0451.0215,11.8488,11.8488,0,0,1-1.45-.214c-.4323-.1206-.8767-.2013-1.3192-.28a13.4205,13.4205,0,0,1-2.7258-.8873,14.9816,14.9816,0,0,1-4.0978-2.6037,20.043,20.043,0,0,1-3.59-4.1018c-.5184-.782-.9581-1.6163-1.4291-2.4295a19.2815,19.2815,0,0,1-1.3928-3.1013c-.26-.7144-.4147-1.4663-.6577-2.1875a15.4838,15.4838,0,0,1-.6492-3.3026c.5436-.6124.3818,1.6225.4206,1.67.1232.1508.2189.3236.3368.4791a1.385,1.385,0,0,0,.7635.5123,1.1047,1.1047,0,0,0,1.394-.9558,3.6123,3.6123,0,0,0-.0124-.8778,2.3162,2.3162,0,0,0-.8006-1.519.9867.9867,0,0,0-.3529-.193c-.6253-.1517-.9346.1354-1.2922.6727-.0532.08-.2452.0917-.3013.1688-.0247.034-.102.03-.1555.0427q-.0664-.7314-.1329-1.4627c-.0334-.37-.0741-1.431-.0632-2.0176.0076-.4092.0681-.8173.106-1.2258.0181-.1948.0478-.389.0568-.5841a12.4175,12.4175,0,0,1,.407-2.3,11.3683,11.3683,0,0,1,.8318-2.2468,11.6253,11.6253,0,0,1,1.3734-2.18,11,11,0,0,1,3.1041-2.6545,14.193,14.193,0,0,1,1.3681-.6669,7.6482,7.6482,0,0,1,.7627-.2828,10.7227,10.7227,0,0,1,3.705-.4544c.411.0112.8221.02,1.2329.0369a2.7634,2.7634,0,0,1,.466.0511c.629.1348,1.2562.2784,1.8835.4188a1.694,1.694,0,0,0,.0115.4032c.2642.9818.5264,1.9646.8157,2.9391.2673.9.5629,1.7921.8542,2.685q.9747,2.9877,2.1885,5.8868c.3165.7584.6414,1.5137.9815,2.2617.3482.7662.7152,1.524,1.0831,2.2809.1968.4048.41.8014.6207,1.1994.4756.8994.9438,1.803,1.4346,2.6941.3869.7025.8129,1.3835,1.2043,2.0836.65,1.1633,1.3853,2.2737,2.1385,3.37.5975.8693,1.2518,1.7019,1.9179,2.5207A4.76,4.76,0,0,0,50.4208,150.8463Zm-13.189-2.7356a4.4886,4.4886,0,0,0-.01-.88,19.9251,19.9251,0,0,0-.5071-2.05,21.2282,21.2282,0,0,0-1.3967-3.294,10.4111,10.4111,0,0,0-2.3016-3.0239A4.5752,4.5752,0,0,0,29.6844,137.5a3.755,3.755,0,0,0-3.3085,1.9928,6.9679,6.9679,0,0,0-.7752,3.0474,5.467,5.467,0,0,0,.1009,1.2253,8.55,8.55,0,0,0,1.0192,3.0445,14.1866,14.1866,0,0,0,2.7026,3.388,7.6766,7.6766,0,0,0,1.989,1.3477,4.8693,4.8693,0,0,0,.9953.3386,4.3863,4.3863,0,0,0,1.8675.0034,3.5638,3.5638,0,0,0,2.7932-2.3312A3.3646,3.3646,0,0,0,37.2318,148.1107Zm-2.5535-15.4146a2.1968,2.1968,0,0,0-.2837-1.2181c-.2265-.4332-.4574-.8641-.6856-1.2964a2.4964,2.4964,0,0,0-1.6431-1.3173,1.8052,1.8052,0,0,0-1.9672.7147,2.11,2.11,0,0,0-.3857,1.1509,4.1844,4.1844,0,0,0,.7829,2.5946,3.2179,3.2179,0,0,0,1.6022,1.2294A1.8917,1.8917,0,0,0,34.6783,132.6961Zm-9.0806,3.2063a3.0819,3.0819,0,0,0,.6262-.1178,2.0427,2.0427,0,0,0,1.2312-1.401,7.2532,7.2532,0,0,0,.1581-.8043,2.9933,2.9933,0,0,0-1.11-2.9772,1.8357,1.8357,0,0,0-2.68.1937,3.2649,3.2649,0,0,0-.8012,1.98,3.0906,3.0906,0,0,0,1.67,2.8789A2.0071,2.0071,0,0,0,25.5977,135.9024Z"/><path class="b4cdbc4f-82a2-4bce-a41c-f4fd9f6b6762" d="M50.4208,150.8463a4.76,4.76,0,0,1-1.1394-1.0933c-.6661-.8188-1.32-1.6514-1.9179-2.5207-.7532-1.0959-1.4883-2.2063-2.1385-3.37-.3914-.7-.8174-1.3811-1.2043-2.0836-.4908-.8911-.959-1.7947-1.4346-2.6941-.21-.398-.4239-.7946-.6207-1.1994-.3679-.7569-.7349-1.5147-1.0831-2.2809-.34-.748-.665-1.5033-.9815-2.2617q-1.21-2.9-2.1885-5.8868c-.2913-.8929-.5869-1.7848-.8542-2.685-.2893-.9745-.5515-1.9573-.8157-2.9391a1.694,1.694,0,0,1-.0115-.4032l1.8959.6433a17.6717,17.6717,0,0,1,.8438,2.5005c.3911,1.2723.7617,2.5525,1.203,3.8075.4222,1.2.9091,2.3789,1.3943,3.556.4628,1.1231.9378,2.2423,1.4486,3.3441.5354,1.155,1.1107,2.292,1.6848,3.4287,1.1843,2.3452,2.4377,4.653,3.8029,6.8986q1.0078,1.6579,2.0391,3.3017c.2074.3314.45.6406.669.965a1.5053,1.5053,0,0,1,.1143.2668.5783.5783,0,0,0-.4545.3239C50.6005,150.5986,50.5054,150.72,50.4208,150.8463Z"/><path class="ec6f15ae-940e-4b18-8945-6b27d16fcab4" d="M70.5655,154.8439a19.56,19.56,0,0,0,.0818-3.2243c-.057-.9991-.1908-1.987-.292-2.9789-.0733-.7178-.2343-1.427-.3623-2.1388-.0935-.5195-.2038-1.036-.2946-1.556a32.6047,32.6047,0,0,0-.8437-3.4175,36.0684,36.0684,0,0,0-1.4611-3.9667c-.4171-.9925-.8482-1.9791-1.28-2.9652-.0861-.1964-.2163-.3734-.3033-.57a1.7662,1.7662,0,0,1-.151-.498.6555.6555,0,0,1,.3967-.72.7237.7237,0,0,1,.8291.0767,4.0191,4.0191,0,0,1,.6671.7387,19.8511,19.8511,0,0,1,1.3834,2.5229c.1719.3736.34.7493.5255,1.1163a20.6082,20.6082,0,0,1,1.3137,3.393c.5,1.67.8841,3.37,1.2641,5.07a22.5361,22.5361,0,0,1,.5024,2.89c.0561.6231.1438,1.2434.222,1.8644.0367.2909.1.5791.1242.8707.0481.5853.0368,1.1784.1252,1.7567a20.4558,20.4558,0,0,1,.14,2.05,3.936,3.936,0,0,1-.5794-.0622c-.4345-.11-.8643-.2393-1.2927-.3715A.7041.7041,0,0,0,70.5655,154.8439Z"/><path class="b71d9552-9cbc-4865-8b98-f37ae97cc474" d="M117.0082,119.2723c-.3425.2217-.6826.447-1.0278.6642a23.5827,23.5827,0,0,0-2.572,1.8482,26.0668,26.0668,0,0,0-4.2343,4.3782c-.5273.7062-1.0435,1.4174-1.5111,2.1638a24.961,24.961,0,0,0-2.1395,4.1732,20.2578,20.2578,0,0,0-.8519,2.9886c-.0593.2672-.1064.5371-.16.8056a.9293.9293,0,0,1-.4294.6058.4325.4325,0,0,1-.6547-.1444,1.5588,1.5588,0,0,1-.201-.6035,4.28,4.28,0,0,1,.0474-1.2858c.0612-.2648.05-.5454.0953-.815a11.3671,11.3671,0,0,1,.7354-2.71c.0229-.0525.3973-.97.4533-1.0913a25.9708,25.9708,0,0,1,2.4261-4.2807,26.369,26.369,0,0,1,3.43-3.9224,11.8244,11.8244,0,0,1,1.4865-1.2345,11.1989,11.1989,0,0,0,.9919-.82,9.6749,9.6749,0,0,1,2.3659-1.3954,22.5724,22.5724,0,0,1,2.684-1.0233,6.9567,6.9567,0,0,1,1.88-.4276,5.6262,5.6262,0,0,1-1.1748.7618c-.5751.3256-1.152.6481-1.7215.9833a.3224.3224,0,0,0-.1341.23C116.7877,119.2418,116.9167,119.2471,117.0082,119.2723Z"/><path class="a1dab18f-ea6e-4cd0-a635-3d638f819bf2" d="M28.3128,60.66c.032-.1122.0585-.2262.0968-.3362a8.5444,8.5444,0,0,0,.4925-2.984,2.7277,2.7277,0,0,1,.0839-.932,1.3649,1.3649,0,0,0,.0224-.409c.0027-.451-.0009-.9021.0039-1.3531a2.686,2.686,0,0,1,.0911-.9308.9727.9727,0,0,0,.0259-.35,9.1194,9.1194,0,0,1,.2173-2.1511,1.2657,1.2657,0,0,0,.0185-.2928,8.7345,8.7345,0,0,1,.2126-1.916A1.4648,1.4648,0,0,0,29.6,48.654a5.955,5.955,0,0,1,.1866-1.4484c.1108-.5537.19-1.1138.2878-1.67.1082-.6138.2141-1.2283.3359-1.84.1942-.9754.3973-1.9491.603-2.9222.2461-1.164.4882-2.3289.7512-3.4891.41-1.8094.94-3.5874,1.4375-5.3738.1782-.64.3437-1.283.5336-1.9191q.36-1.2065.7513-2.4036c.7254-2.2316,1.4615-4.46,2.1843-6.6923.2165-.6689.3926-1.3508.6061-2.0208.2785-.874.5861-1.7387.8614-2.6137.1933-.6145.358-1.2382.5275-1.86.2516-.9233.5033-1.8467.74-2.7738a4.1517,4.1517,0,0,0,.2043-1.2066l.2311-.0128a2.7982,2.7982,0,0,1-.1433.9791c-.2025.6913-.38,1.39-.5664,2.0858-.2424.9032-.4413,1.8208-.737,2.7061-.3521,1.0541-.657,2.1235-1.0385,3.1681-.1672.4577-.2954.93-.4376,1.3965-.1077.353-.1977.7118-.3163,1.061-.2758.8127-.5785,1.6164-.8435,2.4325-.2707.8334-.5032,1.6792-.7643,2.5159-.18.5754-.3916,1.1409-.5672,1.7175-.21.69-.3919,1.3887-.5948,2.081-.1753.5977-.3722,1.1893-.543,1.7883-.2189.768-.4224,1.5406-.6305,2.3117-.132.4894-.2868.9747-.3831,1.4712a13.1377,13.1377,0,0,0-.3442,1.5366,3.1153,3.1153,0,0,1-.2261.9032c-.2261.5688-.1682,1.1983-.4072,1.7611a.5142.5142,0,0,0-.0452.2278,2.3472,2.3472,0,0,1-.1764.9149.9939.9939,0,0,0-.06.343,2.1459,2.1459,0,0,1-.1256.6881c-.0537.1856-.08.3793-.1157.57a.8456.8456,0,0,1-.0212.1741,12.3738,12.3738,0,0,0-.415,1.9975c-.15.6-.1831,1.2294-.2739,1.8449-.0226.1536-.08.3021-.1023.4557a8.299,8.299,0,0,0-.1394,1.2185,4.5345,4.5345,0,0,1-.1437,1.0972,3.2464,3.2464,0,0,0-.0806.7537,5.2432,5.2432,0,0,1-.0837.87,13.23,13.23,0,0,0-.1484,1.5689,5.1635,5.1635,0,0,1-.1076,1.3392,1.3719,1.3719,0,0,0-.013.4094c-.001.5292.0076,1.0585-.0044,1.5874-.0053.2318-.0639.462-.0766.6942-.0216.39-.0262.7815-.0373,1.1723a6.2041,6.2041,0,0,1-.6583,2.3466C28.4541,60.6346,28.367,60.64,28.3128,60.66Z"/><path class="a0ad3a60-4ae2-4b4b-8577-21c555d4aae6" d="M21.2141,136.6949a1.2583,1.2583,0,0,1,1.4646-.5813.9867.9867,0,0,1,.3529.193,2.3162,2.3162,0,0,1,.8006,1.519,3.6123,3.6123,0,0,1,.0124.8778,1.1047,1.1047,0,0,1-1.394.9558,1.385,1.385,0,0,1-.7635-.5123c-.1179-.1555-.2136-.3283-.3368-.4791A3.7463,3.7463,0,0,1,21.2141,136.6949Z"/><path class="b57ffb57-0b27-4c97-b555-5d25db22ce2a" d="M36.0744,96.43a.7453.7453,0,0,1-.2527-.0907.67.67,0,0,0-.5173-.141,3.43,3.43,0,0,1-.6913-.9251.7244.7244,0,0,1,.2711.0616q.55.4071,1.0789.8429C36.0264,96.23,36.0386,96.3443,36.0744,96.43Z"/><path class="b57ffb57-0b27-4c97-b555-5d25db22ce2a" d="M119.6608,93.0258l-.2557-.1219c-.02-.2061.1732-.3041.2363-.4679l.3112-.0032.03.2263C120.0026,92.893,119.88,93.0023,119.6608,93.0258Z"/><path class="e1f1c672-764d-4d25-8621-b1daedaa000b" d="M119.9526,92.4328l-.3112.0032c.0509-.4016.3234-.489.6694-.472Z"/><path class="b57ffb57-0b27-4c97-b555-5d25db22ce2a" d="M38.39,100.4221c.2366.1451.4657.2965.5058.6056-.1-.0419-.2-.0832-.3-.126-.0836-.0359-.1663-.0736-.2494-.1106Z"/><path class="aae8c6c1-6770-4513-b8a6-fbb6ff2ca4e0" d="M14.4882,52.76a.2277.2277,0,0,1,.1714.2408l-.1465.0917Q14.5008,52.9266,14.4882,52.76Z"/><path class="f737fc1f-26ce-4ba4-b79f-0abbaeef0cb7" d="M113.3524,11.42q.01.1349.0211.27l-.1993.0006-.124-.1794Z"/><path class="f737fc1f-26ce-4ba4-b79f-0abbaeef0cb7" d="M113.0936,4.8228a.203.203,0,0,1-.0906.3115A.2463.2463,0,0,1,113.0936,4.8228Z"/><path class="f737fc1f-26ce-4ba4-b79f-0abbaeef0cb7" d="M112.9226,9.2236c.1023.07.1207.147.021.2349C112.8527,9.3877,112.8365,9.31,112.9226,9.2236Z"/><path class="e1f1c672-764d-4d25-8621-b1daedaa000b" d="M136.8751,54.0012l.0287-.15Z"/><path class="b71d9552-9cbc-4865-8b98-f37ae97cc474" d="M119.8791,117.1236l.102-.0738Z"/><path class="adadb7d1-96f4-4d84-923b-7417fa0e93a9" d="M91.5739,107.4586c-.5677.1414-1.1262.3154-1.7063.413-.5768.097-1.1454.2421-1.7176.3664-.0191.0042-.0371.0136-.0563.0169-.5969.1016-1.1934.2056-1.7909.3031-.3855.0629-.7726.1158-1.1588.1741-.0386.0059-.0755.0234-.1141.0276-.8751.0942-1.75.196-2.6258.2782-1.0127.095-2.027.1726-3.0406.2575-.2142.0179-.4284.0495-.6427.05-2.0574.004-4.1148.008-6.1722-.0017-.4293-.0021-.8586-.0579-1.2874-.094q-1.1985-.1011-2.3964-.2091c-.37-.0338-.738-.08-1.1071-.12-.3891-.0422-.7786-.081-1.1674-.1265-.1936-.0227-.3859-.0575-.5789-.086-.3287-.0486-.6575-.096-.9861-.1448q-.2607-.0387-.521-.08c-.3277-.0529-.6552-.1076-.983-.16-.0579-.0093-.1181-.0067-.1751-.0192-.572-.1257-1.1432-.2547-1.7152-.38-.4581-.1-.9182-.1917-1.3753-.2965-.5327-.1221-1.065-.2468-1.5939-.3844-.6237-.1623-1.2467-.3288-1.864-.5136-.58-.1736-1.1516-.3735-1.7272-.5616a3.2921,3.2921,0,0,0-.9876-.667,1.5046,1.5046,0,0,0-.2232-.2647c-.7075-.53-1.3369-1.146-1.9881-1.74-.5224-.4766-.9867-1.0043-1.4692-1.5155a19.3271,19.3271,0,0,1-1.5263-1.9335,22.0974,22.0974,0,0,1-2.2384-3.9236,17.3913,17.3913,0,0,1-1.2736-3.9611q-.2107-1.1237-.4081-2.25a2.96,2.96,0,0,1-.0342-.468c-.0074-.5294.0026-1.0592-.0154-1.5882a13.2486,13.2486,0,0,1,.2587-2.918,22.8784,22.8784,0,0,1,.7726-3.0709,21.8441,21.8441,0,0,1,2.1512-4.56,23.3817,23.3817,0,0,1,1.97-2.7008,26.6086,26.6086,0,0,1,2.5839-2.6494,24.2631,24.2631,0,0,1,4.3116-3.14c.8187-.4616,1.6359-.931,2.4826-1.3366.8284-.397,1.69-.7253,2.5435-1.0692a22.7132,22.7132,0,0,1,3.0729-.989.78.78,0,0,0,.6391-.6729c.164-.8241.3338-1.6475.5253-2.4656.1558-.6658.3425-1.3245.5228-1.9844.2062-.7542.4119-1.5087.6337-2.2584.2048-.6925.4109-1.3859.6517-2.0664.3583-1.0126.719-2.0263,1.1312-3.0176a17.1175,17.1175,0,0,1,1.8368-3.4081,4.7425,4.7425,0,0,1,1.2972-1.2624,2.5865,2.5865,0,0,1,2.3573-.3295,4.0858,4.0858,0,0,1,2.071,1.4659,20.1259,20.1259,0,0,1,2.1181,3.9842c.4574,1.1446.954,2.2743,1.3857,3.4284.3695.9875.7727,1.9637,1.069,2.9791.1746.5982.4185,1.1758.6048,1.771.1984.6337.36,1.2789.5482,1.916.1437.4866.3069.9675.4552,1.4529a.5655.5655,0,0,0,.45.4116,30.485,30.485,0,0,1,4.0154,1.3188c.7826.3046,1.5334.6912,2.2962,1.046.2487.1157.49.2472.7345.372a23.2193,23.2193,0,0,1,3.193,1.9775c.3778.2776.7771.5283,1.138.8258.6339.5224,1.2625,1.0536,1.8628,1.6138A20.6216,20.6216,0,0,1,98.8062,74.87a26.8088,26.8088,0,0,1,2.2372,3.3019,20.7321,20.7321,0,0,1,1.7776,4.15,22.5859,22.5859,0,0,1,.6873,2.97.7416.7416,0,0,0,.04.23,2.7505,2.7505,0,0,1,.21,1.3791c.0045.9607-.0066,1.9214-.0123,2.8821a2.0258,2.0258,0,0,1-.1243.688,4.35,4.35,0,0,0-.205.8522,19.3385,19.3385,0,0,1-1.2818,4.4452,22.0714,22.0714,0,0,1-2.426,4.3541c-.39.56-.8648,1.061-1.2878,1.5992a22.315,22.315,0,0,1-1.9023,2.0014A17.25,17.25,0,0,1,94.598,105.36c-.614.452-1.2418.8852-1.8617,1.3293-.1247.0894-.2826.1475-.3306.3179A1.35,1.35,0,0,0,91.5739,107.4586Zm-8.5318-21.244a3.5475,3.5475,0,0,1,.4391-.1658,13.3722,13.3722,0,0,0,2.7472-1.0257,10.5254,10.5254,0,0,0,3.05-2.1681,17.9458,17.9458,0,0,0,1.165-1.3972,1.9916,1.9916,0,0,0,.409-1.026.51.51,0,0,0-.0477-.336c-.2947-.3666-.5792-.5253-1.0081-.2626a1.6565,1.6565,0,0,0-.2353.1756c-.3363.2991-.662.6106-1.006.9005-.5535.4667-1.0986.947-1.6831,1.3723a12.7815,12.7815,0,0,1-2.91,1.5177,8.7041,8.7041,0,0,1-1.215.4321,7.4454,7.4454,0,0,1-3.4943.0257,4.5915,4.5915,0,0,1-1.101-.3981,9.9688,9.9688,0,0,1-3.828-3.5578c-.0409-.0668-.0782-.1361-.1228-.2a.678.678,0,0,0-1.0116-.2289,2.5363,2.5363,0,0,0-.4426.381c-.7482.7484-1.4847,1.5085-2.2395,2.25a11.0122,11.0122,0,0,1-4.9449,2.9334,7.5054,7.5054,0,0,1-2.6194.2276,1.7338,1.7338,0,0,1-.458-.0961,7.818,7.818,0,0,1-3.2271-1.9717c-.2749-.2794-.544-.5653-.8309-.8318a2.3061,2.3061,0,0,0-.52-.3754.7265.7265,0,0,0-.8663.1412.7058.7058,0,0,0-.1419.8147,1.5471,1.5471,0,0,0,.2625.4563c.3791.4484.7591.8978,1.1659,1.3208a9.603,9.603,0,0,0,2.1775,1.5874,6.4247,6.4247,0,0,0,3.41.946,4.2615,4.2615,0,0,1,.6342.0776,9.2741,9.2741,0,0,0,1.48,5.3646A9.8823,9.8823,0,0,0,68.26,95.6511a10.4493,10.4493,0,0,0,4.1137,1.935,4.3457,4.3457,0,0,0,.9307.1117,6.0678,6.0678,0,0,0,2.6053-.3064.9068.9068,0,0,1,.1149-.0242,9.0616,9.0616,0,0,0,4.2077-2.465A9.6966,9.6966,0,0,0,82.25,91.8959,10.2781,10.2781,0,0,0,83.0421,86.2146ZM73.9587,66.8292a19.0139,19.0139,0,0,0-5.6033.7955,9.69,9.69,0,0,0-2.608,1.1964,4.6077,4.6077,0,0,0-1.2714,1.2064,2.2051,2.2051,0,0,0-.1906,2.3864,4.09,4.09,0,0,0,1.34,1.4523,10.077,10.077,0,0,0,3.55,1.51,20,20,0,0,0,9.7176-.0432A10.9977,10.9977,0,0,0,81.626,74.274a5.47,5.47,0,0,0,1.711-1.4107,2.3028,2.3028,0,0,0,.0179-2.9323,4.7439,4.7439,0,0,0-1.01-.9773,9.388,9.388,0,0,0-2.69-1.2948A18.9063,18.9063,0,0,0,73.9587,66.8292Z"/><path class="b862cb69-5744-4672-9b6f-ce9bfc8b6e3d" d="M106.69,65.3675l.0008,1.5257a8.253,8.253,0,0,0-.3743.7936,4.9712,4.9712,0,0,1-1.3189,2.0575,4.8444,4.8444,0,0,1-5.229,1.0617,4.7508,4.7508,0,0,1-2.1517-1.5744,4.9857,4.9857,0,0,1,.0125-6.204c.1943-.2417.3837-.4873.5753-.7311l.0076-.0074a1.0242,1.0242,0,0,0,.26-.103,5.6646,5.6646,0,0,1,1.8556-.9077,2.6457,2.6457,0,0,0,.36-.1669l1.7734.0023c.2692.11.5358.2262.808.3278a4.9152,4.9152,0,0,1,2.8843,2.7561C106.3245,64.5908,106.51,64.9777,106.69,65.3675Zm-6.2543-2.4231a1.6825,1.6825,0,0,0-1.4809,1.1021,1.1078,1.1078,0,0,0,.4645,1.23,1.3987,1.3987,0,0,0,1.9731-.3456,1.2521,1.2521,0,0,0-.9567-1.9862Z"/><path class="bf2146c1-edb2-45c8-8e71-c2a1c114c21c" d="M42.9989,67.0174l.0026-1.7735c.0876-.2142.1838-.4254.2615-.6431a5.0053,5.0053,0,0,1,3.2837-3.2443c.2-.0663.3914-.1609.5868-.2423l1.7732-.0023c.2147.0878.4246.19.6448.261a4.9816,4.9816,0,0,1,1.8124,8.4714,4.6974,4.6974,0,0,1-3.95,1.2608,4.91,4.91,0,0,1-4.13-3.3876C43.1979,67.4808,43.0943,67.2506,42.9989,67.0174Zm3.5157-3.7327a1.5269,1.5269,0,0,0-1.391.9937,1.13,1.13,0,0,0,.5114,1.3641,1.394,1.394,0,0,0,1.9844-.8177A1.1483,1.1483,0,0,0,46.5146,63.2847Z"/><path class="a5cdaa6b-c3bf-4bf4-9ac1-b3762bdfe777" d="M115.63,19.9378a1.6294,1.6294,0,0,1,.2137.3384c.2081.63.3993,1.2663.6,1.8993.2882.9113.5749,1.8232.87,2.7323.2164.667.459,1.3257.6654,1.9957.3389,1.1006.6312,2.2162.993,3.309.3441,1.0394.61,2.1.9173,3.1484.192.6552.3778,1.3126.547,1.9739.2272.8877.4509,1.7768.6465,2.6717a9.5352,9.5352,0,0,1,.3287,1.6015.5719.5719,0,0,0,.0372.1711,17.246,17.246,0,0,1,.4166,1.9406c.14.5666.2558,1.14.3538,1.7155a18.8948,18.8948,0,0,1,.3724,2.0683,4.2765,4.2765,0,0,0,.115.5133c.0426.2291.0742.46.1088.6907a1.1556,1.1556,0,0,0,.005.1171,13.6568,13.6568,0,0,1,.2754,1.9647c.0669.5986.1931,1.1887.201,1.7977a5.4261,5.4261,0,0,0,.1481,1.1574,3.4028,3.4028,0,0,1,.0744.8138,14.0645,14.0645,0,0,0,.2111,2.2087,3.2675,3.2675,0,0,1,.021.4688c.0035.666.0145,1.3323.0021,1.9981a7.86,7.86,0,0,0,.2047,1.8558c.0629.2839.09.5759.1325.8643-.0635-.04-.16-.0657-.1839-.1221a3.2659,3.2659,0,0,1-.2256-.6648,11.4789,11.4789,0,0,1-.1512-1.2148,6.1658,6.1658,0,0,0-.1107-1.5148,1.3869,1.3869,0,0,1-.011-.4094c-.0008-.5682.0017-1.1363-.0015-1.7045a2.9784,2.9784,0,0,0-.0922-.9877,1.6037,1.6037,0,0,1-.024-.4667,2.7373,2.7373,0,0,0-.0919-.9289,1.7073,1.7073,0,0,1-.028-.4076c-.02-.1929-.0488-.385-.0753-.5773a1.53,1.53,0,0,1-.0359-.2306,19.2,19.2,0,0,0-.2146-1.9107c-.05-.6049-.1655-1.194-.2426-1.7909-.1672-1.2939-.4047-2.5709-.676-3.8464-.1979-.9306-.4139-1.86-.5361-2.8078-.0593-.46-.2132-.9085-.3187-1.3634-.0525-.2268-.0931-.4564-.1377-.685a1.0919,1.0919,0,0,0-.0269-.1732c-.3042-.8062-.3507-1.6752-.623-2.493-.1828-.5486-.3361-1.1131-.4773-1.6742-.1615-.6417-.342-1.2786-.5021-1.9207-.0892-.3578-.2089-.7079-.3107-1.0626-.22-.7682-.436-1.5378-.6586-2.3054-.0379-.13-.11-.2508-.15-.3807-.1844-.5923-.36-1.1872-.5451-1.7794-.11-.3535-.233-.7033-.3476-1.0556-.1988-.61-.3894-1.2238-.5949-1.832-.2063-.6106-.46-1.207-.631-1.8269-.16-.5808-.34-1.1547-.5073-1.7329C115.5477,20.0454,115.605,19.987,115.63,19.9378Z"/><path class="ae26c905-b357-45cb-9aa7-42a2e973b4aa" d="M42.9989,67.0174c.0954.2332.199.4634.2848.7a4.91,4.91,0,0,0,4.13,3.3876,4.6974,4.6974,0,0,0,3.95-1.2608,4.9967,4.9967,0,0,0-1.8124-8.4714c-.22-.0708-.43-.1732-.6448-.261a.5162.5162,0,0,1,.6017-.0263,9.25,9.25,0,0,1,1.5116.7655,5.7989,5.7989,0,0,1,1.0967,1.0528,4.8624,4.8624,0,0,1,.941,1.8064,5.2606,5.2606,0,0,1-.0079,2.8826,6.9322,6.9322,0,0,1-.9854,1.8516,4.623,4.623,0,0,1-1.6772,1.327,5.8916,5.8916,0,0,1-.7434.3327,4.6332,4.6332,0,0,1-2.2522.2434,4.45,4.45,0,0,1-1.3473-.3773,5.6321,5.6321,0,0,1-1.73-1.1755,6.2926,6.2926,0,0,1-1.18-1.7958,4.1835,4.1835,0,0,1-.1826-.4317A.4964.4964,0,0,1,42.9989,67.0174Z"/><path class="ae26c905-b357-45cb-9aa7-42a2e973b4aa" d="M98.2042,62.2965c-.1916.2438-.381.4894-.5753.7311a4.9857,4.9857,0,0,0-.0125,6.204,4.7508,4.7508,0,0,0,2.1517,1.5744,4.8444,4.8444,0,0,0,5.229-1.0617,4.9712,4.9712,0,0,0,1.3189-2.0575,8.253,8.253,0,0,1,.3743-.7936c.0244.0294.0742.0641.0694.0874a2.1605,2.1605,0,0,1-.2668.934,8.3953,8.3953,0,0,0-.6292,1.1237,3.7661,3.7661,0,0,1-1.1408,1.2435,5.4962,5.4962,0,0,1-2.2133,1.0123,4.8052,4.8052,0,0,1-1.6331.0437,4.0637,4.0637,0,0,1-1.6615-.5339c-.2641-.1668-.5338-.3246-.8028-.4836a4.0881,4.0881,0,0,1-1.4233-1.6762,14.157,14.157,0,0,1-.6112-1.4573.1576.1576,0,0,1-.0174-.0559,7.9953,7.9953,0,0,1,.0853-2.1575,6.4866,6.4866,0,0,1,1.2213-2.3808A.614.614,0,0,1,98.2042,62.2965Z"/><path class="a5cdaa6b-c3bf-4bf4-9ac1-b3762bdfe777" d="M113.1742,11.69l.1993-.0006c.0459.2675.0726.54.1418.8014.2732,1.0322.54,2.0668.8462,3.0894.3954,1.3215.8264,2.6322,1.24,3.9483a.7547.7547,0,0,1,.0137.1732c-.1645-.0143-.2308-.1385-.2784-.2673-.0812-.2193-.1541-.4421-.2206-.6663-.1878-.6327-.3268-1.2838-.5637-1.8973-.6193-1.6037-.92-3.297-1.441-4.9272A.1953.1953,0,0,1,113.1742,11.69Z"/><path class="ae26c905-b357-45cb-9aa7-42a2e973b4aa" d="M106.69,65.3675c-.1793-.39-.365-.7767-.5367-1.17a4.9152,4.9152,0,0,0-2.8843-2.7561c-.2722-.1016-.5388-.2182-.808-.3278a.5088.5088,0,0,1,.5967-.03c.4725.2283.9546.4437,1.402.7152a4.6508,4.6508,0,0,1,1.6871,1.8838c.1531.292.3185.5776.4764.8672a2.0407,2.0407,0,0,1,.1089.7783C106.73,65.3432,106.7041,65.3546,106.69,65.3675Z"/><path class="ae26c905-b357-45cb-9aa7-42a2e973b4aa" d="M47.1335,61.1142c-.1954.0814-.3864.176-.5868.2423a5.0053,5.0053,0,0,0-3.2837,3.2443c-.0777.2177-.1739.4289-.2615.6431a.5093.5093,0,0,1-.0256-.6019,10.4116,10.4116,0,0,1,.8165-1.5531,4.908,4.908,0,0,1,2.0091-1.6544c.2149-.0909.41-.2275.6185-.335A.63.63,0,0,1,47.1335,61.1142Z"/><path class="ae26c905-b357-45cb-9aa7-42a2e973b4aa" d="M100.6871,61.1115a2.6457,2.6457,0,0,1-.36.1669,5.6646,5.6646,0,0,0-1.8556.9077,1.0242,1.0242,0,0,1-.26.103.4642.4642,0,0,1,.24-.3746,6.6206,6.6206,0,0,1,.69-.4188c.3093-.1546.6313-.2842.9513-.4164A.5307.5307,0,0,1,100.6871,61.1115Z"/><path class="b57ffb57-0b27-4c97-b555-5d25db22ce2a" d="M54.083,105.5a3.2921,3.2921,0,0,1,.9876.667.8286.8286,0,0,1-.2852.01q-.9845-.3348-1.96-.6956c-.0749-.0279-.1207-.1343-.18-.2041.3244.0947.65.1861.9731.2852C53.7859,105.6143,53.9478,105.6679,54.083,105.5Z"/><path class="b57ffb57-0b27-4c97-b555-5d25db22ce2a" d="M91.5739,107.4586a1.35,1.35,0,0,1,.8318-.4518,4.527,4.527,0,0,0,1.02-.1631.55.55,0,0,1,.2018.0627,1.3629,1.3629,0,0,1-.342.2094c-.5091.1307-1.0237.24-1.5372.3529A.641.641,0,0,1,91.5739,107.4586Z"/><path class="b57ffb57-0b27-4c97-b555-5d25db22ce2a" d="M50.4354,104.5372c-.2186-.0738-.44-.14-.655-.2231-.3986-.1537-.7963-.3109-1.1876-.4821-.0745-.0326-.1178-.1365-.1757-.2075a1.3751,1.3751,0,0,1,.336.0441c.4786.1891.9522.3909,1.4265.5907C50.3051,104.3122,50.4237,104.377,50.4354,104.5372Z"/><path class="b57ffb57-0b27-4c97-b555-5d25db22ce2a" d="M102.8242,103.6239c-.0237.0526-.0341.1365-.0732.1531a15.047,15.047,0,0,1-1.9444.7609c.053-.0763.09-.1949.1615-.2219A12.1231,12.1231,0,0,1,102.8242,103.6239Z"/><path class="a5cdaa6b-c3bf-4bf4-9ac1-b3762bdfe777" d="M125.29,61.25a1.3128,1.3128,0,0,1,.2852.036,1.4,1.4,0,0,0,.9614,0,1.2558,1.2558,0,0,1,.2856-.0319.3242.3242,0,0,1-.33.3376c-.2916.0092-.584.01-.8756-.0006A.3229.3229,0,0,1,125.29,61.25Z"/><path class="b57ffb57-0b27-4c97-b555-5d25db22ce2a" d="M97.299,105.747c-.0262.0517-.0409.1364-.08.15q-.7931.2772-1.5932.5337a.7367.7367,0,0,1-.2324-.0034c.0384-.0639.0633-.1669.1171-.1852.4966-.1688.9971-.3263,1.4993-.4781A1.23,1.23,0,0,1,97.299,105.747Z"/><path class="a1dab18f-ea6e-4cd0-a635-3d638f819bf2" d="M25.8323,61.2506a.5978.5978,0,0,1,.1725.01,2.1449,2.1449,0,0,0,1.36-.0053.3246.3246,0,0,1-.3314.3361c-.2913.0089-.5833.0093-.8746-.0007A.323.323,0,0,1,25.8323,61.2506Z"/><path class="b57ffb57-0b27-4c97-b555-5d25db22ce2a" d="M116.0043,95.7367a.6107.6107,0,0,1-.0811.21,1.4656,1.4656,0,0,1-.7557.4829c.0065-.038-.0005-.0887.0215-.112A1.5624,1.5624,0,0,1,116.0043,95.7367Z"/><path class="b57ffb57-0b27-4c97-b555-5d25db22ce2a" d="M98.7045,105.2719c-.0226.0511-.0332.1347-.07.1482-.2952.1093-.5949.2068-.8946.3037a.3014.3014,0,0,1-.1113-.0089c.0207-.0516.0285-.1351.0642-.15A2.5066,2.5066,0,0,1,98.7045,105.2719Z"/><path class="aae8c6c1-6770-4513-b8a6-fbb6ff2ca4e0" d="M16.0625,54.3046a1.049,1.049,0,0,1,.72.6967A.9057.9057,0,0,1,16.0625,54.3046Z"/><path class="b57ffb57-0b27-4c97-b555-5d25db22ce2a" d="M41.4884,100.08a1.1623,1.1623,0,0,1-.8376-.5764A1.0656,1.0656,0,0,1,41.4884,100.08Z"/><path class="b57ffb57-0b27-4c97-b555-5d25db22ce2a" d="M114.9449,96.5606c-.1037.3619-.4049.4761-.7194.5738C114.3,96.7357,114.6034,96.6243,114.9449,96.5606Z"/><path class="b57ffb57-0b27-4c97-b555-5d25db22ce2a" d="M37.0161,97.136c-.3133-.1-.6142-.2152-.7206-.5746C36.6455,96.6152,36.9367,96.7428,37.0161,97.136Z"/><path class="b57ffb57-0b27-4c97-b555-5d25db22ce2a" d="M99.8924,104.8075c-.0145.0345-.0192.0865-.045.1009a1.6434,1.6434,0,0,1-.9236.3394c.0356-.0631.0578-.1648.109-.1825C99.3155,104.968,99.6051,104.8913,99.8924,104.8075Z"/><path class="b57ffb57-0b27-4c97-b555-5d25db22ce2a" d="M52.3181,105.248a1.657,1.657,0,0,1-.9233-.34c-.0257-.0141-.03-.0664-.0452-.1008.2872.0839.577.1607.86.258C52.2605,105.0831,52.2826,105.185,52.3181,105.248Z"/><path class="b57ffb57-0b27-4c97-b555-5d25db22ce2a" d="M105.7684,102.2125c-.02.1519-.1338.2168-.2538.28a1.04,1.04,0,0,1-.5862.181c.017-.0537.02-.1413.0533-.1556C105.2405,102.4078,105.5054,102.3124,105.7684,102.2125Z"/><path class="b57ffb57-0b27-4c97-b555-5d25db22ce2a" d="M104.3558,102.9189c-.0219.051-.0315.1339-.0676.1479a2.5108,2.5108,0,0,1-.7744.2954c.05-.0753.0835-.1779.1534-.22A1.0048,1.0048,0,0,1,104.3558,102.9189Z"/><path class="b57ffb57-0b27-4c97-b555-5d25db22ce2a" d="M117.3044,94.6805a.7469.7469,0,0,1-.6066.5736A.6585.6585,0,0,1,117.3044,94.6805Z"/><path class="b57ffb57-0b27-4c97-b555-5d25db22ce2a" d="M118.1258,93.9729a.7386.7386,0,0,1-.6046.5771A.6646.6646,0,0,1,118.1258,93.9729Z"/><path class="b57ffb57-0b27-4c97-b555-5d25db22ce2a" d="M46.1983,102.6532c-.2967-.0562-.5919-.115-.725-.4405a1.1937,1.1937,0,0,1,.6626.2878C46.1738,102.5272,46.1783,102.6011,46.1983,102.6532Z"/><path class="b57ffb57-0b27-4c97-b555-5d25db22ce2a" d="M39.2519,98.6685c-.2761-.0542-.5349-.1313-.6058-.4573A.6942.6942,0,0,1,39.2519,98.6685Z"/><path class="b57ffb57-0b27-4c97-b555-5d25db22ce2a" d="M113.2976,97.7378c-.0633.3323-.3267.4041-.6011.4615A.7012.7012,0,0,1,113.2976,97.7378Z"/><path class="b57ffb57-0b27-4c97-b555-5d25db22ce2a" d="M39.961,99.1361c-.2785-.05-.5373-.1264-.6068-.4552A.7069.7069,0,0,1,39.961,99.1361Z"/><path class="b57ffb57-0b27-4c97-b555-5d25db22ce2a" d="M118.7108,93.5a.51.51,0,0,1-.483.4591A.4743.4743,0,0,1,118.7108,93.5Z"/><path class="a5cdaa6b-c3bf-4bf4-9ac1-b3762bdfe777" d="M135.6388,55.2385a.52.52,0,0,1,.4826-.4617A.477.477,0,0,1,135.6388,55.2385Z"/><path class="b57ffb57-0b27-4c97-b555-5d25db22ce2a" d="M40.547,99.49a.68.68,0,0,1-.5827-.35C40.2155,99.1619,40.4771,99.1664,40.547,99.49Z"/><path class="b57ffb57-0b27-4c97-b555-5d25db22ce2a" d="M108.8293,100.5651c-.0654.2531-.2677.3092-.4881.3393C108.3854,100.6208,108.6051,100.59,108.8293,100.5651Z"/><path class="b57ffb57-0b27-4c97-b555-5d25db22ce2a" d="M111.1819,99.1519c-.0626.2565-.2648.3113-.4871.3371C110.741,99.2086,110.96,99.1785,111.1819,99.1519Z"/><path class="b57ffb57-0b27-4c97-b555-5d25db22ce2a" d="M37.7236,97.607c-.2167-.0349-.4285-.0769-.4842-.3407C37.4591,97.2969,37.6786,97.3279,37.7236,97.607Z"/><path class="b57ffb57-0b27-4c97-b555-5d25db22ce2a" d="M42.9011,100.902c-.22-.03-.4249-.0806-.4871-.3377C42.6363,100.59,42.8553,100.6212,42.9011,100.902Z"/><path class="b57ffb57-0b27-4c97-b555-5d25db22ce2a" d="M43.9611,101.4853c-.2229-.0223-.4254-.0747-.4885-.332C43.6936,101.1782,43.9109,101.2088,43.9611,101.4853Z"/><path class="aae8c6c1-6770-4513-b8a6-fbb6ff2ca4e0" d="M24.3013,60.4283c.2131.04.4274.0778.4852.34C24.566,60.7387,24.3449,60.71,24.3013,60.4283Z"/><path class="b57ffb57-0b27-4c97-b555-5d25db22ce2a" d="M107.7666,101.1516c-.0564.2646-.2673.3051-.4856.3348C107.3294,101.21,107.5473,101.18,107.7666,101.1516Z"/><path class="aae8c6c1-6770-4513-b8a6-fbb6ff2ca4e0" d="M21.3571,58.4343c.2292-.0073.3323.1261.3708.3317A.3237.3237,0,0,1,21.3571,58.4343Z"/><path class="a5cdaa6b-c3bf-4bf4-9ac1-b3762bdfe777" d="M131.2794,58.5315c.0386-.205.1421-.3378.37-.3325A.3235.3235,0,0,1,131.2794,58.5315Z"/><path class="a5cdaa6b-c3bf-4bf4-9ac1-b3762bdfe777" d="M132.222,57.8259c.0385-.2046.1407-.3384.3689-.3321A.3239.3239,0,0,1,132.222,57.8259Z"/><path class="b57ffb57-0b27-4c97-b555-5d25db22ce2a" d="M111.891,98.6828c-.0439.2012-.141.3412-.3739.3249A.3213.3213,0,0,1,111.891,98.6828Z"/><path class="aae8c6c1-6770-4513-b8a6-fbb6ff2ca4e0" d="M18.7689,56.5458a.3562.3562,0,0,1,.3726.335A.32.32,0,0,1,18.7689,56.5458Z"/><path class="aae8c6c1-6770-4513-b8a6-fbb6ff2ca4e0" d="M17.8275,55.8387a.3559.3559,0,0,1,.3713.3367A.3213.3213,0,0,1,17.8275,55.8387Z"/><path class="a5cdaa6b-c3bf-4bf4-9ac1-b3762bdfe777" d="M134.9324,55.8268a.3544.3544,0,0,1,.3644-.3455A.3255.3255,0,0,1,134.9324,55.8268Z"/><path class="aae8c6c1-6770-4513-b8a6-fbb6ff2ca4e0" d="M17.24,55.3635a.3537.3537,0,0,1,.3652.3444A.324.324,0,0,1,17.24,55.3635Z"/><path class="b57ffb57-0b27-4c97-b555-5d25db22ce2a" d="M38.3123,98.067c-.2334.0146-.3311-.1235-.37-.3283A.3236.3236,0,0,1,38.3123,98.067Z"/><path class="a5cdaa6b-c3bf-4bf4-9ac1-b3762bdfe777" d="M133.8662,56.6468a.36.36,0,0,1,.3715-.3373A.3213.3213,0,0,1,133.8662,56.6468Z"/><path class="b57ffb57-0b27-4c97-b555-5d25db22ce2a" d="M106.2419,101.9791c-.0387.2168-.1994.23-.372.2224C105.9473,101.9757,105.9473,101.9757,106.2419,101.9791Z"/><path class="b57ffb57-0b27-4c97-b555-5d25db22ce2a" d="M47.7282,103.36c-.2765.0079-.2765.0079-.3638-.21C47.5289,103.1451,47.7005,103.1278,47.7282,103.36Z"/><path class="b57ffb57-0b27-4c97-b555-5d25db22ce2a" d="M107.1758,101.5036c-.03.224-.1937.23-.3649.2231C106.8874,101.5074,106.8874,101.5074,107.1758,101.5036Z"/><path class="b57ffb57-0b27-4c97-b555-5d25db22ce2a" d="M95.0646,106.4544c-.0482.2129-.1981.2362-.3784.2027C94.7751,106.4444,94.7751,106.4444,95.0646,106.4544Z"/><path class="b57ffb57-0b27-4c97-b555-5d25db22ce2a" d="M94.2422,106.6908c-.0493.2126-.2.2347-.38.2022C93.9513,106.6791,93.9513,106.6791,94.2422,106.6908Z"/><path class="b57ffb57-0b27-4c97-b555-5d25db22ce2a" d="M100.5859,104.5646c-.0935.2187-.0935.2187-.3679.2066C100.2483,104.5375,100.4206,104.5573,100.5859,104.5646Z"/><path class="a5cdaa6b-c3bf-4bf4-9ac1-b3762bdfe777" d="M128.6943,60.2993c.0271-.2208.1925-.23.3605-.2361A.3346.3346,0,0,1,128.6943,60.2993Z"/><path class="b57ffb57-0b27-4c97-b555-5d25db22ce2a" d="M109.8813,99.9724c-.0206.1429-.0883.23-.2474.2091A.2088.2088,0,0,1,109.8813,99.9724Z"/><path class="b57ffb57-0b27-4c97-b555-5d25db22ce2a" d="M42.3125,100.55a.2389.2389,0,0,1-.2613-.2145A.2051.2051,0,0,1,42.3125,100.55Z"/><path class="b57ffb57-0b27-4c97-b555-5d25db22ce2a" d="M109.1914,100.3353a.2428.2428,0,0,1-.2615.2176A.2054.2054,0,0,1,109.1914,100.3353Z"/><path class="b57ffb57-0b27-4c97-b555-5d25db22ce2a" d="M43.2555,101.1265c-.1589.0184-.2268-.0695-.2478-.2121A.2091.2091,0,0,1,43.2555,101.1265Z"/><path class="b57ffb57-0b27-4c97-b555-5d25db22ce2a" d="M108.2372,100.916c-.0239.1412-.0936.2285-.2505.2137A.2086.2086,0,0,1,108.2372,100.916Z"/><path class="b57ffb57-0b27-4c97-b555-5d25db22ce2a" d="M44.431,101.7277a.241.241,0,0,1-.2615-.2156A.2053.2053,0,0,1,44.431,101.7277Z"/><path class="b57ffb57-0b27-4c97-b555-5d25db22ce2a" d="M44.7859,101.9475c-.1567.02-.229-.0636-.2541-.2058A.2072.2072,0,0,1,44.7859,101.9475Z"/><path class="b57ffb57-0b27-4c97-b555-5d25db22ce2a" d="M106.7087,101.7408c-.0235.1431-.0967.2257-.2526.208A.2078.2078,0,0,1,106.7087,101.7408Z"/><path class="b57ffb57-0b27-4c97-b555-5d25db22ce2a" d="M45.2566,102.184c-.156.0183-.228-.0659-.2533-.2073A.2071.2071,0,0,1,45.2566,102.184Z"/><path class="b57ffb57-0b27-4c97-b555-5d25db22ce2a" d="M46.6692,102.8886c-.157.0215-.2291-.063-.2557-.2044A.2069.2069,0,0,1,46.6692,102.8886Z"/><path class="b57ffb57-0b27-4c97-b555-5d25db22ce2a" d="M104.8282,102.684c-.0268.1411-.0991.2255-.2554.2053A.2069.2069,0,0,1,104.8282,102.684Z"/><path class="b57ffb57-0b27-4c97-b555-5d25db22ce2a" d="M110.234,99.7368a.2162.2162,0,0,1-.2455.2227A.21.21,0,0,1,110.234,99.7368Z"/><path class="b57ffb57-0b27-4c97-b555-5d25db22ce2a" d="M48.2,103.5916c-.1571.0248-.2282-.0608-.2571-.2A.2058.2058,0,0,1,48.2,103.5916Z"/><path class="b57ffb57-0b27-4c97-b555-5d25db22ce2a" d="M103.3016,103.3924c-.03.14-.1035.223-.2592.1992A.2051.2051,0,0,1,103.3016,103.3924Z"/><path class="b57ffb57-0b27-4c97-b555-5d25db22ce2a" d="M51.024,104.7724c-.1564.0233-.2291-.0629-.2626-.2005A.2047.2047,0,0,1,51.024,104.7724Z"/><path class="aae8c6c1-6770-4513-b8a6-fbb6ff2ca4e0" d="M19.2407,56.8949a.2309.2309,0,0,1,.25.2243A.2083.2083,0,0,1,19.2407,56.8949Z"/><path class="a5cdaa6b-c3bf-4bf4-9ac1-b3762bdfe777" d="M132.6975,57.4755a.2184.2184,0,0,1,.2455-.2235A.2105.2105,0,0,1,132.6975,57.4755Z"/><path class="aae8c6c1-6770-4513-b8a6-fbb6ff2ca4e0" d="M20.064,57.4862a.2157.2157,0,0,1,.2437.2266A.2133.2133,0,0,1,20.064,57.4862Z"/><path class="aae8c6c1-6770-4513-b8a6-fbb6ff2ca4e0" d="M20.5355,57.8363a.2279.2279,0,0,1,.2474.2258A.2093.2093,0,0,1,20.5355,57.8363Z"/><path class="a5cdaa6b-c3bf-4bf4-9ac1-b3762bdfe777" d="M131.7542,58.1807a.223.223,0,0,1,.2469-.2244A.21.21,0,0,1,131.7542,58.1807Z"/><path class="aae8c6c1-6770-4513-b8a6-fbb6ff2ca4e0" d="M21.83,58.7791a.228.228,0,0,1,.2487.2239A.2088.2088,0,0,1,21.83,58.7791Z"/><path class="a5cdaa6b-c3bf-4bf4-9ac1-b3762bdfe777" d="M129.4017,59.8292a.2111.2111,0,0,1,.2467-.2156A.2111.2111,0,0,1,129.4017,59.8292Z"/><path class="a5cdaa6b-c3bf-4bf4-9ac1-b3762bdfe777" d="M129.0518,60.0647a.2074.2074,0,0,1,.2434-.2166A.2074.2074,0,0,1,129.0518,60.0647Z"/><path class="a5cdaa6b-c3bf-4bf4-9ac1-b3762bdfe777" d="M124.236,60.5309a.2285.2285,0,0,1,.2291.2451A.211.211,0,0,1,124.236,60.5309Z"/><path class="aae8c6c1-6770-4513-b8a6-fbb6ff2ca4e0" d="M25.0037,60.8056c.16-.03.2292.0548.2525.1984A.21.21,0,0,1,25.0037,60.8056Z"/><path class="a5cdaa6b-c3bf-4bf4-9ac1-b3762bdfe777" d="M127.5,60.9953a.2325.2325,0,0,1,.2647-.2056A.2046.2046,0,0,1,127.5,60.9953Z"/><path class="a1dab18f-ea6e-4cd0-a635-3d638f819bf2" d="M27.5728,61.2317c.0356-.1358.11-.22.2638-.1987A.2047.2047,0,0,1,27.5728,61.2317Z"/><path class="a5cdaa6b-c3bf-4bf4-9ac1-b3762bdfe777" d="M124.8177,61.0307c.1534-.02.2289.064.2666.1989C124.93,61.2513,124.8355,61.1926,124.8177,61.0307Z"/><path class="aae8c6c1-6770-4513-b8a6-fbb6ff2ca4e0" d="M23.0059,59.6072a.2227.2227,0,0,1,.2515.2185A.2087.2087,0,0,1,23.0059,59.6072Z"/><path class="b57ffb57-0b27-4c97-b555-5d25db22ce2a" d="M116.5968,95.2682a.2337.2337,0,0,1-.2512.2267A.2087.2087,0,0,1,116.5968,95.2682Z"/><path class="b57ffb57-0b27-4c97-b555-5d25db22ce2a" d="M113.7741,97.388a.2278.2278,0,0,1-.2554.22A.2094.2094,0,0,1,113.7741,97.388Z"/><path class="b57ffb57-0b27-4c97-b555-5d25db22ce2a" d="M112.5966,98.2116a.2313.2313,0,0,1-.2535.2217A.2078.2078,0,0,1,112.5966,98.2116Z"/><path class="b57ffb57-0b27-4c97-b555-5d25db22ce2a" d="M112.2412,98.4456a.2322.2322,0,0,1-.2511.2237A.2084.2084,0,0,1,112.2412,98.4456Z"/><path class="b57ffb57-0b27-4c97-b555-5d25db22ce2a" d="M110.5906,99.5033a.22.22,0,0,1-.2489.2212A.2092.2092,0,0,1,110.5906,99.5033Z"/><path class="b9c767c9-dd4a-4c04-97ef-f2799173678d" d="M123.845,134.6992a4.3982,4.3982,0,0,1,2.0513.3725,3.65,3.65,0,0,1,2.1971,2.5854c.01.5457.1227,1.0791.0913,1.6356a10.2157,10.2157,0,0,1-.8179,3.1042,15.7291,15.7291,0,0,1-1.2118,2.6045,12.5068,12.5068,0,0,1-2.7388,3.19,8.4923,8.4923,0,0,1-1.7423,1.1858,4.8733,4.8733,0,0,1-2.3088.5892,3.851,3.851,0,0,1-3.4462-2.1747,5.7285,5.7285,0,0,1-.6045-2.8409,8.1551,8.1551,0,0,1,.6154-2.9689c.229-.54.45-1.0827.6935-1.6156a12.8923,12.8923,0,0,1,1.6176-2.4426c.167-.217.3384-.4317.5214-.6351a8.63,8.63,0,0,1,2.8055-2.0941A4.4051,4.4051,0,0,1,123.845,134.6992Z"/><path class="b9c767c9-dd4a-4c04-97ef-f2799173678d" d="M131.6667,101.2759c0,.2155-.0094.4314.0017.6464a4.0642,4.0642,0,0,1-.5009,2.03,6.7559,6.7559,0,0,1-.869,1.3208,3.3,3.3,0,0,1-1.9417,1.129,7.3179,7.3179,0,0,1-1.4557.1577,4.2092,4.2092,0,0,1-3.464-1.7879,5.1492,5.1492,0,0,1-.9477-1.9352,3.3967,3.3967,0,0,1-.125-.9265c.0073-.1956-.0042-.3919.0014-.5877a5.633,5.633,0,0,1,1.2133-3.4185,3.1092,3.1092,0,0,1,1.3221-.95,3.2306,3.2306,0,0,1,1.2478-.2988,6.6617,6.6617,0,0,0,.7554-.093,7.0659,7.0659,0,0,1,1.75.1445,3.2461,3.2461,0,0,1,1.3676.6508,3.85,3.85,0,0,1,1.6486,3.1536c.0088.2544.0013.5093.0013.764Z"/><path class="b9c767c9-dd4a-4c04-97ef-f2799173678d" d="M127.4973,126.053a2.2885,2.2885,0,0,1,2.0079.9083,3.0069,3.0069,0,0,1,.7686,2.2652,2.6086,2.6086,0,0,1-.313,1.2939,2.4932,2.4932,0,0,1-1.2958,1.0541,2.7036,2.7036,0,0,1-3.0559-.8964,2.8187,2.8187,0,0,1-.5484-2.487c.0442-.17.0807-.3428.132-.5108a2.3263,2.3263,0,0,1,1.4362-1.528A3.2919,3.2919,0,0,1,127.4973,126.053Z"/><path class="b9c767c9-dd4a-4c04-97ef-f2799173678d" d="M124.0188,127.91a3.32,3.32,0,0,1-1.544,2.7395,2.1953,2.1953,0,0,1-3.0188-.5906,2.4965,2.4965,0,0,1-.4721-1.3,3.0769,3.0769,0,0,1,1.2025-2.8926,2.4007,2.4007,0,0,1,3.8324,2.0438Z"/><path class="a0ad3a60-4ae2-4b4b-8577-21c555d4aae6" d="M132.8234,96.2467a2.1049,2.1049,0,0,1,.6778-1.7108,2.0285,2.0285,0,0,1,.7547-.4428,1.6177,1.6177,0,0,1,1.9215.6295,2.2272,2.2272,0,0,1-.1874,2.858,2.3317,2.3317,0,0,1-1.1418.6741,1.32,1.32,0,0,1-.8581-.0965,1.9132,1.9132,0,0,1-1.1662-1.7009C132.8205,96.379,132.8234,96.3005,132.8234,96.2467Z"/><path class="a0ad3a60-4ae2-4b4b-8577-21c555d4aae6" d="M130.2448,91.8587c.5682-.1264.9612.2613,1.3293.6852a1.7055,1.7055,0,0,1,.3992,1.4753.9.9,0,0,1-.1276.3244,2.3342,2.3342,0,0,1-1.4628,1.0963,1.8439,1.8439,0,0,1-1.7918-.6417,1.51,1.51,0,0,1-.328-1.7369,1.9577,1.9577,0,0,1,1.6753-1.2014C130.0157,91.8514,130.0947,91.8587,130.2448,91.8587Z"/><path class="fb61481c-bb36-47ee-973d-da30ca14eed9" d="M132.8527,132.4025a2.8957,2.8957,0,0,1-.035,1.5554,2.0919,2.0919,0,0,1-.6379,1.0911,1.3134,1.3134,0,0,1-1.4512.3292,1.3428,1.3428,0,0,1-.93-1.1776,2.6183,2.6183,0,0,1,.9383-2.3982,1.2676,1.2676,0,0,1,.8233-.298A1.6143,1.6143,0,0,1,132.8527,132.4025Z"/><path class="fb61481c-bb36-47ee-973d-da30ca14eed9" d="M134.65,100.0852a1.4579,1.4579,0,0,1,1.3649.75,1.0939,1.0939,0,0,1,.0908,1.0636,1.9507,1.9507,0,0,1-1.17,1.1611,1.1048,1.1048,0,0,1-1.0611-.1356,1.7647,1.7647,0,0,1-.678-.8629A1.5052,1.5052,0,0,1,134.65,100.0852Z"/><path class="b57ffb57-0b27-4c97-b555-5d25db22ce2a" d="M67.2623,124.1083a5.3178,5.3178,0,0,1,1.36.6467c.0406.0232.05.1017.0735.1544a4.6726,4.6726,0,0,1-1.3761-.646C67.2827,124.242,67.2805,124.1614,67.2623,124.1083Z"/><path class="b57ffb57-0b27-4c97-b555-5d25db22ce2a" d="M107.0375,106.79a1.7051,1.7051,0,0,1,.9519-.9357c-.0213.0739-.021.1682-.0678.2183-.2128.2278-.4342.4483-.6638.6591C107.2083,106.7767,107.1122,106.7714,107.0375,106.79Z"/><path class="b57ffb57-0b27-4c97-b555-5d25db22ce2a" d="M78.303,127.6124c.0394-.0631.0648-.1617.12-.1836a6.3747,6.3747,0,0,1,1.2022-.4859c-.0351.0654-.0536.1578-.1082.1912A3.9835,3.9835,0,0,1,78.303,127.6124Z"/><path class="b57ffb57-0b27-4c97-b555-5d25db22ce2a" d="M76.4456,128.335a2.2143,2.2143,0,0,1,1.06-.4641c-.01.0364-.0068.09-.03.1064a1.9207,1.9207,0,0,1-.9463.4262C76.5031,128.4055,76.4735,128.3589,76.4456,128.335Z"/><path class="b57ffb57-0b27-4c97-b555-5d25db22ce2a" d="M79.9492,126.9052a.94.94,0,0,1,.852-.447c-.0188.0533-.0246.1418-.0583.1541A2.2881,2.2881,0,0,1,79.9492,126.9052Z"/><path class="b57ffb57-0b27-4c97-b555-5d25db22ce2a" d="M75.2645,128.0049a3.4892,3.4892,0,0,1,.8257.3325c-.0269.025-.052.0693-.081.072a.8167.8167,0,0,1-.6965-.2466C75.2787,128.1275,75.28,128.0584,75.2645,128.0049Z"/><path class="b57ffb57-0b27-4c97-b555-5d25db22ce2a" d="M105.3911,108.32a.7366.7366,0,0,1,.5979-.582A.6731.6731,0,0,1,105.3911,108.32Z"/><path class="b57ffb57-0b27-4c97-b555-5d25db22ce2a" d="M81.0112,126.4362a.8539.8539,0,0,1,.7332-.4333c-.0208.0524-.0264.1267-.0648.1528A1.1314,1.1314,0,0,1,81.0112,126.4362Z"/><path class="b57ffb57-0b27-4c97-b555-5d25db22ce2a" d="M64.3206,122.5713c.2834.0856.5961.1245.7265.4547a1.148,1.148,0,0,1-.63-.2567C64.3642,122.7364,64.3517,122.639,64.3206,122.5713Z"/><path class="b57ffb57-0b27-4c97-b555-5d25db22ce2a" d="M110.806,103.142a.5414.5414,0,0,1,.4752-.4742A.469.469,0,0,1,110.806,103.142Z"/><path class="b57ffb57-0b27-4c97-b555-5d25db22ce2a" d="M47.7256,110.914a.5253.5253,0,0,1,.4793.4664A.475.475,0,0,1,47.7256,110.914Z"/><path class="b57ffb57-0b27-4c97-b555-5d25db22ce2a" d="M50.903,113.6236a.5283.5283,0,0,1,.4845.4613A.4714.4714,0,0,1,50.903,113.6236Z"/><path class="b57ffb57-0b27-4c97-b555-5d25db22ce2a" d="M48.6656,111.7417a.5191.5191,0,0,1,.4821.462A.4771.4771,0,0,1,48.6656,111.7417Z"/><path class="b57ffb57-0b27-4c97-b555-5d25db22ce2a" d="M103.9775,109.6144a.5248.5248,0,0,1,.4813-.464A.4754.4754,0,0,1,103.9775,109.6144Z"/><path class="b57ffb57-0b27-4c97-b555-5d25db22ce2a" d="M43.728,106.7856a.5221.5221,0,0,1,.4645.48A.4757.4757,0,0,1,43.728,106.7856Z"/><path class="b57ffb57-0b27-4c97-b555-5d25db22ce2a" d="M113.6387,100.2034a.53.53,0,0,1,.466-.4805A.4736.4736,0,0,1,113.6387,100.2034Z"/><path class="b57ffb57-0b27-4c97-b555-5d25db22ce2a" d="M98.5561,114.2005a.54.54,0,0,1,.4886-.4593A.4682.4682,0,0,1,98.5561,114.2005Z"/><path class="b57ffb57-0b27-4c97-b555-5d25db22ce2a" d="M73.7358,127.4049a2.748,2.748,0,0,1,.4362.1256c.0725.0336.1135.1353.1689.2062a4.3789,4.3789,0,0,1-.4952-.1444C73.7924,127.5705,73.7715,127.47,73.7358,127.4049Z"/><path class="b57ffb57-0b27-4c97-b555-5d25db22ce2a" d="M91.99,119.2746a.5247.5247,0,0,1,.4655-.35C92.4332,119.2182,92.2366,119.28,91.99,119.2746Z"/><path class="b57ffb57-0b27-4c97-b555-5d25db22ce2a" d="M66.0862,123.5125c.22.0307.4214.088.4971.3334C66.3525,123.8321,66.1346,123.7988,66.0862,123.5125Z"/><path class="b57ffb57-0b27-4c97-b555-5d25db22ce2a" d="M101.3864,111.85a.35.35,0,0,1,.3653-.3425A.3246.3246,0,0,1,101.3864,111.85Z"/><path class="b57ffb57-0b27-4c97-b555-5d25db22ce2a" d="M100.56,112.5545a.3616.3616,0,0,1,.3673-.345A.3232.3232,0,0,1,100.56,112.5545Z"/><path class="b57ffb57-0b27-4c97-b555-5d25db22ce2a" d="M95.2675,116.7939a.3408.3408,0,0,1,.3666-.3379A.3293.3293,0,0,1,95.2675,116.7939Z"/><path class="b57ffb57-0b27-4c97-b555-5d25db22ce2a" d="M99.2675,113.615a.354.354,0,0,1,.3661-.3437A.3253.3253,0,0,1,99.2675,113.615Z"/><path class="b57ffb57-0b27-4c97-b555-5d25db22ce2a" d="M51.49,114.1017a.3436.3436,0,0,1,.3663.3373A.3247.3247,0,0,1,51.49,114.1017Z"/><path class="b57ffb57-0b27-4c97-b555-5d25db22ce2a" d="M53.2535,115.5155a.34.34,0,0,1,.368.3362A.3288.3288,0,0,1,53.2535,115.5155Z"/><path class="b57ffb57-0b27-4c97-b555-5d25db22ce2a" d="M96.33,115.9732a.342.342,0,0,1,.36-.3461A.33.33,0,0,1,96.33,115.9732Z"/><path class="b57ffb57-0b27-4c97-b555-5d25db22ce2a" d="M94.6749,117.2623a.349.349,0,0,1,.37-.3364A.3263.3263,0,0,1,94.6749,117.2623Z"/><path class="b57ffb57-0b27-4c97-b555-5d25db22ce2a" d="M60.7872,120.5879c.2332-.0222.3285.1211.38.3166A.3179.3179,0,0,1,60.7872,120.5879Z"/><path class="b57ffb57-0b27-4c97-b555-5d25db22ce2a" d="M89.8452,120.9086a.3549.3549,0,0,1,.3724-.3345A.3211.3211,0,0,1,89.8452,120.9086Z"/><path class="b57ffb57-0b27-4c97-b555-5d25db22ce2a" d="M87.4924,122.5571a.3527.3527,0,0,1,.3713-.3349A.3219.3219,0,0,1,87.4924,122.5571Z"/><path class="b57ffb57-0b27-4c97-b555-5d25db22ce2a" d="M116.3492,97.144a.3529.3529,0,0,1,.345-.3634A.3251.3251,0,0,1,116.3492,97.144Z"/><path class="b57ffb57-0b27-4c97-b555-5d25db22ce2a" d="M84.3106,124.6732c.0488-.1969.1443-.3394.3764-.3219A.32.32,0,0,1,84.3106,124.6732Z"/><path class="b57ffb57-0b27-4c97-b555-5d25db22ce2a" d="M69.851,125.4065c.2279-.0131.328.1276.3854.32A.3145.3145,0,0,1,69.851,125.4065Z"/><path class="b57ffb57-0b27-4c97-b555-5d25db22ce2a" d="M114.8183,98.91a.3508.3508,0,0,1,.3465-.3624A.3269.3269,0,0,1,114.8183,98.91Z"/><path class="b57ffb57-0b27-4c97-b555-5d25db22ce2a" d="M115.6459,97.9683a.3464.3464,0,0,1,.342-.364A.3253.3253,0,0,1,115.6459,97.9683Z"/><path class="b57ffb57-0b27-4c97-b555-5d25db22ce2a" d="M39.7235,102.08a.3453.3453,0,0,1,.3476.3608A.3294.3294,0,0,1,39.7235,102.08Z"/><path class="b57ffb57-0b27-4c97-b555-5d25db22ce2a" d="M117.0558,96.3209a.354.354,0,0,1,.3433-.3666A.325.325,0,0,1,117.0558,96.3209Z"/><path class="b57ffb57-0b27-4c97-b555-5d25db22ce2a" d="M111.7474,102.2a.3663.3663,0,0,1,.357-.3578A.3216.3216,0,0,1,111.7474,102.2Z"/><path class="b57ffb57-0b27-4c97-b555-5d25db22ce2a" d="M118.2318,94.9076a.3569.3569,0,0,1,.3441-.3662A.3237.3237,0,0,1,118.2318,94.9076Z"/><path class="b57ffb57-0b27-4c97-b555-5d25db22ce2a" d="M91.14,119.9673a.3589.3589,0,0,1,.3716-.3374A.3211.3211,0,0,1,91.14,119.9673Z"/><path class="b57ffb57-0b27-4c97-b555-5d25db22ce2a" d="M49.49,112.4513a.35.35,0,0,1,.3674.339A.3237.3237,0,0,1,49.49,112.4513Z"/><path class="b57ffb57-0b27-4c97-b555-5d25db22ce2a" d="M44.9045,108.0813a.3547.3547,0,0,1,.35.3605A.3257.3257,0,0,1,44.9045,108.0813Z"/><path class="b57ffb57-0b27-4c97-b555-5d25db22ce2a" d="M94.1106,117.6247a.3375.3375,0,0,1,.3433-.2359C94.3869,117.606,94.3869,117.606,94.1106,117.6247Z"/><path class="b57ffb57-0b27-4c97-b555-5d25db22ce2a" d="M98.09,114.5564a.2282.2282,0,0,1,.2476-.2281A.21.21,0,0,1,98.09,114.5564Z"/><path class="b57ffb57-0b27-4c97-b555-5d25db22ce2a" d="M97.5005,115.0266a.223.223,0,0,1,.2514-.2209A.2115.2115,0,0,1,97.5005,115.0266Z"/><path class="b57ffb57-0b27-4c97-b555-5d25db22ce2a" d="M96.9188,115.5025a.2193.2193,0,0,1,.2435-.229A.2148.2148,0,0,1,96.9188,115.5025Z"/><path class="b57ffb57-0b27-4c97-b555-5d25db22ce2a" d="M53.9638,116.0924a.2315.2315,0,0,1,.25.2281A.2092.2092,0,0,1,53.9638,116.0924Z"/><path class="b57ffb57-0b27-4c97-b555-5d25db22ce2a" d="M54.3159,116.3334a.2234.2234,0,0,1,.2468.2247A.21.21,0,0,1,54.3159,116.3334Z"/><path class="b57ffb57-0b27-4c97-b555-5d25db22ce2a" d="M39.2567,101.4867a.2271.2271,0,0,1,.2269.2478A.2108.2108,0,0,1,39.2567,101.4867Z"/><path class="b57ffb57-0b27-4c97-b555-5d25db22ce2a" d="M55.6105,117.2761a.2207.2207,0,0,1,.2452.2245A.21.21,0,0,1,55.6105,117.2761Z"/><path class="b57ffb57-0b27-4c97-b555-5d25db22ce2a" d="M56.081,117.6261a.2378.2378,0,0,1,.255.2221A.2086.2086,0,0,1,56.081,117.6261Z"/><path class="b57ffb57-0b27-4c97-b555-5d25db22ce2a" d="M56.4347,117.8627a.232.232,0,0,1,.2516.2226A.2083.2083,0,0,1,56.4347,117.8627Z"/><path class="b57ffb57-0b27-4c97-b555-5d25db22ce2a" d="M93.6135,118.0851a.2329.2329,0,0,1,.252-.2253A.2091.2091,0,0,1,93.6135,118.0851Z"/><path class="b57ffb57-0b27-4c97-b555-5d25db22ce2a" d="M56.7873,118.1012a.2277.2277,0,0,1,.2514.22A.2083.2083,0,0,1,56.7873,118.1012Z"/><path class="b57ffb57-0b27-4c97-b555-5d25db22ce2a" d="M92.6753,118.7932a.2242.2242,0,0,1,.2505-.222A.2113.2113,0,0,1,92.6753,118.7932Z"/><path class="b57ffb57-0b27-4c97-b555-5d25db22ce2a" d="M57.8467,118.8069a.2291.2291,0,0,1,.2521.22A.208.208,0,0,1,57.8467,118.8069Z"/><path class="b57ffb57-0b27-4c97-b555-5d25db22ce2a" d="M58.2,119.0394a.237.237,0,0,1,.255.2207A.2072.2072,0,0,1,58.2,119.0394Z"/><path class="b57ffb57-0b27-4c97-b555-5d25db22ce2a" d="M91.7377,119.5035a.218.218,0,0,1,.2478-.2244A.218.218,0,0,1,91.7377,119.5035Z"/><path class="b57ffb57-0b27-4c97-b555-5d25db22ce2a" d="M58.7876,119.4009c.1552-.01.2288.0724.2469.2178A.21.21,0,0,1,58.7876,119.4009Z"/><path class="b57ffb57-0b27-4c97-b555-5d25db22ce2a" d="M90.79,120.2044a.2324.2324,0,0,1,.25-.2247A.2086.2086,0,0,1,90.79,120.2044Z"/><path class="b57ffb57-0b27-4c97-b555-5d25db22ce2a" d="M90.3214,120.5587a.2292.2292,0,0,1,.248-.2281A.21.21,0,0,1,90.3214,120.5587Z"/><path class="b57ffb57-0b27-4c97-b555-5d25db22ce2a" d="M40.3151,102.783a.2309.2309,0,0,1,.2312.2448A.21.21,0,0,1,40.3151,102.783Z"/><path class="b57ffb57-0b27-4c97-b555-5d25db22ce2a" d="M89.4952,121.1459a.2316.2316,0,0,1,.2507-.2242A.2088.2088,0,0,1,89.4952,121.1459Z"/><path class="b57ffb57-0b27-4c97-b555-5d25db22ce2a" d="M61.6117,121.0563c.1572-.0187.2283.0654.25.209A.2087.2087,0,0,1,61.6117,121.0563Z"/><path class="b57ffb57-0b27-4c97-b555-5d25db22ce2a" d="M62.4357,121.5259c.1555-.0169.23.0646.2526.2084A.2079.2079,0,0,1,62.4357,121.5259Z"/><path class="b57ffb57-0b27-4c97-b555-5d25db22ce2a" d="M88.3219,121.9719a.22.22,0,0,1,.2477-.2217A.21.21,0,0,1,88.3219,121.9719Z"/><path class="b57ffb57-0b27-4c97-b555-5d25db22ce2a" d="M63.73,122.2321c.157-.0183.2291.0655.2515.2091A.2084.2084,0,0,1,63.73,122.2321Z"/><path class="b57ffb57-0b27-4c97-b555-5d25db22ce2a" d="M87.1376,122.7915a.2373.2373,0,0,1,.2542-.2221A.2074.2074,0,0,1,87.1376,122.7915Z"/><path class="b57ffb57-0b27-4c97-b555-5d25db22ce2a" d="M86.7866,123.0282a.2386.2386,0,0,1,.2515-.2265A.2085.2085,0,0,1,86.7866,123.0282Z"/><path class="b57ffb57-0b27-4c97-b555-5d25db22ce2a" d="M86.4346,123.2642a.2346.2346,0,0,1,.2509-.225A.2087.2087,0,0,1,86.4346,123.2642Z"/><path class="b57ffb57-0b27-4c97-b555-5d25db22ce2a" d="M86.0821,123.5a.23.23,0,0,1,.2506-.2233A.2085.2085,0,0,1,86.0821,123.5Z"/><path class="b57ffb57-0b27-4c97-b555-5d25db22ce2a" d="M40.9051,103.4865a.23.23,0,0,1,.2281.2482A.21.21,0,0,1,40.9051,103.4865Z"/><path class="b57ffb57-0b27-4c97-b555-5d25db22ce2a" d="M85.7316,123.7368a.2264.2264,0,0,1,.2482-.2237A.2093.2093,0,0,1,85.7316,123.7368Z"/><path class="b57ffb57-0b27-4c97-b555-5d25db22ce2a" d="M85.0192,124.204a.2379.2379,0,0,1,.2539-.2228A.2077.2077,0,0,1,85.0192,124.204Z"/><path class="b57ffb57-0b27-4c97-b555-5d25db22ce2a" d="M68.91,124.931c.1542-.01.2274.0749.2531.2157A.2077.2077,0,0,1,68.91,124.931Z"/><path class="b57ffb57-0b27-4c97-b555-5d25db22ce2a" d="M69.3808,125.1675c.1553-.0115.228.0735.2518.2155A.2084.2084,0,0,1,69.3808,125.1675Z"/><path class="b57ffb57-0b27-4c97-b555-5d25db22ce2a" d="M82.9,125.4984a.22.22,0,0,1,.2591-.2084A.2111.2111,0,0,1,82.9,125.4984Z"/><path class="b57ffb57-0b27-4c97-b555-5d25db22ce2a" d="M59.9642,120.1111c.1567-.0156.2289.0682.25.2123A.209.209,0,0,1,59.9642,120.1111Z"/><path class="b57ffb57-0b27-4c97-b555-5d25db22ce2a" d="M72.3232,126.7a.2307.2307,0,0,1,.2611.2075A.2053.2053,0,0,1,72.3232,126.7Z"/><path class="b57ffb57-0b27-4c97-b555-5d25db22ce2a" d="M73.0291,127.0553c.1567-.0166.2284.0685.2525.2107A.208.208,0,0,1,73.0291,127.0553Z"/><path class="b57ffb57-0b27-4c97-b555-5d25db22ce2a" d="M43.0209,105.9634a.2277.2277,0,0,1,.2324.2422A.2112.2112,0,0,1,43.0209,105.9634Z"/><path class="b57ffb57-0b27-4c97-b555-5d25db22ce2a" d="M74.7961,127.8673l.2352.1161C74.8726,128.0986,74.85,128.0876,74.7961,127.8673Z"/><path class="b57ffb57-0b27-4c97-b555-5d25db22ce2a" d="M103.0377,110.4393a.2256.2256,0,0,1,.2441-.23A.2115.2115,0,0,1,103.0377,110.4393Z"/><path class="b57ffb57-0b27-4c97-b555-5d25db22ce2a" d="M102.2124,111.1447a.2247.2247,0,0,1,.246-.2272A.2113.2113,0,0,1,102.2124,111.1447Z"/><path class="b57ffb57-0b27-4c97-b555-5d25db22ce2a" d="M119.1721,93.7306a.2222.2222,0,0,1,.2325-.242A.2139.2139,0,0,1,119.1721,93.7306Z"/><path class="b57ffb57-0b27-4c97-b555-5d25db22ce2a" d="M118.7066,94.32a.22.22,0,0,1,.2245-.2451A.21.21,0,0,1,118.7066,94.32Z"/><path class="b57ffb57-0b27-4c97-b555-5d25db22ce2a" d="M100.0956,112.9111a.2227.2227,0,0,1,.2439-.2291A.2119.2119,0,0,1,100.0956,112.9111Z"/><path class="b57ffb57-0b27-4c97-b555-5d25db22ce2a" d="M71.3825,126.2215a.2426.2426,0,0,1,.2616.2141A.2053.2053,0,0,1,71.3825,126.2215Z"/><path class="b9c767c9-dd4a-4c04-97ef-f2799173678d" d="M37.2318,148.1107a3.3646,3.3646,0,0,1-.1634,1.4457,3.5638,3.5638,0,0,1-2.7932,2.3312,4.3863,4.3863,0,0,1-1.8675-.0034,4.8693,4.8693,0,0,1-.9953-.3386,7.6766,7.6766,0,0,1-1.989-1.3477,14.1866,14.1866,0,0,1-2.7026-3.388,8.55,8.55,0,0,1-1.0192-3.0445,5.467,5.467,0,0,1-.1009-1.2253,6.9679,6.9679,0,0,1,.7752-3.0474A3.755,3.755,0,0,1,29.6844,137.5a4.5752,4.5752,0,0,1,3.3325,1.3629,10.4111,10.4111,0,0,1,2.3016,3.0239,21.2282,21.2282,0,0,1,1.3967,3.294,19.9251,19.9251,0,0,1,.5071,2.05A4.4886,4.4886,0,0,1,37.2318,148.1107Z"/><path class="a0ad3a60-4ae2-4b4b-8577-21c555d4aae6" d="M34.6783,132.6961a1.8917,1.8917,0,0,1-2.58,1.8578,3.2179,3.2179,0,0,1-1.6022-1.2294,4.1844,4.1844,0,0,1-.7829-2.5946,2.11,2.11,0,0,1,.3857-1.1509,1.8052,1.8052,0,0,1,1.9672-.7147,2.4964,2.4964,0,0,1,1.6431,1.3173c.2282.4323.4591.8632.6856,1.2964A2.1968,2.1968,0,0,1,34.6783,132.6961Z"/><path class="a0ad3a60-4ae2-4b4b-8577-21c555d4aae6" d="M25.5977,135.9024a2.0071,2.0071,0,0,1-.9048-.2479,3.0906,3.0906,0,0,1-1.67-2.8789,3.2649,3.2649,0,0,1,.8012-1.98,1.8357,1.8357,0,0,1,2.68-.1937,2.9933,2.9933,0,0,1,1.11,2.9772,7.2532,7.2532,0,0,1-.1581.8043,2.0427,2.0427,0,0,1-1.2312,1.401A3.0819,3.0819,0,0,1,25.5977,135.9024Z"/><path class="a1a602ab-3381-4a0b-9b06-0828a0c25d4c" d="M83.0421,86.2146a10.2781,10.2781,0,0,1-.7917,5.6813,9.6966,9.6966,0,0,1-2.0181,3.0063,9.0616,9.0616,0,0,1-4.2077,2.465.9068.9068,0,0,0-.1149.0242,6.0678,6.0678,0,0,1-2.6053.3064,4.3457,4.3457,0,0,1-.9307-.1117,10.4493,10.4493,0,0,1-4.1137-1.935,9.8823,9.8823,0,0,1-2.2315-2.5535,9.2741,9.2741,0,0,1-1.48-5.3646c.0648-.0363.1277-.1.1947-.1048a7.97,7.97,0,0,0,3.0213-.8749,14.7074,14.7074,0,0,0,4.0743-2.9311,14.9888,14.9888,0,0,0,1.4236-1.5569c.0281-.0387.1006-.045.1518-.0661a1.3766,1.3766,0,0,1,.4046.5026A7.1543,7.1543,0,0,0,75.521,84.54a8.9546,8.9546,0,0,0,4.1437,1.8107,8.34,8.34,0,0,0,2.2786-.0037C82.3083,86.294,82.6757,86.2582,83.0421,86.2146Z"/><path class="bdd36ddd-3b40-4262-a6ac-c5c6ecdad6bc" d="M73.9587,66.8292a18.9063,18.9063,0,0,1,5.6965.83,9.388,9.388,0,0,1,2.69,1.2948,4.7439,4.7439,0,0,1,1.01.9773,2.3028,2.3028,0,0,1-.0179,2.9323,5.47,5.47,0,0,1-1.711,1.4107,10.9977,10.9977,0,0,1-2.7332,1.0588,20,20,0,0,1-9.7176.0432,10.077,10.077,0,0,1-3.55-1.51,4.09,4.09,0,0,1-1.34-1.4523,2.2051,2.2051,0,0,1,.1906-2.3864,4.6077,4.6077,0,0,1,1.2714-1.2064,9.69,9.69,0,0,1,2.608-1.1964A19.0139,19.0139,0,0,1,73.9587,66.8292Zm-5.3528,5.1152a8.24,8.24,0,0,0,1.0692-.1683,2.7152,2.7152,0,0,0,.84-.4079,1.1116,1.1116,0,0,0,.1348-1.7409,1.3,1.3,0,0,0-.8467-.3605,4.9142,4.9142,0,0,1-.6437-.046,2.167,2.167,0,0,0-1.5285.2763,1.35,1.35,0,0,0-.716.82,1.2431,1.2431,0,0,0,.9584,1.512C68.1,71.8865,68.3366,71.9034,68.6059,71.9444Z"/><path class="b24f005c-af53-40b4-b5fe-a68541326769" d="M83.0421,86.2146c-.3664.0436-.7338.0794-1.0988.1323a8.34,8.34,0,0,1-2.2786.0037A8.9546,8.9546,0,0,1,75.521,84.54a7.1543,7.1543,0,0,1-1.7019-1.8381,1.3766,1.3766,0,0,0-.4046-.5026c-.0512.0211-.1237.0274-.1518.0661a14.9888,14.9888,0,0,1-1.4236,1.5569,14.7074,14.7074,0,0,1-4.0743,2.9311,7.97,7.97,0,0,1-3.0213.8749c-.067.0046-.13.0685-.1947.1048a4.2615,4.2615,0,0,0-.6342-.0776,6.4247,6.4247,0,0,1-3.41-.946,9.603,9.603,0,0,1-2.1775-1.5874c-.4068-.423-.7868-.8724-1.1659-1.3208a1.5471,1.5471,0,0,1-.2625-.4563A.7058.7058,0,0,1,57.04,82.53a.7265.7265,0,0,1,.8663-.1412,2.3061,2.3061,0,0,1,.52.3754c.2869.2665.556.5524.8309.8318a7.818,7.818,0,0,0,3.2271,1.9717,1.7338,1.7338,0,0,0,.458.0961,7.5054,7.5054,0,0,0,2.6194-.2276A11.0122,11.0122,0,0,0,70.507,82.503c.7548-.7416,1.4913-1.5017,2.2395-2.25a2.5363,2.5363,0,0,1,.4426-.381.678.678,0,0,1,1.0116.2289c.0446.0643.0819.1336.1228.2a9.9688,9.9688,0,0,0,3.828,3.5578,4.5915,4.5915,0,0,0,1.101.3981,7.4454,7.4454,0,0,0,3.4943-.0257,8.7041,8.7041,0,0,0,1.215-.4321,12.7815,12.7815,0,0,0,2.91-1.5177c.5845-.4253,1.13-.9056,1.6831-1.3723.344-.29.67-.6014,1.006-.9005a1.6565,1.6565,0,0,1,.2353-.1756c.4289-.2627.7134-.104,1.0081.2626a.51.51,0,0,1,.0477.336,1.9916,1.9916,0,0,1-.409,1.026,17.9458,17.9458,0,0,1-1.165,1.3972,10.5254,10.5254,0,0,1-3.05,2.1681,13.3722,13.3722,0,0,1-2.7472,1.0257A3.5475,3.5475,0,0,0,83.0421,86.2146Z"/><path class="ffab58d1-db02-410a-b9d3-18790082c510" d="M100.4352,62.9444a1.2521,1.2521,0,0,1,.9567,1.9862,1.3987,1.3987,0,0,1-1.9731.3456,1.1078,1.1078,0,0,1-.4645-1.23A1.6825,1.6825,0,0,1,100.4352,62.9444Z"/><path class="addae359-e53e-4d81-bf6c-c8619d18e0b2" d="M46.5146,63.2847a1.1483,1.1483,0,0,1,1.1048,1.54,1.394,1.394,0,0,1-1.9844.8177,1.13,1.13,0,0,1-.5114-1.3641A1.5269,1.5269,0,0,1,46.5146,63.2847Z"/><path class="ffab58d1-db02-410a-b9d3-18790082c510" d="M68.6059,71.9444c-.2693-.041-.5061-.0579-.7328-.115a1.2431,1.2431,0,0,1-.9584-1.512,1.35,1.35,0,0,1,.716-.82,2.167,2.167,0,0,1,1.5285-.2763,4.9142,4.9142,0,0,0,.6437.046,1.3,1.3,0,0,1,.8467.3605,1.1116,1.1116,0,0,1-.1348,1.7409,2.7152,2.7152,0,0,1-.84.4079A8.24,8.24,0,0,1,68.6059,71.9444Z"/><path class="b5f7d9c8-705a-4c9e-bff8-364955e3ffd4" d="M33.5289,94.1971c18.7892,15.4173,56.6356,24.1377,86.7819-2.2331-6.43,13.0634-36.4377,35.1048-44.2206,36.8974C39.6576,112.21,33.5289,94.1971,33.5289,94.1971Z"/><path class="a1a602ab-3381-4a0b-9b06-0828a0c25d4c" d="M112.2412,4.0111c-.7343,3.2586,2.4921,15.7814,6.69,28.0086,5.4192,15.7841,2.9364,26.769,5.4192,29.627s10.7467-5.2922,15.0139-8.8863,10.1638-10.7321,11.7931-15.0769,2.0173-7.4483.388-11.0173-6.8306-12.8793-15.9067-18.0776-18.3666-8.7566-20.8205-7.52S112.2412,4.0111,112.2412,4.0111Z"/><path class="a1a602ab-3381-4a0b-9b06-0828a0c25d4c" d="M40.3494,3.9289c.7343,3.2587-2.4921,15.7815-6.69,28.0087C28.24,47.7217,30.7229,58.7066,28.24,61.5646s-10.7467-5.2922-15.014-8.8863S3.0624,41.9462,1.4331,37.6014s-2.0172-7.4483-.3879-11.0173S7.8757,13.7048,16.9518,8.5065,35.3184-.25,37.7723.986,40.3494,3.9289,40.3494,3.9289Z"/></g></g></svg>