<svg xmlns="http://www.w3.org/2000/svg" width="16.4893mm" height="19.7998mm" viewBox="0 0 46.7413 56.1255"><defs><style>.a71cc425-ff3e-4435-9ae9-3b118dc8ac35{fill:#edaa25;}.bad4d7ef-cdb2-4542-a03a-8b5f01797a56{fill:#153b2f;}.beda0c20-e104-4152-b611-63384af25be0{fill:#e25c27;}.b42e759d-c66e-49b8-9edc-c19b351e1719{fill:#e25d28;}.bd367d93-6b30-4b1e-b9ed-111d7fdb87c8{fill:#ebab2a;}.e2fef77f-5b1a-4079-81c4-927b2edf7ff0{fill:#edac2c;}.ece5149e-87a1-4f23-9575-e7e8943b733d{fill:#e35f27;}.b68c8349-5c8d-4081-b1c4-d5b835f6c57d{fill:#25412f;}.eb987b6f-45f7-41aa-b57a-0f1ed5e3386b{fill:#2b4430;}.a30406fb-8f94-4b20-8840-bbdd7e6be76e{fill:#ede4c0;}.f5d8b885-d14f-46d6-b168-93b119dbbf7a{fill:#ece4be;}</style></defs><g id="b74b938b-c6a8-4da2-9ebc-daec13d5e6f1" data-name="Calque 2"><g id="a27aff59-cd9d-44e8-93a1-592cfd4c30ef" data-name="Calque 1"><path class="a71cc425-ff3e-4435-9ae9-3b118dc8ac35" d="M10.0068,23.3263a.5409.5409,0,0,0,.2889-.4458.7862.7862,0,0,1,.026-.1831,6.0866,6.0866,0,0,0,.1856-1.7608c.01-.2467.0085-.494.01-.741a4.9293,4.9293,0,0,1,.0884-.8831c.0435-.2294.053-.4651.0813-.6975q.0559-.4585.1183-.9162c.0133-.0978.0457-.194.0506-.2918.024-.4828.15-.95.2194-1.4252a8.598,8.598,0,0,1,.3336-1.4011c.0985-.3044.1777-.6153.2809-.9181a17.1636,17.1636,0,0,1,.6643-1.723A20.0486,20.0486,0,0,1,13.5419,9.807,6.3269,6.3269,0,0,1,15.08,8.1683a12.0033,12.0033,0,0,1,3.0816-1.7432c.5054-.1924,1.0241-.3523,1.5481-.4969.3928-.1084.79-.1973,1.1854-.2874.5163-.1175,1.0426-.1989,1.5686-.2651.6364-.08,1.2765-.1333,1.9159-.1876a3.792,3.792,0,0,0,.9932-.278,19.8235,19.8235,0,0,0,2.06-.914,10.4884,10.4884,0,0,0,2.8531-2.0282A18.239,18.239,0,0,0,31.7665.3624.9573.9573,0,0,1,32.7936.0279a.4985.4985,0,0,1,.169.07,1.1539,1.1539,0,0,1,.5753.86,4.415,4.415,0,0,1,.0132,1.1443c-.0168.1344-.02.2707-.0262.4063a4.4138,4.4138,0,0,1-.0193.4809c-.08.5112-.1563,1.023-.2866,1.5253a8.5744,8.5744,0,0,1-.4224,1.26.3655.3655,0,0,0-.0127.1452.1091.1091,0,0,0,.126.1033,1.4322,1.4322,0,0,0,.2724-.11c.48-.2786.9562-.5626,1.4339-.8445a.84.84,0,0,1,.7826-.0308.5134.5134,0,0,1,.3194.5036A4.9479,4.9479,0,0,1,35.6,6.6793a2.0431,2.0431,0,0,0-.08.36,4.11,4.11,0,0,1-.2767.9952,13.5594,13.5594,0,0,1-.5352,1.293c-.1378.3014-.3042.59-.4667.88-.2713.4835-.5492.9633-.8252,1.4442a.7942.7942,0,0,0-.045.6119c.0861.3467.1851.69.2785,1.0351a.5028.5028,0,0,1,.0162.0723c.0662.5633.2032,1.1168.235,1.6849q.0114.2034.0276.4064c.0387.48.0847.9591.116,1.4393.0273.4186.05.8382.0542,1.2575.0055.6174-.0051,1.2351-.0152,1.8526-.0032.1971-.0214.3944-.0415.5907a9.6267,9.6267,0,0,0,.0873,1.8831,3.4591,3.4591,0,0,0,.0847.3979c.0389.1807.076.3618.1161.5422.0267.12.0562.24.0864.3594.0272.1075.0648.213.0847.3217a16.1076,16.1076,0,0,0,.4524,1.6,3.2346,3.2346,0,0,0,.14.3377.4054.4054,0,0,1-.1-.0442,9.7039,9.7039,0,0,0-.89-.655,11.7216,11.7216,0,0,0-2.4176-1.178,10.2539,10.2539,0,0,0-1.2792-.345,2.5209,2.5209,0,0,0-1.1306.0012,5.729,5.729,0,0,0-2.4957,1.2961,6.606,6.606,0,0,0-1.1262,1.314,6.0431,6.0431,0,0,0-.7613,1.5953,3.114,3.114,0,0,0-.2009.9337c.0013.4566,0,.9132.0007,1.37a.6344.6344,0,0,0,.0134.22,1.8717,1.8717,0,0,1,.0651.5852.3661.3661,0,0,0-.04.0621,8.6457,8.6457,0,0,1-1.3059,2.2275,7.6472,7.6472,0,0,1-2.2888,1.967,4.7727,4.7727,0,0,1-2.5824.6725c-.1231-.0067-.247-.0044-.37-.0019a4.0733,4.0733,0,0,1-1.2748-.1938,4.4753,4.4753,0,0,1-2.347-1.5986,3.3934,3.3934,0,0,1-.7918-2.2223,1.1032,1.1032,0,0,0-.014-.2208.1482.1482,0,0,0-.1938-.1192c-.1406.0453-.2773.103-.4186.1458a8.01,8.01,0,0,1-2.53.2641,4.5909,4.5909,0,0,1-.955-.1051,4.24,4.24,0,0,1-1.4393-.662,3.4863,3.4863,0,0,0-.3536-.1921,1.32,1.32,0,0,0-.3459-.514c-.1161-.1272-.2335-.2539-.34-.3893A1.7813,1.7813,0,0,1,7.063,28.25a6.1114,6.1114,0,0,1,.6123-.7848,6.23,6.23,0,0,0,.6209-.7788c.2248-.3386.4314-.69.6625-1.0238a9.0917,9.0917,0,0,0,1.0175-2.0817A1.1016,1.1016,0,0,0,10.0068,23.3263Zm7.65-5.8051a1.9931,1.9931,0,0,0-.8384.209,2.6987,2.6987,0,0,0-1.1934,1.0636,5.8988,5.8988,0,0,0-.4039.8654.9369.9369,0,0,0-.0852.3561,4.7713,4.7713,0,0,1-.1159.7641,1.32,1.32,0,0,0-.0361.2172,2.9,2.9,0,0,0,.121,1.24.364.364,0,0,1,.0209.1083,2.5066,2.5066,0,0,0,.5632,1.2586c.33.4123.67.8171,1.0061,1.2243a.3919.3919,0,0,0,.0842.0716.1644.1644,0,0,0,.2431-.0838,1.4645,1.4645,0,0,0,.0259-.2926,2.6756,2.6756,0,0,1,.2309-1.0736,4.98,4.98,0,0,1,1.143-1.7022c.1187-.1077.2314-.2224.3414-.3391a1.9568,1.9568,0,0,1,.5577-.4205,1.7612,1.7612,0,0,0,.5566-.4792,1.2514,1.2514,0,0,0,.2657-.8994,2.1532,2.1532,0,0,0-.6155-1.3492A2.41,2.41,0,0,0,17.6563,17.5212Zm7.3273-.3336-.0343-.0015c0-.2343.0136-.4695-.0027-.7026a1.911,1.911,0,0,0-.63-1.3359,1.17,1.17,0,0,0-.8746-.3326,1.3733,1.3733,0,0,0-.8326.3564,2.4881,2.4881,0,0,0-.6946,1.3206,7.4539,7.4539,0,0,0-.1579,1.17,4.8035,4.8035,0,0,0,.096,1.3229,2.2541,2.2541,0,0,0,.39.8641,1.2991,1.2991,0,0,0,.8259.5165.9812.9812,0,0,0,.4735-.0194,1.3778,1.3778,0,0,0,.764-.55,3.9234,3.9234,0,0,0,.5828-1.5429A9.28,9.28,0,0,0,24.9836,17.1876Zm-12.2851,1.02c.0268.2323.037.4681.0843.6961a2.16,2.16,0,0,0,.3957.9476.931.931,0,0,0,.8028.3812,1,1,0,0,0,.8153-.5044c.1074-.1642.1791-.3513.2807-.52a3,3,0,0,0,.3551-1.604,7.1682,7.1682,0,0,0-.2052-1.5376,1.3145,1.3145,0,0,0-.3286-.6547c-.3606-.36-.5654-.4478-.9671-.1851a2.5524,2.5524,0,0,0-.209.1518,2.0063,2.0063,0,0,0-.5617.8144,6.3529,6.3529,0,0,0-.3023.9889A5.39,5.39,0,0,0,12.6985,18.2072Z"/><path class="bad4d7ef-cdb2-4542-a03a-8b5f01797a56" d="M7.866,31.1606a3.4863,3.4863,0,0,1,.3536.1921,4.24,4.24,0,0,0,1.4393.662,4.5909,4.5909,0,0,0,.955.1051,8.01,8.01,0,0,0,2.53-.2641c.1413-.0428.278-.1005.4186-.1458a.1482.1482,0,0,1,.1938.1192,1.1032,1.1032,0,0,1,.014.2208,3.3934,3.3934,0,0,0,.7918,2.2223,4.4753,4.4753,0,0,0,2.347,1.5986,4.0733,4.0733,0,0,0,1.2748.1938c.1235-.0025.2474-.0048.37.0019a4.7727,4.7727,0,0,0,2.5824-.6725,7.6472,7.6472,0,0,0,2.2888-1.967A8.6457,8.6457,0,0,0,24.7318,31.2a.3622.3622,0,0,1,.04-.0619,1.6414,1.6414,0,0,1,.29.6322c.114.3256.2146.6573.3514.9731a11.964,11.964,0,0,0,2.2856,3.3885,18.8352,18.8352,0,0,0,1.3813,1.34,23.7844,23.7844,0,0,0,1.98,1.5509,20.82,20.82,0,0,0,4.0381,2.24,16.2215,16.2215,0,0,0,2.1308.735c.346.0894.6891.1943,1.0394.2614a10.0838,10.0838,0,0,0,1.9761.265c.7778-.0061,1.5557.0007,2.3335-.009a4.4362,4.4362,0,0,0,.66-.0694,8.6061,8.6061,0,0,0,1.8673-.4373.7177.7177,0,0,1,.1824-.0236,10.6158,10.6158,0,0,1,.6911,1.75c.1107.3645.1693.7452.2846,1.108A6.6852,6.6852,0,0,1,46.48,46.08a2.0967,2.0967,0,0,1-.2117,1.2576,2.017,2.017,0,0,1-.9962.9005,4.5706,4.5706,0,0,1-1.7351.3282,13.5523,13.5523,0,0,1-2.4774-.08,4.1458,4.1458,0,0,0-.4429-.034,9.5406,9.5406,0,0,1-1.4725-.15c-.1814-.0348-.3678-.0425-.551-.0687-.195-.0279-.3892-.0619-.5834-.0956-.1336-.0231-.2664-.0508-.4-.0756-.2545-.0473-.5092-.0937-.7636-.1413-.097-.0182-.1928-.0475-.2905-.0564a2.301,2.301,0,0,1-.6111-.1407.6176.6176,0,0,0-.6845.125c-.3221.2868-.6651.55-1.0029.8192a9.6393,9.6393,0,0,1-2.6151,1.5137c-.6338.2379-1.281.4406-1.9237.6543-.3156.105-.634.2016-.9526.2972a2.1744,2.1744,0,0,1-.5751.1146c-.005-.3025.043-.7063.03-1.0013-.0105-.2457-.0284-.4919-.0582-.736a1.3306,1.3306,0,0,0-.3063-.7023A1.0067,1.0067,0,0,0,26.38,48.73a1.3915,1.3915,0,0,0-.4194.9939c-.0282.5166.0523,1.0514.03,1.5684a2.3284,2.3284,0,0,1,.0119.2386,3.4867,3.4867,0,0,1-.382.0311c-.2092.0112-.419.0153-.6286.0155-.714.0005-1.428-.0018-2.1421-.003-.5015-.06-1.0032-.1188-1.5044-.1816a.5147.5147,0,0,0-.3918.0474c-.1179-.0241-.2364-.0469-.3543-.072a15.587,15.587,0,0,1-1.6427-.4758.691.691,0,0,0-.3715-.2872,17.5421,17.5421,0,0,1-4.3744-2.3763,16.4607,16.4607,0,0,1-3.3938-3.2861,12.5839,12.5839,0,0,1-1.7582-3.157c-.1706-.4617-.35-.9206-.5073-1.3868-.1063-.3142-.1826-.6386-.2708-.9589q-.1568-.57-.31-1.14c-.0253-.095-.0393-.1931-.0595-.29-.0379-.181-.0767-.3617-.1146-.5427a1.9371,1.9371,0,0,1-.0708-.3624,1.5038,1.5038,0,0,0-.3163-.9266c.0042-.16.0121-.32.0121-.4792a19.6235,19.6235,0,0,1,.1324-2.8735C7.6362,32.2656,7.77,31.7172,7.866,31.1606Z"/><path class="beda0c20-e104-4152-b611-63384af25be0" d="M45.2878,41.985a.7177.7177,0,0,0-.1824.0236,8.6061,8.6061,0,0,1-1.8673.4373,4.4362,4.4362,0,0,1-.66.0694c-.7778.01-1.5557.0029-2.3335.009a10.0838,10.0838,0,0,1-1.9761-.265c-.35-.0671-.6934-.172-1.0394-.2614a16.2215,16.2215,0,0,1-2.1308-.735,20.82,20.82,0,0,1-4.0381-2.24,23.7844,23.7844,0,0,1-1.98-1.5509,18.8352,18.8352,0,0,1-1.3813-1.34,11.964,11.964,0,0,1-2.2856-3.3885c-.1368-.3158-.2374-.6475-.3514-.9731a1.6414,1.6414,0,0,0-.29-.6322,1.8693,1.8693,0,0,0-.065-.5854.6344.6344,0,0,1-.0134-.22c-.0009-.4566.0006-.9132-.0007-1.37a3.114,3.114,0,0,1,.2009-.9337,6.0431,6.0431,0,0,1,.7613-1.5953,6.606,6.606,0,0,1,1.1262-1.314,5.729,5.729,0,0,1,2.4957-1.2961,2.5209,2.5209,0,0,1,1.1306-.0012,10.2539,10.2539,0,0,1,1.2792.345,11.7216,11.7216,0,0,1,2.4176,1.178,9.7039,9.7039,0,0,1,.89.655.4054.4054,0,0,0,.1.0442,4.04,4.04,0,0,0,.801.7638,13.5628,13.5628,0,0,1,2.21,2.1277c.5427.643,1.0184,1.3341,1.5007,2.021.6457.92,1.2781,1.8491,1.9411,2.7562a23.1654,23.1654,0,0,0,1.5407,1.8963c.6972.7687,1.4385,1.493,2.1752,2.2221.2192.217.4562.4158.6793.6289a2.8362,2.8362,0,0,1,.7328,1.1416,1.0283,1.0283,0,0,1,.0631.4355,1.9028,1.9028,0,0,1-1.0909,1.6449A.7966.7966,0,0,0,45.2878,41.985Z"/><path class="b42e759d-c66e-49b8-9edc-c19b351e1719" d="M7.866,31.1606c-.0958.5566-.23,1.105-.3121,1.6655A19.6235,19.6235,0,0,0,7.4215,35.7c0,.16-.0079.3194-.0121.4792a5.1431,5.1431,0,0,1-.4713-.2851,10.29,10.29,0,0,1-1.447-1.3221,23.7515,23.7515,0,0,1-2.5492-3.4035A21.075,21.075,0,0,1,1.63,28.684c-.2572-.5727-.4822-1.16-.6859-1.7556-.18-.5259-.3351-1.0577-.4772-1.5936-.0917-.3454-.1681-.6965-.2249-1.0493a14.2353,14.2353,0,0,1-.2408-2.5414,4.462,4.462,0,0,1,.2059-1.238,1.713,1.713,0,0,1,.5516-.8182,1.3258,1.3258,0,0,1,.8184-.3045,2.0463,2.0463,0,0,1,.8688.1494,16.771,16.771,0,0,1,2.2185,1.1838,33.0633,33.0633,0,0,0,3.3481,1.82,15.0726,15.0726,0,0,0,1.8566.7351c.047.0141.0916.0363.1373.0548a1.1016,1.1016,0,0,1-.0306.2549,9.0917,9.0917,0,0,1-1.0175,2.0817c-.2311.3342-.4377.6852-.6625,1.0238a6.23,6.23,0,0,1-.6209.7788,6.1114,6.1114,0,0,0-.6123.7848,1.7813,1.7813,0,0,0,.1176,2.007c.106.1354.2234.2621.34.3893A1.32,1.32,0,0,1,7.866,31.1606Z"/><path class="bd367d93-6b30-4b1e-b9ed-111d7fdb87c8" d="M25.96,49.7237A1.3915,1.3915,0,0,1,26.38,48.73a1.0067,1.0067,0,0,1,1.477.0794,1.3306,1.3306,0,0,1,.3063.7023c.03.2441.0477.49.0582.736.0126.295-.0748,1.8229-.0738,2.0453.0031.7413,0,1.4827.0083,2.2239a1.9121,1.9121,0,0,1-.17.7535.8686.8686,0,0,1-.51.51,2.9539,2.9539,0,0,1-.5706.1473c-.4274.0616-.8591.0942-1.2864.1567a4.835,4.835,0,0,1-1.1083.0185c-.1846-.0155-.37-.0217-.5535-.0475a1.3733,1.3733,0,0,1-.8938-.3939,1.0148,1.0148,0,0,1,.2705-1.5822,1.5831,1.5831,0,0,1,.7456-.1962c.2466,0,.4943.0081.74.0323a3.1847,3.1847,0,0,0,.8122-.0319.3916.3916,0,0,0,.3793-.3865,1.3759,1.3759,0,0,0,.0163-.2213c.0022-.42.0023-.84.0029-1.26,0-.037,0-.0742-.0035-.1111C26.0052,51.6621,25.9322,50.24,25.96,49.7237Z"/><path class="e2fef77f-5b1a-4079-81c4-927b2edf7ff0" d="M18.9569,50.8923a15.587,15.587,0,0,0,1.6427.4758c.1179.0251.2364.0479.3543.072.0054.8269.0071,1.6535.0189,2.48a2.982,2.982,0,0,1-.0764.8807,1.0818,1.0818,0,0,1-.7453.7565,2.0352,2.0352,0,0,1-.4712.0941,18.08,18.08,0,0,1-2.736.11,3.009,3.009,0,0,1-.8631-.1962,1.0038,1.0038,0,0,1-.599-1.2444.9706.9706,0,0,1,.6324-.6752,2.1058,2.1058,0,0,1,.9849-.1027,5.4934,5.4934,0,0,0,1.33-.0111c.0245-.0032.0495-.0022.0739-.0059.2716-.0412.3579-.1319.3723-.4149.0176-.3451.0266-.6907.039-1.0361Q18.936,51.4838,18.9569,50.8923Z"/><path class="ece5149e-87a1-4f23-9575-e7e8943b733d" d="M17.6563,17.5212a2.41,2.41,0,0,1,1.8713.7384,2.1532,2.1532,0,0,1,.6155,1.3492,1.2514,1.2514,0,0,1-.2657.8994,1.7612,1.7612,0,0,1-.5566.4792,1.9568,1.9568,0,0,0-.5577.4205c-.11.1167-.2227.2314-.3414.3391a4.98,4.98,0,0,0-1.143,1.7022,2.6756,2.6756,0,0,0-.2309,1.0736,1.4645,1.4645,0,0,1-.0259.2926.1644.1644,0,0,1-.2431.0838.3919.3919,0,0,1-.0842-.0716c-.3365-.4072-.676-.812-1.0061-1.2243a2.5066,2.5066,0,0,1-.5632-1.2586.364.364,0,0,0-.0209-.1083,2.9,2.9,0,0,1-.121-1.24,1.32,1.32,0,0,1,.0361-.2172,4.7713,4.7713,0,0,0,.1159-.7641.9369.9369,0,0,1,.0852-.3561,5.8988,5.8988,0,0,1,.4039-.8654A2.6987,2.6987,0,0,1,16.8179,17.73,1.9931,1.9931,0,0,1,17.6563,17.5212Z"/><path class="b68c8349-5c8d-4081-b1c4-d5b835f6c57d" d="M24.9836,17.1876a9.28,9.28,0,0,1-.0945,1.0658,3.9234,3.9234,0,0,1-.5828,1.5429,1.3778,1.3778,0,0,1-.764.55.9812.9812,0,0,1-.4735.0194,1.2991,1.2991,0,0,1-.8259-.5165,2.2541,2.2541,0,0,1-.39-.8641,4.8035,4.8035,0,0,1-.096-1.3229,7.4539,7.4539,0,0,1,.1579-1.17,2.4881,2.4881,0,0,1,.6946-1.3206,1.3733,1.3733,0,0,1,.8326-.3564,1.17,1.17,0,0,1,.8746.3326,1.911,1.911,0,0,1,.63,1.3359c.0163.2331.0027.4683.0027.7026Zm-1.4884-.4568c0-.0247.0021-.0618,0-.0986a.5149.5149,0,0,0-.4032-.507.5415.5415,0,0,0-.6108.3065.8022.8022,0,0,0,.0408.779.5009.5009,0,0,0,.7676.1025A.7031.7031,0,0,0,23.4952,16.7308Z"/><path class="eb987b6f-45f7-41aa-b57a-0f1ed5e3386b" d="M12.6985,18.2072a5.39,5.39,0,0,1,.16-1.0256,6.3529,6.3529,0,0,1,.3023-.9889,2.0063,2.0063,0,0,1,.5617-.8144,2.5524,2.5524,0,0,1,.209-.1518c.4017-.2627.6065-.1744.9671.1851a1.3145,1.3145,0,0,1,.3286.6547,7.1682,7.1682,0,0,1,.2052,1.5376,3,3,0,0,1-.3551,1.604c-.1016.1685-.1733.3556-.2807.52a1,1,0,0,1-.8153.5044.931.931,0,0,1-.8028-.3812,2.16,2.16,0,0,1-.3957-.9476C12.7355,18.6753,12.7253,18.44,12.6985,18.2072Zm1.6182-1.257a.6231.6231,0,0,0-.455-.5638.3661.3661,0,0,0-.18.0053.6568.6568,0,0,0-.4256.5536.6385.6385,0,0,0,.359.5971.4245.4245,0,0,0,.2488.017A.6589.6589,0,0,0,14.3167,16.95Z"/><path class="a30406fb-8f94-4b20-8840-bbdd7e6be76e" d="M23.4952,16.7308a.7031.7031,0,0,1-.2059.5824.5009.5009,0,0,1-.7676-.1025.8022.8022,0,0,1-.0408-.779.5415.5415,0,0,1,.6108-.3065.5149.5149,0,0,1,.4032.507C23.4973,16.669,23.4952,16.7061,23.4952,16.7308Z"/><path class="f5d8b885-d14f-46d6-b168-93b119dbbf7a" d="M14.3167,16.95a.6589.6589,0,0,1-.4529.6092.4245.4245,0,0,1-.2488-.017.6385.6385,0,0,1-.359-.5971.6568.6568,0,0,1,.4256-.5536.3661.3661,0,0,1,.18-.0053A.6231.6231,0,0,1,14.3167,16.95Z"/></g></g></svg>