<svg xmlns="http://www.w3.org/2000/svg" width="18.0818mm" height="15.6854mm" viewBox="0 0 51.2555 44.4626"><defs><style>.fa315673-74bb-4d59-a225-f94260a36920{fill:#114a38;}</style></defs><g id="be45abb8-57da-485d-aa5b-16d8415a825d" data-name="Calque 2"><g id="a11c52e8-4909-4454-a85b-bc3cdb0a8fdf" data-name="Calque 7"><path class="fa315673-74bb-4d59-a225-f94260a36920" d="M22.1637,44.34c-.93-.11-1.87-.1584-2.7924-.31A26.2457,26.2457,0,0,1,16.28,43.368a11.6336,11.6336,0,0,1-5.6984-3.2124,6.1077,6.1077,0,0,1-1.5675-3.9541,9.023,9.023,0,0,1,.32-2.78,8.8815,8.8815,0,0,1,.5379-1.4986c.5259-1.071,1.0511-2.148,1.668-3.1673a20.1847,20.1847,0,0,1,3.3278-3.9223,24.0032,24.0032,0,0,1,6.2311-4.3712,16.1057,16.1057,0,0,1,2.1629-.8993,7.6455,7.6455,0,0,1,3.4241-.262,11.0913,11.0913,0,0,1,4.3038,1.62c1.1014.6779,2.2254,1.3279,3.2728,2.0826a21.417,21.417,0,0,1,6.0692,6.9213c.4639.8662.8015,1.7994,1.2105,2.6958a7.9445,7.9445,0,0,1,.6429,3.8851,5.8849,5.8849,0,0,1-.6093,2.1817,7.141,7.141,0,0,1-1.4486,1.9949,9.2885,9.2885,0,0,1-2.3,1.5924,17.6291,17.6291,0,0,1-5.3763,1.6567c-1.1809.19-2.38.2672-3.5687.4087A45.91,45.91,0,0,1,22.1637,44.34Z"/><path class="fa315673-74bb-4d59-a225-f94260a36920" d="M18.2171.2218a7.2259,7.2259,0,0,1,3.9578,3.37,13.1977,13.1977,0,0,1,1.6393,4.4411,13.5524,13.5524,0,0,1,.2112,3.6071,10.5345,10.5345,0,0,1-.44,1.998,5.53,5.53,0,0,1-.89,1.8047,5.7136,5.7136,0,0,1-2.726,2.0894,6.0285,6.0285,0,0,1-3.5342.2153,5.8231,5.8231,0,0,1-2.7294-1.4667,10.0114,10.0114,0,0,1-2.256-3.2878,10.6873,10.6873,0,0,1-.8273-5.9613,16.17,16.17,0,0,1,.3353-2.1537,9.3428,9.3428,0,0,1,.864-2.024A5.7358,5.7358,0,0,1,14.0042.6969,4.7174,4.7174,0,0,1,15.0155.2542,5.3207,5.3207,0,0,1,18.2171.2218Z"/><path class="fa315673-74bb-4d59-a225-f94260a36920" d="M36.165.2705a5.3944,5.3944,0,0,1,3.156,2.3256A6.95,6.95,0,0,1,40.403,6.56,29.9367,29.9367,0,0,1,40.26,9.853a16.3715,16.3715,0,0,1-.885,3.8376,6.7173,6.7173,0,0,1-1.8433,2.7632,5.8185,5.8185,0,0,1-4.4371,1.4415,6.4558,6.4558,0,0,1-3.3468-1.1686,5.0541,5.0541,0,0,1-1.6789-2.0852A10.7145,10.7145,0,0,1,27.187,9.42a11.505,11.505,0,0,1,.4523-2.5644,15.9259,15.9259,0,0,1,1.0786-2.5082A10.4727,10.4727,0,0,1,30.535,1.8087,5.5246,5.5246,0,0,1,32.8888.2764,7.1118,7.1118,0,0,1,36.165.2705Z"/><path class="fa315673-74bb-4d59-a225-f94260a36920" d="M51.095,19.66a7.9426,7.9426,0,0,1-.8518,2.663,12.99,12.99,0,0,1-1.3731,2.09,8.5024,8.5024,0,0,1-2.245,1.9325,4.8924,4.8924,0,0,1-3.9918.5177,5.711,5.711,0,0,1-2.4058-1.39A3.9959,3.9959,0,0,1,39.0369,22.85a9.4043,9.4043,0,0,1,.448-3.5123,9.5218,9.5218,0,0,1,1.8271-3.4337A9.7943,9.7943,0,0,1,44.69,13.1658a4.5818,4.5818,0,0,1,5.8387,1.678,10.0457,10.0457,0,0,1,.5371,1.1742A9.8919,9.8919,0,0,1,51.095,19.66Z"/><path class="fa315673-74bb-4d59-a225-f94260a36920" d="M.0333,18.1754a5.6933,5.6933,0,0,1,.3245-2.5,4.19,4.19,0,0,1,1.8935-2.2941A4.7293,4.7293,0,0,1,5.7247,12.86a5.5883,5.5883,0,0,1,2.1909,1.1236,10.465,10.465,0,0,1,2.33,2.32A9.7644,9.7644,0,0,1,11.61,18.9608a8.86,8.86,0,0,1,.58,3.0927A4.7824,4.7824,0,0,1,9.1758,26.658a4.6744,4.6744,0,0,1-4.5635-.3305,10.765,10.765,0,0,1-3.4147-3.59A7.841,7.841,0,0,1,.0333,18.1754Z"/></g></g></svg>